%TF.GenerationSoftware,Altium Limited,Altium Designer,24.2.2 (26)*%
G04 Layer_Color=65535*
%FSLAX45Y45*%
%MOMM*%
%TF.SameCoordinates,979FBE80-878B-4EC3-91C7-7055811A0E5A*%
%TF.FilePolarity,Positive*%
%TF.FileFunction,Legend,Top*%
%TF.Part,Single*%
G01*
G75*
%TA.AperFunction,NonConductor*%
%ADD48C,0.25400*%
%ADD49C,0.25000*%
%ADD50C,0.60000*%
%ADD51C,0.20000*%
%ADD52C,0.12700*%
%ADD53C,0.50000*%
%ADD54C,0.15000*%
%ADD55C,0.17500*%
G36*
X17680688Y9750000D02*
X16705580D01*
Y9880600D01*
X17224094D01*
X17221030Y9880494D01*
X17218176Y9880283D01*
X17215430Y9879860D01*
X17212894Y9879332D01*
X17210674Y9878698D01*
X17208562Y9878064D01*
X17206554Y9877324D01*
X17204863Y9876585D01*
X17203384Y9875739D01*
X17202010Y9875000D01*
X17200848Y9874366D01*
X17200002Y9873732D01*
X17199263Y9873204D01*
X17198734Y9872781D01*
X17198418Y9872570D01*
X17198312Y9872464D01*
X17196727Y9870879D01*
X17195354Y9869294D01*
X17194191Y9867603D01*
X17193134Y9865807D01*
X17192290Y9864116D01*
X17191655Y9862426D01*
X17191022Y9860735D01*
X17190598Y9859150D01*
X17190176Y9857671D01*
X17189859Y9856297D01*
X17189754Y9855135D01*
X17189542Y9854078D01*
Y9853127D01*
X17189436Y9852493D01*
Y9852071D01*
Y9851965D01*
X17189542Y9849429D01*
X17189859Y9847105D01*
X17190387Y9844991D01*
X17190915Y9843195D01*
X17191444Y9841716D01*
X17191972Y9840659D01*
X17192078Y9840236D01*
X17192290Y9839919D01*
X17192395Y9839814D01*
Y9839708D01*
X17193558Y9837806D01*
X17194931Y9836115D01*
X17196304Y9834636D01*
X17197572Y9833474D01*
X17198734Y9832417D01*
X17199686Y9831783D01*
X17200319Y9831255D01*
X17200426Y9831149D01*
X17200531D01*
X17201587Y9830515D01*
X17202750Y9829881D01*
X17205391Y9828508D01*
X17208139Y9827134D01*
X17210780Y9825760D01*
X17212048Y9825232D01*
X17213316Y9824704D01*
X17214372Y9824175D01*
X17215324Y9823753D01*
X17216063Y9823436D01*
X17216592Y9823119D01*
X17217014Y9823013D01*
X17217120Y9822907D01*
X17219128Y9822062D01*
X17221030Y9821217D01*
X17222615Y9820477D01*
X17224094Y9819738D01*
X17225467Y9819104D01*
X17226524Y9818575D01*
X17227580Y9818047D01*
X17228426Y9817519D01*
X17229060Y9817096D01*
X17229694Y9816779D01*
X17230116Y9816462D01*
X17230539Y9816251D01*
X17230962Y9815934D01*
X17231068Y9815828D01*
X17232230Y9814666D01*
X17233182Y9813398D01*
X17233815Y9812130D01*
X17234238Y9810967D01*
X17234448Y9810016D01*
X17234660Y9809171D01*
Y9808643D01*
Y9808431D01*
X17234448Y9806635D01*
X17233920Y9805050D01*
X17233287Y9803571D01*
X17232442Y9802303D01*
X17231596Y9801352D01*
X17230962Y9800612D01*
X17230434Y9800190D01*
X17230222Y9799978D01*
X17229378Y9799344D01*
X17228320Y9798816D01*
X17226207Y9797971D01*
X17223776Y9797337D01*
X17221452Y9796914D01*
X17219339Y9796703D01*
X17218388Y9796597D01*
X17217543D01*
X17216908Y9796491D01*
X17215958D01*
X17213844Y9796597D01*
X17211942Y9796703D01*
X17210146Y9797020D01*
X17208456Y9797337D01*
X17206976Y9797654D01*
X17205708Y9798182D01*
X17204546Y9798605D01*
X17203490Y9799133D01*
X17202538Y9799556D01*
X17201799Y9800084D01*
X17201164Y9800507D01*
X17200636Y9800824D01*
X17200319Y9801246D01*
X17200002Y9801458D01*
X17199896Y9801563D01*
X17199791Y9801669D01*
X17199263Y9802303D01*
X17198840Y9803148D01*
X17198206Y9804945D01*
X17197572Y9806952D01*
X17197255Y9809065D01*
X17196938Y9810967D01*
Y9811813D01*
X17196832Y9812552D01*
X17196727Y9813186D01*
Y9813609D01*
Y9813926D01*
Y9814032D01*
X17177602Y9812975D01*
X17177707Y9809382D01*
X17178024Y9806107D01*
X17178552Y9803148D01*
X17178870Y9801880D01*
X17179187Y9800612D01*
X17179610Y9799556D01*
X17179926Y9798499D01*
X17180243Y9797654D01*
X17180455Y9797020D01*
X17180772Y9796386D01*
X17180878Y9795963D01*
X17181088Y9795752D01*
Y9795646D01*
X17181828Y9794273D01*
X17182779Y9793005D01*
X17184682Y9790680D01*
X17186900Y9788672D01*
X17189014Y9786982D01*
X17191022Y9785608D01*
X17191866Y9785080D01*
X17192606Y9784657D01*
X17193240Y9784340D01*
X17193663Y9784129D01*
X17193980Y9783917D01*
X17194086D01*
X17197678Y9782544D01*
X17201376Y9781487D01*
X17204968Y9780748D01*
X17206766Y9780431D01*
X17208456Y9780219D01*
X17209935Y9780008D01*
X17211414Y9779902D01*
X17212682Y9779797D01*
X17213739D01*
X17214584Y9779691D01*
X17215852D01*
X17219128Y9779797D01*
X17222298Y9780114D01*
X17225256Y9780536D01*
X17228003Y9781065D01*
X17230539Y9781804D01*
X17232864Y9782544D01*
X17234978Y9783389D01*
X17236879Y9784234D01*
X17238570Y9785080D01*
X17240050Y9785925D01*
X17241318Y9786665D01*
X17242374Y9787404D01*
X17243219Y9787933D01*
X17243854Y9788355D01*
X17244170Y9788672D01*
X17244276Y9788778D01*
X17246072Y9790574D01*
X17247656Y9792371D01*
X17249031Y9794273D01*
X17250192Y9796069D01*
X17251250Y9797971D01*
X17251990Y9799767D01*
X17252728Y9801563D01*
X17253258Y9803254D01*
X17253680Y9804839D01*
X17253996Y9806318D01*
X17254208Y9807586D01*
X17254419Y9808748D01*
Y9809594D01*
X17254526Y9810333D01*
Y9810756D01*
Y9810862D01*
X17254419Y9812764D01*
X17254208Y9814560D01*
X17253891Y9816356D01*
X17253468Y9817941D01*
X17252940Y9819421D01*
X17252306Y9820900D01*
X17251778Y9822168D01*
X17251144Y9823330D01*
X17250404Y9824387D01*
X17249876Y9825338D01*
X17249242Y9826077D01*
X17248714Y9826817D01*
X17248291Y9827345D01*
X17247974Y9827662D01*
X17247763Y9827874D01*
X17247656Y9827979D01*
X17246706Y9828825D01*
X17245438Y9829776D01*
X17243959Y9830727D01*
X17242374Y9831783D01*
X17240578Y9832734D01*
X17238782Y9833685D01*
X17235188Y9835587D01*
X17233392Y9836432D01*
X17231807Y9837278D01*
X17230222Y9838017D01*
X17228954Y9838651D01*
X17227792Y9839074D01*
X17226947Y9839497D01*
X17226418Y9839708D01*
X17226207Y9839814D01*
X17224199Y9840659D01*
X17222403Y9841504D01*
X17220712Y9842350D01*
X17219234Y9843089D01*
X17217860Y9843723D01*
X17216698Y9844357D01*
X17215640Y9844886D01*
X17214795Y9845414D01*
X17214056Y9845942D01*
X17213316Y9846259D01*
X17212788Y9846682D01*
X17212471Y9846893D01*
X17211942Y9847316D01*
X17211731Y9847422D01*
X17210674Y9848478D01*
X17209935Y9849640D01*
X17209302Y9850803D01*
X17208984Y9851965D01*
X17208772Y9852916D01*
X17208667Y9853656D01*
X17208562Y9854184D01*
Y9854395D01*
X17208667Y9855980D01*
X17209090Y9857460D01*
X17209618Y9858728D01*
X17210358Y9859784D01*
X17210991Y9860630D01*
X17211520Y9861263D01*
X17211942Y9861686D01*
X17212048Y9861792D01*
X17212788Y9862320D01*
X17213634Y9862743D01*
X17215430Y9863482D01*
X17217438Y9864011D01*
X17219339Y9864433D01*
X17221135Y9864645D01*
X17221980D01*
X17222615Y9864750D01*
X17223988D01*
X17226947Y9864539D01*
X17229588Y9864116D01*
X17231702Y9863588D01*
X17233604Y9862848D01*
X17234978Y9862109D01*
X17235928Y9861580D01*
X17236562Y9861158D01*
X17236774Y9860946D01*
X17238252Y9859467D01*
X17239415Y9857671D01*
X17240260Y9855980D01*
X17240894Y9854184D01*
X17241423Y9852705D01*
X17241634Y9851437D01*
X17241740Y9850908D01*
X17241846Y9850591D01*
Y9850380D01*
Y9850274D01*
X17261076Y9851120D01*
X17260759Y9853550D01*
X17260336Y9855875D01*
X17259808Y9857988D01*
X17259068Y9860101D01*
X17258223Y9862003D01*
X17257378Y9863694D01*
X17256427Y9865384D01*
X17255582Y9866758D01*
X17254631Y9868132D01*
X17253786Y9869188D01*
X17252940Y9870245D01*
X17252200Y9870985D01*
X17251566Y9871619D01*
X17251144Y9872147D01*
X17250827Y9872358D01*
X17250722Y9872464D01*
X17248924Y9873943D01*
X17246918Y9875105D01*
X17244804Y9876268D01*
X17242586Y9877219D01*
X17240366Y9877958D01*
X17238147Y9878592D01*
X17236034Y9879121D01*
X17233920Y9879543D01*
X17231914Y9879966D01*
X17230011Y9880177D01*
X17228426Y9880389D01*
X17226947Y9880494D01*
X17225784Y9880600D01*
X17680688D01*
Y9750000D01*
D02*
G37*
G36*
X17678650Y8005080D02*
X16768829D01*
Y8178800D01*
X17216978D01*
X17213913Y8178694D01*
X17211060Y8178483D01*
X17208313Y8178060D01*
X17205777Y8177532D01*
X17203558Y8176898D01*
X17201445Y8176264D01*
X17199437Y8175524D01*
X17197746Y8174785D01*
X17196268Y8173939D01*
X17194894Y8173200D01*
X17193732Y8172566D01*
X17192886Y8171932D01*
X17192146Y8171404D01*
X17191618Y8170981D01*
X17191301Y8170770D01*
X17191196Y8170664D01*
X17189610Y8169079D01*
X17188237Y8167494D01*
X17187074Y8165803D01*
X17186018Y8164007D01*
X17185173Y8162316D01*
X17184538Y8160626D01*
X17183905Y8158935D01*
X17183482Y8157350D01*
X17183060Y8155871D01*
X17182742Y8154497D01*
X17182637Y8153335D01*
X17182425Y8152278D01*
Y8151327D01*
X17182320Y8150693D01*
Y8150271D01*
Y8150165D01*
X17182425Y8147629D01*
X17182742Y8145305D01*
X17183270Y8143191D01*
X17183800Y8141395D01*
X17184328Y8139916D01*
X17184856Y8138859D01*
X17184961Y8138436D01*
X17185173Y8138119D01*
X17185278Y8138014D01*
Y8137908D01*
X17186441Y8136006D01*
X17187814Y8134315D01*
X17189188Y8132836D01*
X17190456Y8131674D01*
X17191618Y8130617D01*
X17192569Y8129983D01*
X17193204Y8129455D01*
X17193309Y8129349D01*
X17193414D01*
X17194472Y8128715D01*
X17195633Y8128081D01*
X17198276Y8126708D01*
X17201022Y8125334D01*
X17203664Y8123960D01*
X17204932Y8123432D01*
X17206200Y8122904D01*
X17207256Y8122375D01*
X17208208Y8121953D01*
X17208948Y8121636D01*
X17209476Y8121319D01*
X17209898Y8121213D01*
X17210004Y8121107D01*
X17212012Y8120262D01*
X17213913Y8119417D01*
X17215498Y8118677D01*
X17216978Y8117938D01*
X17218352Y8117304D01*
X17219408Y8116775D01*
X17220464Y8116247D01*
X17221310Y8115719D01*
X17221944Y8115296D01*
X17222578Y8114979D01*
X17223000Y8114662D01*
X17223422Y8114451D01*
X17223846Y8114134D01*
X17223952Y8114028D01*
X17225114Y8112866D01*
X17226065Y8111598D01*
X17226698Y8110330D01*
X17227121Y8109167D01*
X17227333Y8108216D01*
X17227544Y8107371D01*
Y8106843D01*
Y8106631D01*
X17227333Y8104835D01*
X17226804Y8103250D01*
X17226170Y8101771D01*
X17225325Y8100503D01*
X17224480Y8099552D01*
X17223846Y8098812D01*
X17223317Y8098390D01*
X17223106Y8098178D01*
X17222261Y8097544D01*
X17221204Y8097016D01*
X17219090Y8096171D01*
X17216661Y8095537D01*
X17214336Y8095114D01*
X17212222Y8094903D01*
X17211272Y8094797D01*
X17210426D01*
X17209792Y8094691D01*
X17208841D01*
X17206728Y8094797D01*
X17204826Y8094903D01*
X17203030Y8095220D01*
X17201340Y8095537D01*
X17199860Y8095854D01*
X17198592Y8096382D01*
X17197430Y8096805D01*
X17196373Y8097333D01*
X17195422Y8097756D01*
X17194682Y8098284D01*
X17194048Y8098707D01*
X17193520Y8099024D01*
X17193204Y8099446D01*
X17192886Y8099658D01*
X17192780Y8099763D01*
X17192674Y8099869D01*
X17192146Y8100503D01*
X17191724Y8101348D01*
X17191090Y8103145D01*
X17190456Y8105152D01*
X17190138Y8107265D01*
X17189822Y8109167D01*
Y8110013D01*
X17189716Y8110752D01*
X17189610Y8111386D01*
Y8111809D01*
Y8112126D01*
Y8112232D01*
X17170485Y8111175D01*
X17170592Y8107582D01*
X17170908Y8104307D01*
X17171436Y8101348D01*
X17171753Y8100080D01*
X17172070Y8098812D01*
X17172493Y8097756D01*
X17172810Y8096699D01*
X17173128Y8095854D01*
X17173338Y8095220D01*
X17173656Y8094586D01*
X17173761Y8094163D01*
X17173972Y8093952D01*
Y8093846D01*
X17174712Y8092473D01*
X17175664Y8091205D01*
X17177565Y8088880D01*
X17179784Y8086872D01*
X17181897Y8085182D01*
X17183905Y8083808D01*
X17184750Y8083280D01*
X17185490Y8082857D01*
X17186124Y8082540D01*
X17186546Y8082329D01*
X17186864Y8082117D01*
X17186969D01*
X17190562Y8080744D01*
X17194260Y8079687D01*
X17197852Y8078948D01*
X17199649Y8078631D01*
X17201340Y8078419D01*
X17202818Y8078208D01*
X17204298Y8078102D01*
X17205566Y8077997D01*
X17206622D01*
X17207468Y8077891D01*
X17208736D01*
X17212012Y8077997D01*
X17215181Y8078314D01*
X17218140Y8078736D01*
X17220888Y8079265D01*
X17223422Y8080004D01*
X17225748Y8080744D01*
X17227861Y8081589D01*
X17229762Y8082434D01*
X17231453Y8083280D01*
X17232933Y8084125D01*
X17234201Y8084865D01*
X17235257Y8085604D01*
X17236102Y8086133D01*
X17236737Y8086555D01*
X17237054Y8086872D01*
X17237160Y8086978D01*
X17238956Y8088774D01*
X17240541Y8090571D01*
X17241914Y8092473D01*
X17243077Y8094269D01*
X17244133Y8096171D01*
X17244873Y8097967D01*
X17245612Y8099763D01*
X17246141Y8101454D01*
X17246564Y8103039D01*
X17246880Y8104518D01*
X17247092Y8105786D01*
X17247302Y8106948D01*
Y8107794D01*
X17247409Y8108533D01*
Y8108956D01*
Y8109062D01*
X17247302Y8110964D01*
X17247092Y8112760D01*
X17246774Y8114556D01*
X17246352Y8116141D01*
X17245824Y8117621D01*
X17245190Y8119100D01*
X17244661Y8120368D01*
X17244028Y8121530D01*
X17243288Y8122587D01*
X17242760Y8123538D01*
X17242126Y8124277D01*
X17241597Y8125017D01*
X17241174Y8125545D01*
X17240858Y8125862D01*
X17240646Y8126074D01*
X17240541Y8126179D01*
X17239590Y8127025D01*
X17238322Y8127976D01*
X17236842Y8128927D01*
X17235257Y8129983D01*
X17233461Y8130934D01*
X17231665Y8131885D01*
X17228072Y8133787D01*
X17226276Y8134632D01*
X17224690Y8135478D01*
X17223106Y8136217D01*
X17221838Y8136851D01*
X17220676Y8137274D01*
X17219830Y8137697D01*
X17219302Y8137908D01*
X17219090Y8138014D01*
X17217084Y8138859D01*
X17215286Y8139704D01*
X17213596Y8140550D01*
X17212117Y8141289D01*
X17210744Y8141923D01*
X17209581Y8142557D01*
X17208524Y8143086D01*
X17207680Y8143614D01*
X17206940Y8144142D01*
X17206200Y8144459D01*
X17205672Y8144882D01*
X17205354Y8145093D01*
X17204826Y8145516D01*
X17204614Y8145622D01*
X17203558Y8146678D01*
X17202818Y8147840D01*
X17202185Y8149003D01*
X17201868Y8150165D01*
X17201656Y8151116D01*
X17201550Y8151856D01*
X17201445Y8152384D01*
Y8152595D01*
X17201550Y8154180D01*
X17201973Y8155660D01*
X17202502Y8156928D01*
X17203241Y8157984D01*
X17203876Y8158830D01*
X17204404Y8159463D01*
X17204826Y8159886D01*
X17204932Y8159992D01*
X17205672Y8160520D01*
X17206517Y8160943D01*
X17208313Y8161682D01*
X17210321Y8162211D01*
X17212222Y8162633D01*
X17214018Y8162845D01*
X17214864D01*
X17215498Y8162950D01*
X17216872D01*
X17219830Y8162739D01*
X17222472Y8162316D01*
X17224585Y8161788D01*
X17226488Y8161048D01*
X17227861Y8160309D01*
X17228812Y8159780D01*
X17229446Y8159358D01*
X17229657Y8159146D01*
X17231136Y8157667D01*
X17232298Y8155871D01*
X17233144Y8154180D01*
X17233778Y8152384D01*
X17234306Y8150905D01*
X17234518Y8149637D01*
X17234624Y8149108D01*
X17234729Y8148791D01*
Y8148580D01*
Y8148474D01*
X17253960Y8149320D01*
X17253642Y8151750D01*
X17253220Y8154075D01*
X17252692Y8156188D01*
X17251952Y8158301D01*
X17251106Y8160203D01*
X17250262Y8161894D01*
X17249310Y8163584D01*
X17248465Y8164958D01*
X17247514Y8166332D01*
X17246669Y8167388D01*
X17245824Y8168445D01*
X17245084Y8169185D01*
X17244450Y8169819D01*
X17244028Y8170347D01*
X17243710Y8170558D01*
X17243605Y8170664D01*
X17241809Y8172143D01*
X17239801Y8173305D01*
X17237688Y8174468D01*
X17235469Y8175419D01*
X17233250Y8176158D01*
X17231030Y8176792D01*
X17228918Y8177321D01*
X17226804Y8177743D01*
X17224797Y8178166D01*
X17222894Y8178377D01*
X17221310Y8178589D01*
X17219830Y8178694D01*
X17218668Y8178800D01*
X17678650D01*
Y8005080D01*
D02*
G37*
G36*
X17676500Y4389060D02*
X16903059D01*
Y4577080D01*
X17206834D01*
X17203770Y4576974D01*
X17200917Y4576763D01*
X17198169Y4576340D01*
X17195633Y4575812D01*
X17193414Y4575178D01*
X17191301Y4574544D01*
X17189294Y4573804D01*
X17187604Y4573065D01*
X17186124Y4572219D01*
X17184750Y4571480D01*
X17183588Y4570846D01*
X17182742Y4570212D01*
X17182002Y4569684D01*
X17181474Y4569261D01*
X17181157Y4569050D01*
X17181052Y4568944D01*
X17179466Y4567359D01*
X17178093Y4565774D01*
X17176932Y4564083D01*
X17175874Y4562287D01*
X17175029Y4560596D01*
X17174396Y4558906D01*
X17173761Y4557215D01*
X17173338Y4555630D01*
X17172916Y4554151D01*
X17172598Y4552777D01*
X17172493Y4551615D01*
X17172282Y4550558D01*
Y4549607D01*
X17172176Y4548973D01*
Y4548551D01*
Y4548445D01*
X17172282Y4545909D01*
X17172598Y4543585D01*
X17173128Y4541471D01*
X17173656Y4539675D01*
X17174184Y4538196D01*
X17174712Y4537139D01*
X17174818Y4536716D01*
X17175029Y4536399D01*
X17175134Y4536294D01*
Y4536188D01*
X17176297Y4534286D01*
X17177670Y4532595D01*
X17179044Y4531116D01*
X17180312Y4529954D01*
X17181474Y4528897D01*
X17182425Y4528263D01*
X17183060Y4527735D01*
X17183165Y4527629D01*
X17183270D01*
X17184328Y4526995D01*
X17185490Y4526361D01*
X17188132Y4524988D01*
X17190878Y4523614D01*
X17193520Y4522240D01*
X17194788Y4521712D01*
X17196056Y4521184D01*
X17197113Y4520655D01*
X17198064Y4520233D01*
X17198804Y4519916D01*
X17199332Y4519599D01*
X17199754Y4519493D01*
X17199860Y4519387D01*
X17201868Y4518542D01*
X17203770Y4517697D01*
X17205354Y4516957D01*
X17206834Y4516218D01*
X17208208Y4515584D01*
X17209264Y4515055D01*
X17210321Y4514527D01*
X17211166Y4513999D01*
X17211800Y4513576D01*
X17212434Y4513259D01*
X17212857Y4512942D01*
X17213280Y4512731D01*
X17213702Y4512414D01*
X17213808Y4512308D01*
X17214970Y4511146D01*
X17215921Y4509878D01*
X17216554Y4508610D01*
X17216978Y4507447D01*
X17217189Y4506496D01*
X17217400Y4505651D01*
Y4505123D01*
Y4504911D01*
X17217189Y4503115D01*
X17216661Y4501530D01*
X17216026Y4500051D01*
X17215181Y4498783D01*
X17214336Y4497832D01*
X17213702Y4497092D01*
X17213174Y4496670D01*
X17212962Y4496458D01*
X17212117Y4495824D01*
X17211060Y4495296D01*
X17208948Y4494451D01*
X17206517Y4493817D01*
X17204192Y4493394D01*
X17202078Y4493183D01*
X17201128Y4493077D01*
X17200282D01*
X17199649Y4492971D01*
X17198698D01*
X17196584Y4493077D01*
X17194682Y4493183D01*
X17192886Y4493500D01*
X17191196Y4493817D01*
X17189716Y4494134D01*
X17188448Y4494662D01*
X17187286Y4495085D01*
X17186229Y4495613D01*
X17185278Y4496036D01*
X17184538Y4496564D01*
X17183905Y4496987D01*
X17183376Y4497304D01*
X17183060Y4497726D01*
X17182742Y4497938D01*
X17182637Y4498043D01*
X17182532Y4498149D01*
X17182002Y4498783D01*
X17181580Y4499628D01*
X17180946Y4501425D01*
X17180312Y4503432D01*
X17179996Y4505545D01*
X17179678Y4507447D01*
Y4508293D01*
X17179572Y4509032D01*
X17179466Y4509666D01*
Y4510089D01*
Y4510406D01*
Y4510512D01*
X17160342Y4509455D01*
X17160448Y4505862D01*
X17160764Y4502587D01*
X17161293Y4499628D01*
X17161610Y4498360D01*
X17161926Y4497092D01*
X17162349Y4496036D01*
X17162666Y4494979D01*
X17162984Y4494134D01*
X17163194Y4493500D01*
X17163512Y4492866D01*
X17163617Y4492443D01*
X17163829Y4492232D01*
Y4492126D01*
X17164568Y4490753D01*
X17165520Y4489485D01*
X17167421Y4487160D01*
X17169640Y4485152D01*
X17171753Y4483462D01*
X17173761Y4482088D01*
X17174606Y4481560D01*
X17175346Y4481137D01*
X17175980Y4480820D01*
X17176402Y4480609D01*
X17176720Y4480397D01*
X17176825D01*
X17180418Y4479024D01*
X17184116Y4477967D01*
X17187709Y4477228D01*
X17189505Y4476911D01*
X17191196Y4476699D01*
X17192674Y4476488D01*
X17194154Y4476382D01*
X17195422Y4476277D01*
X17196478D01*
X17197324Y4476171D01*
X17198592D01*
X17201868Y4476277D01*
X17205037Y4476594D01*
X17207996Y4477016D01*
X17210744Y4477545D01*
X17213280Y4478284D01*
X17215604Y4479024D01*
X17217717Y4479869D01*
X17219620Y4480714D01*
X17221310Y4481560D01*
X17222789Y4482405D01*
X17224057Y4483145D01*
X17225114Y4483884D01*
X17225958Y4484413D01*
X17226593Y4484835D01*
X17226910Y4485152D01*
X17227016Y4485258D01*
X17228812Y4487054D01*
X17230397Y4488851D01*
X17231770Y4490753D01*
X17232933Y4492549D01*
X17233989Y4494451D01*
X17234729Y4496247D01*
X17235469Y4498043D01*
X17235997Y4499734D01*
X17236420Y4501319D01*
X17236737Y4502798D01*
X17236948Y4504066D01*
X17237160Y4505228D01*
Y4506074D01*
X17237265Y4506813D01*
Y4507236D01*
Y4507342D01*
X17237160Y4509244D01*
X17236948Y4511040D01*
X17236630Y4512836D01*
X17236208Y4514421D01*
X17235680Y4515901D01*
X17235046Y4517380D01*
X17234518Y4518648D01*
X17233884Y4519810D01*
X17233144Y4520867D01*
X17232616Y4521818D01*
X17231982Y4522557D01*
X17231453Y4523297D01*
X17231030Y4523825D01*
X17230714Y4524142D01*
X17230502Y4524354D01*
X17230397Y4524459D01*
X17229446Y4525305D01*
X17228178Y4526256D01*
X17226698Y4527207D01*
X17225114Y4528263D01*
X17223317Y4529214D01*
X17221521Y4530165D01*
X17217928Y4532067D01*
X17216132Y4532912D01*
X17214548Y4533758D01*
X17212962Y4534497D01*
X17211694Y4535131D01*
X17210532Y4535554D01*
X17209686Y4535977D01*
X17209158Y4536188D01*
X17208948Y4536294D01*
X17206940Y4537139D01*
X17205144Y4537984D01*
X17203453Y4538830D01*
X17201973Y4539569D01*
X17200600Y4540203D01*
X17199437Y4540837D01*
X17198381Y4541366D01*
X17197536Y4541894D01*
X17196796Y4542422D01*
X17196056Y4542739D01*
X17195528Y4543162D01*
X17195210Y4543373D01*
X17194682Y4543796D01*
X17194472Y4543902D01*
X17193414Y4544958D01*
X17192674Y4546120D01*
X17192041Y4547283D01*
X17191724Y4548445D01*
X17191512Y4549396D01*
X17191406Y4550136D01*
X17191301Y4550664D01*
Y4550875D01*
X17191406Y4552460D01*
X17191829Y4553940D01*
X17192358Y4555208D01*
X17193097Y4556264D01*
X17193732Y4557110D01*
X17194260Y4557743D01*
X17194682Y4558166D01*
X17194788Y4558272D01*
X17195528Y4558800D01*
X17196373Y4559223D01*
X17198169Y4559962D01*
X17200177Y4560491D01*
X17202078Y4560913D01*
X17203876Y4561125D01*
X17204720D01*
X17205354Y4561230D01*
X17206728D01*
X17209686Y4561019D01*
X17212328Y4560596D01*
X17214442Y4560068D01*
X17216344Y4559328D01*
X17217717Y4558589D01*
X17218668Y4558060D01*
X17219302Y4557638D01*
X17219513Y4557426D01*
X17220993Y4555947D01*
X17222156Y4554151D01*
X17223000Y4552460D01*
X17223634Y4550664D01*
X17224162Y4549185D01*
X17224374Y4547917D01*
X17224480Y4547388D01*
X17224585Y4547071D01*
Y4546860D01*
Y4546754D01*
X17243816Y4547600D01*
X17243500Y4550030D01*
X17243077Y4552355D01*
X17242548Y4554468D01*
X17241809Y4556581D01*
X17240964Y4558483D01*
X17240118Y4560174D01*
X17239166Y4561864D01*
X17238322Y4563238D01*
X17237370Y4564612D01*
X17236525Y4565668D01*
X17235680Y4566725D01*
X17234940Y4567465D01*
X17234306Y4568099D01*
X17233884Y4568627D01*
X17233566Y4568838D01*
X17233461Y4568944D01*
X17231665Y4570423D01*
X17229657Y4571585D01*
X17227544Y4572748D01*
X17225325Y4573699D01*
X17223106Y4574438D01*
X17220888Y4575072D01*
X17218774Y4575601D01*
X17216661Y4576023D01*
X17214653Y4576446D01*
X17212750Y4576657D01*
X17211166Y4576869D01*
X17209686Y4576974D01*
X17208524Y4577080D01*
X17676500D01*
Y4389060D01*
D02*
G37*
%LPC*%
G36*
X17501462Y9879015D02*
X17482442D01*
X17478850Y9861792D01*
X17497868D01*
X17501462Y9879015D01*
D02*
G37*
G36*
X17640410Y9853761D02*
X17639565D01*
X17637134Y9853656D01*
X17634810Y9853339D01*
X17632697Y9852916D01*
X17630901Y9852493D01*
X17629315Y9852071D01*
X17628680Y9851859D01*
X17628152Y9851648D01*
X17627730Y9851437D01*
X17627412Y9851331D01*
X17627202Y9851225D01*
X17627097D01*
X17624876Y9850169D01*
X17622658Y9848901D01*
X17620439Y9847422D01*
X17618538Y9846154D01*
X17616847Y9844886D01*
X17616212Y9844357D01*
X17615579Y9843829D01*
X17615051Y9843406D01*
X17614734Y9843089D01*
X17614522Y9842984D01*
X17614417Y9842878D01*
X17616212Y9852176D01*
X17598039D01*
X17583351Y9781487D01*
X17602264D01*
X17608289Y9810439D01*
X17608817Y9812764D01*
X17609344Y9814771D01*
X17609767Y9816673D01*
X17610190Y9818470D01*
X17610612Y9819949D01*
X17611035Y9821322D01*
X17611458Y9822590D01*
X17611775Y9823647D01*
X17612093Y9824492D01*
X17612408Y9825232D01*
X17612621Y9825866D01*
X17612833Y9826394D01*
X17613043Y9826817D01*
X17613148Y9827028D01*
X17613254Y9827240D01*
X17614417Y9829353D01*
X17615790Y9831149D01*
X17617165Y9832734D01*
X17618433Y9834108D01*
X17619594Y9835164D01*
X17620544Y9835904D01*
X17621179Y9836432D01*
X17621284Y9836538D01*
X17621390D01*
X17623293Y9837700D01*
X17625089Y9838651D01*
X17626674Y9839285D01*
X17628047Y9839708D01*
X17629210Y9839919D01*
X17630161Y9840131D01*
X17630901D01*
X17632274Y9840025D01*
X17633542Y9839814D01*
X17634492Y9839497D01*
X17635338Y9839074D01*
X17636078Y9838651D01*
X17636501Y9838334D01*
X17636816Y9838123D01*
X17636923Y9838017D01*
X17637663Y9837172D01*
X17638191Y9836221D01*
X17638614Y9835270D01*
X17638824Y9834319D01*
X17639037Y9833474D01*
X17639142Y9832840D01*
Y9832417D01*
Y9832206D01*
Y9831783D01*
X17639037Y9831255D01*
X17638931Y9830515D01*
X17638824Y9829776D01*
X17638509Y9827979D01*
X17638191Y9826183D01*
X17637874Y9824387D01*
X17637663Y9823541D01*
X17637556Y9822907D01*
X17637451Y9822273D01*
X17637346Y9821851D01*
X17637241Y9821534D01*
Y9821428D01*
X17628577Y9781487D01*
X17647488D01*
X17656154Y9821322D01*
X17656577Y9823224D01*
X17656894Y9824915D01*
X17657211Y9826500D01*
X17657422Y9827874D01*
X17657632Y9829247D01*
X17657845Y9830304D01*
X17658057Y9831361D01*
X17658162Y9832312D01*
X17658267Y9833051D01*
X17658372Y9833685D01*
Y9834319D01*
X17658479Y9834742D01*
Y9835481D01*
X17658372Y9836961D01*
X17658267Y9838440D01*
X17657739Y9840976D01*
X17656894Y9843301D01*
X17655943Y9845203D01*
X17654993Y9846682D01*
X17654568Y9847316D01*
X17654253Y9847738D01*
X17653828Y9848161D01*
X17653618Y9848478D01*
X17653513Y9848584D01*
X17653407Y9848689D01*
X17652457Y9849535D01*
X17651399Y9850380D01*
X17649074Y9851648D01*
X17646750Y9852493D01*
X17644637Y9853127D01*
X17642628Y9853550D01*
X17641785Y9853656D01*
X17641045D01*
X17640410Y9853761D01*
D02*
G37*
G36*
X17134491D02*
X17133751D01*
X17131638Y9853550D01*
X17129526Y9853127D01*
X17127411Y9852388D01*
X17125510Y9851331D01*
X17123607Y9850169D01*
X17121811Y9848901D01*
X17120120Y9847527D01*
X17118642Y9846048D01*
X17117162Y9844569D01*
X17116000Y9843195D01*
X17114838Y9841927D01*
X17113885Y9840765D01*
X17113147Y9839814D01*
X17112617Y9838968D01*
X17112302Y9838546D01*
X17112196Y9838334D01*
X17115050Y9852176D01*
X17097191D01*
X17082504Y9781487D01*
X17101418D01*
X17106067Y9803571D01*
X17106595Y9806001D01*
X17107124Y9808326D01*
X17107652Y9810439D01*
X17108075Y9812341D01*
X17108603Y9814137D01*
X17109026Y9815722D01*
X17109448Y9817202D01*
X17109871Y9818470D01*
X17110294Y9819632D01*
X17110611Y9820583D01*
X17110928Y9821428D01*
X17111139Y9822062D01*
X17111349Y9822590D01*
X17111562Y9822907D01*
X17111667Y9823119D01*
Y9823224D01*
X17112830Y9825443D01*
X17114203Y9827451D01*
X17115471Y9829142D01*
X17116846Y9830515D01*
X17117902Y9831678D01*
X17118852Y9832523D01*
X17119485Y9832946D01*
X17119592Y9833157D01*
X17119698D01*
X17121600Y9834425D01*
X17123396Y9835376D01*
X17125087Y9836010D01*
X17126672Y9836538D01*
X17127940Y9836749D01*
X17128891Y9836855D01*
X17129526Y9836961D01*
X17129736D01*
X17131850Y9836855D01*
X17132800Y9836644D01*
X17133646Y9836538D01*
X17134386Y9836327D01*
X17134914Y9836115D01*
X17135229Y9836010D01*
X17135336D01*
X17142627Y9851648D01*
X17140936Y9852388D01*
X17139246Y9852916D01*
X17137766Y9853233D01*
X17136394Y9853550D01*
X17135336Y9853656D01*
X17134491Y9853761D01*
D02*
G37*
G36*
X17385231D02*
X17384068D01*
X17381956Y9853656D01*
X17379843Y9853550D01*
X17375932Y9852810D01*
X17374031Y9852388D01*
X17372340Y9851859D01*
X17370650Y9851331D01*
X17369170Y9850803D01*
X17367796Y9850274D01*
X17366528Y9849746D01*
X17365472Y9849218D01*
X17364520Y9848795D01*
X17363782Y9848372D01*
X17363252Y9848055D01*
X17362936Y9847950D01*
X17362831Y9847844D01*
X17361140Y9846682D01*
X17359448Y9845414D01*
X17357970Y9844146D01*
X17356491Y9842878D01*
X17355223Y9841504D01*
X17354060Y9840131D01*
X17353004Y9838863D01*
X17352052Y9837595D01*
X17351208Y9836327D01*
X17350468Y9835270D01*
X17349834Y9834214D01*
X17349306Y9833368D01*
X17348988Y9832629D01*
X17348672Y9832100D01*
X17348566Y9831783D01*
X17348460Y9831678D01*
X17347615Y9829776D01*
X17346875Y9827768D01*
X17345712Y9823964D01*
X17344868Y9820266D01*
X17344551Y9818575D01*
X17344339Y9816990D01*
X17344128Y9815405D01*
X17343916Y9814137D01*
X17343811Y9812869D01*
Y9811918D01*
X17343706Y9811073D01*
Y9809911D01*
X17343811Y9807375D01*
X17344022Y9804945D01*
X17344444Y9802620D01*
X17344974Y9800507D01*
X17345502Y9798499D01*
X17346242Y9796703D01*
X17346980Y9795012D01*
X17347720Y9793533D01*
X17348460Y9792159D01*
X17349094Y9790997D01*
X17349834Y9790046D01*
X17350362Y9789201D01*
X17350891Y9788567D01*
X17351312Y9788144D01*
X17351524Y9787827D01*
X17351630Y9787721D01*
X17353215Y9786348D01*
X17354800Y9785080D01*
X17356596Y9784023D01*
X17358287Y9783072D01*
X17360083Y9782332D01*
X17361880Y9781698D01*
X17363676Y9781170D01*
X17365367Y9780748D01*
X17366953Y9780325D01*
X17368431Y9780114D01*
X17369699Y9779902D01*
X17370860Y9779797D01*
X17371812D01*
X17372446Y9779691D01*
X17373080D01*
X17375299Y9779797D01*
X17377412Y9780008D01*
X17379420Y9780325D01*
X17381322Y9780748D01*
X17383118Y9781170D01*
X17384914Y9781698D01*
X17386499Y9782332D01*
X17387979Y9782966D01*
X17389247Y9783495D01*
X17390408Y9784129D01*
X17391466Y9784657D01*
X17392311Y9785185D01*
X17392944Y9785502D01*
X17393472Y9785819D01*
X17393790Y9786031D01*
X17393896Y9786136D01*
X17395480Y9787404D01*
X17397066Y9788778D01*
X17399812Y9791842D01*
X17402138Y9794906D01*
X17404041Y9797971D01*
X17404884Y9799344D01*
X17405624Y9800718D01*
X17406152Y9801880D01*
X17406680Y9802937D01*
X17406998Y9803782D01*
X17407315Y9804416D01*
X17407527Y9804839D01*
Y9804945D01*
X17388930Y9808009D01*
X17387979Y9805684D01*
X17386816Y9803677D01*
X17385760Y9801880D01*
X17384596Y9800507D01*
X17383646Y9799344D01*
X17382907Y9798605D01*
X17382378Y9798182D01*
X17382167Y9797971D01*
X17380582Y9796914D01*
X17378996Y9796069D01*
X17377518Y9795540D01*
X17376144Y9795118D01*
X17374982Y9794906D01*
X17374136Y9794801D01*
X17373503Y9794695D01*
X17373291D01*
X17371706Y9794801D01*
X17370227Y9795223D01*
X17368854Y9795752D01*
X17367796Y9796386D01*
X17366846Y9797020D01*
X17366212Y9797548D01*
X17365788Y9797971D01*
X17365685Y9798076D01*
X17364627Y9799450D01*
X17363887Y9801035D01*
X17363359Y9802620D01*
X17363042Y9804205D01*
X17362831Y9805579D01*
X17362619Y9806635D01*
Y9807058D01*
Y9807375D01*
Y9807586D01*
Y9807692D01*
X17362724Y9810439D01*
X17363042Y9813186D01*
X17363464Y9815722D01*
X17363887Y9818153D01*
X17364099Y9819209D01*
X17364310Y9820160D01*
X17364520Y9821006D01*
X17364732Y9821745D01*
X17364944Y9822273D01*
X17365050Y9822802D01*
X17365155Y9823013D01*
Y9823119D01*
X17366212Y9825972D01*
X17367374Y9828508D01*
X17368536Y9830621D01*
X17369804Y9832417D01*
X17370860Y9833791D01*
X17371706Y9834742D01*
X17372235Y9835270D01*
X17372446Y9835481D01*
X17374242Y9836855D01*
X17376144Y9837912D01*
X17377940Y9838651D01*
X17379526Y9839180D01*
X17380899Y9839497D01*
X17381956Y9839602D01*
X17382378Y9839708D01*
X17382907D01*
X17384596Y9839602D01*
X17386076Y9839285D01*
X17387450Y9838757D01*
X17388507Y9838334D01*
X17389458Y9837806D01*
X17390092Y9837278D01*
X17390515Y9836961D01*
X17390620Y9836855D01*
X17391676Y9835693D01*
X17392416Y9834319D01*
X17393051Y9832840D01*
X17393579Y9831361D01*
X17393896Y9830093D01*
X17394212Y9829036D01*
Y9828613D01*
X17394319Y9828296D01*
Y9828191D01*
Y9828085D01*
X17412492Y9829987D01*
X17412280Y9831995D01*
X17411859Y9833791D01*
X17411330Y9835587D01*
X17410802Y9837172D01*
X17410062Y9838757D01*
X17409428Y9840131D01*
X17408688Y9841399D01*
X17407948Y9842561D01*
X17407210Y9843618D01*
X17406470Y9844569D01*
X17405836Y9845414D01*
X17405202Y9846048D01*
X17404779Y9846576D01*
X17404356Y9846893D01*
X17404144Y9847105D01*
X17404041Y9847210D01*
X17402560Y9848372D01*
X17401080Y9849323D01*
X17399496Y9850274D01*
X17397804Y9851014D01*
X17396115Y9851648D01*
X17394424Y9852176D01*
X17391254Y9852916D01*
X17389775Y9853233D01*
X17388400Y9853444D01*
X17387239Y9853550D01*
X17386182Y9853656D01*
X17385231Y9853761D01*
D02*
G37*
G36*
X17010547Y9852176D02*
X16991527D01*
X16969655Y9804733D01*
X16967436Y9852176D01*
X16950002D01*
X16928023Y9804733D01*
X16923058Y9852176D01*
X16906151D01*
X16915027Y9781487D01*
X16932674D01*
X16954228Y9826394D01*
X16957715Y9781487D01*
X16975572D01*
X17010547Y9852176D01*
D02*
G37*
G36*
X17495862D02*
X17476842D01*
X17462155Y9781487D01*
X17481068D01*
X17495862Y9852176D01*
D02*
G37*
G36*
X16789603Y9879015D02*
X16748077D01*
X16727789Y9781487D01*
X16747865D01*
X16755580Y9818681D01*
X16772910D01*
X16774916Y9818787D01*
X16778297D01*
X16779671Y9818892D01*
X16781046D01*
X16782101Y9818998D01*
X16783157Y9819104D01*
X16783897D01*
X16784637Y9819209D01*
X16785588D01*
X16785905Y9819315D01*
X16786118D01*
X16788969Y9819843D01*
X16791611Y9820372D01*
X16793724Y9820900D01*
X16795625Y9821428D01*
X16797105Y9821851D01*
X16798161Y9822273D01*
X16798479Y9822379D01*
X16798796Y9822485D01*
X16799008Y9822590D01*
X16800804Y9823436D01*
X16802493Y9824492D01*
X16803973Y9825549D01*
X16805347Y9826606D01*
X16806404Y9827451D01*
X16807249Y9828191D01*
X16807777Y9828719D01*
X16807990Y9828930D01*
X16809468Y9830621D01*
X16810841Y9832417D01*
X16812004Y9834319D01*
X16813062Y9836115D01*
X16813802Y9837700D01*
X16814223Y9838440D01*
X16814433Y9838968D01*
X16814645Y9839497D01*
X16814857Y9839814D01*
X16814963Y9840025D01*
Y9840131D01*
X16815913Y9842772D01*
X16816653Y9845308D01*
X16817181Y9847738D01*
X16817604Y9849957D01*
X16817816Y9851754D01*
Y9852599D01*
X16817921Y9853233D01*
Y9854501D01*
X16817816Y9857354D01*
X16817393Y9859996D01*
X16816759Y9862320D01*
X16816125Y9864328D01*
X16815385Y9865913D01*
X16815068Y9866547D01*
X16814857Y9867075D01*
X16814540Y9867603D01*
X16814433Y9867920D01*
X16814223Y9868026D01*
Y9868132D01*
X16812744Y9870139D01*
X16811159Y9871936D01*
X16809573Y9873309D01*
X16807990Y9874471D01*
X16806615Y9875422D01*
X16805559Y9875951D01*
X16805136Y9876162D01*
X16804819Y9876373D01*
X16804608Y9876479D01*
X16804501D01*
X16802072Y9877324D01*
X16799326Y9877958D01*
X16796577Y9878381D01*
X16793829Y9878698D01*
X16792668Y9878804D01*
X16791505Y9878909D01*
X16790450D01*
X16789603Y9879015D01*
D02*
G37*
G36*
X17543622Y9853761D02*
X17542882D01*
X17539607Y9853656D01*
X17536436Y9853233D01*
X17533478Y9852705D01*
X17530731Y9851965D01*
X17528088Y9851014D01*
X17525764Y9850063D01*
X17523546Y9849006D01*
X17521538Y9847950D01*
X17519742Y9846788D01*
X17518156Y9845731D01*
X17516888Y9844780D01*
X17515726Y9843829D01*
X17514880Y9843089D01*
X17514247Y9842561D01*
X17513824Y9842138D01*
X17513719Y9842033D01*
X17511816Y9839708D01*
X17510126Y9837278D01*
X17508647Y9834742D01*
X17507379Y9832206D01*
X17506322Y9829564D01*
X17505371Y9826923D01*
X17504736Y9824387D01*
X17504103Y9821956D01*
X17503680Y9819632D01*
X17503365Y9817519D01*
X17503047Y9815617D01*
X17502940Y9813926D01*
X17502835Y9812552D01*
X17502730Y9811496D01*
Y9810650D01*
X17502940Y9807586D01*
X17503365Y9804628D01*
X17503893Y9801986D01*
X17504633Y9799661D01*
X17504948Y9798605D01*
X17505266Y9797654D01*
X17505583Y9796914D01*
X17505901Y9796174D01*
X17506111Y9795646D01*
X17506322Y9795223D01*
X17506429Y9795012D01*
Y9794906D01*
X17508012Y9792371D01*
X17509808Y9790046D01*
X17511711Y9788144D01*
X17513612Y9786559D01*
X17515305Y9785291D01*
X17516043Y9784763D01*
X17516676Y9784340D01*
X17517206Y9784023D01*
X17517628Y9783812D01*
X17517841Y9783600D01*
X17517944D01*
X17520905Y9782332D01*
X17523969Y9781382D01*
X17526927Y9780642D01*
X17529674Y9780219D01*
X17530942Y9780008D01*
X17532104Y9779902D01*
X17533160Y9779797D01*
X17534006D01*
X17534746Y9779691D01*
X17535696D01*
X17539078Y9779797D01*
X17542249Y9780219D01*
X17545207Y9780853D01*
X17548061Y9781593D01*
X17550700Y9782544D01*
X17553026Y9783600D01*
X17555244Y9784763D01*
X17557253Y9785925D01*
X17559048Y9787087D01*
X17560634Y9788250D01*
X17562007Y9789306D01*
X17563065Y9790257D01*
X17563908Y9790997D01*
X17564543Y9791631D01*
X17564966Y9792054D01*
X17565073Y9792159D01*
X17566974Y9794590D01*
X17568665Y9797020D01*
X17570143Y9799556D01*
X17571411Y9802092D01*
X17572469Y9804628D01*
X17573419Y9807058D01*
X17574159Y9809488D01*
X17574687Y9811707D01*
X17575110Y9813820D01*
X17575533Y9815722D01*
X17575745Y9817519D01*
X17575848Y9818998D01*
X17575955Y9820160D01*
X17576060Y9821111D01*
Y9821851D01*
X17575955Y9824492D01*
X17575638Y9827028D01*
X17575215Y9829459D01*
X17574687Y9831678D01*
X17574052Y9833685D01*
X17573209Y9835587D01*
X17572469Y9837383D01*
X17571623Y9838968D01*
X17570776Y9840342D01*
X17570038Y9841610D01*
X17569298Y9842667D01*
X17568558Y9843512D01*
X17568030Y9844252D01*
X17567607Y9844674D01*
X17567290Y9844991D01*
X17567184Y9845097D01*
X17565494Y9846576D01*
X17563593Y9847950D01*
X17561690Y9849112D01*
X17559683Y9850063D01*
X17557675Y9850908D01*
X17555667Y9851648D01*
X17553661Y9852176D01*
X17551758Y9852705D01*
X17549962Y9853022D01*
X17548271Y9853339D01*
X17546793Y9853550D01*
X17545418Y9853656D01*
X17544360D01*
X17543622Y9853761D01*
D02*
G37*
G36*
X17457928Y9876585D02*
X17436160Y9863377D01*
X17433836Y9852176D01*
X17424538D01*
X17421581Y9838017D01*
X17430984D01*
X17424855Y9809488D01*
X17424432Y9807375D01*
X17424010Y9805473D01*
X17423692Y9803782D01*
X17423482Y9802197D01*
X17423270Y9800824D01*
X17423059Y9799556D01*
X17422849Y9798499D01*
X17422742Y9797548D01*
X17422636Y9796808D01*
X17422531Y9796174D01*
Y9795646D01*
X17422424Y9795223D01*
Y9794906D01*
Y9794695D01*
Y9794484D01*
X17422531Y9793216D01*
X17422636Y9792054D01*
X17423164Y9789835D01*
X17423904Y9787933D01*
X17424750Y9786453D01*
X17425488Y9785185D01*
X17426228Y9784340D01*
X17426756Y9783812D01*
X17426968Y9783600D01*
X17427921Y9782966D01*
X17428976Y9782332D01*
X17431195Y9781382D01*
X17433731Y9780642D01*
X17436160Y9780219D01*
X17438275Y9779902D01*
X17439226Y9779797D01*
X17440071D01*
X17440811Y9779691D01*
X17443665D01*
X17445566Y9779902D01*
X17447256Y9780008D01*
X17448735Y9780219D01*
X17450108Y9780431D01*
X17451060Y9780536D01*
X17451694Y9780748D01*
X17451904D01*
X17454865Y9794906D01*
X17453069Y9794695D01*
X17451694Y9794590D01*
X17450533Y9794484D01*
X17449686D01*
X17449052Y9794378D01*
X17448418D01*
X17447151Y9794484D01*
X17446094Y9794590D01*
X17445248Y9794801D01*
X17444508Y9795012D01*
X17443980Y9795223D01*
X17443665Y9795329D01*
X17443452Y9795540D01*
X17443347D01*
X17442924Y9796069D01*
X17442607Y9796597D01*
X17442184Y9797759D01*
X17442079Y9798288D01*
X17441972Y9798710D01*
Y9798922D01*
Y9799027D01*
Y9799344D01*
X17442079Y9799767D01*
X17442184Y9800295D01*
X17442290Y9800929D01*
X17442500Y9802409D01*
X17442818Y9804099D01*
X17443135Y9805579D01*
X17443452Y9806952D01*
X17443558Y9807481D01*
Y9807903D01*
X17443665Y9808114D01*
Y9808220D01*
X17450003Y9838017D01*
X17461626D01*
X17464584Y9852176D01*
X17452856D01*
X17457928Y9876585D01*
D02*
G37*
G36*
X17308308Y9853761D02*
X17307040D01*
X17303342Y9853550D01*
X17299855Y9853127D01*
X17296579Y9852388D01*
X17293515Y9851331D01*
X17290768Y9850169D01*
X17288232Y9848901D01*
X17285802Y9847527D01*
X17283794Y9846154D01*
X17281892Y9844674D01*
X17280307Y9843301D01*
X17278934Y9842033D01*
X17277771Y9840870D01*
X17276926Y9839814D01*
X17276292Y9839074D01*
X17275870Y9838651D01*
X17275764Y9838440D01*
X17274390Y9836221D01*
X17273122Y9834002D01*
X17272066Y9831783D01*
X17271114Y9829564D01*
X17270375Y9827345D01*
X17269740Y9825232D01*
X17269212Y9823224D01*
X17268790Y9821217D01*
X17268367Y9819421D01*
X17268156Y9817730D01*
X17267944Y9816251D01*
X17267839Y9814983D01*
Y9813926D01*
X17267732Y9813186D01*
Y9812552D01*
X17267839Y9809805D01*
X17268156Y9807269D01*
X17268578Y9804839D01*
X17269107Y9802514D01*
X17269846Y9800401D01*
X17270586Y9798499D01*
X17271326Y9796703D01*
X17272171Y9795012D01*
X17273016Y9793533D01*
X17273756Y9792265D01*
X17274602Y9791208D01*
X17275235Y9790363D01*
X17275764Y9789623D01*
X17276186Y9789095D01*
X17276503Y9788778D01*
X17276608Y9788672D01*
X17278299Y9787087D01*
X17280202Y9785714D01*
X17281998Y9784551D01*
X17284006Y9783495D01*
X17285907Y9782649D01*
X17287810Y9781910D01*
X17289711Y9781276D01*
X17291507Y9780853D01*
X17293198Y9780431D01*
X17294783Y9780219D01*
X17296156Y9780008D01*
X17297424Y9779797D01*
X17298376D01*
X17299115Y9779691D01*
X17299750D01*
X17301651Y9779797D01*
X17303552Y9779902D01*
X17307040Y9780536D01*
X17310210Y9781276D01*
X17311690Y9781804D01*
X17312956Y9782227D01*
X17314224Y9782755D01*
X17315282Y9783178D01*
X17316232Y9783600D01*
X17316972Y9784023D01*
X17317606Y9784340D01*
X17318028Y9784551D01*
X17318346Y9784657D01*
X17318452Y9784763D01*
X17319931Y9785819D01*
X17321410Y9786876D01*
X17324052Y9789412D01*
X17326376Y9791948D01*
X17328279Y9794484D01*
X17329124Y9795646D01*
X17329863Y9796703D01*
X17330392Y9797759D01*
X17330920Y9798605D01*
X17331343Y9799344D01*
X17331660Y9799873D01*
X17331766Y9800190D01*
X17331871Y9800295D01*
X17314754Y9803148D01*
X17313696Y9801458D01*
X17312535Y9799873D01*
X17311372Y9798605D01*
X17310104Y9797442D01*
X17308942Y9796491D01*
X17307674Y9795752D01*
X17306512Y9795118D01*
X17305244Y9794590D01*
X17304187Y9794167D01*
X17303130Y9793850D01*
X17302180Y9793639D01*
X17301440Y9793427D01*
X17300806D01*
X17300278Y9793322D01*
X17299855D01*
X17297742Y9793533D01*
X17295840Y9793956D01*
X17294148Y9794695D01*
X17292775Y9795435D01*
X17291612Y9796174D01*
X17290768Y9796914D01*
X17290239Y9797337D01*
X17290028Y9797548D01*
X17288655Y9799239D01*
X17287704Y9801141D01*
X17286964Y9803043D01*
X17286542Y9804839D01*
X17286224Y9806530D01*
X17286119Y9807164D01*
Y9807798D01*
X17286012Y9808326D01*
Y9808643D01*
Y9808854D01*
Y9808960D01*
Y9809488D01*
X17286119Y9810122D01*
Y9810545D01*
Y9810756D01*
X17333984D01*
X17334407Y9812869D01*
X17334830Y9814983D01*
X17335040Y9817096D01*
X17335147Y9819104D01*
X17335252Y9820689D01*
X17335358Y9821428D01*
Y9823224D01*
X17335252Y9825866D01*
X17335040Y9828296D01*
X17334618Y9830621D01*
X17334196Y9832840D01*
X17333562Y9834742D01*
X17332928Y9836644D01*
X17332188Y9838334D01*
X17331554Y9839814D01*
X17330814Y9841187D01*
X17330075Y9842350D01*
X17329440Y9843301D01*
X17328807Y9844146D01*
X17328384Y9844780D01*
X17327962Y9845308D01*
X17327750Y9845520D01*
X17327644Y9845625D01*
X17326164Y9847105D01*
X17324580Y9848267D01*
X17322890Y9849429D01*
X17321199Y9850380D01*
X17319508Y9851120D01*
X17317818Y9851754D01*
X17316127Y9852282D01*
X17314542Y9852705D01*
X17312956Y9853127D01*
X17311584Y9853339D01*
X17310316Y9853550D01*
X17309154Y9853656D01*
X17308308Y9853761D01*
D02*
G37*
G36*
X17050806D02*
X17049538D01*
X17045839Y9853550D01*
X17042352Y9853127D01*
X17039076Y9852388D01*
X17036012Y9851331D01*
X17033266Y9850169D01*
X17030730Y9848901D01*
X17028297Y9847527D01*
X17026291Y9846154D01*
X17024390Y9844674D01*
X17022804Y9843301D01*
X17021429Y9842033D01*
X17020268Y9840870D01*
X17019423Y9839814D01*
X17018790Y9839074D01*
X17018365Y9838651D01*
X17018260Y9838440D01*
X17016887Y9836221D01*
X17015619Y9834002D01*
X17014561Y9831783D01*
X17013611Y9829564D01*
X17012871Y9827345D01*
X17012238Y9825232D01*
X17011710Y9823224D01*
X17011287Y9821217D01*
X17010864Y9819421D01*
X17010654Y9817730D01*
X17010442Y9816251D01*
X17010336Y9814983D01*
Y9813926D01*
X17010229Y9813186D01*
Y9812764D01*
Y9812552D01*
X17010336Y9809805D01*
X17010654Y9807269D01*
X17011075Y9804839D01*
X17011604Y9802514D01*
X17012343Y9800401D01*
X17013083Y9798499D01*
X17013821Y9796703D01*
X17014668Y9795012D01*
X17015514Y9793533D01*
X17016254Y9792265D01*
X17017097Y9791208D01*
X17017732Y9790363D01*
X17018260Y9789623D01*
X17018683Y9789095D01*
X17019000Y9788778D01*
X17019106Y9788672D01*
X17020796Y9787087D01*
X17022697Y9785714D01*
X17024495Y9784551D01*
X17026501Y9783495D01*
X17028404Y9782649D01*
X17030305Y9781910D01*
X17032208Y9781276D01*
X17034004Y9780853D01*
X17035695Y9780431D01*
X17037280Y9780219D01*
X17038654Y9780008D01*
X17039922Y9779797D01*
X17040872D01*
X17041612Y9779691D01*
X17042245D01*
X17044148Y9779797D01*
X17046049Y9779902D01*
X17049538Y9780536D01*
X17052707Y9781276D01*
X17054185Y9781804D01*
X17055453Y9782227D01*
X17056721Y9782755D01*
X17057779Y9783178D01*
X17058730Y9783600D01*
X17059470Y9784023D01*
X17060103Y9784340D01*
X17060526Y9784551D01*
X17060843Y9784657D01*
X17060950Y9784763D01*
X17062428Y9785819D01*
X17063907Y9786876D01*
X17066550Y9789412D01*
X17068874Y9791948D01*
X17070775Y9794484D01*
X17071622Y9795646D01*
X17072360Y9796703D01*
X17072890Y9797759D01*
X17073418Y9798605D01*
X17073840Y9799344D01*
X17074158Y9799873D01*
X17074261Y9800190D01*
X17074368Y9800295D01*
X17057249Y9803148D01*
X17056194Y9801458D01*
X17055031Y9799873D01*
X17053870Y9798605D01*
X17052602Y9797442D01*
X17051439Y9796491D01*
X17050171Y9795752D01*
X17049010Y9795118D01*
X17047742Y9794590D01*
X17046684Y9794167D01*
X17045627Y9793850D01*
X17044676Y9793639D01*
X17043938Y9793427D01*
X17043303D01*
X17042773Y9793322D01*
X17042352D01*
X17040237Y9793533D01*
X17038338Y9793956D01*
X17036646Y9794695D01*
X17035272Y9795435D01*
X17034109Y9796174D01*
X17033266Y9796914D01*
X17032736Y9797337D01*
X17032526Y9797548D01*
X17031151Y9799239D01*
X17030200Y9801141D01*
X17029462Y9803043D01*
X17029037Y9804839D01*
X17028722Y9806530D01*
X17028615Y9807164D01*
Y9807798D01*
X17028510Y9808326D01*
Y9808643D01*
Y9808854D01*
Y9808960D01*
Y9809488D01*
X17028615Y9810122D01*
Y9810545D01*
Y9810756D01*
X17076482D01*
X17076904Y9812869D01*
X17077327Y9814983D01*
X17077538Y9817096D01*
X17077644Y9819104D01*
X17077750Y9820689D01*
X17077855Y9821428D01*
Y9823224D01*
X17077750Y9825866D01*
X17077538Y9828296D01*
X17077115Y9830621D01*
X17076694Y9832840D01*
X17076059Y9834742D01*
X17075426Y9836644D01*
X17074686Y9838334D01*
X17074051Y9839814D01*
X17073311Y9841187D01*
X17072572Y9842350D01*
X17071938Y9843301D01*
X17071304Y9844146D01*
X17070882Y9844780D01*
X17070457Y9845308D01*
X17070247Y9845520D01*
X17070142Y9845625D01*
X17068661Y9847105D01*
X17067078Y9848267D01*
X17065385Y9849429D01*
X17063696Y9850380D01*
X17062006Y9851120D01*
X17060315Y9851754D01*
X17058624Y9852282D01*
X17057039Y9852705D01*
X17055453Y9853127D01*
X17054080Y9853339D01*
X17052812Y9853550D01*
X17051649Y9853656D01*
X17050806Y9853761D01*
D02*
G37*
G36*
X16862300D02*
X16861562D01*
X16858286Y9853656D01*
X16855115Y9853233D01*
X16852158Y9852705D01*
X16849409Y9851965D01*
X16846768Y9851014D01*
X16844443Y9850063D01*
X16842224Y9849006D01*
X16840218Y9847950D01*
X16838420Y9846788D01*
X16836835Y9845731D01*
X16835567Y9844780D01*
X16834406Y9843829D01*
X16833560Y9843089D01*
X16832925Y9842561D01*
X16832503Y9842138D01*
X16832397Y9842033D01*
X16830495Y9839708D01*
X16828806Y9837278D01*
X16827325Y9834742D01*
X16826057Y9832206D01*
X16825002Y9829564D01*
X16824049Y9826923D01*
X16823416Y9824387D01*
X16822781Y9821956D01*
X16822359Y9819632D01*
X16822041Y9817519D01*
X16821725Y9815617D01*
X16821620Y9813926D01*
X16821513Y9812552D01*
X16821408Y9811496D01*
Y9810650D01*
X16821620Y9807586D01*
X16822041Y9804628D01*
X16822571Y9801986D01*
X16823309Y9799661D01*
X16823627Y9798605D01*
X16823944Y9797654D01*
X16824261Y9796914D01*
X16824577Y9796174D01*
X16824789Y9795646D01*
X16825002Y9795223D01*
X16825107Y9795012D01*
Y9794906D01*
X16826692Y9792371D01*
X16828488Y9790046D01*
X16830389Y9788144D01*
X16832292Y9786559D01*
X16833981Y9785291D01*
X16834721Y9784763D01*
X16835356Y9784340D01*
X16835884Y9784023D01*
X16836307Y9783812D01*
X16836517Y9783600D01*
X16836624D01*
X16839583Y9782332D01*
X16842647Y9781382D01*
X16845605Y9780642D01*
X16848354Y9780219D01*
X16849622Y9780008D01*
X16850783Y9779902D01*
X16851840Y9779797D01*
X16852686D01*
X16853426Y9779691D01*
X16854375D01*
X16857758Y9779797D01*
X16860927Y9780219D01*
X16863885Y9780853D01*
X16866737Y9781593D01*
X16869380Y9782544D01*
X16871704Y9783600D01*
X16873923Y9784763D01*
X16875931Y9785925D01*
X16877727Y9787087D01*
X16879312Y9788250D01*
X16880685Y9789306D01*
X16881741Y9790257D01*
X16882588Y9790997D01*
X16883221Y9791631D01*
X16883644Y9792054D01*
X16883749Y9792159D01*
X16885652Y9794590D01*
X16887343Y9797020D01*
X16888821Y9799556D01*
X16890089Y9802092D01*
X16891147Y9804628D01*
X16892097Y9807058D01*
X16892838Y9809488D01*
X16893365Y9811707D01*
X16893788Y9813820D01*
X16894211Y9815722D01*
X16894421Y9817519D01*
X16894528Y9818998D01*
X16894633Y9820160D01*
X16894739Y9821111D01*
Y9821851D01*
X16894633Y9824492D01*
X16894316Y9827028D01*
X16893893Y9829459D01*
X16893365Y9831678D01*
X16892732Y9833685D01*
X16891885Y9835587D01*
X16891147Y9837383D01*
X16890302Y9838968D01*
X16889456Y9840342D01*
X16888716Y9841610D01*
X16887978Y9842667D01*
X16887238Y9843512D01*
X16886710Y9844252D01*
X16886285Y9844674D01*
X16885970Y9844991D01*
X16885863Y9845097D01*
X16884174Y9846576D01*
X16882271Y9847950D01*
X16880370Y9849112D01*
X16878362Y9850063D01*
X16876353Y9850908D01*
X16874345Y9851648D01*
X16872337Y9852176D01*
X16870436Y9852705D01*
X16868640Y9853022D01*
X16866949Y9853339D01*
X16865469Y9853550D01*
X16864098Y9853656D01*
X16863040D01*
X16862300Y9853761D01*
D02*
G37*
%LPD*%
G36*
X16784003Y9862848D02*
X16785271Y9862743D01*
X16786433D01*
X16787489Y9862637D01*
X16788441Y9862531D01*
X16789182Y9862426D01*
X16789815Y9862320D01*
X16790450Y9862214D01*
X16791188Y9862109D01*
X16791718Y9861897D01*
X16791821D01*
X16792879Y9861475D01*
X16793724Y9860946D01*
X16794464Y9860418D01*
X16795097Y9859784D01*
X16795625Y9859362D01*
X16795943Y9858939D01*
X16796155Y9858622D01*
X16796260Y9858516D01*
X16796790Y9857671D01*
X16797211Y9856720D01*
X16797423Y9855769D01*
X16797633Y9854818D01*
X16797740Y9854078D01*
X16797845Y9853444D01*
Y9852916D01*
Y9852810D01*
X16797740Y9850908D01*
X16797423Y9849112D01*
X16796893Y9847527D01*
X16796365Y9846048D01*
X16795732Y9844886D01*
X16795309Y9843935D01*
X16794887Y9843406D01*
X16794781Y9843195D01*
X16793513Y9841716D01*
X16792139Y9840342D01*
X16790765Y9839285D01*
X16789392Y9838440D01*
X16788229Y9837700D01*
X16787173Y9837278D01*
X16786539Y9836961D01*
X16786433Y9836855D01*
X16786328D01*
X16785271Y9836538D01*
X16783897Y9836221D01*
X16782417Y9836010D01*
X16780833Y9835798D01*
X16777345Y9835376D01*
X16773753Y9835164D01*
X16772063D01*
X16770477Y9835059D01*
X16768999D01*
X16767731Y9834953D01*
X16758961D01*
X16764877Y9862954D01*
X16782629D01*
X16784003Y9862848D01*
D02*
G37*
G36*
X17545100Y9839180D02*
X17547214Y9838757D01*
X17548904Y9838123D01*
X17550385Y9837383D01*
X17551547Y9836538D01*
X17552393Y9835904D01*
X17552921Y9835481D01*
X17553133Y9835270D01*
X17554504Y9833580D01*
X17555457Y9831783D01*
X17556197Y9829987D01*
X17556618Y9828296D01*
X17556935Y9826711D01*
X17557040Y9825549D01*
X17557147Y9825021D01*
Y9824704D01*
Y9824492D01*
Y9824387D01*
X17557040Y9821851D01*
X17556830Y9819421D01*
X17556407Y9817096D01*
X17555984Y9814983D01*
X17555350Y9812869D01*
X17554716Y9810967D01*
X17554082Y9809277D01*
X17553343Y9807586D01*
X17552603Y9806213D01*
X17551968Y9804839D01*
X17551335Y9803782D01*
X17550700Y9802831D01*
X17550279Y9802092D01*
X17549857Y9801563D01*
X17549644Y9801246D01*
X17549539Y9801141D01*
X17548482Y9799978D01*
X17547426Y9798922D01*
X17546368Y9798076D01*
X17545207Y9797337D01*
X17544044Y9796703D01*
X17542989Y9796069D01*
X17540874Y9795329D01*
X17539078Y9794801D01*
X17538339Y9794695D01*
X17537599Y9794590D01*
X17537071Y9794484D01*
X17536331D01*
X17534113Y9794695D01*
X17532104Y9795223D01*
X17530309Y9795857D01*
X17528828Y9796703D01*
X17527560Y9797548D01*
X17526717Y9798182D01*
X17526187Y9798710D01*
X17525977Y9798922D01*
X17524602Y9800718D01*
X17523546Y9802726D01*
X17522913Y9804733D01*
X17522383Y9806635D01*
X17522066Y9808326D01*
X17521960Y9809065D01*
Y9809699D01*
X17521855Y9810228D01*
Y9810650D01*
Y9810862D01*
Y9810967D01*
X17521960Y9813292D01*
X17522278Y9815617D01*
X17522701Y9817941D01*
X17523228Y9819949D01*
X17523651Y9821745D01*
X17523863Y9822485D01*
X17524074Y9823119D01*
X17524284Y9823647D01*
X17524391Y9824070D01*
X17524496Y9824281D01*
Y9824387D01*
X17525552Y9826923D01*
X17526820Y9829247D01*
X17527983Y9831149D01*
X17529146Y9832629D01*
X17530202Y9833897D01*
X17531152Y9834742D01*
X17531682Y9835270D01*
X17531892Y9835481D01*
X17533795Y9836749D01*
X17535696Y9837700D01*
X17537492Y9838440D01*
X17539185Y9838863D01*
X17540663Y9839180D01*
X17541824Y9839285D01*
X17542249Y9839391D01*
X17542882D01*
X17545100Y9839180D01*
D02*
G37*
G36*
X17307040Y9839919D02*
X17308942Y9839497D01*
X17310527Y9838863D01*
X17311900Y9838123D01*
X17312956Y9837383D01*
X17313696Y9836749D01*
X17314224Y9836327D01*
X17314331Y9836115D01*
X17315492Y9834530D01*
X17316444Y9832629D01*
X17317078Y9830621D01*
X17317500Y9828719D01*
X17317712Y9827028D01*
X17317818Y9826289D01*
X17317923Y9825549D01*
Y9825021D01*
Y9824598D01*
Y9824387D01*
Y9824281D01*
Y9823753D01*
Y9823119D01*
Y9822590D01*
Y9822485D01*
Y9822379D01*
X17288020D01*
X17288760Y9825443D01*
X17289711Y9828191D01*
X17290768Y9830410D01*
X17291824Y9832312D01*
X17292775Y9833685D01*
X17293620Y9834742D01*
X17294148Y9835376D01*
X17294360Y9835587D01*
X17295206Y9836432D01*
X17296156Y9837066D01*
X17297952Y9838229D01*
X17299750Y9839074D01*
X17301440Y9839602D01*
X17302814Y9839919D01*
X17303976Y9840025D01*
X17304398Y9840131D01*
X17304927D01*
X17307040Y9839919D01*
D02*
G37*
G36*
X17049538D02*
X17051439Y9839497D01*
X17053024Y9838863D01*
X17054398Y9838123D01*
X17055453Y9837383D01*
X17056194Y9836749D01*
X17056721Y9836327D01*
X17056828Y9836115D01*
X17057990Y9834530D01*
X17058942Y9832629D01*
X17059575Y9830621D01*
X17059998Y9828719D01*
X17060210Y9827028D01*
X17060315Y9826289D01*
X17060420Y9825549D01*
Y9825021D01*
Y9824598D01*
Y9824387D01*
Y9824281D01*
Y9823753D01*
Y9823119D01*
Y9822590D01*
Y9822485D01*
Y9822379D01*
X17030518D01*
X17031258Y9825443D01*
X17032208Y9828191D01*
X17033266Y9830410D01*
X17034322Y9832312D01*
X17035272Y9833685D01*
X17036118Y9834742D01*
X17036646Y9835376D01*
X17036858Y9835587D01*
X17037703Y9836432D01*
X17038654Y9837066D01*
X17040450Y9838229D01*
X17042245Y9839074D01*
X17043938Y9839602D01*
X17045309Y9839919D01*
X17046474Y9840025D01*
X17046895Y9840131D01*
X17047424D01*
X17049538Y9839919D01*
D02*
G37*
G36*
X16863780Y9839180D02*
X16865894Y9838757D01*
X16867583Y9838123D01*
X16869063Y9837383D01*
X16870226Y9836538D01*
X16871069Y9835904D01*
X16871599Y9835481D01*
X16871809Y9835270D01*
X16873184Y9833580D01*
X16874135Y9831783D01*
X16874873Y9829987D01*
X16875298Y9828296D01*
X16875613Y9826711D01*
X16875720Y9825549D01*
X16875826Y9825021D01*
Y9824704D01*
Y9824492D01*
Y9824387D01*
X16875720Y9821851D01*
X16875508Y9819421D01*
X16875085Y9817096D01*
X16874663Y9814983D01*
X16874030Y9812869D01*
X16873395Y9810967D01*
X16872762Y9809277D01*
X16872021Y9807586D01*
X16871281Y9806213D01*
X16870648Y9804839D01*
X16870013Y9803782D01*
X16869380Y9802831D01*
X16868958Y9802092D01*
X16868533Y9801563D01*
X16868323Y9801246D01*
X16868217Y9801141D01*
X16867162Y9799978D01*
X16866104Y9798922D01*
X16865048Y9798076D01*
X16863885Y9797337D01*
X16862723Y9796703D01*
X16861665Y9796069D01*
X16859554Y9795329D01*
X16857758Y9794801D01*
X16857018Y9794695D01*
X16856277Y9794590D01*
X16855750Y9794484D01*
X16855009D01*
X16852791Y9794695D01*
X16850783Y9795223D01*
X16848987Y9795857D01*
X16847507Y9796703D01*
X16846239Y9797548D01*
X16845393Y9798182D01*
X16844865Y9798710D01*
X16844653Y9798922D01*
X16843282Y9800718D01*
X16842224Y9802726D01*
X16841589Y9804733D01*
X16841061Y9806635D01*
X16840746Y9808326D01*
X16840639Y9809065D01*
Y9809699D01*
X16840533Y9810228D01*
Y9810650D01*
Y9810862D01*
Y9810967D01*
X16840639Y9813292D01*
X16840956Y9815617D01*
X16841379Y9817941D01*
X16841907Y9819949D01*
X16842329Y9821745D01*
X16842542Y9822485D01*
X16842752Y9823119D01*
X16842964Y9823647D01*
X16843069Y9824070D01*
X16843175Y9824281D01*
Y9824387D01*
X16844232Y9826923D01*
X16845500Y9829247D01*
X16846661Y9831149D01*
X16847824Y9832629D01*
X16848882Y9833897D01*
X16849832Y9834742D01*
X16850360Y9835270D01*
X16850572Y9835481D01*
X16852473Y9836749D01*
X16854375Y9837700D01*
X16856172Y9838440D01*
X16857861Y9838863D01*
X16859341Y9839180D01*
X16860504Y9839285D01*
X16860927Y9839391D01*
X16861562D01*
X16863780Y9839180D01*
D02*
G37*
%LPC*%
G36*
X17494347Y8177215D02*
X17475327D01*
X17471733Y8159992D01*
X17490753D01*
X17494347Y8177215D01*
D02*
G37*
G36*
X16971204Y8151961D02*
X16970146D01*
X16968033Y8151856D01*
X16966026Y8151644D01*
X16964124Y8151327D01*
X16962540Y8150905D01*
X16961165Y8150482D01*
X16960107Y8150165D01*
X16959792Y8150059D01*
X16959474Y8149954D01*
X16959369Y8149848D01*
X16959264D01*
X16957361Y8149003D01*
X16955460Y8147946D01*
X16953664Y8146784D01*
X16951971Y8145622D01*
X16950600Y8144671D01*
X16949435Y8143825D01*
X16949014Y8143403D01*
X16948697Y8143191D01*
X16948592Y8143086D01*
X16948485Y8142980D01*
X16949965Y8150376D01*
X16932002D01*
X16911609Y8052743D01*
X16930522D01*
X16938130Y8089197D01*
X16939503Y8087189D01*
X16941089Y8085499D01*
X16942780Y8083914D01*
X16944470Y8082646D01*
X16946266Y8081589D01*
X16948064Y8080638D01*
X16949753Y8079898D01*
X16951443Y8079265D01*
X16953029Y8078842D01*
X16954507Y8078525D01*
X16955882Y8078208D01*
X16957043Y8078102D01*
X16957996Y8077997D01*
X16958736Y8077891D01*
X16959369D01*
X16961905Y8077997D01*
X16964336Y8078419D01*
X16966660Y8078948D01*
X16968878Y8079687D01*
X16970992Y8080532D01*
X16972894Y8081483D01*
X16974690Y8082434D01*
X16976381Y8083491D01*
X16977859Y8084548D01*
X16979128Y8085499D01*
X16980290Y8086450D01*
X16981241Y8087295D01*
X16981981Y8088035D01*
X16982616Y8088563D01*
X16982932Y8088986D01*
X16983037Y8089091D01*
X16985152Y8091627D01*
X16986948Y8094269D01*
X16988426Y8097016D01*
X16989799Y8099763D01*
X16990962Y8102405D01*
X16991913Y8105152D01*
X16992653Y8107688D01*
X16993288Y8110224D01*
X16993816Y8112549D01*
X16994131Y8114662D01*
X16994449Y8116564D01*
X16994556Y8118255D01*
X16994659Y8119628D01*
X16994766Y8120579D01*
Y8121424D01*
X16994659Y8124172D01*
X16994449Y8126813D01*
X16994131Y8129138D01*
X16993709Y8131463D01*
X16993181Y8133470D01*
X16992653Y8135372D01*
X16992020Y8137063D01*
X16991385Y8138542D01*
X16990752Y8139916D01*
X16990117Y8141078D01*
X16989589Y8142029D01*
X16989059Y8142874D01*
X16988638Y8143403D01*
X16988321Y8143931D01*
X16988109Y8144142D01*
X16988004Y8144248D01*
X16986736Y8145622D01*
X16985255Y8146784D01*
X16983884Y8147840D01*
X16982404Y8148686D01*
X16980818Y8149425D01*
X16979340Y8150059D01*
X16977966Y8150588D01*
X16976591Y8151010D01*
X16975218Y8151327D01*
X16974055Y8151539D01*
X16972894Y8151750D01*
X16971944Y8151856D01*
X16971204Y8151961D01*
D02*
G37*
G36*
X17633295D02*
X17632448D01*
X17630019Y8151856D01*
X17627693Y8151539D01*
X17625580Y8151116D01*
X17623784Y8150693D01*
X17622198Y8150271D01*
X17621565Y8150059D01*
X17621037Y8149848D01*
X17620615Y8149637D01*
X17620297Y8149531D01*
X17620087Y8149425D01*
X17619980D01*
X17617761Y8148369D01*
X17615543Y8147101D01*
X17613322Y8145622D01*
X17611421Y8144354D01*
X17609731Y8143086D01*
X17609097Y8142557D01*
X17608463Y8142029D01*
X17607935Y8141606D01*
X17607617Y8141289D01*
X17607407Y8141184D01*
X17607300Y8141078D01*
X17609097Y8150376D01*
X17590923D01*
X17576234Y8079687D01*
X17595149D01*
X17601172Y8108639D01*
X17601700Y8110964D01*
X17602228Y8112971D01*
X17602650Y8114873D01*
X17603075Y8116670D01*
X17603496Y8118149D01*
X17603918Y8119522D01*
X17604343Y8120790D01*
X17604659Y8121847D01*
X17604976Y8122692D01*
X17605293Y8123432D01*
X17605504Y8124066D01*
X17605714Y8124594D01*
X17605927Y8125017D01*
X17606032Y8125228D01*
X17606139Y8125440D01*
X17607300Y8127553D01*
X17608675Y8129349D01*
X17610048Y8130934D01*
X17611316Y8132308D01*
X17612479Y8133364D01*
X17613429Y8134104D01*
X17614062Y8134632D01*
X17614168Y8134738D01*
X17614275D01*
X17616176Y8135900D01*
X17617972Y8136851D01*
X17619557Y8137485D01*
X17620930Y8137908D01*
X17622093Y8138119D01*
X17623044Y8138331D01*
X17623784D01*
X17625159Y8138225D01*
X17626427Y8138014D01*
X17627376Y8137697D01*
X17628223Y8137274D01*
X17628961Y8136851D01*
X17629384Y8136534D01*
X17629701Y8136323D01*
X17629807Y8136217D01*
X17630547Y8135372D01*
X17631075Y8134421D01*
X17631497Y8133470D01*
X17631709Y8132519D01*
X17631920Y8131674D01*
X17632027Y8131040D01*
Y8130617D01*
Y8130406D01*
Y8129983D01*
X17631920Y8129455D01*
X17631815Y8128715D01*
X17631709Y8127976D01*
X17631392Y8126179D01*
X17631075Y8124383D01*
X17630759Y8122587D01*
X17630547Y8121741D01*
X17630441Y8121107D01*
X17630334Y8120473D01*
X17630229Y8120051D01*
X17630124Y8119734D01*
Y8119628D01*
X17621458Y8079687D01*
X17640373D01*
X17649039Y8119522D01*
X17649460Y8121424D01*
X17649777Y8123115D01*
X17650095Y8124700D01*
X17650307Y8126074D01*
X17650517Y8127447D01*
X17650728Y8128504D01*
X17650940Y8129561D01*
X17651045Y8130512D01*
X17651151Y8131251D01*
X17651257Y8131885D01*
Y8132519D01*
X17651363Y8132942D01*
Y8133681D01*
X17651257Y8135161D01*
X17651151Y8136640D01*
X17650623Y8139176D01*
X17649777Y8141501D01*
X17648827Y8143403D01*
X17647874Y8144882D01*
X17647453Y8145516D01*
X17647136Y8145938D01*
X17646713Y8146361D01*
X17646503Y8146678D01*
X17646396Y8146784D01*
X17646291Y8146889D01*
X17645338Y8147735D01*
X17644283Y8148580D01*
X17641959Y8149848D01*
X17639635Y8150693D01*
X17637520Y8151327D01*
X17635513Y8151750D01*
X17634666Y8151856D01*
X17633928D01*
X17633295Y8151961D01*
D02*
G37*
G36*
X16891956D02*
X16891110D01*
X16888680Y8151856D01*
X16886356Y8151539D01*
X16884242Y8151116D01*
X16882445Y8150693D01*
X16880859Y8150271D01*
X16880226Y8150059D01*
X16879698Y8149848D01*
X16879276Y8149637D01*
X16878958Y8149531D01*
X16878748Y8149425D01*
X16878641D01*
X16876422Y8148369D01*
X16874203Y8147101D01*
X16871985Y8145622D01*
X16870084Y8144354D01*
X16868391Y8143086D01*
X16867758Y8142557D01*
X16867123Y8142029D01*
X16866595Y8141606D01*
X16866280Y8141289D01*
X16866068Y8141184D01*
X16865962Y8141078D01*
X16867758Y8150376D01*
X16849583D01*
X16836481Y8087316D01*
X16834895Y8079687D01*
X16853810D01*
X16859833Y8108639D01*
X16860362Y8110964D01*
X16860890Y8112971D01*
X16861311Y8114873D01*
X16861736Y8116670D01*
X16862158Y8118149D01*
X16862579Y8119522D01*
X16863004Y8120790D01*
X16863319Y8121847D01*
X16863637Y8122692D01*
X16863954Y8123432D01*
X16864165Y8124066D01*
X16864377Y8124594D01*
X16864587Y8125017D01*
X16864694Y8125228D01*
X16864799Y8125440D01*
X16865962Y8127553D01*
X16867336Y8129349D01*
X16868709Y8130934D01*
X16869977Y8132308D01*
X16871140Y8133364D01*
X16872090Y8134104D01*
X16872723Y8134632D01*
X16872830Y8134738D01*
X16872935D01*
X16874837Y8135900D01*
X16876634Y8136851D01*
X16878220Y8137485D01*
X16879591Y8137908D01*
X16880756Y8138119D01*
X16881706Y8138331D01*
X16882445D01*
X16883820Y8138225D01*
X16885088Y8138014D01*
X16886038Y8137697D01*
X16886884Y8137274D01*
X16887624Y8136851D01*
X16888045Y8136534D01*
X16888362Y8136323D01*
X16888467Y8136217D01*
X16889207Y8135372D01*
X16889735Y8134421D01*
X16890160Y8133470D01*
X16890370Y8132519D01*
X16890581Y8131674D01*
X16890688Y8131040D01*
Y8130617D01*
Y8130406D01*
Y8129983D01*
X16890581Y8129455D01*
X16890475Y8128715D01*
X16890370Y8127976D01*
X16890053Y8126179D01*
X16889735Y8124383D01*
X16889420Y8122587D01*
X16889207Y8121741D01*
X16889102Y8121107D01*
X16888995Y8120473D01*
X16888892Y8120051D01*
X16888785Y8119734D01*
Y8119628D01*
X16880121Y8079687D01*
X16899036D01*
X16907700Y8119522D01*
X16908122Y8121424D01*
X16908440Y8123115D01*
X16908755Y8124700D01*
X16908968Y8126074D01*
X16909178Y8127447D01*
X16909390Y8128504D01*
X16909601Y8129561D01*
X16909708Y8130512D01*
X16909811Y8131251D01*
X16909918Y8131885D01*
Y8132519D01*
X16910023Y8132942D01*
Y8133681D01*
X16909918Y8135161D01*
X16909811Y8136640D01*
X16909283Y8139176D01*
X16908440Y8141501D01*
X16907487Y8143403D01*
X16906537Y8144882D01*
X16906114Y8145516D01*
X16905797Y8145938D01*
X16905374Y8146361D01*
X16905164Y8146678D01*
X16905057Y8146784D01*
X16904951Y8146889D01*
X16904001Y8147735D01*
X16902943Y8148580D01*
X16900620Y8149848D01*
X16898296Y8150693D01*
X16896182Y8151327D01*
X16894174Y8151750D01*
X16893329Y8151856D01*
X16892589D01*
X16891956Y8151961D01*
D02*
G37*
G36*
X17378114D02*
X17376953D01*
X17374840Y8151856D01*
X17372726Y8151750D01*
X17368817Y8151010D01*
X17366914Y8150588D01*
X17365224Y8150059D01*
X17363533Y8149531D01*
X17362054Y8149003D01*
X17360681Y8148474D01*
X17359413Y8147946D01*
X17358356Y8147418D01*
X17357405Y8146995D01*
X17356665Y8146572D01*
X17356137Y8146255D01*
X17355820Y8146150D01*
X17355714Y8146044D01*
X17354024Y8144882D01*
X17352333Y8143614D01*
X17350854Y8142346D01*
X17349374Y8141078D01*
X17348106Y8139704D01*
X17346944Y8138331D01*
X17345888Y8137063D01*
X17344937Y8135795D01*
X17344090Y8134527D01*
X17343352Y8133470D01*
X17342719Y8132414D01*
X17342189Y8131568D01*
X17341872Y8130829D01*
X17341554Y8130300D01*
X17341451Y8129983D01*
X17341344Y8129878D01*
X17340498Y8127976D01*
X17339758Y8125968D01*
X17338597Y8122164D01*
X17337750Y8118466D01*
X17337434Y8116775D01*
X17337222Y8115190D01*
X17337012Y8113605D01*
X17336800Y8112337D01*
X17336694Y8111069D01*
Y8110118D01*
X17336589Y8109273D01*
Y8108111D01*
X17336694Y8105575D01*
X17336906Y8103145D01*
X17337329Y8100820D01*
X17337857Y8098707D01*
X17338385Y8096699D01*
X17339125Y8094903D01*
X17339865Y8093212D01*
X17340604Y8091733D01*
X17341344Y8090359D01*
X17341978Y8089197D01*
X17342719Y8088246D01*
X17343246Y8087401D01*
X17343774Y8086767D01*
X17344197Y8086344D01*
X17344408Y8086027D01*
X17344514Y8085921D01*
X17346098Y8084548D01*
X17347684Y8083280D01*
X17349480Y8082223D01*
X17351170Y8081272D01*
X17352966Y8080532D01*
X17354762Y8079898D01*
X17356560Y8079370D01*
X17358250Y8078948D01*
X17359834Y8078525D01*
X17361314Y8078314D01*
X17362582Y8078102D01*
X17363745Y8077997D01*
X17364696D01*
X17365331Y8077891D01*
X17365964D01*
X17368182Y8077997D01*
X17370296Y8078208D01*
X17372304Y8078525D01*
X17374207Y8078948D01*
X17376003Y8079370D01*
X17377798Y8079898D01*
X17379382Y8080532D01*
X17380862Y8081166D01*
X17382130Y8081695D01*
X17383293Y8082329D01*
X17384349Y8082857D01*
X17385194Y8083385D01*
X17385829Y8083702D01*
X17386357Y8084019D01*
X17386674Y8084231D01*
X17386780Y8084336D01*
X17388365Y8085604D01*
X17389949Y8086978D01*
X17392697Y8090042D01*
X17395021Y8093106D01*
X17396922Y8096171D01*
X17397769Y8097544D01*
X17398508Y8098918D01*
X17399037Y8100080D01*
X17399565Y8101137D01*
X17399883Y8101982D01*
X17400198Y8102616D01*
X17400410Y8103039D01*
Y8103145D01*
X17381813Y8106209D01*
X17380862Y8103884D01*
X17379700Y8101877D01*
X17378642Y8100080D01*
X17377481Y8098707D01*
X17376530Y8097544D01*
X17375790Y8096805D01*
X17375262Y8096382D01*
X17375050Y8096171D01*
X17373466Y8095114D01*
X17371881Y8094269D01*
X17370403Y8093740D01*
X17369028Y8093318D01*
X17367867Y8093106D01*
X17367020Y8093001D01*
X17366386Y8092895D01*
X17366174D01*
X17364590Y8093001D01*
X17363110Y8093423D01*
X17361737Y8093952D01*
X17360681Y8094586D01*
X17359731Y8095220D01*
X17359096Y8095748D01*
X17358673Y8096171D01*
X17358566Y8096276D01*
X17357510Y8097650D01*
X17356770Y8099235D01*
X17356242Y8100820D01*
X17355927Y8102405D01*
X17355714Y8103779D01*
X17355502Y8104835D01*
Y8105258D01*
Y8105575D01*
Y8105786D01*
Y8105892D01*
X17355609Y8108639D01*
X17355927Y8111386D01*
X17356348Y8113922D01*
X17356770Y8116353D01*
X17356982Y8117409D01*
X17357195Y8118360D01*
X17357405Y8119206D01*
X17357616Y8119945D01*
X17357828Y8120473D01*
X17357933Y8121002D01*
X17358038Y8121213D01*
Y8121319D01*
X17359096Y8124172D01*
X17360258Y8126708D01*
X17361420Y8128821D01*
X17362688Y8130617D01*
X17363745Y8131991D01*
X17364590Y8132942D01*
X17365118Y8133470D01*
X17365331Y8133681D01*
X17367126Y8135055D01*
X17369028Y8136112D01*
X17370824Y8136851D01*
X17372409Y8137380D01*
X17373782Y8137697D01*
X17374840Y8137802D01*
X17375262Y8137908D01*
X17375790D01*
X17377481Y8137802D01*
X17378960Y8137485D01*
X17380334Y8136957D01*
X17381390Y8136534D01*
X17382343Y8136006D01*
X17382976Y8135478D01*
X17383398Y8135161D01*
X17383504Y8135055D01*
X17384561Y8133893D01*
X17385300Y8132519D01*
X17385934Y8131040D01*
X17386462Y8129561D01*
X17386780Y8128293D01*
X17387097Y8127236D01*
Y8126813D01*
X17387202Y8126496D01*
Y8126391D01*
Y8126285D01*
X17405376Y8128187D01*
X17405165Y8130195D01*
X17404742Y8131991D01*
X17404214Y8133787D01*
X17403687Y8135372D01*
X17402946Y8136957D01*
X17402312Y8138331D01*
X17401573Y8139599D01*
X17400833Y8140761D01*
X17400093Y8141818D01*
X17399355Y8142769D01*
X17398720Y8143614D01*
X17398087Y8144248D01*
X17397662Y8144776D01*
X17397240Y8145093D01*
X17397029Y8145305D01*
X17396922Y8145410D01*
X17395444Y8146572D01*
X17393965Y8147523D01*
X17392380Y8148474D01*
X17390689Y8149214D01*
X17388998Y8149848D01*
X17387308Y8150376D01*
X17384138Y8151116D01*
X17382658Y8151433D01*
X17381285Y8151644D01*
X17380122Y8151750D01*
X17379066Y8151856D01*
X17378114Y8151961D01*
D02*
G37*
G36*
X17077711Y8150376D02*
X17058482D01*
X17050980Y8116564D01*
X17050452Y8114345D01*
X17049924Y8112443D01*
X17049500Y8110752D01*
X17049077Y8109484D01*
X17048759Y8108428D01*
X17048549Y8107688D01*
X17048444Y8107160D01*
X17048338Y8107054D01*
X17047704Y8105575D01*
X17047176Y8104201D01*
X17046541Y8103039D01*
X17046013Y8102088D01*
X17045590Y8101243D01*
X17045168Y8100714D01*
X17044957Y8100292D01*
X17044852Y8100186D01*
X17043477Y8098284D01*
X17042738Y8097544D01*
X17042104Y8096805D01*
X17041470Y8096276D01*
X17041048Y8095854D01*
X17040730Y8095537D01*
X17040623Y8095431D01*
X17038934Y8094163D01*
X17038194Y8093635D01*
X17037454Y8093212D01*
X17036926Y8092895D01*
X17036504Y8092684D01*
X17036186Y8092473D01*
X17036081D01*
X17034390Y8091944D01*
X17033015Y8091627D01*
X17032382D01*
X17031960Y8091522D01*
X17031537D01*
X17030376Y8091627D01*
X17029424Y8091839D01*
X17028473Y8092156D01*
X17027733Y8092578D01*
X17027205Y8093001D01*
X17026677Y8093318D01*
X17026465Y8093529D01*
X17026360Y8093635D01*
X17025726Y8094480D01*
X17025197Y8095431D01*
X17024879Y8096276D01*
X17024564Y8097122D01*
X17024458Y8097861D01*
X17024352Y8098390D01*
Y8098812D01*
Y8098918D01*
Y8099341D01*
X17024458Y8099869D01*
X17024669Y8101243D01*
X17024879Y8102722D01*
X17025197Y8104307D01*
X17025514Y8105892D01*
X17025832Y8107160D01*
X17025937Y8107582D01*
Y8108005D01*
X17026044Y8108216D01*
Y8108322D01*
X17035551Y8150376D01*
X17016428D01*
X17007552Y8110858D01*
X17007129Y8108956D01*
X17006706Y8107160D01*
X17006389Y8105469D01*
X17006178Y8103990D01*
X17005966Y8102616D01*
X17005756Y8101454D01*
X17005544Y8100397D01*
X17005438Y8099446D01*
X17005333Y8098707D01*
X17005228Y8098073D01*
Y8097439D01*
X17005121Y8097016D01*
Y8096276D01*
X17005228Y8094797D01*
X17005333Y8093318D01*
X17005861Y8090676D01*
X17006599Y8088352D01*
X17007446Y8086450D01*
X17008185Y8084865D01*
X17008607Y8084336D01*
X17008925Y8083808D01*
X17009242Y8083385D01*
X17009453Y8083068D01*
X17009665Y8082963D01*
Y8082857D01*
X17010616Y8082012D01*
X17011568Y8081272D01*
X17013574Y8080004D01*
X17015688Y8079159D01*
X17017801Y8078525D01*
X17019597Y8078208D01*
X17020337Y8077997D01*
X17020972D01*
X17021605Y8077891D01*
X17022343D01*
X17024669Y8077997D01*
X17026994Y8078419D01*
X17029213Y8078948D01*
X17031326Y8079582D01*
X17033440Y8080427D01*
X17035341Y8081378D01*
X17037137Y8082329D01*
X17038828Y8083385D01*
X17040308Y8084442D01*
X17041681Y8085393D01*
X17042949Y8086344D01*
X17043900Y8087189D01*
X17044745Y8087823D01*
X17045274Y8088457D01*
X17045695Y8088774D01*
X17045802Y8088880D01*
X17043794Y8079687D01*
X17061757D01*
X17077711Y8150376D01*
D02*
G37*
G36*
X17488745D02*
X17469727D01*
X17455038Y8079687D01*
X17473952D01*
X17488745Y8150376D01*
D02*
G37*
G36*
X16836481Y8177215D02*
X16816405D01*
X16796118Y8079687D01*
X16816087D01*
X16836481Y8177215D01*
D02*
G37*
G36*
X17536505Y8151961D02*
X17535767D01*
X17532491Y8151856D01*
X17529320Y8151433D01*
X17526363Y8150905D01*
X17523615Y8150165D01*
X17520973Y8149214D01*
X17518648Y8148263D01*
X17516429Y8147206D01*
X17514423Y8146150D01*
X17512625Y8144988D01*
X17511040Y8143931D01*
X17509772Y8142980D01*
X17508611Y8142029D01*
X17507765Y8141289D01*
X17507130Y8140761D01*
X17506708Y8140338D01*
X17506602Y8140233D01*
X17504701Y8137908D01*
X17503011Y8135478D01*
X17501530Y8132942D01*
X17500262Y8130406D01*
X17499207Y8127764D01*
X17498254Y8125123D01*
X17497621Y8122587D01*
X17496986Y8120156D01*
X17496564Y8117832D01*
X17496246Y8115719D01*
X17495930Y8113817D01*
X17495825Y8112126D01*
X17495718Y8110752D01*
X17495613Y8109696D01*
Y8108850D01*
X17495825Y8105786D01*
X17496246Y8102828D01*
X17496776Y8100186D01*
X17497514Y8097861D01*
X17497832Y8096805D01*
X17498149Y8095854D01*
X17498466Y8095114D01*
X17498782Y8094374D01*
X17498994Y8093846D01*
X17499207Y8093423D01*
X17499312Y8093212D01*
Y8093106D01*
X17500897Y8090571D01*
X17502693Y8088246D01*
X17504594Y8086344D01*
X17506497Y8084759D01*
X17508186Y8083491D01*
X17508926Y8082963D01*
X17509561Y8082540D01*
X17510089Y8082223D01*
X17510512Y8082012D01*
X17510722Y8081800D01*
X17510829D01*
X17513788Y8080532D01*
X17516852Y8079582D01*
X17519810Y8078842D01*
X17522559Y8078419D01*
X17523827Y8078208D01*
X17524988Y8078102D01*
X17526045Y8077997D01*
X17526891D01*
X17527631Y8077891D01*
X17528581D01*
X17531963Y8077997D01*
X17535132Y8078419D01*
X17538091Y8079053D01*
X17540942Y8079793D01*
X17543585Y8080744D01*
X17545911Y8081800D01*
X17548128Y8082963D01*
X17550136Y8084125D01*
X17551932Y8085287D01*
X17553517Y8086450D01*
X17554890Y8087506D01*
X17555948Y8088457D01*
X17556793Y8089197D01*
X17557426Y8089831D01*
X17557851Y8090254D01*
X17557954Y8090359D01*
X17559857Y8092790D01*
X17561548Y8095220D01*
X17563026Y8097756D01*
X17564294Y8100292D01*
X17565352Y8102828D01*
X17566302Y8105258D01*
X17567043Y8107688D01*
X17567570Y8109907D01*
X17567993Y8112020D01*
X17568416Y8113922D01*
X17568626Y8115719D01*
X17568733Y8117198D01*
X17568839Y8118360D01*
X17568944Y8119311D01*
Y8120051D01*
X17568839Y8122692D01*
X17568523Y8125228D01*
X17568098Y8127659D01*
X17567570Y8129878D01*
X17566937Y8131885D01*
X17566090Y8133787D01*
X17565352Y8135583D01*
X17564507Y8137168D01*
X17563661Y8138542D01*
X17562921Y8139810D01*
X17562183Y8140867D01*
X17561443Y8141712D01*
X17560915Y8142452D01*
X17560490Y8142874D01*
X17560175Y8143191D01*
X17560069Y8143297D01*
X17558379Y8144776D01*
X17556476Y8146150D01*
X17554575Y8147312D01*
X17552567Y8148263D01*
X17550558Y8149108D01*
X17548550Y8149848D01*
X17546544Y8150376D01*
X17544643Y8150905D01*
X17542845Y8151222D01*
X17541154Y8151539D01*
X17539674Y8151750D01*
X17538303Y8151856D01*
X17537245D01*
X17536505Y8151961D01*
D02*
G37*
G36*
X17450812Y8174785D02*
X17429045Y8161577D01*
X17426721Y8150376D01*
X17417422D01*
X17414464Y8136217D01*
X17423868D01*
X17417738Y8107688D01*
X17417316Y8105575D01*
X17416895Y8103673D01*
X17416577Y8101982D01*
X17416365Y8100397D01*
X17416154Y8099024D01*
X17415942Y8097756D01*
X17415730Y8096699D01*
X17415627Y8095748D01*
X17415520Y8095008D01*
X17415414Y8094374D01*
Y8093846D01*
X17415309Y8093423D01*
Y8093106D01*
Y8092895D01*
Y8092684D01*
X17415414Y8091416D01*
X17415520Y8090254D01*
X17416048Y8088035D01*
X17416788Y8086133D01*
X17417633Y8084653D01*
X17418373Y8083385D01*
X17419113Y8082540D01*
X17419641Y8082012D01*
X17419852Y8081800D01*
X17420802Y8081166D01*
X17421860Y8080532D01*
X17424078Y8079582D01*
X17426614Y8078842D01*
X17429045Y8078419D01*
X17431158Y8078102D01*
X17432109Y8077997D01*
X17432954D01*
X17433694Y8077891D01*
X17436546D01*
X17438449Y8078102D01*
X17440140Y8078208D01*
X17441618Y8078419D01*
X17442993Y8078631D01*
X17443944Y8078736D01*
X17444579Y8078948D01*
X17444789D01*
X17447748Y8093106D01*
X17445950Y8092895D01*
X17444579Y8092790D01*
X17443414Y8092684D01*
X17442570D01*
X17441936Y8092578D01*
X17441302D01*
X17440034Y8092684D01*
X17438979Y8092790D01*
X17438132Y8093001D01*
X17437393Y8093212D01*
X17436864Y8093423D01*
X17436546Y8093529D01*
X17436336Y8093740D01*
X17436230D01*
X17435808Y8094269D01*
X17435490Y8094797D01*
X17435068Y8095959D01*
X17434962Y8096488D01*
X17434857Y8096910D01*
Y8097122D01*
Y8097227D01*
Y8097544D01*
X17434962Y8097967D01*
X17435068Y8098495D01*
X17435175Y8099129D01*
X17435385Y8100609D01*
X17435703Y8102299D01*
X17436018Y8103779D01*
X17436336Y8105152D01*
X17436443Y8105681D01*
Y8106103D01*
X17436546Y8106314D01*
Y8106420D01*
X17442886Y8136217D01*
X17454510D01*
X17455658Y8141712D01*
X17457469Y8150376D01*
X17445740D01*
X17450812Y8174785D01*
D02*
G37*
G36*
X17301192Y8151961D02*
X17299924D01*
X17296227Y8151750D01*
X17292738Y8151327D01*
X17289462Y8150588D01*
X17286398Y8149531D01*
X17283652Y8148369D01*
X17281116Y8147101D01*
X17278685Y8145727D01*
X17276678Y8144354D01*
X17274776Y8142874D01*
X17273190Y8141501D01*
X17271817Y8140233D01*
X17270654Y8139070D01*
X17269810Y8138014D01*
X17269176Y8137274D01*
X17268753Y8136851D01*
X17268646Y8136640D01*
X17267274Y8134421D01*
X17266006Y8132202D01*
X17264949Y8129983D01*
X17263998Y8127764D01*
X17263258Y8125545D01*
X17262624Y8123432D01*
X17262096Y8121424D01*
X17261673Y8119417D01*
X17261250Y8117621D01*
X17261040Y8115930D01*
X17260828Y8114451D01*
X17260722Y8113183D01*
Y8112126D01*
X17260617Y8111386D01*
Y8110752D01*
X17260722Y8108005D01*
X17261040Y8105469D01*
X17261462Y8103039D01*
X17261990Y8100714D01*
X17262730Y8098601D01*
X17263470Y8096699D01*
X17264209Y8094903D01*
X17265054Y8093212D01*
X17265900Y8091733D01*
X17266640Y8090465D01*
X17267485Y8089408D01*
X17268118Y8088563D01*
X17268646Y8087823D01*
X17269070Y8087295D01*
X17269386Y8086978D01*
X17269493Y8086872D01*
X17271182Y8085287D01*
X17273085Y8083914D01*
X17274881Y8082751D01*
X17276889Y8081695D01*
X17278790Y8080849D01*
X17280693Y8080110D01*
X17282594Y8079476D01*
X17284390Y8079053D01*
X17286082Y8078631D01*
X17287666Y8078419D01*
X17289040Y8078208D01*
X17290308Y8077997D01*
X17291258D01*
X17291998Y8077891D01*
X17292633D01*
X17294534Y8077997D01*
X17296437Y8078102D01*
X17299924Y8078736D01*
X17303094Y8079476D01*
X17304573Y8080004D01*
X17305841Y8080427D01*
X17307109Y8080955D01*
X17308167Y8081378D01*
X17309117Y8081800D01*
X17309856Y8082223D01*
X17310490Y8082540D01*
X17310913Y8082751D01*
X17311230Y8082857D01*
X17311336Y8082963D01*
X17312814Y8084019D01*
X17314294Y8085076D01*
X17316936Y8087612D01*
X17319260Y8090148D01*
X17321162Y8092684D01*
X17322008Y8093846D01*
X17322746Y8094903D01*
X17323276Y8095959D01*
X17323804Y8096805D01*
X17324226Y8097544D01*
X17324544Y8098073D01*
X17324649Y8098390D01*
X17324754Y8098495D01*
X17307637Y8101348D01*
X17306581Y8099658D01*
X17305418Y8098073D01*
X17304256Y8096805D01*
X17302988Y8095642D01*
X17301826Y8094691D01*
X17300558Y8093952D01*
X17299396Y8093318D01*
X17298128Y8092790D01*
X17297070Y8092367D01*
X17296014Y8092050D01*
X17295062Y8091839D01*
X17294324Y8091627D01*
X17293690D01*
X17293161Y8091522D01*
X17292738D01*
X17290625Y8091733D01*
X17288724Y8092156D01*
X17287033Y8092895D01*
X17285658Y8093635D01*
X17284497Y8094374D01*
X17283652Y8095114D01*
X17283122Y8095537D01*
X17282912Y8095748D01*
X17281538Y8097439D01*
X17280586Y8099341D01*
X17279848Y8101243D01*
X17279425Y8103039D01*
X17279108Y8104730D01*
X17279002Y8105364D01*
Y8105998D01*
X17278897Y8106526D01*
Y8106843D01*
Y8107054D01*
Y8107160D01*
Y8107688D01*
X17279002Y8108322D01*
Y8108745D01*
Y8108956D01*
X17326868D01*
X17327290Y8111069D01*
X17327713Y8113183D01*
X17327925Y8115296D01*
X17328030Y8117304D01*
X17328136Y8118889D01*
X17328242Y8119628D01*
Y8121424D01*
X17328136Y8124066D01*
X17327925Y8126496D01*
X17327502Y8128821D01*
X17327078Y8131040D01*
X17326445Y8132942D01*
X17325810Y8134844D01*
X17325072Y8136534D01*
X17324438Y8138014D01*
X17323698Y8139387D01*
X17322958Y8140550D01*
X17322325Y8141501D01*
X17321690Y8142346D01*
X17321268Y8142980D01*
X17320845Y8143508D01*
X17320634Y8143720D01*
X17320528Y8143825D01*
X17319049Y8145305D01*
X17317464Y8146467D01*
X17315773Y8147629D01*
X17314082Y8148580D01*
X17312392Y8149320D01*
X17310701Y8149954D01*
X17309010Y8150482D01*
X17307426Y8150905D01*
X17305841Y8151327D01*
X17304466Y8151539D01*
X17303198Y8151750D01*
X17302037Y8151856D01*
X17301192Y8151961D01*
D02*
G37*
G36*
X17125261Y8174785D02*
X17103494Y8161577D01*
X17101170Y8150376D01*
X17091872D01*
X17088913Y8136217D01*
X17098317D01*
X17092188Y8107688D01*
X17091766Y8105575D01*
X17091344Y8103673D01*
X17091026Y8101982D01*
X17090816Y8100397D01*
X17090604Y8099024D01*
X17090392Y8097756D01*
X17090181Y8096699D01*
X17090076Y8095748D01*
X17089969Y8095008D01*
X17089864Y8094374D01*
Y8093846D01*
X17089758Y8093423D01*
Y8093106D01*
Y8092895D01*
Y8092684D01*
X17089864Y8091416D01*
X17089969Y8090254D01*
X17090498Y8088035D01*
X17091237Y8086133D01*
X17092084Y8084653D01*
X17092822Y8083385D01*
X17093562Y8082540D01*
X17094090Y8082012D01*
X17094302Y8081800D01*
X17095253Y8081166D01*
X17096309Y8080532D01*
X17098528Y8079582D01*
X17101064Y8078842D01*
X17103494Y8078419D01*
X17105608Y8078102D01*
X17106560Y8077997D01*
X17107404D01*
X17108144Y8077891D01*
X17110997D01*
X17112898Y8078102D01*
X17114589Y8078208D01*
X17116068Y8078419D01*
X17117442Y8078631D01*
X17118393Y8078736D01*
X17119028Y8078948D01*
X17119238D01*
X17122197Y8093106D01*
X17120401Y8092895D01*
X17119028Y8092790D01*
X17117865Y8092684D01*
X17117020D01*
X17116385Y8092578D01*
X17115752D01*
X17114484Y8092684D01*
X17113428Y8092790D01*
X17112581Y8093001D01*
X17111842Y8093212D01*
X17111314Y8093423D01*
X17110997Y8093529D01*
X17110785Y8093740D01*
X17110680D01*
X17110257Y8094269D01*
X17109940Y8094797D01*
X17109517Y8095959D01*
X17109412Y8096488D01*
X17109306Y8096910D01*
Y8097122D01*
Y8097227D01*
Y8097544D01*
X17109412Y8097967D01*
X17109517Y8098495D01*
X17109624Y8099129D01*
X17109834Y8100609D01*
X17110152Y8102299D01*
X17110468Y8103779D01*
X17110785Y8105152D01*
X17110892Y8105681D01*
Y8106103D01*
X17110997Y8106314D01*
Y8106420D01*
X17117336Y8136217D01*
X17128960D01*
X17131918Y8150376D01*
X17120189D01*
X17125261Y8174785D01*
D02*
G37*
%LPD*%
G36*
X16964758Y8138119D02*
X16966660Y8137697D01*
X16968350Y8136957D01*
X16969724Y8136217D01*
X16970886Y8135372D01*
X16971732Y8134632D01*
X16972154Y8134210D01*
X16972365Y8133998D01*
X16973633Y8132308D01*
X16974583Y8130300D01*
X16975218Y8128293D01*
X16975748Y8126391D01*
X16975958Y8124594D01*
X16976064Y8123855D01*
Y8123115D01*
X16976169Y8122587D01*
Y8122164D01*
Y8121953D01*
Y8121847D01*
X16976064Y8119311D01*
X16975748Y8116670D01*
X16975218Y8114239D01*
X16974690Y8111915D01*
X16974373Y8110858D01*
X16974162Y8109907D01*
X16973950Y8109167D01*
X16973633Y8108428D01*
X16973528Y8107794D01*
X16973315Y8107371D01*
X16973212Y8107160D01*
Y8107054D01*
X16972047Y8104307D01*
X16970886Y8101982D01*
X16969618Y8099975D01*
X16968456Y8098390D01*
X16967505Y8097122D01*
X16966660Y8096276D01*
X16966132Y8095854D01*
X16965919Y8095642D01*
X16964336Y8094480D01*
X16962643Y8093740D01*
X16961165Y8093106D01*
X16959792Y8092684D01*
X16958524Y8092473D01*
X16957678Y8092367D01*
X16957043Y8092261D01*
X16956833D01*
X16955775Y8092367D01*
X16954825Y8092473D01*
X16953029Y8093001D01*
X16951443Y8093740D01*
X16950070Y8094586D01*
X16948907Y8095325D01*
X16948064Y8096065D01*
X16947534Y8096593D01*
X16947324Y8096805D01*
X16945949Y8098707D01*
X16944998Y8100820D01*
X16944260Y8102933D01*
X16943835Y8105047D01*
X16943520Y8106948D01*
X16943413Y8107688D01*
Y8108428D01*
X16943307Y8108956D01*
Y8109484D01*
Y8109696D01*
Y8109801D01*
X16943413Y8112020D01*
X16943730Y8114239D01*
X16944048Y8116458D01*
X16944576Y8118466D01*
X16944998Y8120262D01*
X16945210Y8121002D01*
X16945316Y8121636D01*
X16945528Y8122164D01*
X16945631Y8122587D01*
X16945738Y8122798D01*
Y8122904D01*
X16946796Y8125545D01*
X16947852Y8127870D01*
X16949014Y8129878D01*
X16950175Y8131568D01*
X16951128Y8132836D01*
X16951971Y8133681D01*
X16952501Y8134210D01*
X16952711Y8134421D01*
X16954402Y8135689D01*
X16956200Y8136640D01*
X16957889Y8137380D01*
X16959369Y8137802D01*
X16960742Y8138119D01*
X16961693Y8138225D01*
X16962115Y8138331D01*
X16962643D01*
X16964758Y8138119D01*
D02*
G37*
G36*
X17537985Y8137380D02*
X17540099Y8136957D01*
X17541789Y8136323D01*
X17543268Y8135583D01*
X17544431Y8134738D01*
X17545276Y8134104D01*
X17545804Y8133681D01*
X17546014Y8133470D01*
X17547389Y8131780D01*
X17548340Y8129983D01*
X17549078Y8128187D01*
X17549503Y8126496D01*
X17549818Y8124911D01*
X17549925Y8123749D01*
X17550031Y8123221D01*
Y8122904D01*
Y8122692D01*
Y8122587D01*
X17549925Y8120051D01*
X17549713Y8117621D01*
X17549290Y8115296D01*
X17548868Y8113183D01*
X17548235Y8111069D01*
X17547600Y8109167D01*
X17546967Y8107477D01*
X17546227Y8105786D01*
X17545486Y8104413D01*
X17544853Y8103039D01*
X17544218Y8101982D01*
X17543585Y8101031D01*
X17543163Y8100292D01*
X17542740Y8099763D01*
X17542528Y8099446D01*
X17542422Y8099341D01*
X17541367Y8098178D01*
X17540309Y8097122D01*
X17539253Y8096276D01*
X17538091Y8095537D01*
X17536928Y8094903D01*
X17535870Y8094269D01*
X17533759Y8093529D01*
X17531963Y8093001D01*
X17531223Y8092895D01*
X17530482Y8092790D01*
X17529955Y8092684D01*
X17529214D01*
X17526996Y8092895D01*
X17524988Y8093423D01*
X17523192Y8094057D01*
X17521712Y8094903D01*
X17520445Y8095748D01*
X17519598Y8096382D01*
X17519070Y8096910D01*
X17518860Y8097122D01*
X17517487Y8098918D01*
X17516429Y8100926D01*
X17515794Y8102933D01*
X17515266Y8104835D01*
X17514951Y8106526D01*
X17514844Y8107265D01*
Y8107899D01*
X17514738Y8108428D01*
Y8108850D01*
Y8109062D01*
Y8109167D01*
X17514844Y8111492D01*
X17515161Y8113817D01*
X17515584Y8116141D01*
X17516112Y8118149D01*
X17516534Y8119945D01*
X17516747Y8120685D01*
X17516959Y8121319D01*
X17517169Y8121847D01*
X17517274Y8122270D01*
X17517380Y8122481D01*
Y8122587D01*
X17518437Y8125123D01*
X17519705Y8127447D01*
X17520866Y8129349D01*
X17522029Y8130829D01*
X17523087Y8132097D01*
X17524037Y8132942D01*
X17524565Y8133470D01*
X17524777Y8133681D01*
X17526678Y8134949D01*
X17528581Y8135900D01*
X17530377Y8136640D01*
X17532068Y8137063D01*
X17533546Y8137380D01*
X17534709Y8137485D01*
X17535132Y8137591D01*
X17535767D01*
X17537985Y8137380D01*
D02*
G37*
G36*
X17299924Y8138119D02*
X17301826Y8137697D01*
X17303410Y8137063D01*
X17304784Y8136323D01*
X17305841Y8135583D01*
X17306581Y8134949D01*
X17307109Y8134527D01*
X17307214Y8134315D01*
X17308377Y8132730D01*
X17309328Y8130829D01*
X17309962Y8128821D01*
X17310384Y8126919D01*
X17310596Y8125228D01*
X17310701Y8124489D01*
X17310806Y8123749D01*
Y8123221D01*
Y8122798D01*
Y8122587D01*
Y8122481D01*
Y8121953D01*
Y8121319D01*
Y8120790D01*
Y8120685D01*
Y8120579D01*
X17280904D01*
X17281644Y8123643D01*
X17282594Y8126391D01*
X17283652Y8128610D01*
X17284708Y8130512D01*
X17285658Y8131885D01*
X17286504Y8132942D01*
X17287033Y8133576D01*
X17287244Y8133787D01*
X17288089Y8134632D01*
X17289040Y8135266D01*
X17290837Y8136429D01*
X17292633Y8137274D01*
X17294324Y8137802D01*
X17295697Y8138119D01*
X17296860Y8138225D01*
X17297282Y8138331D01*
X17297810D01*
X17299924Y8138119D01*
D02*
G37*
%LPC*%
G36*
X17484203Y4575495D02*
X17465182D01*
X17461591Y4558272D01*
X17480609D01*
X17484203Y4575495D01*
D02*
G37*
G36*
X17623151Y4550241D02*
X17622305D01*
X17619875Y4550136D01*
X17617551Y4549819D01*
X17615436Y4549396D01*
X17613640Y4548973D01*
X17612054Y4548551D01*
X17611421Y4548339D01*
X17610893Y4548128D01*
X17610471Y4547917D01*
X17610153Y4547811D01*
X17609943Y4547705D01*
X17609836D01*
X17607617Y4546649D01*
X17605399Y4545381D01*
X17603178Y4543902D01*
X17601277Y4542634D01*
X17599586Y4541366D01*
X17598953Y4540837D01*
X17598318Y4540309D01*
X17597791Y4539886D01*
X17597475Y4539569D01*
X17597263Y4539464D01*
X17597157Y4539358D01*
X17598953Y4548656D01*
X17580779D01*
X17566090Y4477967D01*
X17585005D01*
X17591028Y4506919D01*
X17591556Y4509244D01*
X17592085Y4511251D01*
X17592506Y4513153D01*
X17592931Y4514950D01*
X17593353Y4516429D01*
X17593774Y4517802D01*
X17594199Y4519070D01*
X17594514Y4520127D01*
X17594832Y4520972D01*
X17595149Y4521712D01*
X17595360Y4522346D01*
X17595572Y4522874D01*
X17595782Y4523297D01*
X17595889Y4523508D01*
X17595995Y4523720D01*
X17597157Y4525833D01*
X17598531Y4527629D01*
X17599904Y4529214D01*
X17601172Y4530588D01*
X17602335Y4531644D01*
X17603285Y4532384D01*
X17603918Y4532912D01*
X17604025Y4533018D01*
X17604131D01*
X17606032Y4534180D01*
X17607829Y4535131D01*
X17609415Y4535765D01*
X17610786Y4536188D01*
X17611951Y4536399D01*
X17612901Y4536611D01*
X17613640D01*
X17615015Y4536505D01*
X17616283Y4536294D01*
X17617233Y4535977D01*
X17618079Y4535554D01*
X17618819Y4535131D01*
X17619240Y4534814D01*
X17619557Y4534603D01*
X17619662Y4534497D01*
X17620403Y4533652D01*
X17620930Y4532701D01*
X17621355Y4531750D01*
X17621565Y4530799D01*
X17621776Y4529954D01*
X17621883Y4529320D01*
Y4528897D01*
Y4528686D01*
Y4528263D01*
X17621776Y4527735D01*
X17621671Y4526995D01*
X17621565Y4526256D01*
X17621248Y4524459D01*
X17620930Y4522663D01*
X17620615Y4520867D01*
X17620403Y4520021D01*
X17620297Y4519387D01*
X17620190Y4518753D01*
X17620087Y4518331D01*
X17619980Y4518014D01*
Y4517908D01*
X17611316Y4477967D01*
X17630229D01*
X17638895Y4517802D01*
X17639317Y4519704D01*
X17639635Y4521395D01*
X17639951Y4522980D01*
X17640163Y4524354D01*
X17640373Y4525727D01*
X17640584Y4526784D01*
X17640796Y4527841D01*
X17640901Y4528792D01*
X17641006Y4529531D01*
X17641113Y4530165D01*
Y4530799D01*
X17641219Y4531222D01*
Y4531961D01*
X17641113Y4533441D01*
X17641006Y4534920D01*
X17640479Y4537456D01*
X17639635Y4539781D01*
X17638683Y4541683D01*
X17637732Y4543162D01*
X17637309Y4543796D01*
X17636992Y4544218D01*
X17636569Y4544641D01*
X17636359Y4544958D01*
X17636252Y4545064D01*
X17636147Y4545169D01*
X17635196Y4546015D01*
X17634138Y4546860D01*
X17631815Y4548128D01*
X17629491Y4548973D01*
X17627376Y4549607D01*
X17625369Y4550030D01*
X17624524Y4550136D01*
X17623784D01*
X17623151Y4550241D01*
D02*
G37*
G36*
X17367970D02*
X17366809D01*
X17364696Y4550136D01*
X17362582Y4550030D01*
X17358673Y4549290D01*
X17356770Y4548868D01*
X17355080Y4548339D01*
X17353391Y4547811D01*
X17351910Y4547283D01*
X17350537Y4546754D01*
X17349269Y4546226D01*
X17348212Y4545698D01*
X17347261Y4545275D01*
X17346523Y4544852D01*
X17345993Y4544535D01*
X17345676Y4544430D01*
X17345570Y4544324D01*
X17343880Y4543162D01*
X17342189Y4541894D01*
X17340710Y4540626D01*
X17339230Y4539358D01*
X17337962Y4537984D01*
X17336800Y4536611D01*
X17335744Y4535343D01*
X17334793Y4534075D01*
X17333948Y4532807D01*
X17333208Y4531750D01*
X17332574Y4530694D01*
X17332047Y4529848D01*
X17331729Y4529109D01*
X17331412Y4528580D01*
X17331306Y4528263D01*
X17331200Y4528158D01*
X17330354Y4526256D01*
X17329614Y4524248D01*
X17328453Y4520444D01*
X17327608Y4516746D01*
X17327290Y4515055D01*
X17327078Y4513470D01*
X17326868Y4511885D01*
X17326657Y4510617D01*
X17326550Y4509349D01*
Y4508398D01*
X17326445Y4507553D01*
Y4506391D01*
X17326550Y4503855D01*
X17326762Y4501425D01*
X17327185Y4499100D01*
X17327713Y4496987D01*
X17328242Y4494979D01*
X17328981Y4493183D01*
X17329721Y4491492D01*
X17330461Y4490013D01*
X17331200Y4488639D01*
X17331834Y4487477D01*
X17332574Y4486526D01*
X17333102Y4485681D01*
X17333630Y4485047D01*
X17334053Y4484624D01*
X17334265Y4484307D01*
X17334370Y4484201D01*
X17335954Y4482828D01*
X17337540Y4481560D01*
X17339336Y4480503D01*
X17341026Y4479552D01*
X17342822Y4478812D01*
X17344620Y4478178D01*
X17346416Y4477650D01*
X17348106Y4477228D01*
X17349690Y4476805D01*
X17351170Y4476594D01*
X17352438Y4476382D01*
X17353601Y4476277D01*
X17354552D01*
X17355186Y4476171D01*
X17355820D01*
X17358038Y4476277D01*
X17360152Y4476488D01*
X17362160Y4476805D01*
X17364062Y4477228D01*
X17365858Y4477650D01*
X17367654Y4478178D01*
X17369238Y4478812D01*
X17370718Y4479446D01*
X17371986Y4479975D01*
X17373149Y4480609D01*
X17374207Y4481137D01*
X17375050Y4481665D01*
X17375685Y4481982D01*
X17376213Y4482299D01*
X17376530Y4482511D01*
X17376636Y4482616D01*
X17378221Y4483884D01*
X17379807Y4485258D01*
X17382553Y4488322D01*
X17384879Y4491386D01*
X17386780Y4494451D01*
X17387625Y4495824D01*
X17388365Y4497198D01*
X17388893Y4498360D01*
X17389421Y4499417D01*
X17389738Y4500262D01*
X17390054Y4500896D01*
X17390266Y4501319D01*
Y4501425D01*
X17371671Y4504489D01*
X17370718Y4502164D01*
X17369556Y4500157D01*
X17368500Y4498360D01*
X17367337Y4496987D01*
X17366386Y4495824D01*
X17365646Y4495085D01*
X17365118Y4494662D01*
X17364906Y4494451D01*
X17363322Y4493394D01*
X17361737Y4492549D01*
X17360258Y4492020D01*
X17358884Y4491598D01*
X17357722Y4491386D01*
X17356877Y4491281D01*
X17356242Y4491175D01*
X17356030D01*
X17354446Y4491281D01*
X17352966Y4491703D01*
X17351593Y4492232D01*
X17350537Y4492866D01*
X17349586Y4493500D01*
X17348952Y4494028D01*
X17348529Y4494451D01*
X17348424Y4494556D01*
X17347366Y4495930D01*
X17346626Y4497515D01*
X17346098Y4499100D01*
X17345782Y4500685D01*
X17345570Y4502059D01*
X17345358Y4503115D01*
Y4503538D01*
Y4503855D01*
Y4504066D01*
Y4504172D01*
X17345465Y4506919D01*
X17345782Y4509666D01*
X17346205Y4512202D01*
X17346626Y4514633D01*
X17346838Y4515689D01*
X17347050Y4516640D01*
X17347261Y4517486D01*
X17347473Y4518225D01*
X17347684Y4518753D01*
X17347791Y4519282D01*
X17347894Y4519493D01*
Y4519599D01*
X17348952Y4522452D01*
X17350114Y4524988D01*
X17351276Y4527101D01*
X17352544Y4528897D01*
X17353601Y4530271D01*
X17354446Y4531222D01*
X17354974Y4531750D01*
X17355186Y4531961D01*
X17356982Y4533335D01*
X17358884Y4534392D01*
X17360681Y4535131D01*
X17362267Y4535660D01*
X17363638Y4535977D01*
X17364696Y4536082D01*
X17365118Y4536188D01*
X17365646D01*
X17367337Y4536082D01*
X17368817Y4535765D01*
X17370190Y4535237D01*
X17371246Y4534814D01*
X17372198Y4534286D01*
X17372832Y4533758D01*
X17373254Y4533441D01*
X17373360Y4533335D01*
X17374417Y4532173D01*
X17375157Y4530799D01*
X17375790Y4529320D01*
X17376318Y4527841D01*
X17376636Y4526573D01*
X17376953Y4525516D01*
Y4525093D01*
X17377058Y4524776D01*
Y4524671D01*
Y4524565D01*
X17395233Y4526467D01*
X17395021Y4528475D01*
X17394598Y4530271D01*
X17394070Y4532067D01*
X17393542Y4533652D01*
X17392802Y4535237D01*
X17392168Y4536611D01*
X17391429Y4537879D01*
X17390689Y4539041D01*
X17389949Y4540098D01*
X17389211Y4541049D01*
X17388576Y4541894D01*
X17387943Y4542528D01*
X17387518Y4543056D01*
X17387097Y4543373D01*
X17386885Y4543585D01*
X17386780Y4543690D01*
X17385300Y4544852D01*
X17383821Y4545803D01*
X17382236Y4546754D01*
X17380545Y4547494D01*
X17378854Y4548128D01*
X17377164Y4548656D01*
X17373994Y4549396D01*
X17372514Y4549713D01*
X17371141Y4549924D01*
X17369978Y4550030D01*
X17368922Y4550136D01*
X17367970Y4550241D01*
D02*
G37*
G36*
X17478603Y4548656D02*
X17459583D01*
X17444894Y4477967D01*
X17463809D01*
X17478603Y4548656D01*
D02*
G37*
G36*
X17124522Y4575495D02*
X17056264D01*
X17035976Y4477967D01*
X17056052D01*
X17064716Y4519493D01*
X17111842D01*
X17115224Y4535765D01*
X17068097D01*
X17072957Y4559223D01*
X17121034D01*
X17124522Y4575495D01*
D02*
G37*
G36*
X17003853D02*
X16958629D01*
X16938342Y4477967D01*
X16958418D01*
X16966765Y4518331D01*
X16975008D01*
X16977437Y4518225D01*
X16979550Y4518014D01*
X16981241Y4517697D01*
X16982616Y4517380D01*
X16983672Y4516957D01*
X16984412Y4516640D01*
X16984834Y4516429D01*
X16984940Y4516323D01*
X16985785Y4515689D01*
X16986630Y4514844D01*
X16988216Y4512942D01*
X16989694Y4510829D01*
X16991068Y4508715D01*
X16992125Y4506813D01*
X16992548Y4505968D01*
X16992863Y4505123D01*
X16993181Y4504489D01*
X16993391Y4504066D01*
X16993604Y4503749D01*
Y4503644D01*
X16994977Y4500474D01*
X16996245Y4497515D01*
X16997408Y4494768D01*
X16998463Y4492232D01*
X16999310Y4490013D01*
X17000156Y4487900D01*
X17000896Y4485998D01*
X17001634Y4484307D01*
X17002164Y4482828D01*
X17002585Y4481454D01*
X17003008Y4480397D01*
X17003325Y4479552D01*
X17003535Y4478812D01*
X17003748Y4478390D01*
X17003853Y4478073D01*
Y4477967D01*
X17025409D01*
X17023824Y4481771D01*
X17022343Y4485364D01*
X17020972Y4488639D01*
X17019597Y4491809D01*
X17018224Y4494662D01*
X17016956Y4497304D01*
X17015793Y4499734D01*
X17014737Y4501847D01*
X17013786Y4503855D01*
X17012939Y4505440D01*
X17012201Y4506919D01*
X17011568Y4508081D01*
X17011038Y4509032D01*
X17010721Y4509666D01*
X17010510Y4510089D01*
X17010403Y4510195D01*
X17009135Y4512202D01*
X17007867Y4513999D01*
X17006599Y4515584D01*
X17005544Y4516957D01*
X17004488Y4518014D01*
X17003748Y4518753D01*
X17003325Y4519282D01*
X17003114Y4519387D01*
X17005861Y4519810D01*
X17008397Y4520338D01*
X17010828Y4520972D01*
X17013046Y4521712D01*
X17015054Y4522557D01*
X17016956Y4523403D01*
X17018541Y4524248D01*
X17020125Y4525093D01*
X17021393Y4525939D01*
X17022556Y4526678D01*
X17023508Y4527418D01*
X17024352Y4528052D01*
X17024986Y4528580D01*
X17025409Y4529003D01*
X17025620Y4529214D01*
X17025726Y4529320D01*
X17027100Y4530905D01*
X17028156Y4532595D01*
X17029213Y4534286D01*
X17030058Y4535977D01*
X17030798Y4537667D01*
X17031432Y4539464D01*
X17031854Y4541049D01*
X17032277Y4542634D01*
X17032594Y4544218D01*
X17032805Y4545592D01*
X17033015Y4546754D01*
X17033122Y4547811D01*
X17033228Y4548762D01*
Y4549924D01*
X17033015Y4553094D01*
X17032594Y4555947D01*
X17031960Y4558377D01*
X17031326Y4560596D01*
X17030904Y4561547D01*
X17030586Y4562287D01*
X17030269Y4563027D01*
X17029951Y4563661D01*
X17029636Y4564083D01*
X17029530Y4564400D01*
X17029318Y4564612D01*
Y4564717D01*
X17027840Y4566831D01*
X17026147Y4568627D01*
X17024458Y4570106D01*
X17022873Y4571268D01*
X17021500Y4572114D01*
X17020337Y4572748D01*
X17019914Y4572959D01*
X17019597Y4573065D01*
X17019386Y4573170D01*
X17019279D01*
X17018118Y4573593D01*
X17016743Y4573910D01*
X17013997Y4574544D01*
X17011143Y4574967D01*
X17008292Y4575178D01*
X17007024Y4575284D01*
X17005861Y4575389D01*
X17004700D01*
X17003853Y4575495D01*
D02*
G37*
G36*
X17526363Y4550241D02*
X17525623D01*
X17522346Y4550136D01*
X17519177Y4549713D01*
X17516219Y4549185D01*
X17513470Y4548445D01*
X17510829Y4547494D01*
X17508504Y4546543D01*
X17506287Y4545486D01*
X17504279Y4544430D01*
X17502483Y4543268D01*
X17500897Y4542211D01*
X17499629Y4541260D01*
X17498466Y4540309D01*
X17497621Y4539569D01*
X17496986Y4539041D01*
X17496564Y4538618D01*
X17496458Y4538513D01*
X17494557Y4536188D01*
X17492867Y4533758D01*
X17491386Y4531222D01*
X17490118Y4528686D01*
X17489062Y4526044D01*
X17488110Y4523403D01*
X17487477Y4520867D01*
X17486842Y4518436D01*
X17486421Y4516112D01*
X17486104Y4513999D01*
X17485786Y4512097D01*
X17485681Y4510406D01*
X17485574Y4509032D01*
X17485471Y4507976D01*
Y4507130D01*
X17485681Y4504066D01*
X17486104Y4501108D01*
X17486632Y4498466D01*
X17487372Y4496141D01*
X17487689Y4495085D01*
X17488007Y4494134D01*
X17488322Y4493394D01*
X17488640Y4492654D01*
X17488850Y4492126D01*
X17489062Y4491703D01*
X17489168Y4491492D01*
Y4491386D01*
X17490753Y4488851D01*
X17492549Y4486526D01*
X17494450Y4484624D01*
X17496353Y4483039D01*
X17498044Y4481771D01*
X17498782Y4481243D01*
X17499417Y4480820D01*
X17499947Y4480503D01*
X17500368Y4480292D01*
X17500580Y4480080D01*
X17500685D01*
X17503644Y4478812D01*
X17506708Y4477862D01*
X17509666Y4477122D01*
X17512415Y4476699D01*
X17513683Y4476488D01*
X17514844Y4476382D01*
X17515901Y4476277D01*
X17516747D01*
X17517487Y4476171D01*
X17518437D01*
X17521819Y4476277D01*
X17524988Y4476699D01*
X17527946Y4477333D01*
X17530800Y4478073D01*
X17533441Y4479024D01*
X17535767Y4480080D01*
X17537985Y4481243D01*
X17539992Y4482405D01*
X17541789Y4483567D01*
X17543375Y4484730D01*
X17544746Y4485786D01*
X17545804Y4486737D01*
X17546649Y4487477D01*
X17547282Y4488111D01*
X17547707Y4488534D01*
X17547810Y4488639D01*
X17549713Y4491070D01*
X17551404Y4493500D01*
X17552882Y4496036D01*
X17554150Y4498572D01*
X17555208Y4501108D01*
X17556158Y4503538D01*
X17556898Y4505968D01*
X17557426Y4508187D01*
X17557851Y4510300D01*
X17558272Y4512202D01*
X17558484Y4513999D01*
X17558589Y4515478D01*
X17558694Y4516640D01*
X17558801Y4517591D01*
Y4518331D01*
X17558694Y4520972D01*
X17558379Y4523508D01*
X17557954Y4525939D01*
X17557426Y4528158D01*
X17556793Y4530165D01*
X17555948Y4532067D01*
X17555208Y4533863D01*
X17554362Y4535448D01*
X17553517Y4536822D01*
X17552779Y4538090D01*
X17552039Y4539147D01*
X17551299Y4539992D01*
X17550771Y4540732D01*
X17550346Y4541154D01*
X17550031Y4541471D01*
X17549925Y4541577D01*
X17548235Y4543056D01*
X17546332Y4544430D01*
X17544431Y4545592D01*
X17542422Y4546543D01*
X17540414Y4547388D01*
X17538406Y4548128D01*
X17536400Y4548656D01*
X17534499Y4549185D01*
X17532703Y4549502D01*
X17531010Y4549819D01*
X17529532Y4550030D01*
X17528159Y4550136D01*
X17527101D01*
X17526363Y4550241D01*
D02*
G37*
G36*
X17440668Y4573065D02*
X17418901Y4559857D01*
X17416577Y4548656D01*
X17407278D01*
X17404320Y4534497D01*
X17413724D01*
X17407594Y4505968D01*
X17407173Y4503855D01*
X17406750Y4501953D01*
X17406433Y4500262D01*
X17406223Y4498677D01*
X17406010Y4497304D01*
X17405798Y4496036D01*
X17405588Y4494979D01*
X17405482Y4494028D01*
X17405376Y4493288D01*
X17405270Y4492654D01*
Y4492126D01*
X17405165Y4491703D01*
Y4491386D01*
Y4491175D01*
Y4490964D01*
X17405270Y4489696D01*
X17405376Y4488534D01*
X17405905Y4486315D01*
X17406644Y4484413D01*
X17407491Y4482933D01*
X17408229Y4481665D01*
X17408969Y4480820D01*
X17409497Y4480292D01*
X17409709Y4480080D01*
X17410660Y4479446D01*
X17411716Y4478812D01*
X17413934Y4477862D01*
X17416470Y4477122D01*
X17418901Y4476699D01*
X17421014Y4476382D01*
X17421967Y4476277D01*
X17422810D01*
X17423550Y4476171D01*
X17426404D01*
X17428307Y4476382D01*
X17429996Y4476488D01*
X17431474Y4476699D01*
X17432849Y4476911D01*
X17433800Y4477016D01*
X17434435Y4477228D01*
X17434645D01*
X17437604Y4491386D01*
X17435808Y4491175D01*
X17434435Y4491070D01*
X17433272Y4490964D01*
X17432426D01*
X17431792Y4490858D01*
X17431158D01*
X17429890Y4490964D01*
X17428835Y4491070D01*
X17427989Y4491281D01*
X17427249Y4491492D01*
X17426721Y4491703D01*
X17426404Y4491809D01*
X17426192Y4492020D01*
X17426086D01*
X17425664Y4492549D01*
X17425346Y4493077D01*
X17424924Y4494239D01*
X17424818Y4494768D01*
X17424713Y4495190D01*
Y4495402D01*
Y4495507D01*
Y4495824D01*
X17424818Y4496247D01*
X17424924Y4496775D01*
X17425031Y4497409D01*
X17425241Y4498889D01*
X17425558Y4500579D01*
X17425874Y4502059D01*
X17426192Y4503432D01*
X17426299Y4503961D01*
Y4504383D01*
X17426404Y4504594D01*
Y4504700D01*
X17432742Y4534497D01*
X17444366D01*
X17445383Y4539358D01*
X17447325Y4548656D01*
X17435596D01*
X17440668Y4573065D01*
D02*
G37*
G36*
X17291048Y4550241D02*
X17289780D01*
X17286082Y4550030D01*
X17282594Y4549607D01*
X17279318Y4548868D01*
X17276254Y4547811D01*
X17273508Y4546649D01*
X17270972Y4545381D01*
X17268542Y4544007D01*
X17266534Y4542634D01*
X17264632Y4541154D01*
X17263046Y4539781D01*
X17261673Y4538513D01*
X17260510Y4537350D01*
X17259666Y4536294D01*
X17259032Y4535554D01*
X17258609Y4535131D01*
X17258504Y4534920D01*
X17257130Y4532701D01*
X17255862Y4530482D01*
X17254805Y4528263D01*
X17253854Y4526044D01*
X17253114Y4523825D01*
X17252481Y4521712D01*
X17251952Y4519704D01*
X17251530Y4517697D01*
X17251106Y4515901D01*
X17250896Y4514210D01*
X17250684Y4512731D01*
X17250578Y4511463D01*
Y4510406D01*
X17250473Y4509666D01*
Y4509032D01*
X17250578Y4506285D01*
X17250896Y4503749D01*
X17251318Y4501319D01*
X17251846Y4498994D01*
X17252586Y4496881D01*
X17253326Y4494979D01*
X17254066Y4493183D01*
X17254910Y4491492D01*
X17255756Y4490013D01*
X17256496Y4488745D01*
X17257341Y4487688D01*
X17257974Y4486843D01*
X17258504Y4486103D01*
X17258926Y4485575D01*
X17259242Y4485258D01*
X17259349Y4485152D01*
X17261040Y4483567D01*
X17262941Y4482194D01*
X17264738Y4481031D01*
X17266745Y4479975D01*
X17268646Y4479129D01*
X17270549Y4478390D01*
X17272450Y4477756D01*
X17274248Y4477333D01*
X17275938Y4476911D01*
X17277522Y4476699D01*
X17278897Y4476488D01*
X17280165Y4476277D01*
X17281116D01*
X17281854Y4476171D01*
X17282489D01*
X17284390Y4476277D01*
X17286293Y4476382D01*
X17289780Y4477016D01*
X17292950Y4477756D01*
X17294429Y4478284D01*
X17295697Y4478707D01*
X17296965Y4479235D01*
X17298022Y4479658D01*
X17298973Y4480080D01*
X17299712Y4480503D01*
X17300346Y4480820D01*
X17300769Y4481031D01*
X17301086Y4481137D01*
X17301192Y4481243D01*
X17302670Y4482299D01*
X17304150Y4483356D01*
X17306792Y4485892D01*
X17309117Y4488428D01*
X17311018Y4490964D01*
X17311864Y4492126D01*
X17312604Y4493183D01*
X17313132Y4494239D01*
X17313660Y4495085D01*
X17314082Y4495824D01*
X17314400Y4496353D01*
X17314505Y4496670D01*
X17314610Y4496775D01*
X17297493Y4499628D01*
X17296437Y4497938D01*
X17295274Y4496353D01*
X17294112Y4495085D01*
X17292844Y4493922D01*
X17291682Y4492971D01*
X17290414Y4492232D01*
X17289252Y4491598D01*
X17287984Y4491070D01*
X17286926Y4490647D01*
X17285870Y4490330D01*
X17284920Y4490119D01*
X17284180Y4489907D01*
X17283546D01*
X17283018Y4489802D01*
X17282594D01*
X17280482Y4490013D01*
X17278580Y4490436D01*
X17276889Y4491175D01*
X17275516Y4491915D01*
X17274353Y4492654D01*
X17273508Y4493394D01*
X17272980Y4493817D01*
X17272768Y4494028D01*
X17271394Y4495719D01*
X17270444Y4497621D01*
X17269704Y4499523D01*
X17269281Y4501319D01*
X17268964Y4503010D01*
X17268858Y4503644D01*
Y4504278D01*
X17268753Y4504806D01*
Y4505123D01*
Y4505334D01*
Y4505440D01*
Y4505968D01*
X17268858Y4506602D01*
Y4507025D01*
Y4507236D01*
X17316724D01*
X17317146Y4509349D01*
X17317570Y4511463D01*
X17317781Y4513576D01*
X17317886Y4515584D01*
X17317992Y4517169D01*
X17318098Y4517908D01*
Y4519704D01*
X17317992Y4522346D01*
X17317781Y4524776D01*
X17317358Y4527101D01*
X17316936Y4529320D01*
X17316302Y4531222D01*
X17315668Y4533124D01*
X17314928Y4534814D01*
X17314294Y4536294D01*
X17313554Y4537667D01*
X17312814Y4538830D01*
X17312181Y4539781D01*
X17311546Y4540626D01*
X17311124Y4541260D01*
X17310701Y4541788D01*
X17310490Y4542000D01*
X17310384Y4542105D01*
X17308905Y4543585D01*
X17307320Y4544747D01*
X17305630Y4545909D01*
X17303938Y4546860D01*
X17302248Y4547600D01*
X17300558Y4548234D01*
X17298866Y4548762D01*
X17297282Y4549185D01*
X17295697Y4549607D01*
X17294324Y4549819D01*
X17293056Y4550030D01*
X17291893Y4550136D01*
X17291048Y4550241D01*
D02*
G37*
%LPD*%
G36*
X17000471Y4559117D02*
X17001740D01*
X17003008Y4559011D01*
X17004065Y4558800D01*
X17004910Y4558694D01*
X17005756Y4558589D01*
X17006496Y4558377D01*
X17007657Y4558060D01*
X17008397Y4557849D01*
X17008820Y4557638D01*
X17008925Y4557532D01*
X17010403Y4556476D01*
X17011461Y4555208D01*
X17012201Y4553834D01*
X17012729Y4552566D01*
X17013046Y4551404D01*
X17013152Y4550453D01*
X17013257Y4549819D01*
Y4549713D01*
Y4549607D01*
X17013152Y4547917D01*
X17012836Y4546332D01*
X17012306Y4544852D01*
X17011778Y4543479D01*
X17011143Y4542422D01*
X17010721Y4541577D01*
X17010300Y4541049D01*
X17010193Y4540837D01*
X17009032Y4539358D01*
X17007657Y4538196D01*
X17006284Y4537139D01*
X17005016Y4536294D01*
X17003748Y4535660D01*
X17002797Y4535131D01*
X17002164Y4534920D01*
X17002057Y4534814D01*
X17001952D01*
X17000896Y4534497D01*
X16999521Y4534180D01*
X16998042Y4533969D01*
X16996352Y4533758D01*
X16992863Y4533335D01*
X16989272Y4533124D01*
X16987476D01*
X16985890Y4533018D01*
X16984412D01*
X16983144Y4532912D01*
X16969829D01*
X16975323Y4559223D01*
X16998993D01*
X17000471Y4559117D01*
D02*
G37*
G36*
X17527841Y4535660D02*
X17529955Y4535237D01*
X17531645Y4534603D01*
X17533124Y4533863D01*
X17534286Y4533018D01*
X17535132Y4532384D01*
X17535660Y4531961D01*
X17535870Y4531750D01*
X17537245Y4530060D01*
X17538196Y4528263D01*
X17538936Y4526467D01*
X17539359Y4524776D01*
X17539674Y4523191D01*
X17539781Y4522029D01*
X17539886Y4521501D01*
Y4521184D01*
Y4520972D01*
Y4520867D01*
X17539781Y4518331D01*
X17539571Y4515901D01*
X17539146Y4513576D01*
X17538724Y4511463D01*
X17538091Y4509349D01*
X17537456Y4507447D01*
X17536823Y4505757D01*
X17536082Y4504066D01*
X17535342Y4502693D01*
X17534709Y4501319D01*
X17534074Y4500262D01*
X17533441Y4499311D01*
X17533018Y4498572D01*
X17532596Y4498043D01*
X17532385Y4497726D01*
X17532278Y4497621D01*
X17531223Y4496458D01*
X17530167Y4495402D01*
X17529109Y4494556D01*
X17527946Y4493817D01*
X17526784Y4493183D01*
X17525728Y4492549D01*
X17523615Y4491809D01*
X17521819Y4491281D01*
X17521078Y4491175D01*
X17520338Y4491070D01*
X17519810Y4490964D01*
X17519070D01*
X17516852Y4491175D01*
X17514844Y4491703D01*
X17513048Y4492337D01*
X17511569Y4493183D01*
X17510301Y4494028D01*
X17509454Y4494662D01*
X17508926Y4495190D01*
X17508716Y4495402D01*
X17507343Y4497198D01*
X17506287Y4499206D01*
X17505652Y4501213D01*
X17505122Y4503115D01*
X17504807Y4504806D01*
X17504701Y4505545D01*
Y4506179D01*
X17504594Y4506708D01*
Y4507130D01*
Y4507342D01*
Y4507447D01*
X17504701Y4509772D01*
X17505019Y4512097D01*
X17505440Y4514421D01*
X17505969Y4516429D01*
X17506390Y4518225D01*
X17506602Y4518965D01*
X17506815Y4519599D01*
X17507025Y4520127D01*
X17507130Y4520550D01*
X17507237Y4520761D01*
Y4520867D01*
X17508293Y4523403D01*
X17509561Y4525727D01*
X17510722Y4527629D01*
X17511887Y4529109D01*
X17512943Y4530377D01*
X17513893Y4531222D01*
X17514423Y4531750D01*
X17514633Y4531961D01*
X17516534Y4533229D01*
X17518437Y4534180D01*
X17520233Y4534920D01*
X17521924Y4535343D01*
X17523402Y4535660D01*
X17524565Y4535765D01*
X17524988Y4535871D01*
X17525623D01*
X17527841Y4535660D01*
D02*
G37*
G36*
X17289780Y4536399D02*
X17291682Y4535977D01*
X17293266Y4535343D01*
X17294641Y4534603D01*
X17295697Y4533863D01*
X17296437Y4533229D01*
X17296965Y4532807D01*
X17297070Y4532595D01*
X17298233Y4531010D01*
X17299184Y4529109D01*
X17299818Y4527101D01*
X17300241Y4525199D01*
X17300452Y4523508D01*
X17300558Y4522769D01*
X17300664Y4522029D01*
Y4521501D01*
Y4521078D01*
Y4520867D01*
Y4520761D01*
Y4520233D01*
Y4519599D01*
Y4519070D01*
Y4518965D01*
Y4518859D01*
X17270760D01*
X17271500Y4521923D01*
X17272450Y4524671D01*
X17273508Y4526890D01*
X17274564Y4528792D01*
X17275516Y4530165D01*
X17276361Y4531222D01*
X17276889Y4531856D01*
X17277100Y4532067D01*
X17277946Y4532912D01*
X17278897Y4533546D01*
X17280693Y4534709D01*
X17282489Y4535554D01*
X17284180Y4536082D01*
X17285553Y4536399D01*
X17286716Y4536505D01*
X17287138Y4536611D01*
X17287666D01*
X17289780Y4536399D01*
D02*
G37*
D48*
X11444500Y9700000D02*
G03*
X11444500Y9700000I-444500J0D01*
G01*
Y2600000D02*
G03*
X11444500Y2600000I-444500J0D01*
G01*
X18844501D02*
G03*
X18844501Y2600000I-444500J0D01*
G01*
Y9700000D02*
G03*
X18844501Y9700000I-444500J0D01*
G01*
X12113318Y8930615D02*
Y8778265D01*
X12189493D01*
X12214885Y8803657D01*
Y8829048D01*
X12189493Y8854440D01*
X12113318D01*
X12189493D01*
X12214885Y8879832D01*
Y8905223D01*
X12189493Y8930615D01*
X12113318D01*
X12265668D02*
X12367236D01*
X12316452D01*
Y8778265D01*
X12418019D02*
X12468803D01*
X12443411D01*
Y8930615D01*
X12418019Y8905223D01*
X10746082Y8923825D02*
Y9076175D01*
X10822258D01*
X10847650Y9050784D01*
Y9000000D01*
X10822258Y8974608D01*
X10746082D01*
X10898433Y9076175D02*
X11000000D01*
X10949217D01*
Y8923825D01*
X11050784Y9076175D02*
Y8923825D01*
Y9000000D01*
X11152351D01*
Y9076175D01*
Y8923825D01*
X11203135D02*
X11253918D01*
X11228526D01*
Y9076175D01*
X11203135Y9050784D01*
X10870691Y3273825D02*
Y3426175D01*
X10946866D01*
X10972258Y3400783D01*
Y3350000D01*
X10946866Y3324608D01*
X10870691D01*
X11023041Y3426175D02*
X11124609D01*
X11073825D01*
Y3273825D01*
X11175392Y3426175D02*
Y3273825D01*
Y3350000D01*
X11276959D01*
Y3426175D01*
Y3273825D01*
X11403918D02*
Y3426175D01*
X11327743Y3350000D01*
X11429310D01*
X18220691Y3173825D02*
Y3326175D01*
X18296866D01*
X18322258Y3300784D01*
Y3250000D01*
X18296866Y3224608D01*
X18220691D01*
X18373041Y3326175D02*
X18474608D01*
X18423825D01*
Y3173825D01*
X18525392Y3326175D02*
Y3173825D01*
Y3250000D01*
X18626959D01*
Y3326175D01*
Y3173825D01*
X18677744Y3300784D02*
X18703136Y3326175D01*
X18753918D01*
X18779311Y3300784D01*
Y3275392D01*
X18753918Y3250000D01*
X18728526D01*
X18753918D01*
X18779311Y3224608D01*
Y3199217D01*
X18753918Y3173825D01*
X18703136D01*
X18677744Y3199217D01*
X18220691Y8923825D02*
Y9076175D01*
X18296866D01*
X18322258Y9050784D01*
Y9000000D01*
X18296866Y8974608D01*
X18220691D01*
X18373041Y9076175D02*
X18474608D01*
X18423825D01*
Y8923825D01*
X18525392Y9076175D02*
Y8923825D01*
Y9000000D01*
X18626959D01*
Y9076175D01*
Y8923825D01*
X18779311D02*
X18677744D01*
X18779311Y9025392D01*
Y9050784D01*
X18753918Y9076175D01*
X18703136D01*
X18677744Y9050784D01*
X16548166Y6164555D02*
Y6037597D01*
X16573558Y6012205D01*
X16624341D01*
X16649733Y6037597D01*
Y6164555D01*
X16802084Y6012205D02*
X16700517D01*
X16802084Y6113772D01*
Y6139163D01*
X16776692Y6164555D01*
X16725908D01*
X16700517Y6139163D01*
X16852867Y6012205D02*
Y6113772D01*
X16903651Y6164555D01*
X16954434Y6113772D01*
Y6012205D01*
Y6088380D01*
X16852867D01*
X17414273Y2860065D02*
Y3012415D01*
X17490448D01*
X17515840Y2987023D01*
Y2936240D01*
X17490448Y2910848D01*
X17414273D01*
X17465057D02*
X17515840Y2860065D01*
X17566624D02*
X17617407D01*
X17592017D01*
Y3012415D01*
X17566624Y2987023D01*
X16266161Y7490435D02*
X16215376D01*
X16240768D01*
Y7363477D01*
X16215376Y7338085D01*
X16189986D01*
X16164594Y7363477D01*
X16316943Y7338085D02*
X16367728D01*
X16342336D01*
Y7490435D01*
X16316943Y7465043D01*
X15128281Y5041925D02*
Y5194275D01*
X15204457D01*
X15229848Y5168883D01*
Y5118100D01*
X15204457Y5092708D01*
X15128281D01*
X15179065D02*
X15229848Y5041925D01*
X15280632Y5067317D02*
X15306024Y5041925D01*
X15356807D01*
X15382199Y5067317D01*
Y5168883D01*
X15356807Y5194275D01*
X15306024D01*
X15280632Y5168883D01*
Y5143492D01*
X15306024Y5118100D01*
X15382199D01*
X15773462Y6144235D02*
Y6017277D01*
X15798854Y5991885D01*
X15849637D01*
X15875029Y6017277D01*
Y6144235D01*
X15925812Y5991885D02*
X15976596D01*
X15951204D01*
Y6144235D01*
X15925812Y6118843D01*
X16052771Y5991885D02*
Y6093452D01*
X16103555Y6144235D01*
X16154340Y6093452D01*
Y5991885D01*
Y6068060D01*
X16052771D01*
X15138432Y9067775D02*
Y8940817D01*
X15163824Y8915425D01*
X15214607D01*
X15239999Y8940817D01*
Y9067775D01*
X15290784Y8915425D02*
X15341566D01*
X15316176D01*
Y9067775D01*
X15290784Y9042383D01*
X17025682Y3820185D02*
Y3972535D01*
X17101857D01*
X17127249Y3947143D01*
Y3896360D01*
X17101857Y3870968D01*
X17025682D01*
X17076465D02*
X17127249Y3820185D01*
X17178032D02*
X17228816D01*
X17203424D01*
Y3972535D01*
X17178032Y3947143D01*
X17406560Y3972535D02*
X17304991D01*
Y3896360D01*
X17355775Y3921752D01*
X17381168D01*
X17406560Y3896360D01*
Y3845577D01*
X17381168Y3820185D01*
X17330383D01*
X17304991Y3845577D01*
X17073943Y3573805D02*
Y3726155D01*
X17150117D01*
X17175510Y3700763D01*
Y3649980D01*
X17150117Y3624588D01*
X17073943D01*
X17124725D02*
X17175510Y3573805D01*
X17226292D02*
X17277077D01*
X17251685D01*
Y3726155D01*
X17226292Y3700763D01*
X17429427Y3573805D02*
Y3726155D01*
X17353252Y3649980D01*
X17454819D01*
X15643922Y4927625D02*
Y5079975D01*
X15720097D01*
X15745490Y5054583D01*
Y5003800D01*
X15720097Y4978408D01*
X15643922D01*
X15694705D02*
X15745490Y4927625D01*
X15796272D02*
X15847057D01*
X15821664D01*
Y5079975D01*
X15796272Y5054583D01*
X15923232D02*
X15948624Y5079975D01*
X15999406D01*
X16024799Y5054583D01*
Y5029192D01*
X15999406Y5003800D01*
X15974014D01*
X15999406D01*
X16024799Y4978408D01*
Y4953017D01*
X15999406Y4927625D01*
X15948624D01*
X15923232Y4953017D01*
X16421162Y4958105D02*
Y5110455D01*
X16497337D01*
X16522729Y5085063D01*
Y5034280D01*
X16497337Y5008888D01*
X16421162D01*
X16471945D02*
X16522729Y4958105D01*
X16573512D02*
X16624297D01*
X16598904D01*
Y5110455D01*
X16573512Y5085063D01*
X16802039Y4958105D02*
X16700471D01*
X16802039Y5059672D01*
Y5085063D01*
X16776646Y5110455D01*
X16725864D01*
X16700471Y5085063D01*
X16819934Y5161305D02*
Y5313655D01*
X16896109D01*
X16921501Y5288263D01*
Y5237480D01*
X16896109Y5212088D01*
X16819934D01*
X16870717D02*
X16921501Y5161305D01*
X16972284D02*
X17023068D01*
X16997676D01*
Y5313655D01*
X16972284Y5288263D01*
X17099243Y5161305D02*
X17150027D01*
X17124635D01*
Y5313655D01*
X17099243Y5288263D01*
X15707422Y4686325D02*
Y4838675D01*
X15783597D01*
X15808989Y4813283D01*
Y4762500D01*
X15783597Y4737108D01*
X15707422D01*
X15758205D02*
X15808989Y4686325D01*
X15859772D02*
X15910556D01*
X15885164D01*
Y4838675D01*
X15859772Y4813283D01*
X15986731D02*
X16012123Y4838675D01*
X16062907D01*
X16088300Y4813283D01*
Y4711717D01*
X16062907Y4686325D01*
X16012123D01*
X15986731Y4711717D01*
Y4813283D01*
X15168921Y6055385D02*
Y6207735D01*
X15245097D01*
X15270488Y6182343D01*
Y6131560D01*
X15245097Y6106168D01*
X15168921D01*
X15219705D02*
X15270488Y6055385D01*
X15321272Y6182343D02*
X15346664Y6207735D01*
X15397447D01*
X15422839Y6182343D01*
Y6156952D01*
X15397447Y6131560D01*
X15422839Y6106168D01*
Y6080777D01*
X15397447Y6055385D01*
X15346664D01*
X15321272Y6080777D01*
Y6106168D01*
X15346664Y6131560D01*
X15321272Y6156952D01*
Y6182343D01*
X15346664Y6131560D02*
X15397447D01*
X16703081Y9489465D02*
Y9641815D01*
X16779257D01*
X16804648Y9616423D01*
Y9565640D01*
X16779257Y9540248D01*
X16703081D01*
X16753865D02*
X16804648Y9489465D01*
X16855432Y9641815D02*
X16956999D01*
Y9616423D01*
X16855432Y9514857D01*
Y9489465D01*
X16657361Y9286265D02*
Y9438615D01*
X16733537D01*
X16758928Y9413223D01*
Y9362440D01*
X16733537Y9337048D01*
X16657361D01*
X16708145D02*
X16758928Y9286265D01*
X16911279Y9438615D02*
X16860495Y9413223D01*
X16809712Y9362440D01*
Y9311657D01*
X16835104Y9286265D01*
X16885887D01*
X16911279Y9311657D01*
Y9337048D01*
X16885887Y9362440D01*
X16809712D01*
X16992641Y8750325D02*
Y8902675D01*
X17068817D01*
X17094208Y8877283D01*
Y8826500D01*
X17068817Y8801108D01*
X16992641D01*
X17043425D02*
X17094208Y8750325D01*
X17246559Y8902675D02*
X17144992D01*
Y8826500D01*
X17195775Y8851892D01*
X17221167D01*
X17246559Y8826500D01*
Y8775717D01*
X17221167Y8750325D01*
X17170384D01*
X17144992Y8775717D01*
X16482101Y3012465D02*
Y3164815D01*
X16558276D01*
X16583669Y3139423D01*
Y3088640D01*
X16558276Y3063248D01*
X16482101D01*
X16532886D02*
X16583669Y3012465D01*
X16710628D02*
Y3164815D01*
X16634451Y3088640D01*
X16736018D01*
X16522742Y2727985D02*
Y2880335D01*
X16598917D01*
X16624307Y2854943D01*
Y2804160D01*
X16598917Y2778768D01*
X16522742D01*
X16573524D02*
X16624307Y2727985D01*
X16675092Y2854943D02*
X16700484Y2880335D01*
X16751266D01*
X16776659Y2854943D01*
Y2829552D01*
X16751266Y2804160D01*
X16725874D01*
X16751266D01*
X16776659Y2778768D01*
Y2753377D01*
X16751266Y2727985D01*
X16700484D01*
X16675092Y2753377D01*
X17259300Y3238500D02*
Y3390851D01*
X17335475D01*
X17360867Y3365459D01*
Y3314675D01*
X17335475Y3289283D01*
X17259300D01*
X17310083D02*
X17360867Y3238500D01*
X17513219D02*
X17411652D01*
X17513219Y3340067D01*
Y3365459D01*
X17487827Y3390851D01*
X17437044D01*
X17411652Y3365459D01*
X16172147Y3421372D02*
Y3522939D01*
X16146754Y3548331D01*
X16095972D01*
X16070580Y3522939D01*
Y3421372D01*
X16095972Y3395980D01*
X16146754D01*
X16121362Y3446763D02*
X16172147Y3395980D01*
X16146754D02*
X16172147Y3421372D01*
X16324498Y3395980D02*
X16222931D01*
X16324498Y3497547D01*
Y3522939D01*
X16299106Y3548331D01*
X16248323D01*
X16222931Y3522939D01*
X15433040Y9489457D02*
Y9591023D01*
X15407648Y9616415D01*
X15356865D01*
X15331473Y9591023D01*
Y9489457D01*
X15356865Y9464065D01*
X15407648D01*
X15382257Y9514848D02*
X15433040Y9464065D01*
X15407648D02*
X15433040Y9489457D01*
X15483824Y9464065D02*
X15534607D01*
X15509216D01*
Y9616415D01*
X15483824Y9591023D01*
X17315213Y4221455D02*
Y4069105D01*
X17416780D01*
X17467564D02*
X17518347D01*
X17492957D01*
Y4221455D01*
X17467564Y4196063D01*
X15333948Y3708351D02*
X15283163D01*
X15308556D01*
Y3581392D01*
X15283163Y3556000D01*
X15257771D01*
X15232381Y3581392D01*
X15486298Y3556000D02*
X15384731D01*
X15486298Y3657567D01*
Y3682959D01*
X15460905Y3708351D01*
X15410123D01*
X15384731Y3682959D01*
X17023122Y9474175D02*
Y9321825D01*
X17099297D01*
X17124689Y9347217D01*
Y9448783D01*
X17099297Y9474175D01*
X17023122D01*
X17277039Y9321825D02*
X17175471D01*
X17277039Y9423392D01*
Y9448783D01*
X17251646Y9474175D01*
X17200864D01*
X17175471Y9448783D01*
X15107953Y9834855D02*
Y9682505D01*
X15184128D01*
X15209520Y9707897D01*
Y9809463D01*
X15184128Y9834855D01*
X15107953D01*
X15260304Y9682505D02*
X15311087D01*
X15285696D01*
Y9834855D01*
X15260304Y9809463D01*
X16936728Y3093703D02*
X16911337Y3119095D01*
X16860553D01*
X16835161Y3093703D01*
Y2992137D01*
X16860553Y2966745D01*
X16911337D01*
X16936728Y2992137D01*
X16987512Y3119095D02*
X17089079D01*
Y3093703D01*
X16987512Y2992137D01*
Y2966745D01*
X17454887Y5499083D02*
X17429497Y5524475D01*
X17378712D01*
X17353320Y5499083D01*
Y5397517D01*
X17378712Y5372125D01*
X17429497D01*
X17454887Y5397517D01*
X17607239Y5524475D02*
X17556454Y5499083D01*
X17505672Y5448300D01*
Y5397517D01*
X17531064Y5372125D01*
X17581847D01*
X17607239Y5397517D01*
Y5422908D01*
X17581847Y5448300D01*
X17505672D01*
X16936728Y4831063D02*
X16911337Y4856455D01*
X16860553D01*
X16835161Y4831063D01*
Y4729497D01*
X16860553Y4704105D01*
X16911337D01*
X16936728Y4729497D01*
X17089079Y4856455D02*
X16987512D01*
Y4780280D01*
X17038295Y4805672D01*
X17063687D01*
X17089079Y4780280D01*
Y4729497D01*
X17063687Y4704105D01*
X17012904D01*
X16987512Y4729497D01*
X16304268Y4432283D02*
X16278877Y4457675D01*
X16228093D01*
X16202701Y4432283D01*
Y4330717D01*
X16228093Y4305325D01*
X16278877D01*
X16304268Y4330717D01*
X16431227Y4305325D02*
Y4457675D01*
X16355052Y4381500D01*
X16456619D01*
X15587997Y6654808D02*
X15562605Y6629417D01*
Y6578633D01*
X15587997Y6553241D01*
X15689563D01*
X15714955Y6578633D01*
Y6629417D01*
X15689563Y6654808D01*
X15587997Y6705592D02*
X15562605Y6730984D01*
Y6781767D01*
X15587997Y6807159D01*
X15613388D01*
X15638780Y6781767D01*
Y6756375D01*
Y6781767D01*
X15664172Y6807159D01*
X15689563D01*
X15714955Y6781767D01*
Y6730984D01*
X15689563Y6705592D01*
X15763348Y8788383D02*
X15737956Y8813775D01*
X15687173D01*
X15661781Y8788383D01*
Y8686817D01*
X15687173Y8661425D01*
X15737956D01*
X15763348Y8686817D01*
X15915698Y8661425D02*
X15814133D01*
X15915698Y8762992D01*
Y8788383D01*
X15890308Y8813775D01*
X15839523D01*
X15814133Y8788383D01*
X16497301Y8841723D02*
X16471909Y8867115D01*
X16421124D01*
X16395734Y8841723D01*
Y8740157D01*
X16421124Y8714765D01*
X16471909D01*
X16497301Y8740157D01*
X16548083Y8714765D02*
X16598866D01*
X16573476D01*
Y8867115D01*
X16548083Y8841723D01*
X16294133Y4104615D02*
Y3952265D01*
X16370308D01*
X16395700Y3977657D01*
Y4003048D01*
X16370308Y4028440D01*
X16294133D01*
X16370308D01*
X16395700Y4053832D01*
Y4079223D01*
X16370308Y4104615D01*
X16294133D01*
X16446484Y3952265D02*
X16497267D01*
X16471877D01*
Y4104615D01*
X16446484Y4079223D01*
D49*
X17084720Y5381040D02*
G03*
X17084720Y5381040I-12500J0D01*
G01*
X15698660Y5924500D02*
G03*
X15698660Y5924500I-12500J0D01*
G01*
X16239307Y9325900D02*
G03*
X16239307Y9325900I-12500J0D01*
G01*
D50*
X16899719Y5504040D02*
G03*
X16899719Y5504040I-30000J0D01*
G01*
X15918660Y5801500D02*
G03*
X15918660Y5801500I-30000J0D01*
G01*
D51*
X16461620Y6888480D02*
G03*
X16461620Y6888480I-10000J0D01*
G01*
X16969720Y5404040D02*
Y5904040D01*
X16649719Y5404040D02*
Y5904040D01*
Y5404040D02*
X16969720D01*
X16649719Y5904040D02*
X16969720D01*
X16218221Y2996980D02*
X16258220D01*
X16218221D02*
Y3286980D01*
X16258220D01*
Y2996980D02*
Y3286980D01*
X16293221Y2991980D02*
X16403220D01*
X17231360Y2799560D02*
Y2859560D01*
X16075987Y5055749D02*
Y5206962D01*
X16217572Y5055749D02*
Y5206962D01*
X16995160Y4116240D02*
X17170160D01*
X16995160Y4296240D02*
X17170160D01*
X16485080Y3345180D02*
X16545081D01*
X17267400Y3040380D02*
X17327400D01*
X16357600Y2779240D02*
Y2839240D01*
X15892780Y2985100D02*
Y3237900D01*
X15448880Y3429000D02*
X15701680D01*
X15257780Y2985100D02*
Y3237900D01*
X16883360Y4162020D02*
Y4282020D01*
X16578360Y4127020D02*
X16868359D01*
X16578360Y4067020D02*
Y4127020D01*
Y4067020D02*
X16868359D01*
Y4127020D01*
X15788660Y5401500D02*
X16108659D01*
X15788660Y5901500D02*
X16108659D01*
Y5401500D02*
Y5901500D01*
X15788660Y5401500D02*
Y5901500D01*
X15298747Y5271093D02*
Y5422307D01*
X15440332Y5271093D02*
Y5422307D01*
X15269360Y9393100D02*
Y9513100D01*
X15129359Y9393100D02*
X15269360D01*
X15129359D02*
Y9513100D01*
X16708121Y4369600D02*
Y4469600D01*
X16581120Y4369600D02*
Y4469600D01*
D52*
X12766860Y8804240D02*
X12866859D01*
X12816859Y8754240D02*
Y8854240D01*
X14116859Y8779240D02*
Y8879240D01*
X11960860Y3169920D02*
Y8681720D01*
X14973300D01*
Y3169920D02*
Y8681720D01*
X11960860Y3169920D02*
X14973300D01*
X16521620Y6288480D02*
X17621620D01*
X16521620D02*
Y7488480D01*
X17621620D01*
Y6288480D02*
Y7488480D01*
D53*
X15000000Y2600000D02*
X17700000D01*
X15000000Y4600000D02*
X17700000D01*
Y2600000D02*
Y4600000D01*
X15000000Y2600000D02*
Y4600000D01*
Y8200000D02*
X17700000D01*
X15000000Y9900000D02*
X17700000D01*
Y8200000D02*
Y9900000D01*
X15000000Y8200000D02*
Y9900000D01*
Y4600000D02*
X17700000D01*
X15000000Y8200000D02*
X17700000D01*
Y4600000D02*
Y8200000D01*
X15000000Y4600000D02*
Y8200000D01*
D54*
X16640421Y3660620D02*
Y3720620D01*
X16750420Y3660620D02*
Y3720620D01*
X16973940Y3656980D02*
Y3716980D01*
X16863940Y3656980D02*
Y3716980D01*
X16617000Y4772660D02*
X16657001D01*
X16317439Y4883540D02*
X16377440D01*
X16317439Y4773540D02*
X16377440D01*
X17339700Y5156680D02*
Y5216680D01*
X17229700Y5156680D02*
Y5216680D01*
X15784140Y8936600D02*
X15844141D01*
X15784140Y9046600D02*
X15844141D01*
X16323700Y8987000D02*
Y9047000D01*
X16213699Y8987000D02*
Y9047000D01*
X15801199Y9573400D02*
X16101199D01*
X15801199Y9273400D02*
X16101199D01*
X17267400Y9012800D02*
X17327400D01*
X17267400Y9122800D02*
X17327400D01*
D55*
X17034340Y9253840D02*
X17124339D01*
Y9013840D02*
Y9253840D01*
X17034340Y9013840D02*
X17124339D01*
%TF.MD5,d6fdb16f0a91932d3b2879378eaea3ae*%
M02*
