%TF.GenerationSoftware,Altium Limited,Altium Designer,24.2.2 (26)*%
G04 Layer_Color=255*
%FSLAX45Y45*%
%MOMM*%
%TF.SameCoordinates,979FBE80-878B-4EC3-91C7-7055811A0E5A*%
%TF.FilePolarity,Positive*%
%TF.FileFunction,Pads,Bot*%
%TF.Part,Single*%
G01*
G75*
%TA.AperFunction,ComponentPad*%
%ADD37C,2.28600*%
%ADD38O,4.82000X2.41000*%
%ADD39C,8.00000*%
%ADD40O,1.30800X2.61600*%
%ADD41O,2.61600X1.30800*%
%ADD42C,1.20000*%
%ADD43C,2.05000*%
%ADD44R,2.05000X2.05000*%
D37*
X14592300Y5905500D02*
D03*
X12341860Y4566920D02*
D03*
Y7254240D02*
D03*
D38*
X14112241Y8483600D02*
D03*
X12816840D02*
D03*
D39*
X11000000Y9700000D02*
D03*
Y2600000D02*
D03*
X18400000D02*
D03*
Y9700000D02*
D03*
D40*
X17271620Y6888480D02*
D03*
D41*
X16771620Y7388480D02*
D03*
Y6388480D02*
D03*
D42*
X17521620D02*
D03*
X17271620D02*
D03*
X16771620Y6888480D02*
D03*
X17521620Y7388480D02*
D03*
X17271620D02*
D03*
D43*
X15321280Y3365500D02*
D03*
X15829280D02*
D03*
Y2857500D02*
D03*
X15321280D02*
D03*
D44*
X15575281Y3111500D02*
D03*
%TF.MD5,70e8cf39d10adb774bc398fe33545cd7*%
M02*
