%TF.GenerationSoftware,Altium Limited,Altium Designer,24.2.2 (26)*%
G04 Layer_Color=16711935*
%FSLAX45Y45*%
%MOMM*%
%TF.SameCoordinates,979FBE80-878B-4EC3-91C7-7055811A0E5A*%
%TF.FilePolarity,Positive*%
%TF.FileFunction,Other,Mechanical_13*%
%TF.Part,Single*%
G01*
G75*
%TA.AperFunction,NonConductor*%
%ADD51C,0.20000*%
%ADD52C,0.12700*%
%ADD54C,0.15000*%
%ADD55C,0.17500*%
%ADD83C,0.10000*%
%ADD85C,0.16923*%
D51*
X16461620Y6888480D02*
G03*
X16461620Y6888480I-10000J0D01*
G01*
X15307820Y9028200D02*
Y9348200D01*
X15647820D01*
Y9028200D02*
Y9348200D01*
X15307820Y9028200D02*
X15647820D01*
X16767662Y8983840D02*
X16701018D01*
X16734338Y8950518D02*
Y9017163D01*
D52*
X12766860Y8804240D02*
X12866859D01*
X12816859Y8754240D02*
Y8854240D01*
X14116859Y8779240D02*
Y8879240D01*
X11960860Y3169920D02*
Y8681720D01*
X14973300D01*
Y3169920D02*
Y8681720D01*
X11960860Y3169920D02*
X14973300D01*
X16521620Y6288480D02*
X17621620D01*
X16521620D02*
Y7488480D01*
X17621620D01*
Y6288480D02*
Y6438480D01*
Y7338480D01*
Y7488480D01*
Y6438480D02*
X17721620D01*
Y6588480D01*
X17821620D01*
X17951620D01*
Y7188480D01*
X17821620D02*
X17951620D01*
X17721620D02*
X17821620D01*
X17721620D02*
Y7338480D01*
X17621620D02*
X17721620D01*
X17621620Y7488480D02*
Y8213480D01*
X17821620Y6588480D02*
Y7188480D01*
D54*
X15801199Y9273400D02*
X16101199D01*
X15801199D02*
Y9573400D01*
X16101199D01*
Y9273400D02*
Y9573400D01*
X17027646Y9083856D02*
Y9183823D01*
X16977663D01*
X16961002Y9167162D01*
Y9100517D01*
X16977663Y9083856D01*
X17027646D01*
X16861034Y9183823D02*
X16927679D01*
X16861034Y9117178D01*
Y9100517D01*
X16877695Y9083856D01*
X16911017D01*
X16927679Y9100517D01*
X15249344Y9579745D02*
X15149376D01*
Y9529761D01*
X15166037Y9513100D01*
X15232683D01*
X15249344Y9529761D01*
Y9579745D01*
X15149376Y9479777D02*
Y9446455D01*
Y9463116D01*
X15249344D01*
X15232683Y9479777D01*
D55*
X17124339Y9013840D02*
Y9253840D01*
X16764340Y9013840D02*
X17124339D01*
X16764340D02*
Y9253840D01*
X17124339D01*
X15129359Y9398100D02*
Y9628100D01*
Y9398100D02*
X15269360D01*
Y9628100D01*
X15129359D02*
X15269360D01*
X15511142Y9188200D02*
X15444498D01*
X15427837Y9171539D01*
Y9138216D01*
X15444498Y9121555D01*
X15511142D01*
X15527805Y9138216D01*
Y9171539D01*
X15494481Y9154877D02*
X15527805Y9188200D01*
Y9171539D02*
X15511142Y9188200D01*
X15527805Y9221523D02*
Y9254845D01*
Y9238184D01*
X15427837D01*
X15444498Y9221523D01*
D83*
X16969720Y5494040D02*
G03*
X16969720Y5494040I-50000J0D01*
G01*
X15888660Y5811500D02*
G03*
X15888660Y5811500I-50000J0D01*
G01*
X17009720Y5404040D02*
Y5904040D01*
X16609720Y5404040D02*
Y5904040D01*
Y5404040D02*
X17009720D01*
X16609720Y5904040D02*
X17009720D01*
X16627921Y3580620D02*
X16762920D01*
X16627921Y3800620D02*
X16762920D01*
X16627921Y3580620D02*
Y3800620D01*
X16762920Y3580620D02*
Y3800620D01*
X16851440Y3796980D02*
X16986440D01*
X16851440Y3576980D02*
X16986440D01*
Y3796980D01*
X16851440Y3576980D02*
Y3796980D01*
X15794479Y6643500D02*
Y6818500D01*
X15889481Y6643500D02*
Y6818500D01*
X15794479Y6643500D02*
X15889481D01*
X15794479Y6818500D02*
X15889481D01*
X16173219Y2996980D02*
X16303220D01*
X16173219D02*
Y3286980D01*
X16303220D01*
Y2996980D02*
Y3286980D01*
X16208220Y2996980D02*
X16303220Y3091980D01*
X17146359Y2782060D02*
X17316360D01*
X17146359Y2877060D02*
X17316360D01*
Y2782060D02*
Y2877060D01*
X17146359Y2782060D02*
Y2877060D01*
X16562579Y3260180D02*
Y3430180D01*
X16467580Y3260180D02*
Y3430180D01*
X16562579D01*
X16467580Y3260180D02*
X16562579D01*
X17344901Y2955380D02*
Y3125380D01*
X17249899Y2955380D02*
Y3125380D01*
X17344901D01*
X17249899Y2955380D02*
X17344901D01*
X16971140Y3382520D02*
X17146140D01*
X16971140Y3287520D02*
X17146140D01*
X16971140D02*
Y3382520D01*
X17146140Y3287520D02*
Y3382520D01*
X16272600Y2856740D02*
X16442599D01*
X16272600Y2761740D02*
X16442599D01*
X16272600D02*
Y2856740D01*
X16442599Y2761740D02*
Y2856740D01*
X15840277Y1948985D02*
Y2794000D01*
X15311185Y1948985D02*
Y2794000D01*
X15310280Y1948985D02*
X15840277D01*
X15257776Y2794004D02*
Y3429028D01*
Y2794004D02*
X15257784Y2793996D01*
X15892776D01*
Y3428955D01*
X15892735Y3428996D02*
X15892776Y3428955D01*
X15257784Y3428996D02*
X15892735D01*
X16350700Y5176540D02*
X16440700D01*
X16350700Y5346540D02*
X16440700D01*
X16350700Y5176540D02*
Y5346540D01*
X16440700Y5176540D02*
Y5346540D01*
X16237440Y4761040D02*
Y4896040D01*
X16457440Y4761040D02*
Y4896040D01*
X16237440D02*
X16457440D01*
X16237440Y4761040D02*
X16457440D01*
X15748660Y5401500D02*
X16148660D01*
X15748660Y5901500D02*
X16148660D01*
Y5401500D02*
Y5901500D01*
X15748660Y5401500D02*
Y5901500D01*
X15405820Y5757000D02*
X15495821D01*
X15405820Y5927000D02*
X15495821D01*
X15405820Y5757000D02*
Y5927000D01*
X15495821Y5757000D02*
Y5927000D01*
X17381979Y5669520D02*
Y5844520D01*
X17476981Y5669520D02*
Y5844520D01*
X17381979Y5669520D02*
X17476981D01*
X17381979Y5844520D02*
X17476981D01*
X17217200Y5296680D02*
X17352200D01*
X17217200Y5076680D02*
X17352200D01*
Y5296680D01*
X17217200Y5076680D02*
Y5296680D01*
X16442500Y9381000D02*
X16577499D01*
X16442500Y9161000D02*
X16577499D01*
Y9381000D01*
X16442500Y9161000D02*
Y9381000D01*
X17407401Y9000300D02*
Y9135300D01*
X17187399Y9000300D02*
Y9135300D01*
Y9000300D02*
X17407401D01*
X17187399Y9135300D02*
X17407401D01*
X16298399Y9533700D02*
Y9668700D01*
X16518401Y9533700D02*
Y9668700D01*
X16298399D02*
X16518401D01*
X16298399Y9533700D02*
X16518401D01*
D85*
X17596620Y7588480D02*
X17515366D01*
Y7629107D01*
X17528909Y7642649D01*
X17555994D01*
X17569536Y7629107D01*
Y7588480D01*
X17528909Y7723903D02*
X17515366Y7710361D01*
Y7683276D01*
X17528909Y7669734D01*
X17583078D01*
X17596620Y7683276D01*
Y7710361D01*
X17583078Y7723903D01*
X17515366Y7750988D02*
X17596620D01*
Y7791615D01*
X17583078Y7805157D01*
X17569536D01*
X17555994Y7791615D01*
Y7750988D01*
Y7791615D01*
X17542451Y7805157D01*
X17528909D01*
X17515366Y7791615D01*
Y7750988D01*
Y7967665D02*
Y7913495D01*
X17596620D01*
Y7967665D01*
X17555994Y7913495D02*
Y7940580D01*
X17515366Y7994749D02*
X17596620D01*
Y8035376D01*
X17583078Y8048918D01*
X17528909D01*
X17515366Y8035376D01*
Y7994749D01*
X17528909Y8130172D02*
X17515366Y8116630D01*
Y8089545D01*
X17528909Y8076003D01*
X17583078D01*
X17596620Y8089545D01*
Y8116630D01*
X17583078Y8130172D01*
X17555994D01*
Y8103088D01*
X17515366Y8211426D02*
Y8157257D01*
X17596620D01*
Y8211426D01*
X17555994Y8157257D02*
Y8184342D01*
%TF.MD5,c7918d1c177eeda5c5d0a31787d30653*%
M02*
