%TF.GenerationSoftware,Altium Limited,Altium Designer,24.2.2 (26)*%
G04 Layer_Physical_Order=3*
G04 Layer_Color=16440176*
%FSLAX45Y45*%
%MOMM*%
%TF.SameCoordinates,979FBE80-878B-4EC3-91C7-7055811A0E5A*%
%TF.FilePolarity,Positive*%
%TF.FileFunction,Copper,L3,Inr,Signal*%
%TF.Part,Single*%
G01*
G75*
%TA.AperFunction,ComponentPad*%
%ADD37C,2.28600*%
%ADD38O,4.82000X2.41000*%
%ADD39C,8.00000*%
%ADD40O,1.30800X2.61600*%
%ADD41O,2.61600X1.30800*%
%ADD42C,1.20000*%
%ADD43C,2.05000*%
%ADD44R,2.05000X2.05000*%
%TA.AperFunction,ViaPad*%
%ADD45C,0.70000*%
%ADD46C,0.76200*%
%ADD47C,1.27000*%
G36*
X15910561Y9581724D02*
X15932074Y9590635D01*
X15949065Y9607626D01*
X15954819Y9621520D01*
X17480511D01*
X17515845Y9614492D01*
X17549126Y9600706D01*
X17579079Y9580692D01*
X17604552Y9555219D01*
X17624567Y9525266D01*
X17638351Y9491984D01*
X17645380Y9456652D01*
Y9438640D01*
Y2941320D01*
Y2921557D01*
X17637669Y2882790D01*
X17622542Y2846272D01*
X17600583Y2813407D01*
X17572633Y2785457D01*
X17539767Y2763497D01*
X17503250Y2748371D01*
X17464484Y2740660D01*
X15889307D01*
X15885904Y2753360D01*
X15902042Y2762676D01*
X15924104Y2784739D01*
X15939703Y2811761D01*
X15947780Y2841899D01*
Y2873101D01*
X15939703Y2903239D01*
X15924104Y2930261D01*
X15902042Y2952324D01*
X15875018Y2967924D01*
X15844881Y2976000D01*
X15813680D01*
X15783540Y2967924D01*
X15756519Y2952324D01*
X15734456Y2930261D01*
X15718855Y2903239D01*
X15710780Y2873101D01*
Y2841899D01*
X15718855Y2811761D01*
X15734456Y2784739D01*
X15756519Y2762676D01*
X15772656Y2753360D01*
X15769254Y2740660D01*
X15381306D01*
X15377904Y2753360D01*
X15394041Y2762676D01*
X15416104Y2784739D01*
X15431705Y2811761D01*
X15439780Y2841899D01*
Y2873101D01*
X15431705Y2903239D01*
X15416104Y2930261D01*
X15394041Y2952324D01*
X15367020Y2967924D01*
X15336880Y2976000D01*
X15305679D01*
X15275542Y2967924D01*
X15248518Y2952324D01*
X15226456Y2930261D01*
X15210857Y2903239D01*
X15202780Y2873101D01*
Y2841899D01*
X15210857Y2811761D01*
X15226456Y2784739D01*
X15248518Y2762676D01*
X15264656Y2753360D01*
X15261253Y2740660D01*
X12052369D01*
X12029030Y2750327D01*
X12011167Y2768190D01*
X12001500Y2791529D01*
Y2804160D01*
X12016740Y9621520D01*
X15840901D01*
X15846655Y9607626D01*
X15863646Y9590635D01*
X15885159Y9581724D01*
Y9641840D01*
X15910561D01*
Y9581724D01*
D02*
G37*
%LPC*%
G36*
X14988541Y9567336D02*
Y9519920D01*
X15035956D01*
X15027045Y9541434D01*
X15010054Y9558425D01*
X14988541Y9567336D01*
D02*
G37*
G36*
X14963139D02*
X14941626Y9558425D01*
X14924635Y9541434D01*
X14915724Y9519920D01*
X14963139D01*
Y9567336D01*
D02*
G37*
G36*
X15684500Y9507916D02*
Y9460500D01*
X15731915D01*
X15723006Y9482014D01*
X15706013Y9499004D01*
X15684500Y9507916D01*
D02*
G37*
G36*
X15659100D02*
X15637585Y9499004D01*
X15620595Y9482014D01*
X15611684Y9460500D01*
X15659100D01*
Y9507916D01*
D02*
G37*
G36*
X15035956Y9494520D02*
X14988541D01*
Y9447104D01*
X15010054Y9456015D01*
X15027045Y9473006D01*
X15035956Y9494520D01*
D02*
G37*
G36*
X14963139D02*
X14915724D01*
X14924635Y9473006D01*
X14941626Y9456015D01*
X14963139Y9447104D01*
Y9494520D01*
D02*
G37*
G36*
X15731915Y9435100D02*
X15684500D01*
Y9387684D01*
X15706013Y9396595D01*
X15723006Y9413586D01*
X15731915Y9435100D01*
D02*
G37*
G36*
X15659100D02*
X15611684D01*
X15620595Y9413586D01*
X15637585Y9396595D01*
X15659100Y9387684D01*
Y9435100D01*
D02*
G37*
G36*
X14465300Y9026316D02*
Y8978900D01*
X14512717D01*
X14503806Y9000414D01*
X14486813Y9017405D01*
X14465300Y9026316D01*
D02*
G37*
G36*
X14439900D02*
X14418385Y9017405D01*
X14401395Y9000414D01*
X14392484Y8978900D01*
X14439900D01*
Y9026316D01*
D02*
G37*
G36*
X14643100Y9000916D02*
Y8953500D01*
X14690517D01*
X14681606Y8975014D01*
X14664613Y8992005D01*
X14643100Y9000916D01*
D02*
G37*
G36*
X14617700D02*
X14596185Y8992005D01*
X14579195Y8975014D01*
X14570284Y8953500D01*
X14617700D01*
Y9000916D01*
D02*
G37*
G36*
X16131540Y8995836D02*
Y8948420D01*
X16178957D01*
X16170045Y8969934D01*
X16153053Y8986925D01*
X16131540Y8995836D01*
D02*
G37*
G36*
X16106140D02*
X16084625Y8986925D01*
X16067635Y8969934D01*
X16058723Y8948420D01*
X16106140D01*
Y8995836D01*
D02*
G37*
G36*
X14512717Y8953500D02*
X14465300D01*
Y8906084D01*
X14486813Y8914995D01*
X14503806Y8931986D01*
X14512717Y8953500D01*
D02*
G37*
G36*
X14439900D02*
X14392484D01*
X14401395Y8931986D01*
X14418385Y8914995D01*
X14439900Y8906084D01*
Y8953500D01*
D02*
G37*
G36*
X14690517Y8928100D02*
X14643100D01*
Y8880684D01*
X14664613Y8889595D01*
X14681606Y8906586D01*
X14690517Y8928100D01*
D02*
G37*
G36*
X14617700D02*
X14570284D01*
X14579195Y8906586D01*
X14596185Y8889595D01*
X14617700Y8880684D01*
Y8928100D01*
D02*
G37*
G36*
X16178957Y8923020D02*
X16131540D01*
Y8875604D01*
X16153053Y8884515D01*
X16170045Y8901506D01*
X16178957Y8923020D01*
D02*
G37*
G36*
X16106140D02*
X16058723D01*
X16067635Y8901506D01*
X16084625Y8884515D01*
X16106140Y8875604D01*
Y8923020D01*
D02*
G37*
G36*
X14287500Y8899316D02*
Y8851900D01*
X14334917D01*
X14326006Y8873414D01*
X14309013Y8890405D01*
X14287500Y8899316D01*
D02*
G37*
G36*
X14262100D02*
X14240585Y8890405D01*
X14223595Y8873414D01*
X14214684Y8851900D01*
X14262100D01*
Y8899316D01*
D02*
G37*
G36*
X14516100Y8848516D02*
Y8801100D01*
X14563516D01*
X14554605Y8822614D01*
X14537614Y8839605D01*
X14516100Y8848516D01*
D02*
G37*
G36*
X14490700D02*
X14469186Y8839605D01*
X14452196Y8822614D01*
X14443285Y8801100D01*
X14490700D01*
Y8848516D01*
D02*
G37*
G36*
X14334917Y8826500D02*
X14287500D01*
Y8779084D01*
X14309013Y8787995D01*
X14326006Y8804986D01*
X14334917Y8826500D01*
D02*
G37*
G36*
X14262100D02*
X14214684D01*
X14223595Y8804986D01*
X14240585Y8787995D01*
X14262100Y8779084D01*
Y8826500D01*
D02*
G37*
G36*
X14563516Y8775700D02*
X14516100D01*
Y8728284D01*
X14537614Y8737195D01*
X14554605Y8754186D01*
X14563516Y8775700D01*
D02*
G37*
G36*
X14490700D02*
X14443285D01*
X14452196Y8754186D01*
X14469186Y8737195D01*
X14490700Y8728284D01*
Y8775700D01*
D02*
G37*
G36*
X12937340Y8621278D02*
X12696340D01*
X12660706Y8616587D01*
X12627501Y8602832D01*
X12598987Y8580953D01*
X12577107Y8552439D01*
X12563353Y8519234D01*
X12558662Y8483600D01*
X12563353Y8447966D01*
X12577107Y8414761D01*
X12598987Y8386247D01*
X12627501Y8364368D01*
X12660706Y8350613D01*
X12696340Y8345922D01*
X12937340D01*
X12972974Y8350613D01*
X13006178Y8364368D01*
X13034692Y8386247D01*
X13056573Y8414761D01*
X13070328Y8447966D01*
X13075018Y8483600D01*
X13070328Y8519234D01*
X13056573Y8552439D01*
X13034692Y8580953D01*
X13006178Y8602832D01*
X12972974Y8616587D01*
X12937340Y8621278D01*
D02*
G37*
G36*
X13995399Y8068736D02*
Y8021320D01*
X14042816D01*
X14033905Y8042834D01*
X14016914Y8059825D01*
X13995399Y8068736D01*
D02*
G37*
G36*
X13970000D02*
X13948486Y8059825D01*
X13931496Y8042834D01*
X13922585Y8021320D01*
X13970000D01*
Y8068736D01*
D02*
G37*
G36*
X14188440Y8005236D02*
Y7957820D01*
X14235857D01*
X14226945Y7979334D01*
X14209953Y7996325D01*
X14188440Y8005236D01*
D02*
G37*
G36*
X14163040D02*
X14141525Y7996325D01*
X14124535Y7979334D01*
X14115623Y7957820D01*
X14163040D01*
Y8005236D01*
D02*
G37*
G36*
X14042816Y7995920D02*
X13995399D01*
Y7948504D01*
X14016914Y7957415D01*
X14033905Y7974406D01*
X14042816Y7995920D01*
D02*
G37*
G36*
X13970000D02*
X13922585D01*
X13931496Y7974406D01*
X13948486Y7957415D01*
X13970000Y7948504D01*
Y7995920D01*
D02*
G37*
G36*
X12430760Y7972216D02*
Y7924800D01*
X12478176D01*
X12469265Y7946314D01*
X12452274Y7963305D01*
X12430760Y7972216D01*
D02*
G37*
G36*
X12405360D02*
X12383846Y7963305D01*
X12366855Y7946314D01*
X12357944Y7924800D01*
X12405360D01*
Y7972216D01*
D02*
G37*
G36*
X13576300Y7964596D02*
Y7917180D01*
X13623717D01*
X13614806Y7938694D01*
X13597813Y7955685D01*
X13576300Y7964596D01*
D02*
G37*
G36*
X13550900D02*
X13529385Y7955685D01*
X13512395Y7938694D01*
X13503484Y7917180D01*
X13550900D01*
Y7964596D01*
D02*
G37*
G36*
X15455901Y7946816D02*
Y7899400D01*
X15503316D01*
X15494405Y7920914D01*
X15477414Y7937905D01*
X15455901Y7946816D01*
D02*
G37*
G36*
X15430499D02*
X15408986Y7937905D01*
X15391995Y7920914D01*
X15383084Y7899400D01*
X15430499D01*
Y7946816D01*
D02*
G37*
G36*
X14235857Y7932420D02*
X14188440D01*
Y7885004D01*
X14209953Y7893915D01*
X14226945Y7910906D01*
X14235857Y7932420D01*
D02*
G37*
G36*
X14163040D02*
X14115623D01*
X14124535Y7910906D01*
X14141525Y7893915D01*
X14163040Y7885004D01*
Y7932420D01*
D02*
G37*
G36*
X17414240Y7923956D02*
Y7876540D01*
X17461656D01*
X17452745Y7898054D01*
X17435754Y7915045D01*
X17414240Y7923956D01*
D02*
G37*
G36*
X17388840D02*
X17367326Y7915045D01*
X17350336Y7898054D01*
X17341425Y7876540D01*
X17388840D01*
Y7923956D01*
D02*
G37*
G36*
X16390620Y7916336D02*
Y7868920D01*
X16438036D01*
X16429124Y7890434D01*
X16412134Y7907425D01*
X16390620Y7916336D01*
D02*
G37*
G36*
X16365221D02*
X16343706Y7907425D01*
X16326715Y7890434D01*
X16317804Y7868920D01*
X16365221D01*
Y7916336D01*
D02*
G37*
G36*
X12478176Y7899400D02*
X12430760D01*
Y7851984D01*
X12452274Y7860895D01*
X12469265Y7877886D01*
X12478176Y7899400D01*
D02*
G37*
G36*
X12405360D02*
X12357944D01*
X12366855Y7877886D01*
X12383846Y7860895D01*
X12405360Y7851984D01*
Y7899400D01*
D02*
G37*
G36*
X13623717Y7891780D02*
X13576300D01*
Y7844364D01*
X13597813Y7853275D01*
X13614806Y7870266D01*
X13623717Y7891780D01*
D02*
G37*
G36*
X13550900D02*
X13503484D01*
X13512395Y7870266D01*
X13529385Y7853275D01*
X13550900Y7844364D01*
Y7891780D01*
D02*
G37*
G36*
X15503316Y7874000D02*
X15455901D01*
Y7826584D01*
X15477414Y7835495D01*
X15494405Y7852486D01*
X15503316Y7874000D01*
D02*
G37*
G36*
X15430499D02*
X15383084D01*
X15391995Y7852486D01*
X15408986Y7835495D01*
X15430499Y7826584D01*
Y7874000D01*
D02*
G37*
G36*
X17461656Y7851140D02*
X17414240D01*
Y7803724D01*
X17435754Y7812635D01*
X17452745Y7829626D01*
X17461656Y7851140D01*
D02*
G37*
G36*
X17388840D02*
X17341425D01*
X17350336Y7829626D01*
X17367326Y7812635D01*
X17388840Y7803724D01*
Y7851140D01*
D02*
G37*
G36*
X16438036Y7843520D02*
X16390620D01*
Y7796104D01*
X16412134Y7805015D01*
X16429124Y7822006D01*
X16438036Y7843520D01*
D02*
G37*
G36*
X16365221D02*
X16317804D01*
X16326715Y7822006D01*
X16343706Y7805015D01*
X16365221Y7796104D01*
Y7843520D01*
D02*
G37*
G36*
X16883380Y7664876D02*
Y7617460D01*
X16930795D01*
X16921886Y7638974D01*
X16904893Y7655965D01*
X16883380Y7664876D01*
D02*
G37*
G36*
X16857980D02*
X16836465Y7655965D01*
X16819475Y7638974D01*
X16810564Y7617460D01*
X16857980D01*
Y7664876D01*
D02*
G37*
G36*
X16930795Y7592060D02*
X16883380D01*
Y7544644D01*
X16904893Y7553555D01*
X16921886Y7570546D01*
X16930795Y7592060D01*
D02*
G37*
G36*
X16857980D02*
X16810564D01*
X16819475Y7570546D01*
X16836465Y7553555D01*
X16857980Y7544644D01*
Y7592060D01*
D02*
G37*
G36*
X14246860Y7535336D02*
Y7487920D01*
X14294276D01*
X14285365Y7509434D01*
X14268375Y7526425D01*
X14246860Y7535336D01*
D02*
G37*
G36*
X14221460D02*
X14199947Y7526425D01*
X14182954Y7509434D01*
X14174043Y7487920D01*
X14221460D01*
Y7535336D01*
D02*
G37*
G36*
X13124181Y7520096D02*
Y7472680D01*
X13171596D01*
X13162685Y7494194D01*
X13145694Y7511185D01*
X13124181Y7520096D01*
D02*
G37*
G36*
X13098779D02*
X13077266Y7511185D01*
X13060275Y7494194D01*
X13051364Y7472680D01*
X13098779D01*
Y7520096D01*
D02*
G37*
G36*
X14294276Y7462520D02*
X14246860D01*
Y7415104D01*
X14268375Y7424015D01*
X14285365Y7441006D01*
X14294276Y7462520D01*
D02*
G37*
G36*
X14221460D02*
X14174043D01*
X14182954Y7441006D01*
X14199947Y7424015D01*
X14221460Y7415104D01*
Y7462520D01*
D02*
G37*
G36*
X13171596Y7447280D02*
X13124181D01*
Y7399864D01*
X13145694Y7408775D01*
X13162685Y7425766D01*
X13171596Y7447280D01*
D02*
G37*
G36*
X13098779D02*
X13051364D01*
X13060275Y7425766D01*
X13077266Y7408775D01*
X13098779Y7399864D01*
Y7447280D01*
D02*
G37*
G36*
X17531625Y7464480D02*
X17511613D01*
X17492285Y7459301D01*
X17474956Y7449295D01*
X17460805Y7435145D01*
X17450800Y7417815D01*
X17445621Y7398486D01*
Y7378474D01*
X17450800Y7359145D01*
X17460805Y7341815D01*
X17474956Y7327665D01*
X17492285Y7317659D01*
X17511613Y7312480D01*
X17531625D01*
X17550955Y7317659D01*
X17568285Y7327665D01*
X17582436Y7341815D01*
X17592441Y7359145D01*
X17597620Y7378474D01*
Y7398486D01*
X17592441Y7417815D01*
X17582436Y7435145D01*
X17568285Y7449295D01*
X17550955Y7459301D01*
X17531625Y7464480D01*
D02*
G37*
G36*
X17281625D02*
X17261613D01*
X17242285Y7459301D01*
X17224956Y7449295D01*
X17210805Y7435145D01*
X17200800Y7417815D01*
X17195621Y7398486D01*
Y7378474D01*
X17200800Y7359145D01*
X17210805Y7341815D01*
X17224956Y7327665D01*
X17242285Y7317659D01*
X17261613Y7312480D01*
X17281625D01*
X17300955Y7317659D01*
X17318285Y7327665D01*
X17332436Y7341815D01*
X17342441Y7359145D01*
X17347620Y7378474D01*
Y7398486D01*
X17342441Y7417815D01*
X17332436Y7435145D01*
X17318285Y7449295D01*
X17300955Y7459301D01*
X17281625Y7464480D01*
D02*
G37*
G36*
X15753081Y7301656D02*
Y7254240D01*
X15800496D01*
X15791585Y7275754D01*
X15774594Y7292745D01*
X15753081Y7301656D01*
D02*
G37*
G36*
X15727679D02*
X15706166Y7292745D01*
X15689175Y7275754D01*
X15680264Y7254240D01*
X15727679D01*
Y7301656D01*
D02*
G37*
G36*
X15800496Y7228840D02*
X15753081D01*
Y7181424D01*
X15774594Y7190335D01*
X15791585Y7207326D01*
X15800496Y7228840D01*
D02*
G37*
G36*
X15727679D02*
X15680264D01*
X15689175Y7207326D01*
X15706166Y7190335D01*
X15727679Y7181424D01*
Y7228840D01*
D02*
G37*
G36*
X12359014Y7384540D02*
X12324706D01*
X12291566Y7375660D01*
X12261854Y7358506D01*
X12237594Y7334246D01*
X12220440Y7304534D01*
X12211560Y7271394D01*
Y7237086D01*
X12220440Y7203946D01*
X12237594Y7174234D01*
X12261854Y7149974D01*
X12291566Y7132820D01*
X12324706Y7123940D01*
X12359014D01*
X12392154Y7132820D01*
X12421866Y7149974D01*
X12446126Y7174234D01*
X12463280Y7203946D01*
X12472160Y7237086D01*
Y7271394D01*
X12463280Y7304534D01*
X12446126Y7334246D01*
X12421866Y7358506D01*
X12392154Y7375660D01*
X12359014Y7384540D01*
D02*
G37*
G36*
X16156940Y7100996D02*
Y7053580D01*
X16204356D01*
X16195445Y7075094D01*
X16178455Y7092085D01*
X16156940Y7100996D01*
D02*
G37*
G36*
X16131540D02*
X16110027Y7092085D01*
X16093034Y7075094D01*
X16084125Y7053580D01*
X16131540D01*
Y7100996D01*
D02*
G37*
G36*
X16204356Y7028180D02*
X16156940D01*
Y6980764D01*
X16178455Y6989675D01*
X16195445Y7006666D01*
X16204356Y7028180D01*
D02*
G37*
G36*
X16131540D02*
X16084125D01*
X16093034Y7006666D01*
X16110027Y6989675D01*
X16131540Y6980764D01*
Y7028180D01*
D02*
G37*
G36*
X14173199Y6979076D02*
Y6931660D01*
X14220616D01*
X14211705Y6953174D01*
X14194714Y6970165D01*
X14173199Y6979076D01*
D02*
G37*
G36*
X14147800D02*
X14126286Y6970165D01*
X14109296Y6953174D01*
X14100385Y6931660D01*
X14147800D01*
Y6979076D01*
D02*
G37*
G36*
X14777721Y6971456D02*
Y6924040D01*
X14825136D01*
X14816225Y6945554D01*
X14799234Y6962545D01*
X14777721Y6971456D01*
D02*
G37*
G36*
X14752319D02*
X14730806Y6962545D01*
X14713815Y6945554D01*
X14704904Y6924040D01*
X14752319D01*
Y6971456D01*
D02*
G37*
G36*
X14220616Y6906260D02*
X14173199D01*
Y6858844D01*
X14194714Y6867755D01*
X14211705Y6884746D01*
X14220616Y6906260D01*
D02*
G37*
G36*
X14147800D02*
X14100385D01*
X14109296Y6884746D01*
X14126286Y6867755D01*
X14147800Y6858844D01*
Y6906260D01*
D02*
G37*
G36*
X14825136Y6898640D02*
X14777721D01*
Y6851224D01*
X14799234Y6860135D01*
X14816225Y6877126D01*
X14825136Y6898640D01*
D02*
G37*
G36*
X14752319D02*
X14704904D01*
X14713815Y6877126D01*
X14730806Y6860135D01*
X14752319Y6851224D01*
Y6898640D01*
D02*
G37*
G36*
X16781625Y6964480D02*
X16761613D01*
X16742285Y6959301D01*
X16724956Y6949295D01*
X16710805Y6935145D01*
X16700800Y6917815D01*
X16695621Y6898486D01*
Y6878474D01*
X16700800Y6859145D01*
X16710805Y6841815D01*
X16724956Y6827665D01*
X16742285Y6817659D01*
X16761613Y6812480D01*
X16781625D01*
X16800955Y6817659D01*
X16818285Y6827665D01*
X16832436Y6841815D01*
X16842441Y6859145D01*
X16847620Y6878474D01*
Y6898486D01*
X16842441Y6917815D01*
X16832436Y6935145D01*
X16818285Y6949295D01*
X16800955Y6959301D01*
X16781625Y6964480D01*
D02*
G37*
G36*
X17271620Y7035982D02*
X17250369Y7033185D01*
X17230569Y7024982D01*
X17213565Y7011935D01*
X17200517Y6994931D01*
X17192316Y6975130D01*
X17189519Y6953880D01*
Y6823080D01*
X17192316Y6801830D01*
X17200517Y6782029D01*
X17213565Y6765025D01*
X17230569Y6751978D01*
X17250369Y6743775D01*
X17271620Y6740978D01*
X17292870Y6743775D01*
X17312671Y6751978D01*
X17329675Y6765025D01*
X17342722Y6782029D01*
X17350925Y6801830D01*
X17353722Y6823080D01*
Y6953880D01*
X17350925Y6975130D01*
X17342722Y6994931D01*
X17329675Y7011935D01*
X17312671Y7024982D01*
X17292870Y7033185D01*
X17271620Y7035982D01*
D02*
G37*
G36*
X16212820Y6488856D02*
Y6441440D01*
X16260236D01*
X16251324Y6462954D01*
X16234334Y6479945D01*
X16212820Y6488856D01*
D02*
G37*
G36*
X16187421D02*
X16165906Y6479945D01*
X16148915Y6462954D01*
X16140004Y6441440D01*
X16187421D01*
Y6488856D01*
D02*
G37*
G36*
X16260236Y6416040D02*
X16212820D01*
Y6368624D01*
X16234334Y6377535D01*
X16251324Y6394526D01*
X16260236Y6416040D01*
D02*
G37*
G36*
X16187421D02*
X16140004D01*
X16148915Y6394526D01*
X16165906Y6377535D01*
X16187421Y6368624D01*
Y6416040D01*
D02*
G37*
G36*
X15857526Y6513320D02*
X15836594D01*
X15816374Y6507902D01*
X15798245Y6497436D01*
X15783444Y6482634D01*
X15772978Y6464506D01*
X15767560Y6444286D01*
Y6423354D01*
X15772978Y6403134D01*
X15783444Y6385006D01*
X15798245Y6370204D01*
X15816374Y6359738D01*
X15836594Y6354320D01*
X15857526D01*
X15877747Y6359738D01*
X15895874Y6370204D01*
X15910677Y6385006D01*
X15921143Y6403134D01*
X15926559Y6423354D01*
Y6444286D01*
X15921143Y6464506D01*
X15910677Y6482634D01*
X15895874Y6497436D01*
X15877747Y6507902D01*
X15857526Y6513320D01*
D02*
G37*
G36*
X17531625Y6464480D02*
X17511613D01*
X17492285Y6459301D01*
X17474956Y6449295D01*
X17460805Y6435145D01*
X17450800Y6417815D01*
X17445621Y6398486D01*
Y6378474D01*
X17450800Y6359145D01*
X17460805Y6341815D01*
X17474956Y6327665D01*
X17492285Y6317659D01*
X17511613Y6312480D01*
X17531625D01*
X17550955Y6317659D01*
X17568285Y6327665D01*
X17582436Y6341815D01*
X17592441Y6359145D01*
X17597620Y6378474D01*
Y6398486D01*
X17592441Y6417815D01*
X17582436Y6435145D01*
X17568285Y6449295D01*
X17550955Y6459301D01*
X17531625Y6464480D01*
D02*
G37*
G36*
X17281625D02*
X17261613D01*
X17242285Y6459301D01*
X17224956Y6449295D01*
X17210805Y6435145D01*
X17200800Y6417815D01*
X17195621Y6398486D01*
Y6378474D01*
X17200800Y6359145D01*
X17210805Y6341815D01*
X17224956Y6327665D01*
X17242285Y6317659D01*
X17261613Y6312480D01*
X17281625D01*
X17300955Y6317659D01*
X17318285Y6327665D01*
X17332436Y6341815D01*
X17342441Y6359145D01*
X17347620Y6378474D01*
Y6398486D01*
X17342441Y6417815D01*
X17332436Y6435145D01*
X17318285Y6449295D01*
X17300955Y6459301D01*
X17281625Y6464480D01*
D02*
G37*
G36*
X16837019Y6470582D02*
X16706219D01*
X16684970Y6467785D01*
X16665169Y6459582D01*
X16648164Y6446535D01*
X16635118Y6429531D01*
X16626915Y6409730D01*
X16624118Y6388480D01*
X16626915Y6367230D01*
X16635118Y6347429D01*
X16648164Y6330425D01*
X16665169Y6317378D01*
X16684970Y6309175D01*
X16706219Y6306378D01*
X16837019D01*
X16858270Y6309175D01*
X16878072Y6317378D01*
X16895074Y6330425D01*
X16908122Y6347429D01*
X16916325Y6367230D01*
X16919122Y6388480D01*
X16916325Y6409730D01*
X16908122Y6429531D01*
X16895074Y6446535D01*
X16878072Y6459582D01*
X16858270Y6467785D01*
X16837019Y6470582D01*
D02*
G37*
G36*
X13594080Y6285656D02*
Y6238240D01*
X13641496D01*
X13632585Y6259754D01*
X13615594Y6276745D01*
X13594080Y6285656D01*
D02*
G37*
G36*
X13568680D02*
X13547166Y6276745D01*
X13530174Y6259754D01*
X13521265Y6238240D01*
X13568680D01*
Y6285656D01*
D02*
G37*
G36*
X13053059Y6214536D02*
Y6167120D01*
X13100476D01*
X13091565Y6188634D01*
X13074574Y6205625D01*
X13053059Y6214536D01*
D02*
G37*
G36*
X13027660D02*
X13006146Y6205625D01*
X12989156Y6188634D01*
X12980244Y6167120D01*
X13027660D01*
Y6214536D01*
D02*
G37*
G36*
X13641496Y6212840D02*
X13594080D01*
Y6165424D01*
X13615594Y6174335D01*
X13632585Y6191326D01*
X13641496Y6212840D01*
D02*
G37*
G36*
X13568680D02*
X13521265D01*
X13530174Y6191326D01*
X13547166Y6174335D01*
X13568680Y6165424D01*
Y6212840D01*
D02*
G37*
G36*
X13100476Y6141720D02*
X13053059D01*
Y6094304D01*
X13074574Y6103215D01*
X13091565Y6120206D01*
X13100476Y6141720D01*
D02*
G37*
G36*
X13027660D02*
X12980244D01*
X12989156Y6120206D01*
X13006146Y6103215D01*
X13027660Y6094304D01*
Y6141720D01*
D02*
G37*
G36*
X17048480Y6049436D02*
Y6002020D01*
X17095895D01*
X17086984Y6023534D01*
X17069994Y6040525D01*
X17048480Y6049436D01*
D02*
G37*
G36*
X17023080D02*
X17001566Y6040525D01*
X16984575Y6023534D01*
X16975664Y6002020D01*
X17023080D01*
Y6049436D01*
D02*
G37*
G36*
X17095895Y5976620D02*
X17048480D01*
Y5929204D01*
X17069994Y5938115D01*
X17086984Y5955106D01*
X17095895Y5976620D01*
D02*
G37*
G36*
X17023080D02*
X16975664D01*
X16984575Y5955106D01*
X17001566Y5938115D01*
X17023080Y5929204D01*
Y5976620D01*
D02*
G37*
G36*
X12423140Y5876716D02*
Y5829300D01*
X12470556D01*
X12461645Y5850814D01*
X12444654Y5867805D01*
X12423140Y5876716D01*
D02*
G37*
G36*
X12397740D02*
X12376226Y5867805D01*
X12359235Y5850814D01*
X12350324Y5829300D01*
X12397740D01*
Y5876716D01*
D02*
G37*
G36*
X14609454Y6035800D02*
X14575146D01*
X14542006Y6026920D01*
X14512294Y6009766D01*
X14488034Y5985506D01*
X14470880Y5955794D01*
X14462000Y5922654D01*
Y5888346D01*
X14470880Y5855206D01*
X14488034Y5825494D01*
X14512294Y5801234D01*
X14542006Y5784080D01*
X14575146Y5775200D01*
X14609454D01*
X14642593Y5784080D01*
X14672305Y5801234D01*
X14696565Y5825494D01*
X14713721Y5855206D01*
X14722600Y5888346D01*
Y5922654D01*
X14713721Y5955794D01*
X14696565Y5985506D01*
X14672305Y6009766D01*
X14642593Y6026920D01*
X14609454Y6035800D01*
D02*
G37*
G36*
X12470556Y5803900D02*
X12423140D01*
Y5756484D01*
X12444654Y5765395D01*
X12461645Y5782386D01*
X12470556Y5803900D01*
D02*
G37*
G36*
X12397740D02*
X12350324D01*
X12359235Y5782386D01*
X12376226Y5765395D01*
X12397740Y5756484D01*
Y5803900D01*
D02*
G37*
G36*
X15367307Y5664960D02*
X15346375D01*
X15326154Y5659542D01*
X15308026Y5649076D01*
X15293224Y5634274D01*
X15282758Y5616146D01*
X15277341Y5595926D01*
Y5574994D01*
X15282758Y5554774D01*
X15293224Y5536646D01*
X15308026Y5521844D01*
X15326154Y5511378D01*
X15346375Y5505960D01*
X15367307D01*
X15387526Y5511378D01*
X15405653Y5521844D01*
X15420456Y5536646D01*
X15430922Y5554774D01*
X15436340Y5574994D01*
Y5595926D01*
X15430922Y5616146D01*
X15420456Y5634274D01*
X15405653Y5649076D01*
X15387526Y5659542D01*
X15367307Y5664960D01*
D02*
G37*
G36*
X13223241Y5102016D02*
Y5054600D01*
X13270656D01*
X13261745Y5076114D01*
X13244754Y5093105D01*
X13223241Y5102016D01*
D02*
G37*
G36*
X13197839D02*
X13176326Y5093105D01*
X13159335Y5076114D01*
X13150424Y5054600D01*
X13197839D01*
Y5102016D01*
D02*
G37*
G36*
X14617700Y5068996D02*
Y5021580D01*
X14665115D01*
X14656206Y5043094D01*
X14639214Y5060085D01*
X14617700Y5068996D01*
D02*
G37*
G36*
X14592300D02*
X14570786Y5060085D01*
X14553795Y5043094D01*
X14544884Y5021580D01*
X14592300D01*
Y5068996D01*
D02*
G37*
G36*
X16329660Y5051216D02*
Y5003800D01*
X16377077D01*
X16368166Y5025314D01*
X16351173Y5042305D01*
X16329660Y5051216D01*
D02*
G37*
G36*
X16304260D02*
X16282745Y5042305D01*
X16265755Y5025314D01*
X16256844Y5003800D01*
X16304260D01*
Y5051216D01*
D02*
G37*
G36*
X13270656Y5029200D02*
X13223241D01*
Y4981784D01*
X13244754Y4990695D01*
X13261745Y5007686D01*
X13270656Y5029200D01*
D02*
G37*
G36*
X13197839D02*
X13150424D01*
X13159335Y5007686D01*
X13176326Y4990695D01*
X13197839Y4981784D01*
Y5029200D01*
D02*
G37*
G36*
X14665115Y4996180D02*
X14617700D01*
Y4948764D01*
X14639214Y4957675D01*
X14656206Y4974666D01*
X14665115Y4996180D01*
D02*
G37*
G36*
X14592300D02*
X14544884D01*
X14553795Y4974666D01*
X14570786Y4957675D01*
X14592300Y4948764D01*
Y4996180D01*
D02*
G37*
G36*
X17472659Y4980096D02*
Y4932680D01*
X17520076D01*
X17511165Y4954194D01*
X17494174Y4971185D01*
X17472659Y4980096D01*
D02*
G37*
G36*
X17447260D02*
X17425746Y4971185D01*
X17408755Y4954194D01*
X17399844Y4932680D01*
X17447260D01*
Y4980096D01*
D02*
G37*
G36*
X16377077Y4978400D02*
X16329660D01*
Y4930984D01*
X16351173Y4939895D01*
X16368166Y4956886D01*
X16377077Y4978400D01*
D02*
G37*
G36*
X16304260D02*
X16256844D01*
X16265755Y4956886D01*
X16282745Y4939895D01*
X16304260Y4930984D01*
Y4978400D01*
D02*
G37*
G36*
X16753841Y4931836D02*
Y4884420D01*
X16801256D01*
X16792345Y4905934D01*
X16775354Y4922925D01*
X16753841Y4931836D01*
D02*
G37*
G36*
X16728439D02*
X16706926Y4922925D01*
X16689935Y4905934D01*
X16681024Y4884420D01*
X16728439D01*
Y4931836D01*
D02*
G37*
G36*
X17520076Y4907280D02*
X17472659D01*
Y4859864D01*
X17494174Y4868775D01*
X17511165Y4885766D01*
X17520076Y4907280D01*
D02*
G37*
G36*
X17447260D02*
X17399844D01*
X17408755Y4885766D01*
X17425746Y4868775D01*
X17447260Y4859864D01*
Y4907280D01*
D02*
G37*
G36*
X16801256Y4859020D02*
X16753841D01*
Y4811604D01*
X16775354Y4820515D01*
X16792345Y4837506D01*
X16801256Y4859020D01*
D02*
G37*
G36*
X16728439D02*
X16681024D01*
X16689935Y4837506D01*
X16706926Y4820515D01*
X16728439Y4811604D01*
Y4859020D01*
D02*
G37*
G36*
X13802361Y4779436D02*
Y4732020D01*
X13849776D01*
X13840865Y4753534D01*
X13823874Y4770525D01*
X13802361Y4779436D01*
D02*
G37*
G36*
X13776961D02*
X13755446Y4770525D01*
X13738455Y4753534D01*
X13729544Y4732020D01*
X13776961D01*
Y4779436D01*
D02*
G37*
G36*
X13849776Y4706620D02*
X13802361D01*
Y4659204D01*
X13823874Y4668115D01*
X13840865Y4685106D01*
X13849776Y4706620D01*
D02*
G37*
G36*
X13776961D02*
X13729544D01*
X13738455Y4685106D01*
X13755446Y4668115D01*
X13776961Y4659204D01*
Y4706620D01*
D02*
G37*
G36*
X16830040Y4540676D02*
Y4493260D01*
X16877457D01*
X16868546Y4514774D01*
X16851553Y4531765D01*
X16830040Y4540676D01*
D02*
G37*
G36*
X16804640D02*
X16783125Y4531765D01*
X16766135Y4514774D01*
X16757224Y4493260D01*
X16804640D01*
Y4540676D01*
D02*
G37*
G36*
X12359014Y4697220D02*
X12324706D01*
X12291566Y4688340D01*
X12261854Y4671186D01*
X12237594Y4646926D01*
X12220440Y4617214D01*
X12211560Y4584074D01*
Y4549766D01*
X12220440Y4516626D01*
X12237594Y4486914D01*
X12261854Y4462654D01*
X12291566Y4445500D01*
X12324706Y4436620D01*
X12359014D01*
X12392154Y4445500D01*
X12421866Y4462654D01*
X12446126Y4486914D01*
X12463280Y4516626D01*
X12472160Y4549766D01*
Y4584074D01*
X12463280Y4617214D01*
X12446126Y4646926D01*
X12421866Y4671186D01*
X12392154Y4688340D01*
X12359014Y4697220D01*
D02*
G37*
G36*
X16877457Y4467860D02*
X16757224D01*
X16766135Y4446346D01*
X16770583Y4441900D01*
X16768687Y4434730D01*
X16765878Y4428642D01*
X16745026Y4420005D01*
X16728035Y4403014D01*
X16719124Y4381500D01*
X16839355D01*
X16830444Y4403014D01*
X16825998Y4407460D01*
X16827893Y4414630D01*
X16830701Y4420718D01*
X16851553Y4429355D01*
X16868546Y4446346D01*
X16877457Y4467860D01*
D02*
G37*
G36*
X15214600Y4360336D02*
Y4312920D01*
X15262016D01*
X15253105Y4334434D01*
X15236115Y4351425D01*
X15214600Y4360336D01*
D02*
G37*
G36*
X15189200D02*
X15167686Y4351425D01*
X15150694Y4334434D01*
X15141785Y4312920D01*
X15189200D01*
Y4360336D01*
D02*
G37*
G36*
X16839355Y4356100D02*
X16791940D01*
Y4308684D01*
X16813454Y4317595D01*
X16830444Y4334586D01*
X16839355Y4356100D01*
D02*
G37*
G36*
X16766541D02*
X16719124D01*
X16728035Y4334586D01*
X16745026Y4317595D01*
X16766541Y4308684D01*
Y4356100D01*
D02*
G37*
G36*
X17297400Y4347636D02*
Y4300220D01*
X17344817D01*
X17335905Y4321734D01*
X17318913Y4338725D01*
X17297400Y4347636D01*
D02*
G37*
G36*
X17272000D02*
X17250487Y4338725D01*
X17233495Y4321734D01*
X17224583Y4300220D01*
X17272000D01*
Y4347636D01*
D02*
G37*
G36*
X15262016Y4287520D02*
X15214600D01*
Y4240104D01*
X15236115Y4249015D01*
X15253105Y4266006D01*
X15262016Y4287520D01*
D02*
G37*
G36*
X15189200D02*
X15141785D01*
X15150694Y4266006D01*
X15167686Y4249015D01*
X15189200Y4240104D01*
Y4287520D01*
D02*
G37*
G36*
X17344817Y4274820D02*
X17297400D01*
Y4227404D01*
X17318913Y4236315D01*
X17335905Y4253306D01*
X17344817Y4274820D01*
D02*
G37*
G36*
X17272000D02*
X17224583D01*
X17233495Y4253306D01*
X17250487Y4236315D01*
X17272000Y4227404D01*
Y4274820D01*
D02*
G37*
G36*
X15801340Y4215556D02*
Y4168140D01*
X15848756D01*
X15839845Y4189654D01*
X15822855Y4206645D01*
X15801340Y4215556D01*
D02*
G37*
G36*
X15775940D02*
X15754427Y4206645D01*
X15737434Y4189654D01*
X15728523Y4168140D01*
X15775940D01*
Y4215556D01*
D02*
G37*
G36*
X15488921Y4197776D02*
Y4150360D01*
X15536336D01*
X15527425Y4171874D01*
X15510434Y4188865D01*
X15488921Y4197776D01*
D02*
G37*
G36*
X15463519D02*
X15442006Y4188865D01*
X15425015Y4171874D01*
X15416104Y4150360D01*
X15463519D01*
Y4197776D01*
D02*
G37*
G36*
X16172180Y4182536D02*
Y4135120D01*
X16219595D01*
X16210686Y4156634D01*
X16193694Y4173625D01*
X16172180Y4182536D01*
D02*
G37*
G36*
X16146780D02*
X16125266Y4173625D01*
X16108275Y4156634D01*
X16099364Y4135120D01*
X16146780D01*
Y4182536D01*
D02*
G37*
G36*
X15848756Y4142740D02*
X15801340D01*
Y4095324D01*
X15822855Y4104235D01*
X15839845Y4121226D01*
X15848756Y4142740D01*
D02*
G37*
G36*
X15775940D02*
X15728523D01*
X15737434Y4121226D01*
X15754427Y4104235D01*
X15775940Y4095324D01*
Y4142740D01*
D02*
G37*
G36*
X15536336Y4124960D02*
X15488921D01*
Y4077544D01*
X15510434Y4086455D01*
X15527425Y4103446D01*
X15536336Y4124960D01*
D02*
G37*
G36*
X15463519D02*
X15416104D01*
X15425015Y4103446D01*
X15442006Y4086455D01*
X15463519Y4077544D01*
Y4124960D01*
D02*
G37*
G36*
X16219595Y4109720D02*
X16172180D01*
Y4062304D01*
X16193694Y4071215D01*
X16210686Y4088206D01*
X16219595Y4109720D01*
D02*
G37*
G36*
X16146780D02*
X16099364D01*
X16108275Y4088206D01*
X16125266Y4071215D01*
X16146780Y4062304D01*
Y4109720D01*
D02*
G37*
G36*
X15326360Y4052996D02*
Y4005580D01*
X15373776D01*
X15364865Y4027094D01*
X15347874Y4044085D01*
X15326360Y4052996D01*
D02*
G37*
G36*
X15300960D02*
X15279446Y4044085D01*
X15262456Y4027094D01*
X15253545Y4005580D01*
X15300960D01*
Y4052996D01*
D02*
G37*
G36*
X14569440D02*
Y4005580D01*
X14616856D01*
X14607945Y4027094D01*
X14590955Y4044085D01*
X14569440Y4052996D01*
D02*
G37*
G36*
X14544040D02*
X14522527Y4044085D01*
X14505534Y4027094D01*
X14496625Y4005580D01*
X14544040D01*
Y4052996D01*
D02*
G37*
G36*
X15737840Y3997116D02*
Y3949700D01*
X15785255D01*
X15776344Y3971214D01*
X15759354Y3988205D01*
X15737840Y3997116D01*
D02*
G37*
G36*
X15712440D02*
X15690926Y3988205D01*
X15673935Y3971214D01*
X15665024Y3949700D01*
X15712440D01*
Y3997116D01*
D02*
G37*
G36*
X15373776Y3980180D02*
X15326360D01*
Y3932764D01*
X15347874Y3941675D01*
X15364865Y3958666D01*
X15373776Y3980180D01*
D02*
G37*
G36*
X15300960D02*
X15253545D01*
X15262456Y3958666D01*
X15279446Y3941675D01*
X15300960Y3932764D01*
Y3980180D01*
D02*
G37*
G36*
X14616856D02*
X14569440D01*
Y3932764D01*
X14590955Y3941675D01*
X14607945Y3958666D01*
X14616856Y3980180D01*
D02*
G37*
G36*
X14544040D02*
X14496625D01*
X14505534Y3958666D01*
X14522527Y3941675D01*
X14544040Y3932764D01*
Y3980180D01*
D02*
G37*
G36*
X16093440Y3971716D02*
Y3924300D01*
X16140855D01*
X16131944Y3945814D01*
X16114954Y3962805D01*
X16093440Y3971716D01*
D02*
G37*
G36*
X16068040D02*
X16046526Y3962805D01*
X16029535Y3945814D01*
X16020624Y3924300D01*
X16068040D01*
Y3971716D01*
D02*
G37*
G36*
X17487900Y3941236D02*
Y3893820D01*
X17535316D01*
X17526405Y3915334D01*
X17509415Y3932325D01*
X17487900Y3941236D01*
D02*
G37*
G36*
X17462500D02*
X17440987Y3932325D01*
X17423994Y3915334D01*
X17415083Y3893820D01*
X17462500D01*
Y3941236D01*
D02*
G37*
G36*
X15785255Y3924300D02*
X15737840D01*
Y3876884D01*
X15759354Y3885795D01*
X15776344Y3902786D01*
X15785255Y3924300D01*
D02*
G37*
G36*
X15712440D02*
X15665024D01*
X15673935Y3902786D01*
X15690926Y3885795D01*
X15712440Y3876884D01*
Y3924300D01*
D02*
G37*
G36*
X15511780Y3923456D02*
Y3876040D01*
X15559196D01*
X15550285Y3897554D01*
X15533295Y3914545D01*
X15511780Y3923456D01*
D02*
G37*
G36*
X15486380D02*
X15464867Y3914545D01*
X15447874Y3897554D01*
X15438963Y3876040D01*
X15486380D01*
Y3923456D01*
D02*
G37*
G36*
X16140855Y3898900D02*
X16093440D01*
Y3851484D01*
X16114954Y3860395D01*
X16131944Y3877386D01*
X16140855Y3898900D01*
D02*
G37*
G36*
X16068040D02*
X16020624D01*
X16029535Y3877386D01*
X16046526Y3860395D01*
X16068040Y3851484D01*
Y3898900D01*
D02*
G37*
G36*
X17535316Y3868420D02*
X17487900D01*
Y3821004D01*
X17509415Y3829915D01*
X17526405Y3846906D01*
X17535316Y3868420D01*
D02*
G37*
G36*
X17462500D02*
X17415083D01*
X17423994Y3846906D01*
X17440987Y3829915D01*
X17462500Y3821004D01*
Y3868420D01*
D02*
G37*
G36*
X12979401Y3867576D02*
Y3820160D01*
X13026816D01*
X13017905Y3841674D01*
X13000914Y3858665D01*
X12979401Y3867576D01*
D02*
G37*
G36*
X12953999D02*
X12932486Y3858665D01*
X12915495Y3841674D01*
X12906584Y3820160D01*
X12953999D01*
Y3867576D01*
D02*
G37*
G36*
X15559196Y3850640D02*
X15511780D01*
Y3803224D01*
X15533295Y3812135D01*
X15550285Y3829126D01*
X15559196Y3850640D01*
D02*
G37*
G36*
X15486380D02*
X15438963D01*
X15447874Y3829126D01*
X15464867Y3812135D01*
X15486380Y3803224D01*
Y3850640D01*
D02*
G37*
G36*
X13026816Y3794760D02*
X12979401D01*
Y3747344D01*
X13000914Y3756255D01*
X13017905Y3773246D01*
X13026816Y3794760D01*
D02*
G37*
G36*
X12953999D02*
X12906584D01*
X12915495Y3773246D01*
X12932486Y3756255D01*
X12953999Y3747344D01*
Y3794760D01*
D02*
G37*
G36*
X16123920Y3730416D02*
Y3683000D01*
X16171336D01*
X16162425Y3704514D01*
X16145435Y3721505D01*
X16123920Y3730416D01*
D02*
G37*
G36*
X16098520D02*
X16077007Y3721505D01*
X16060014Y3704514D01*
X16051105Y3683000D01*
X16098520D01*
Y3730416D01*
D02*
G37*
G36*
X15819119Y3697396D02*
Y3649980D01*
X15866536D01*
X15857625Y3671494D01*
X15840634Y3688485D01*
X15819119Y3697396D01*
D02*
G37*
G36*
X15793719D02*
X15772206Y3688485D01*
X15755215Y3671494D01*
X15746304Y3649980D01*
X15793719D01*
Y3697396D01*
D02*
G37*
G36*
X13802361Y3689776D02*
Y3642360D01*
X13849776D01*
X13840865Y3663874D01*
X13823874Y3680865D01*
X13802361Y3689776D01*
D02*
G37*
G36*
X13776961D02*
X13755446Y3680865D01*
X13738455Y3663874D01*
X13729544Y3642360D01*
X13776961D01*
Y3689776D01*
D02*
G37*
G36*
X16171336Y3657600D02*
X16123920D01*
Y3610184D01*
X16145435Y3619095D01*
X16162425Y3636086D01*
X16171336Y3657600D01*
D02*
G37*
G36*
X16098520D02*
X16051105D01*
X16060014Y3636086D01*
X16077007Y3619095D01*
X16098520Y3610184D01*
Y3657600D01*
D02*
G37*
G36*
X15866536Y3624580D02*
X15819119D01*
Y3577164D01*
X15840634Y3586075D01*
X15857625Y3603066D01*
X15866536Y3624580D01*
D02*
G37*
G36*
X15793719D02*
X15746304D01*
X15755215Y3603066D01*
X15772206Y3586075D01*
X15793719Y3577164D01*
Y3624580D01*
D02*
G37*
G36*
X13849776Y3616960D02*
X13802361D01*
Y3569544D01*
X13823874Y3578455D01*
X13840865Y3595446D01*
X13849776Y3616960D01*
D02*
G37*
G36*
X13776961D02*
X13729544D01*
X13738455Y3595446D01*
X13755446Y3578455D01*
X13776961Y3569544D01*
Y3616960D01*
D02*
G37*
G36*
X14569440Y3608496D02*
Y3561080D01*
X14616856D01*
X14607945Y3582594D01*
X14590955Y3599585D01*
X14569440Y3608496D01*
D02*
G37*
G36*
X14544040D02*
X14522527Y3599585D01*
X14505534Y3582594D01*
X14496625Y3561080D01*
X14544040D01*
Y3608496D01*
D02*
G37*
G36*
X14616856Y3535680D02*
X14569440D01*
Y3488264D01*
X14590955Y3497175D01*
X14607945Y3514166D01*
X14616856Y3535680D01*
D02*
G37*
G36*
X14544040D02*
X14496625D01*
X14505534Y3514166D01*
X14522527Y3497175D01*
X14544040Y3488264D01*
Y3535680D01*
D02*
G37*
G36*
X16680180Y3484036D02*
Y3436620D01*
X16727596D01*
X16718684Y3458134D01*
X16701694Y3475125D01*
X16680180Y3484036D01*
D02*
G37*
G36*
X16654781D02*
X16633266Y3475125D01*
X16616275Y3458134D01*
X16607364Y3436620D01*
X16654781D01*
Y3484036D01*
D02*
G37*
G36*
X17012904Y3515560D02*
X16992615D01*
X16973871Y3507796D01*
X16959525Y3493449D01*
X16951759Y3474705D01*
Y3454415D01*
X16959525Y3435671D01*
X16973871Y3421324D01*
X16992615Y3413560D01*
X17012904D01*
X17031648Y3421324D01*
X17045996Y3435671D01*
X17053760Y3454415D01*
Y3474705D01*
X17045996Y3493449D01*
X17031648Y3507796D01*
X17012904Y3515560D01*
D02*
G37*
G36*
X16727596Y3411220D02*
X16680180D01*
Y3363804D01*
X16701694Y3372715D01*
X16718684Y3389706D01*
X16727596Y3411220D01*
D02*
G37*
G36*
X16654781D02*
X16607364D01*
X16616275Y3389706D01*
X16633266Y3372715D01*
X16654781Y3363804D01*
Y3411220D01*
D02*
G37*
G36*
X15844881Y3484000D02*
X15813680D01*
X15783540Y3475924D01*
X15756519Y3460324D01*
X15734456Y3438261D01*
X15718855Y3411239D01*
X15710780Y3381101D01*
Y3349899D01*
X15718855Y3319761D01*
X15734456Y3292739D01*
X15756519Y3270676D01*
X15783540Y3255076D01*
X15813680Y3247000D01*
X15844881D01*
X15875018Y3255076D01*
X15902042Y3270676D01*
X15924104Y3292739D01*
X15939703Y3319761D01*
X15947780Y3349899D01*
Y3381101D01*
X15939703Y3411239D01*
X15924104Y3438261D01*
X15902042Y3460324D01*
X15875018Y3475924D01*
X15844881Y3484000D01*
D02*
G37*
G36*
X15336880D02*
X15305679D01*
X15275542Y3475924D01*
X15248518Y3460324D01*
X15226456Y3438261D01*
X15210857Y3411239D01*
X15202780Y3381101D01*
Y3349899D01*
X15210857Y3319761D01*
X15226456Y3292739D01*
X15248518Y3270676D01*
X15275542Y3255076D01*
X15305679Y3247000D01*
X15336880D01*
X15367020Y3255076D01*
X15394041Y3270676D01*
X15416104Y3292739D01*
X15431705Y3319761D01*
X15439780Y3349899D01*
Y3381101D01*
X15431705Y3411239D01*
X15416104Y3438261D01*
X15394041Y3460324D01*
X15367020Y3475924D01*
X15336880Y3484000D01*
D02*
G37*
G36*
X17426939Y3169076D02*
Y3121660D01*
X17474356D01*
X17465445Y3143174D01*
X17448454Y3160165D01*
X17426939Y3169076D01*
D02*
G37*
G36*
X17401540D02*
X17380026Y3160165D01*
X17363036Y3143174D01*
X17354124Y3121660D01*
X17401540D01*
Y3169076D01*
D02*
G37*
G36*
X17474356Y3096260D02*
X17426939D01*
Y3048844D01*
X17448454Y3057755D01*
X17465445Y3074746D01*
X17474356Y3096260D01*
D02*
G37*
G36*
X17401540D02*
X17354124D01*
X17363036Y3074746D01*
X17380026Y3057755D01*
X17401540Y3048844D01*
Y3096260D01*
D02*
G37*
G36*
X15693781Y3230000D02*
X15456779D01*
Y2993000D01*
X15693781D01*
Y3230000D01*
D02*
G37*
%LPD*%
D37*
X14592300Y5905500D02*
D03*
X12341860Y4566920D02*
D03*
Y7254240D02*
D03*
D38*
X14112241Y8483600D02*
D03*
X12816840D02*
D03*
D39*
X11000000Y9700000D02*
D03*
Y2600000D02*
D03*
X18400000D02*
D03*
Y9700000D02*
D03*
D40*
X17271620Y6888480D02*
D03*
D41*
X16771620Y7388480D02*
D03*
Y6388480D02*
D03*
D42*
X17521620D02*
D03*
X17271620D02*
D03*
X16771620Y6888480D02*
D03*
X17521620Y7388480D02*
D03*
X17271620D02*
D03*
D43*
X15321280Y3365500D02*
D03*
X15829280D02*
D03*
Y2857500D02*
D03*
X15321280D02*
D03*
D44*
X15575281Y3111500D02*
D03*
D45*
X12410440Y5816600D02*
D03*
X14630400Y8940800D02*
D03*
X14452600Y8966200D02*
D03*
X14503400Y8788400D02*
D03*
X14274800Y8839200D02*
D03*
X17475200Y3881120D02*
D03*
X16200121Y6428740D02*
D03*
X16111220Y3670300D02*
D03*
X15499080Y3863340D02*
D03*
X15476221Y4137660D02*
D03*
X15788640Y4155440D02*
D03*
X15806419Y3637280D02*
D03*
X16080740Y3911600D02*
D03*
X16159480Y4122420D02*
D03*
X15725140Y3937000D02*
D03*
X15313660Y3992880D02*
D03*
X15201900Y4300220D02*
D03*
X17459959Y4919980D02*
D03*
X16144240Y7040880D02*
D03*
X17401540Y7863840D02*
D03*
X16377921Y7856220D02*
D03*
X15740379Y7241540D02*
D03*
X15443201Y7886700D02*
D03*
X12418060Y7912100D02*
D03*
X14234160Y7475220D02*
D03*
X14175740Y7945120D02*
D03*
X13982700Y8008620D02*
D03*
X13563600Y7904480D02*
D03*
X13111481Y7459980D02*
D03*
X14160500Y6918960D02*
D03*
X14765021Y6911340D02*
D03*
X13040359Y6154420D02*
D03*
X13581380Y6225540D02*
D03*
X13210539Y5041900D02*
D03*
X13789661Y4719320D02*
D03*
X14605000Y5008880D02*
D03*
X12966701Y3807460D02*
D03*
X13789661Y3629660D02*
D03*
X14556740Y3992880D02*
D03*
Y3548380D02*
D03*
X16870680Y7604760D02*
D03*
X16316960Y4991100D02*
D03*
X17284700Y4287520D02*
D03*
X16118840Y8935720D02*
D03*
X17414240Y3108960D02*
D03*
X16779240Y4368800D02*
D03*
X16817340Y4480560D02*
D03*
X16741141Y4871720D02*
D03*
X17002760Y3464560D02*
D03*
X16667480Y3423920D02*
D03*
X17035780Y5989320D02*
D03*
X15671800Y9447800D02*
D03*
X15897861Y9641840D02*
D03*
X14975841Y9507220D02*
D03*
X15519400Y8956040D02*
D03*
D46*
X10757533Y9942467D02*
D03*
X10657100Y9700000D02*
D03*
X10757533Y9457533D02*
D03*
X11000000Y9357100D02*
D03*
X11242467Y9457533D02*
D03*
X11342900Y9700000D02*
D03*
X11242467Y9942467D02*
D03*
X11000000Y10042900D02*
D03*
X10757533Y2842467D02*
D03*
X10657100Y2600000D02*
D03*
X10757533Y2357533D02*
D03*
X11000000Y2257100D02*
D03*
X11242467Y2357533D02*
D03*
X11342900Y2600000D02*
D03*
X11242467Y2842467D02*
D03*
X11000000Y2942900D02*
D03*
X18157533Y2842467D02*
D03*
X18057100Y2600000D02*
D03*
X18157533Y2357533D02*
D03*
X18400000Y2257100D02*
D03*
X18642467Y2357533D02*
D03*
X18742900Y2600000D02*
D03*
X18642467Y2842467D02*
D03*
X18400000Y2942900D02*
D03*
X18157533Y9942467D02*
D03*
X18057100Y9700000D02*
D03*
X18157533Y9457533D02*
D03*
X18400000Y9357100D02*
D03*
X18642467Y9457533D02*
D03*
X18742900Y9700000D02*
D03*
X18642467Y9942467D02*
D03*
X18400000Y10042900D02*
D03*
D47*
X15847060Y6433820D02*
D03*
X15356841Y5585460D02*
D03*
X15610840Y5173980D02*
D03*
X17487900Y9240520D02*
D03*
%TF.MD5,db41452e1df21009a252bb43e8d8ce16*%
M02*
