%TF.GenerationSoftware,Altium Limited,Altium Designer,24.2.2 (26)*%
G04 Layer_Color=32768*
%FSLAX45Y45*%
%MOMM*%
%TF.SameCoordinates,979FBE80-878B-4EC3-91C7-7055811A0E5A*%
%TF.FilePolarity,Positive*%
%TF.FileFunction,Other,Top_Assembly*%
%TF.Part,Single*%
G01*
G75*
%TA.AperFunction,NonConductor*%
%ADD51C,0.20000*%
%ADD83C,0.10000*%
G36*
X16127643Y5284183D02*
X16128197D01*
X16128960Y5284045D01*
X16129791Y5283906D01*
X16130695Y5283767D01*
X16131734Y5283490D01*
X16132843Y5283143D01*
X16133952Y5282727D01*
X16135132Y5282242D01*
X16136310Y5281618D01*
X16137560Y5280924D01*
X16138737Y5280092D01*
X16139915Y5279191D01*
X16141026Y5278081D01*
X16141095Y5278012D01*
X16141302Y5277804D01*
X16141580Y5277457D01*
X16141927Y5276972D01*
X16142343Y5276417D01*
X16142828Y5275654D01*
X16143382Y5274822D01*
X16143869Y5273852D01*
X16144423Y5272811D01*
X16144978Y5271633D01*
X16145464Y5270384D01*
X16145880Y5268998D01*
X16146227Y5267541D01*
X16146504Y5266016D01*
X16146712Y5264421D01*
X16146780Y5262687D01*
Y5262341D01*
X16146712Y5261855D01*
Y5261301D01*
X16146642Y5260538D01*
X16146504Y5259706D01*
X16146365Y5258804D01*
X16146156Y5257764D01*
X16145880Y5256655D01*
X16145534Y5255545D01*
X16145186Y5254366D01*
X16144701Y5253188D01*
X16144077Y5252009D01*
X16143452Y5250899D01*
X16142690Y5249721D01*
X16141788Y5248680D01*
X16141719Y5248611D01*
X16141580Y5248472D01*
X16141302Y5248195D01*
X16140887Y5247779D01*
X16140402Y5247363D01*
X16139777Y5246877D01*
X16139084Y5246392D01*
X16138252Y5245837D01*
X16137421Y5245283D01*
X16136380Y5244728D01*
X16135339Y5244173D01*
X16134161Y5243688D01*
X16132913Y5243272D01*
X16131595Y5242856D01*
X16130208Y5242578D01*
X16128752Y5242370D01*
X16127711Y5250206D01*
X16127782D01*
X16127989Y5250275D01*
X16128336Y5250345D01*
X16128821Y5250483D01*
X16129376Y5250622D01*
X16130000Y5250761D01*
X16131456Y5251246D01*
X16133051Y5251870D01*
X16134647Y5252633D01*
X16136102Y5253604D01*
X16136726Y5254158D01*
X16137350Y5254713D01*
Y5254782D01*
X16137489Y5254852D01*
X16137628Y5255060D01*
X16137836Y5255268D01*
X16138252Y5255961D01*
X16138808Y5256932D01*
X16139362Y5258111D01*
X16139777Y5259428D01*
X16140125Y5261023D01*
X16140263Y5262687D01*
Y5263242D01*
X16140195Y5263658D01*
X16140125Y5264074D01*
X16140054Y5264698D01*
X16139777Y5265947D01*
X16139362Y5267472D01*
X16138667Y5269067D01*
X16138184Y5269830D01*
X16137697Y5270592D01*
X16137141Y5271355D01*
X16136449Y5272118D01*
X16136380Y5272187D01*
X16136241Y5272257D01*
X16136034Y5272465D01*
X16135756Y5272742D01*
X16135410Y5273019D01*
X16134924Y5273297D01*
X16134438Y5273644D01*
X16133813Y5274060D01*
X16132426Y5274753D01*
X16130832Y5275308D01*
X16128960Y5275793D01*
X16127989Y5275862D01*
X16126949Y5275932D01*
X16126880D01*
X16126741D01*
X16126395D01*
X16126048Y5275862D01*
X16125562Y5275793D01*
X16125076Y5275724D01*
X16123830Y5275516D01*
X16122372Y5275030D01*
X16120917Y5274406D01*
X16120154Y5273990D01*
X16119460Y5273505D01*
X16118767Y5272950D01*
X16118073Y5272326D01*
X16118004Y5272257D01*
X16117935Y5272187D01*
X16117728Y5271979D01*
X16117519Y5271702D01*
X16117241Y5271355D01*
X16116965Y5270939D01*
X16116270Y5269899D01*
X16115646Y5268582D01*
X16115092Y5267056D01*
X16114676Y5265322D01*
X16114606Y5264352D01*
X16114537Y5263381D01*
Y5262965D01*
X16114606Y5262479D01*
Y5261855D01*
X16114745Y5261023D01*
X16114883Y5260122D01*
X16115092Y5259012D01*
X16115369Y5257834D01*
X16108504Y5258666D01*
Y5258804D01*
X16108574Y5259151D01*
X16108643Y5259567D01*
Y5260469D01*
X16108574Y5260815D01*
Y5261301D01*
X16108504Y5261786D01*
X16108296Y5262965D01*
X16108018Y5264352D01*
X16107533Y5265877D01*
X16106909Y5267472D01*
X16106007Y5268998D01*
Y5269067D01*
X16105869Y5269206D01*
X16105731Y5269344D01*
X16105524Y5269622D01*
X16104898Y5270315D01*
X16103996Y5271078D01*
X16102888Y5271771D01*
X16101501Y5272465D01*
X16100739Y5272742D01*
X16099837Y5272881D01*
X16098935Y5273019D01*
X16097964Y5273089D01*
X16097894D01*
X16097755D01*
X16097548D01*
X16097202Y5273019D01*
X16096439Y5272950D01*
X16095399Y5272742D01*
X16094289Y5272395D01*
X16093111Y5271841D01*
X16091862Y5271078D01*
X16091307Y5270662D01*
X16090753Y5270107D01*
X16090614Y5269968D01*
X16090337Y5269552D01*
X16089851Y5268928D01*
X16089296Y5268096D01*
X16088811Y5266987D01*
X16088326Y5265669D01*
X16088048Y5264213D01*
X16087910Y5262549D01*
Y5262133D01*
X16087979Y5261786D01*
Y5261370D01*
X16088048Y5260954D01*
X16088255Y5259844D01*
X16088603Y5258666D01*
X16089159Y5257348D01*
X16089851Y5256100D01*
X16090822Y5254852D01*
X16090961Y5254713D01*
X16091377Y5254366D01*
X16092001Y5253812D01*
X16092972Y5253257D01*
X16094150Y5252564D01*
X16095676Y5251939D01*
X16097411Y5251385D01*
X16099420Y5250969D01*
X16098035Y5243133D01*
X16097964D01*
X16097687Y5243202D01*
X16097272Y5243272D01*
X16096716Y5243410D01*
X16096092Y5243618D01*
X16095329Y5243826D01*
X16094498Y5244104D01*
X16093596Y5244451D01*
X16091585Y5245352D01*
X16090614Y5245837D01*
X16089574Y5246461D01*
X16088603Y5247155D01*
X16087633Y5247918D01*
X16086662Y5248750D01*
X16085829Y5249651D01*
X16085760Y5249721D01*
X16085622Y5249859D01*
X16085413Y5250206D01*
X16085136Y5250553D01*
X16084789Y5251107D01*
X16084444Y5251662D01*
X16084027Y5252356D01*
X16083611Y5253188D01*
X16083264Y5254020D01*
X16082848Y5254991D01*
X16082501Y5256031D01*
X16082153Y5257140D01*
X16081877Y5258388D01*
X16081670Y5259636D01*
X16081531Y5260954D01*
X16081461Y5262341D01*
Y5263242D01*
X16081531Y5263728D01*
X16081599Y5264213D01*
X16081738Y5265530D01*
X16082016Y5266987D01*
X16082433Y5268651D01*
X16082986Y5270315D01*
X16083749Y5271979D01*
Y5272049D01*
X16083818Y5272187D01*
X16083957Y5272395D01*
X16084164Y5272742D01*
X16084651Y5273505D01*
X16085344Y5274476D01*
X16086246Y5275585D01*
X16087286Y5276695D01*
X16088464Y5277804D01*
X16089851Y5278775D01*
X16089922D01*
X16089990Y5278844D01*
X16090266Y5278983D01*
X16090546Y5279122D01*
X16090891Y5279330D01*
X16091307Y5279538D01*
X16092348Y5279954D01*
X16093596Y5280370D01*
X16094983Y5280786D01*
X16096507Y5281063D01*
X16098103Y5281132D01*
X16098172D01*
X16098311D01*
X16098518D01*
X16098796D01*
X16099628Y5280994D01*
X16100600Y5280855D01*
X16101778Y5280578D01*
X16103026Y5280162D01*
X16104344Y5279607D01*
X16105661Y5278844D01*
X16105731D01*
X16105800Y5278775D01*
X16106216Y5278428D01*
X16106841Y5277943D01*
X16107603Y5277180D01*
X16108504Y5276279D01*
X16109406Y5275100D01*
X16110239Y5273782D01*
X16111070Y5272257D01*
Y5272326D01*
X16111139Y5272534D01*
X16111209Y5272811D01*
X16111346Y5273227D01*
X16111485Y5273644D01*
X16111694Y5274198D01*
X16112250Y5275516D01*
X16113011Y5276903D01*
X16113913Y5278359D01*
X16115092Y5279815D01*
X16116548Y5281063D01*
X16116617Y5281132D01*
X16116756Y5281202D01*
X16116965Y5281340D01*
X16117311Y5281548D01*
X16117657Y5281826D01*
X16118143Y5282103D01*
X16118698Y5282381D01*
X16119391Y5282658D01*
X16120084Y5282935D01*
X16120847Y5283213D01*
X16122581Y5283767D01*
X16124593Y5284114D01*
X16125700Y5284253D01*
X16126811D01*
X16126880D01*
X16127158D01*
X16127643Y5284183D01*
D02*
G37*
G36*
X16145673Y5214356D02*
X16095676D01*
X16095815Y5214217D01*
X16096161Y5213871D01*
X16096648Y5213247D01*
X16097340Y5212345D01*
X16098172Y5211305D01*
X16099074Y5209988D01*
X16100044Y5208531D01*
X16101085Y5206867D01*
Y5206798D01*
X16101224Y5206659D01*
X16101363Y5206451D01*
X16101501Y5206104D01*
X16101778Y5205688D01*
X16101987Y5205203D01*
X16102609Y5204093D01*
X16103233Y5202845D01*
X16103928Y5201458D01*
X16104552Y5200002D01*
X16105106Y5198615D01*
X16097548D01*
X16097479Y5198685D01*
X16097411Y5198893D01*
X16097202Y5199240D01*
X16096992Y5199725D01*
X16096716Y5200280D01*
X16096300Y5200973D01*
X16095885Y5201736D01*
X16095468Y5202499D01*
X16094357Y5204302D01*
X16093040Y5206243D01*
X16091653Y5208254D01*
X16090059Y5210126D01*
X16089990Y5210196D01*
X16089851Y5210334D01*
X16089642Y5210612D01*
X16089296Y5210958D01*
X16088879Y5211305D01*
X16088464Y5211790D01*
X16087286Y5212831D01*
X16086037Y5214009D01*
X16084581Y5215188D01*
X16083057Y5216228D01*
X16081461Y5217130D01*
Y5222192D01*
X16145673D01*
Y5214356D01*
D02*
G37*
G36*
Y5177050D02*
X16132358Y5168590D01*
X16132289Y5168521D01*
X16132082Y5168452D01*
X16131802Y5168244D01*
X16131387Y5167966D01*
X16130902Y5167689D01*
X16130347Y5167273D01*
X16129099Y5166441D01*
X16127643Y5165470D01*
X16126186Y5164499D01*
X16124800Y5163459D01*
X16123550Y5162488D01*
X16123482D01*
X16123413Y5162350D01*
X16123067Y5162072D01*
X16122511Y5161656D01*
X16121887Y5161032D01*
X16121194Y5160408D01*
X16120500Y5159645D01*
X16119807Y5158882D01*
X16119322Y5158189D01*
X16119252Y5158120D01*
X16119115Y5157842D01*
X16118906Y5157496D01*
X16118628Y5157010D01*
X16118352Y5156386D01*
X16118073Y5155762D01*
X16117796Y5155069D01*
X16117587Y5154306D01*
Y5154237D01*
X16117519Y5154029D01*
X16117448Y5153682D01*
X16117380Y5153196D01*
Y5152503D01*
X16117311Y5151671D01*
X16117241Y5150700D01*
Y5139813D01*
X16145673D01*
Y5131354D01*
X16081670D01*
Y5161101D01*
X16081738Y5161864D01*
Y5162627D01*
X16081808Y5163528D01*
X16081877Y5164569D01*
X16082085Y5166649D01*
X16082433Y5168798D01*
X16082848Y5170879D01*
X16083125Y5171780D01*
X16083401Y5172682D01*
Y5172751D01*
X16083472Y5172890D01*
X16083611Y5173098D01*
X16083749Y5173444D01*
X16084164Y5174276D01*
X16084789Y5175247D01*
X16085622Y5176426D01*
X16086731Y5177605D01*
X16087979Y5178784D01*
X16089505Y5179824D01*
X16089574D01*
X16089713Y5179962D01*
X16089922Y5180101D01*
X16090266Y5180240D01*
X16090683Y5180448D01*
X16091170Y5180656D01*
X16091724Y5180933D01*
X16092348Y5181211D01*
X16093803Y5181696D01*
X16095399Y5182112D01*
X16097202Y5182389D01*
X16099142Y5182528D01*
X16099213D01*
X16099420D01*
X16099837D01*
X16100253Y5182459D01*
X16100877Y5182389D01*
X16101570Y5182320D01*
X16102333Y5182181D01*
X16103165Y5181973D01*
X16104968Y5181419D01*
X16105939Y5181072D01*
X16106909Y5180656D01*
X16107880Y5180170D01*
X16108852Y5179546D01*
X16109752Y5178853D01*
X16110654Y5178090D01*
X16110722Y5178021D01*
X16110863Y5177882D01*
X16111070Y5177605D01*
X16111417Y5177258D01*
X16111763Y5176773D01*
X16112180Y5176218D01*
X16112665Y5175525D01*
X16113150Y5174692D01*
X16113635Y5173791D01*
X16114120Y5172820D01*
X16114606Y5171711D01*
X16115092Y5170463D01*
X16115508Y5169145D01*
X16115924Y5167689D01*
X16116270Y5166094D01*
X16116548Y5164430D01*
Y5164499D01*
X16116617Y5164569D01*
X16116824Y5164985D01*
X16117172Y5165609D01*
X16117587Y5166371D01*
X16118073Y5167204D01*
X16118559Y5168036D01*
X16119183Y5168868D01*
X16119737Y5169561D01*
X16119807Y5169631D01*
X16119876Y5169700D01*
X16120084Y5169908D01*
X16120361Y5170185D01*
X16120708Y5170532D01*
X16121124Y5170948D01*
X16122095Y5171849D01*
X16123343Y5172890D01*
X16124800Y5174068D01*
X16126463Y5175317D01*
X16128267Y5176565D01*
X16145673Y5187659D01*
Y5177050D01*
D02*
G37*
G36*
X17159143Y4206239D02*
X17151308D01*
Y4256234D01*
X17151169Y4256096D01*
X17150822Y4255749D01*
X17150198Y4255264D01*
X17149297Y4254570D01*
X17148256Y4253738D01*
X17146939Y4252837D01*
X17145483Y4251866D01*
X17143819Y4250826D01*
X17143748D01*
X17143610Y4250687D01*
X17143402Y4250548D01*
X17143056Y4250410D01*
X17142641Y4250132D01*
X17142154Y4249924D01*
X17141045Y4249300D01*
X17139796Y4248676D01*
X17138409Y4247983D01*
X17136954Y4247359D01*
X17135567Y4246804D01*
Y4254362D01*
X17135635Y4254431D01*
X17135844Y4254501D01*
X17136191Y4254709D01*
X17136676Y4254917D01*
X17137231Y4255194D01*
X17137924Y4255610D01*
X17138687Y4256026D01*
X17139450Y4256442D01*
X17141254Y4257552D01*
X17143195Y4258869D01*
X17145206Y4260256D01*
X17147076Y4261851D01*
X17147147Y4261920D01*
X17147285Y4262059D01*
X17147563Y4262267D01*
X17147910Y4262614D01*
X17148256Y4263030D01*
X17148743Y4263446D01*
X17149782Y4264625D01*
X17150961Y4265873D01*
X17152139Y4267329D01*
X17153180Y4268855D01*
X17154082Y4270449D01*
X17159143D01*
Y4206239D01*
D02*
G37*
G36*
X17091118Y4213797D02*
X17122668D01*
Y4206239D01*
X17082658D01*
Y4270241D01*
X17091118D01*
Y4213797D01*
D02*
G37*
G36*
X15337228Y5449949D02*
X15338268D01*
X15339516Y5449880D01*
X15340834Y5449810D01*
X15342290Y5449672D01*
X15343816Y5449533D01*
X15345410Y5449394D01*
X15348669Y5448909D01*
X15351859Y5448215D01*
X15353316Y5447799D01*
X15354771Y5447314D01*
X15354842D01*
X15355118Y5447175D01*
X15355466Y5447037D01*
X15355949Y5446829D01*
X15356573Y5446551D01*
X15357268Y5446204D01*
X15358031Y5445788D01*
X15358862Y5445372D01*
X15360596Y5444263D01*
X15362468Y5442876D01*
X15364201Y5441281D01*
X15365034Y5440380D01*
X15365797Y5439409D01*
X15365866Y5439340D01*
X15365935Y5439201D01*
X15366144Y5438854D01*
X15366351Y5438508D01*
X15366629Y5437953D01*
X15366975Y5437398D01*
X15367322Y5436705D01*
X15367670Y5435873D01*
X15368016Y5435040D01*
X15368362Y5434070D01*
X15368640Y5433099D01*
X15368987Y5431989D01*
X15369403Y5429632D01*
X15369472Y5428384D01*
X15369540Y5427066D01*
Y5426373D01*
X15369472Y5425818D01*
X15369403Y5425194D01*
X15369333Y5424431D01*
X15369196Y5423599D01*
X15368987Y5422698D01*
X15368501Y5420756D01*
X15368153Y5419785D01*
X15367809Y5418745D01*
X15367322Y5417705D01*
X15366768Y5416665D01*
X15366144Y5415694D01*
X15365381Y5414793D01*
X15365311Y5414723D01*
X15365173Y5414585D01*
X15364964Y5414377D01*
X15364618Y5414030D01*
X15364201Y5413683D01*
X15363647Y5413267D01*
X15363023Y5412782D01*
X15362331Y5412296D01*
X15361568Y5411811D01*
X15360664Y5411325D01*
X15359695Y5410909D01*
X15358655Y5410424D01*
X15357545Y5410008D01*
X15356366Y5409661D01*
X15355049Y5409384D01*
X15353662Y5409176D01*
X15353038Y5416734D01*
X15353107D01*
X15353246Y5416803D01*
X15353523D01*
X15353938Y5416942D01*
X15354355Y5417012D01*
X15354842Y5417150D01*
X15356020Y5417497D01*
X15357268Y5417982D01*
X15358516Y5418606D01*
X15359695Y5419438D01*
X15360249Y5419855D01*
X15360735Y5420340D01*
X15360805Y5420479D01*
X15361082Y5420825D01*
X15361497Y5421449D01*
X15361914Y5422212D01*
X15362331Y5423252D01*
X15362746Y5424431D01*
X15363023Y5425749D01*
X15363092Y5427274D01*
Y5427898D01*
X15363023Y5428592D01*
X15362885Y5429424D01*
X15362675Y5430395D01*
X15362399Y5431435D01*
X15362051Y5432544D01*
X15361497Y5433584D01*
X15361427Y5433723D01*
X15361220Y5434070D01*
X15360805Y5434555D01*
X15360320Y5435179D01*
X15359695Y5435873D01*
X15358932Y5436635D01*
X15358031Y5437398D01*
X15357060Y5438091D01*
X15356921Y5438161D01*
X15356573Y5438369D01*
X15355949Y5438716D01*
X15355049Y5439132D01*
X15354008Y5439548D01*
X15352760Y5440033D01*
X15351234Y5440518D01*
X15349571Y5441004D01*
X15349501D01*
X15349364Y5441073D01*
X15349084Y5441143D01*
X15348740Y5441212D01*
X15348323Y5441281D01*
X15347836Y5441351D01*
X15347214Y5441489D01*
X15346590Y5441628D01*
X15345132Y5441836D01*
X15343538Y5441975D01*
X15341805Y5442113D01*
X15340002Y5442183D01*
X15339864D01*
X15339586D01*
X15339101D01*
X15338477D01*
X15338545Y5442044D01*
X15338753Y5441975D01*
X15339030Y5441767D01*
X15339725Y5441212D01*
X15340556Y5440518D01*
X15341527Y5439548D01*
X15342567Y5438438D01*
X15343538Y5437190D01*
X15344508Y5435734D01*
Y5435665D01*
X15344579Y5435526D01*
X15344717Y5435318D01*
X15344856Y5435040D01*
X15345064Y5434624D01*
X15345203Y5434208D01*
X15345618Y5433099D01*
X15346104Y5431781D01*
X15346449Y5430256D01*
X15346729Y5428592D01*
X15346797Y5426858D01*
Y5426511D01*
X15346729Y5426095D01*
Y5425541D01*
X15346590Y5424847D01*
X15346519Y5424084D01*
X15346312Y5423183D01*
X15346104Y5422212D01*
X15345757Y5421172D01*
X15345410Y5420132D01*
X15344925Y5419022D01*
X15344370Y5417913D01*
X15343745Y5416734D01*
X15342982Y5415625D01*
X15342082Y5414515D01*
X15341112Y5413475D01*
X15341042Y5413406D01*
X15340834Y5413267D01*
X15340488Y5412990D01*
X15340071Y5412643D01*
X15339516Y5412227D01*
X15338823Y5411742D01*
X15337991Y5411256D01*
X15337019Y5410771D01*
X15336049Y5410216D01*
X15334869Y5409731D01*
X15333623Y5409245D01*
X15332304Y5408829D01*
X15330849Y5408482D01*
X15329254Y5408205D01*
X15327660Y5408066D01*
X15325925Y5407997D01*
X15325786D01*
X15325510D01*
X15324954Y5408066D01*
X15324330D01*
X15323499Y5408205D01*
X15322527Y5408274D01*
X15321487Y5408482D01*
X15320308Y5408690D01*
X15319130Y5409037D01*
X15317812Y5409384D01*
X15316495Y5409869D01*
X15315247Y5410424D01*
X15313930Y5411048D01*
X15312611Y5411811D01*
X15311433Y5412712D01*
X15310254Y5413683D01*
X15310185Y5413752D01*
X15309976Y5413960D01*
X15309698Y5414307D01*
X15309352Y5414723D01*
X15308867Y5415278D01*
X15308382Y5415971D01*
X15307828Y5416734D01*
X15307272Y5417636D01*
X15306717Y5418606D01*
X15306163Y5419716D01*
X15305676Y5420895D01*
X15305193Y5422143D01*
X15304845Y5423530D01*
X15304568Y5424986D01*
X15304359Y5426442D01*
X15304289Y5428037D01*
Y5428661D01*
X15304359Y5429077D01*
Y5429632D01*
X15304498Y5430256D01*
X15304568Y5431019D01*
X15304707Y5431781D01*
X15305122Y5433584D01*
X15305746Y5435456D01*
X15306093Y5436427D01*
X15306580Y5437467D01*
X15307063Y5438438D01*
X15307687Y5439409D01*
X15307758Y5439478D01*
X15307828Y5439617D01*
X15308035Y5439894D01*
X15308311Y5440241D01*
X15308659Y5440726D01*
X15309074Y5441212D01*
X15309560Y5441767D01*
X15310115Y5442321D01*
X15310739Y5442945D01*
X15311502Y5443639D01*
X15312265Y5444263D01*
X15313097Y5444956D01*
X15314069Y5445580D01*
X15315038Y5446204D01*
X15316148Y5446759D01*
X15317258Y5447314D01*
X15317326D01*
X15317535Y5447453D01*
X15317880Y5447591D01*
X15318436Y5447730D01*
X15319060Y5447938D01*
X15319823Y5448146D01*
X15320724Y5448423D01*
X15321834Y5448701D01*
X15323013Y5448909D01*
X15324330Y5449186D01*
X15325856Y5449394D01*
X15327451Y5449602D01*
X15329184Y5449741D01*
X15331056Y5449880D01*
X15333067Y5450018D01*
X15335217D01*
X15335356D01*
X15335773D01*
X15336395D01*
X15337228Y5449949D01*
D02*
G37*
G36*
X15368501Y5392395D02*
X15355186Y5383935D01*
X15355118Y5383866D01*
X15354910Y5383797D01*
X15354633Y5383589D01*
X15354218Y5383311D01*
X15353731Y5383034D01*
X15353177Y5382618D01*
X15351929Y5381786D01*
X15350471Y5380815D01*
X15349016Y5379844D01*
X15347629Y5378804D01*
X15346381Y5377833D01*
X15346312D01*
X15346242Y5377695D01*
X15345895Y5377417D01*
X15345341Y5377001D01*
X15344717Y5376377D01*
X15344023Y5375753D01*
X15343330Y5374990D01*
X15342638Y5374228D01*
X15342151Y5373534D01*
X15342082Y5373465D01*
X15341943Y5373187D01*
X15341734Y5372841D01*
X15341458Y5372355D01*
X15341180Y5371731D01*
X15340903Y5371107D01*
X15340627Y5370414D01*
X15340417Y5369651D01*
Y5369582D01*
X15340347Y5369374D01*
X15340279Y5369027D01*
X15340210Y5368541D01*
Y5367848D01*
X15340140Y5367016D01*
X15340071Y5366045D01*
Y5355158D01*
X15368501D01*
Y5346699D01*
X15304498D01*
Y5376446D01*
X15304568Y5377209D01*
Y5377972D01*
X15304637Y5378873D01*
X15304707Y5379914D01*
X15304915Y5381994D01*
X15305261Y5384143D01*
X15305676Y5386224D01*
X15305956Y5387125D01*
X15306232Y5388027D01*
Y5388096D01*
X15306300Y5388235D01*
X15306441Y5388443D01*
X15306580Y5388789D01*
X15306995Y5389621D01*
X15307619Y5390592D01*
X15308450Y5391771D01*
X15309560Y5392950D01*
X15310809Y5394129D01*
X15312334Y5395169D01*
X15312402D01*
X15312543Y5395307D01*
X15312750Y5395446D01*
X15313097Y5395585D01*
X15313513Y5395793D01*
X15313998Y5396001D01*
X15314552Y5396278D01*
X15315176Y5396556D01*
X15316634Y5397041D01*
X15318228Y5397457D01*
X15320032Y5397734D01*
X15321973Y5397873D01*
X15322041D01*
X15322250D01*
X15322665D01*
X15323082Y5397804D01*
X15323706Y5397734D01*
X15324400Y5397665D01*
X15325162Y5397526D01*
X15325993Y5397318D01*
X15327797Y5396764D01*
X15328767Y5396417D01*
X15329739Y5396001D01*
X15330710Y5395515D01*
X15331680Y5394891D01*
X15332582Y5394198D01*
X15333482Y5393435D01*
X15333553Y5393366D01*
X15333691Y5393227D01*
X15333899Y5392950D01*
X15334245Y5392603D01*
X15334593Y5392118D01*
X15335008Y5391563D01*
X15335493Y5390870D01*
X15335980Y5390037D01*
X15336465Y5389136D01*
X15336951Y5388165D01*
X15337436Y5387056D01*
X15337921Y5385808D01*
X15338338Y5384490D01*
X15338753Y5383034D01*
X15339101Y5381439D01*
X15339378Y5379775D01*
Y5379844D01*
X15339447Y5379914D01*
X15339655Y5380330D01*
X15340002Y5380954D01*
X15340417Y5381716D01*
X15340903Y5382549D01*
X15341388Y5383381D01*
X15342012Y5384213D01*
X15342567Y5384906D01*
X15342638Y5384976D01*
X15342706Y5385045D01*
X15342914Y5385253D01*
X15343192Y5385530D01*
X15343538Y5385877D01*
X15343954Y5386293D01*
X15344925Y5387194D01*
X15346173Y5388235D01*
X15347629Y5389413D01*
X15349294Y5390662D01*
X15351096Y5391910D01*
X15368501Y5403004D01*
Y5392395D01*
D02*
G37*
G36*
X16628258Y4516470D02*
X16643581D01*
Y4508634D01*
X16628258D01*
Y4480758D01*
X16621045D01*
X16579578Y4510021D01*
Y4516470D01*
X16621045D01*
Y4525137D01*
X16628258D01*
Y4516470D01*
D02*
G37*
G36*
X16623749Y4476043D02*
X16624236Y4475904D01*
X16624997Y4475627D01*
X16625830Y4475350D01*
X16626871Y4474934D01*
X16627979Y4474518D01*
X16629158Y4473963D01*
X16630476Y4473339D01*
X16631725Y4472645D01*
X16633110Y4471883D01*
X16634428Y4470981D01*
X16635677Y4470010D01*
X16636925Y4468970D01*
X16638103Y4467791D01*
X16639214Y4466543D01*
X16639282Y4466474D01*
X16639421Y4466197D01*
X16639697Y4465850D01*
X16640045Y4465295D01*
X16640462Y4464671D01*
X16640945Y4463839D01*
X16641432Y4462937D01*
X16641917Y4461828D01*
X16642403Y4460649D01*
X16642888Y4459401D01*
X16643373Y4458014D01*
X16643790Y4456489D01*
X16644136Y4454894D01*
X16644414Y4453230D01*
X16644553Y4451496D01*
X16644621Y4449624D01*
Y4448653D01*
X16644553Y4447890D01*
X16644482Y4447058D01*
X16644414Y4446018D01*
X16644275Y4444909D01*
X16644067Y4443660D01*
X16643858Y4442343D01*
X16643581Y4440956D01*
X16643234Y4439569D01*
X16642888Y4438182D01*
X16642403Y4436726D01*
X16641849Y4435339D01*
X16641225Y4434022D01*
X16640462Y4432774D01*
X16640392Y4432704D01*
X16640253Y4432496D01*
X16640045Y4432150D01*
X16639697Y4431734D01*
X16639214Y4431179D01*
X16638727Y4430555D01*
X16638103Y4429861D01*
X16637340Y4429099D01*
X16636508Y4428336D01*
X16635606Y4427504D01*
X16634636Y4426741D01*
X16633527Y4425909D01*
X16632349Y4425077D01*
X16631100Y4424314D01*
X16629713Y4423621D01*
X16628258Y4422927D01*
X16628188Y4422858D01*
X16627910Y4422788D01*
X16627425Y4422650D01*
X16626871Y4422442D01*
X16626106Y4422164D01*
X16625275Y4421887D01*
X16624236Y4421610D01*
X16623125Y4421263D01*
X16621877Y4420986D01*
X16620560Y4420639D01*
X16619173Y4420361D01*
X16617647Y4420153D01*
X16614458Y4419737D01*
X16612793Y4419668D01*
X16611130Y4419599D01*
X16610989D01*
X16610713D01*
X16610158D01*
X16609465Y4419668D01*
X16608563Y4419737D01*
X16607523Y4419807D01*
X16606413Y4419945D01*
X16605167Y4420084D01*
X16603848Y4420292D01*
X16602461Y4420500D01*
X16599480Y4421194D01*
X16598022Y4421679D01*
X16596567Y4422164D01*
X16595042Y4422719D01*
X16593655Y4423413D01*
X16593587Y4423482D01*
X16593307Y4423621D01*
X16592961Y4423829D01*
X16592407Y4424106D01*
X16591783Y4424522D01*
X16591089Y4425007D01*
X16590326Y4425562D01*
X16589426Y4426186D01*
X16588593Y4426949D01*
X16587622Y4427712D01*
X16586720Y4428613D01*
X16585750Y4429584D01*
X16584848Y4430624D01*
X16583948Y4431734D01*
X16583115Y4432982D01*
X16582352Y4434230D01*
X16582283Y4434299D01*
X16582213Y4434577D01*
X16582005Y4434923D01*
X16581728Y4435478D01*
X16581451Y4436102D01*
X16581104Y4436934D01*
X16580757Y4437836D01*
X16580411Y4438806D01*
X16580064Y4439916D01*
X16579716Y4441164D01*
X16579370Y4442412D01*
X16579092Y4443799D01*
X16578609Y4446642D01*
X16578539Y4448168D01*
X16578468Y4449762D01*
Y4450664D01*
X16578539Y4451357D01*
X16578609Y4452189D01*
X16578746Y4453160D01*
X16578885Y4454200D01*
X16579092Y4455379D01*
X16579370Y4456627D01*
X16579648Y4457945D01*
X16580064Y4459262D01*
X16580550Y4460649D01*
X16581104Y4462036D01*
X16581796Y4463354D01*
X16582491Y4464671D01*
X16583392Y4465919D01*
X16583463Y4465989D01*
X16583600Y4466197D01*
X16583878Y4466543D01*
X16584294Y4466959D01*
X16584779Y4467514D01*
X16585403Y4468138D01*
X16586098Y4468762D01*
X16586929Y4469525D01*
X16587830Y4470288D01*
X16588870Y4471050D01*
X16589980Y4471813D01*
X16591228Y4472507D01*
X16592545Y4473269D01*
X16594002Y4473894D01*
X16595528Y4474518D01*
X16597122Y4475072D01*
X16599065Y4466751D01*
X16598994D01*
X16598785Y4466613D01*
X16598370Y4466543D01*
X16597885Y4466335D01*
X16597330Y4466127D01*
X16596706Y4465781D01*
X16595180Y4465087D01*
X16593517Y4464186D01*
X16591783Y4463007D01*
X16590189Y4461759D01*
X16589494Y4460996D01*
X16588870Y4460233D01*
X16588802Y4460164D01*
X16588731Y4460025D01*
X16588593Y4459817D01*
X16588385Y4459470D01*
X16588107Y4459054D01*
X16587830Y4458569D01*
X16587553Y4458014D01*
X16587276Y4457321D01*
X16586998Y4456558D01*
X16586720Y4455795D01*
X16586166Y4453992D01*
X16585818Y4451912D01*
X16585681Y4450803D01*
Y4448930D01*
X16585750Y4448376D01*
X16585818Y4447752D01*
X16585889Y4446989D01*
X16585957Y4446157D01*
X16586098Y4445325D01*
X16586581Y4443314D01*
X16587206Y4441233D01*
X16587622Y4440193D01*
X16588107Y4439153D01*
X16588663Y4438182D01*
X16589285Y4437212D01*
X16589355Y4437142D01*
X16589426Y4437004D01*
X16589633Y4436726D01*
X16589909Y4436379D01*
X16590257Y4436033D01*
X16590742Y4435547D01*
X16591228Y4435062D01*
X16591783Y4434507D01*
X16592476Y4433953D01*
X16593170Y4433328D01*
X16594765Y4432219D01*
X16596637Y4431179D01*
X16598785Y4430277D01*
X16598856D01*
X16599065Y4430208D01*
X16599409Y4430069D01*
X16599826Y4430000D01*
X16600381Y4429861D01*
X16601006Y4429653D01*
X16601768Y4429515D01*
X16602531Y4429307D01*
X16603432Y4429099D01*
X16604404Y4428960D01*
X16606483Y4428613D01*
X16608702Y4428405D01*
X16611060Y4428336D01*
X16611130D01*
X16611406D01*
X16611823D01*
X16612447Y4428405D01*
X16613139D01*
X16613972Y4428475D01*
X16614874Y4428544D01*
X16615913Y4428613D01*
X16617023Y4428752D01*
X16618134Y4428891D01*
X16620560Y4429307D01*
X16622987Y4429931D01*
X16625343Y4430693D01*
X16625414D01*
X16625623Y4430832D01*
X16625899Y4430971D01*
X16626315Y4431110D01*
X16626871Y4431387D01*
X16627425Y4431734D01*
X16628741Y4432496D01*
X16630267Y4433536D01*
X16631725Y4434785D01*
X16633180Y4436310D01*
X16633804Y4437142D01*
X16634428Y4438044D01*
Y4438113D01*
X16634567Y4438252D01*
X16634705Y4438529D01*
X16634914Y4438945D01*
X16635121Y4439431D01*
X16635399Y4439985D01*
X16635606Y4440609D01*
X16635884Y4441303D01*
X16636440Y4442898D01*
X16636925Y4444770D01*
X16637271Y4446781D01*
X16637340Y4447821D01*
X16637410Y4448930D01*
Y4449624D01*
X16637340Y4450109D01*
X16637271Y4450733D01*
X16637202Y4451427D01*
X16637064Y4452259D01*
X16636925Y4453091D01*
X16636440Y4455032D01*
X16636092Y4456003D01*
X16635677Y4457043D01*
X16635191Y4458084D01*
X16634636Y4459054D01*
X16634012Y4460025D01*
X16633319Y4460996D01*
X16633249Y4461065D01*
X16633110Y4461204D01*
X16632903Y4461481D01*
X16632556Y4461828D01*
X16632140Y4462175D01*
X16631586Y4462660D01*
X16630962Y4463146D01*
X16630267Y4463700D01*
X16629436Y4464255D01*
X16628534Y4464810D01*
X16627563Y4465364D01*
X16626454Y4465919D01*
X16625275Y4466405D01*
X16623956Y4466890D01*
X16622571Y4467375D01*
X16621114Y4467722D01*
X16623264Y4476182D01*
X16623402D01*
X16623749Y4476043D01*
D02*
G37*
%LPC*%
G36*
X16099142Y5173791D02*
X16099074D01*
X16098935D01*
X16098727D01*
X16098380Y5173722D01*
X16098035D01*
X16097548Y5173652D01*
X16096507Y5173375D01*
X16095329Y5172959D01*
X16094081Y5172404D01*
X16092902Y5171572D01*
X16092278Y5171017D01*
X16091724Y5170463D01*
X16091653Y5170393D01*
X16091585Y5170324D01*
X16091446Y5170116D01*
X16091238Y5169839D01*
X16091029Y5169492D01*
X16090753Y5169006D01*
X16090475Y5168521D01*
X16090198Y5167897D01*
X16089922Y5167204D01*
X16089713Y5166441D01*
X16089435Y5165609D01*
X16089227Y5164707D01*
X16089018Y5163667D01*
X16088879Y5162558D01*
X16088742Y5161379D01*
Y5139813D01*
X16109891D01*
Y5158952D01*
X16109822Y5159437D01*
Y5159992D01*
X16109752Y5161309D01*
X16109615Y5162766D01*
X16109406Y5164291D01*
X16109128Y5165747D01*
X16108711Y5167065D01*
Y5167134D01*
X16108643Y5167204D01*
X16108504Y5167620D01*
X16108228Y5168174D01*
X16107811Y5168937D01*
X16107256Y5169700D01*
X16106631Y5170532D01*
X16105800Y5171364D01*
X16104898Y5172057D01*
X16104761Y5172127D01*
X16104413Y5172335D01*
X16103928Y5172612D01*
X16103165Y5172959D01*
X16102333Y5173236D01*
X16101363Y5173514D01*
X16100253Y5173722D01*
X16099142Y5173791D01*
D02*
G37*
G36*
X15325510Y5441281D02*
X15325439D01*
X15325232D01*
X15324886D01*
X15324400Y5441212D01*
X15323845Y5441143D01*
X15323151Y5441073D01*
X15322458Y5441004D01*
X15321626Y5440865D01*
X15319962Y5440380D01*
X15318159Y5439756D01*
X15317258Y5439340D01*
X15316425Y5438854D01*
X15315593Y5438300D01*
X15314830Y5437675D01*
X15314761Y5437606D01*
X15314622Y5437537D01*
X15314484Y5437329D01*
X15314206Y5437051D01*
X15313930Y5436705D01*
X15313582Y5436289D01*
X15312820Y5435248D01*
X15312057Y5434000D01*
X15311433Y5432475D01*
X15311156Y5431712D01*
X15310947Y5430811D01*
X15310878Y5429909D01*
X15310809Y5429008D01*
Y5428522D01*
X15310878Y5428106D01*
X15310947Y5427690D01*
X15311017Y5427135D01*
X15311363Y5425887D01*
X15311848Y5424431D01*
X15312195Y5423668D01*
X15312611Y5422906D01*
X15313097Y5422143D01*
X15313721Y5421380D01*
X15314345Y5420617D01*
X15315108Y5419855D01*
X15315176Y5419785D01*
X15315315Y5419716D01*
X15315524Y5419508D01*
X15315871Y5419230D01*
X15316287Y5418953D01*
X15316841Y5418676D01*
X15317397Y5418329D01*
X15318089Y5417982D01*
X15318852Y5417566D01*
X15319684Y5417220D01*
X15320586Y5416942D01*
X15321626Y5416665D01*
X15323776Y5416179D01*
X15324954Y5416110D01*
X15326202Y5416041D01*
X15326273D01*
X15326480D01*
X15326756D01*
X15327243Y5416110D01*
X15327728Y5416179D01*
X15328352Y5416249D01*
X15329739Y5416526D01*
X15331334Y5416942D01*
X15332928Y5417566D01*
X15333762Y5417982D01*
X15334593Y5418468D01*
X15335356Y5419022D01*
X15336118Y5419647D01*
X15336188Y5419716D01*
X15336256Y5419785D01*
X15336465Y5419993D01*
X15336673Y5420340D01*
X15336951Y5420687D01*
X15337297Y5421103D01*
X15337643Y5421588D01*
X15337991Y5422143D01*
X15338684Y5423530D01*
X15339308Y5425055D01*
X15339725Y5426858D01*
X15339793Y5427829D01*
X15339864Y5428800D01*
Y5429354D01*
X15339793Y5429701D01*
X15339725Y5430186D01*
X15339655Y5430672D01*
X15339378Y5431920D01*
X15338960Y5433376D01*
X15338268Y5434832D01*
X15337852Y5435595D01*
X15337367Y5436358D01*
X15336743Y5437051D01*
X15336118Y5437745D01*
X15336049Y5437814D01*
X15335910Y5437883D01*
X15335703Y5438091D01*
X15335425Y5438300D01*
X15335008Y5438577D01*
X15334525Y5438854D01*
X15333969Y5439201D01*
X15333345Y5439548D01*
X15332651Y5439825D01*
X15331819Y5440172D01*
X15330988Y5440449D01*
X15330016Y5440726D01*
X15328976Y5440935D01*
X15327936Y5441143D01*
X15326756Y5441212D01*
X15325510Y5441281D01*
D02*
G37*
G36*
X15321973Y5389136D02*
X15321902D01*
X15321765D01*
X15321558D01*
X15321210Y5389067D01*
X15320863D01*
X15320378Y5388997D01*
X15319337Y5388720D01*
X15318159Y5388304D01*
X15316911Y5387749D01*
X15315732Y5386917D01*
X15315108Y5386362D01*
X15314552Y5385808D01*
X15314484Y5385738D01*
X15314413Y5385669D01*
X15314276Y5385461D01*
X15314069Y5385184D01*
X15313860Y5384837D01*
X15313582Y5384351D01*
X15313306Y5383866D01*
X15313028Y5383242D01*
X15312750Y5382549D01*
X15312543Y5381786D01*
X15312265Y5380954D01*
X15312057Y5380052D01*
X15311848Y5379012D01*
X15311710Y5377903D01*
X15311571Y5376724D01*
Y5355158D01*
X15332721D01*
Y5374297D01*
X15332651Y5374782D01*
Y5375337D01*
X15332582Y5376654D01*
X15332443Y5378111D01*
X15332236Y5379636D01*
X15331958Y5381092D01*
X15331541Y5382410D01*
Y5382479D01*
X15331473Y5382549D01*
X15331334Y5382965D01*
X15331056Y5383519D01*
X15330640Y5384282D01*
X15330086Y5385045D01*
X15329462Y5385877D01*
X15328629Y5386709D01*
X15327728Y5387402D01*
X15327589Y5387472D01*
X15327243Y5387680D01*
X15326756Y5387957D01*
X15325993Y5388304D01*
X15325162Y5388581D01*
X15324191Y5388859D01*
X15323082Y5389067D01*
X15321973Y5389136D01*
D02*
G37*
G36*
X16621045Y4508634D02*
X16592200D01*
X16621045Y4488455D01*
Y4508634D01*
D02*
G37*
%LPD*%
D51*
X16100989Y5040749D02*
X16192572D01*
Y5221962D01*
X16100989D02*
X16192572D01*
X16100989Y5040749D02*
Y5221962D01*
X16962660Y4146240D02*
Y4266240D01*
Y4146240D02*
X17202660D01*
Y4266240D01*
X16962660D02*
X17202660D01*
X15323749Y5256093D02*
X15415332D01*
Y5437307D01*
X15323749D02*
X15415332D01*
X15323749Y5256093D02*
Y5437307D01*
X16604620Y4339600D02*
X16684621D01*
Y4499600D01*
X16604620D02*
X16684621D01*
X16604620Y4339600D02*
Y4499600D01*
D83*
X16667000Y4717660D02*
Y4827660D01*
X16607001Y4717660D02*
Y4827660D01*
X16667000D01*
X16607001Y4717660D02*
X16667000D01*
X15704140Y9064100D02*
X15924139D01*
X15704140Y8919100D02*
X15924139D01*
X15704140D02*
Y9064100D01*
X15924139Y8919100D02*
Y9064100D01*
X16196201Y8907000D02*
Y9127000D01*
X16341200Y8907000D02*
Y9127000D01*
X16196201Y8907000D02*
X16341200D01*
X16196201Y9127000D02*
X16341200D01*
%TF.MD5,42a3b947d3a5bc2a01d156d1f9288eab*%
M02*
