%TF.GenerationSoftware,Altium Limited,Altium Designer,24.2.2 (26)*%
G04 Layer_Color=32768*
%FSLAX45Y45*%
%MOMM*%
%TF.SameCoordinates,979FBE80-878B-4EC3-91C7-7055811A0E5A*%
%TF.FilePolarity,Positive*%
%TF.FileFunction,Other,Top_Designator*%
%TF.Part,Single*%
G01*
G75*
G36*
X16695956Y3655721D02*
X16696416Y3655680D01*
X16696915Y3655596D01*
X16697498Y3655513D01*
X16698164Y3655388D01*
X16698831Y3655222D01*
X16699580Y3655013D01*
X16700330Y3654763D01*
X16701080Y3654472D01*
X16701830Y3654138D01*
X16702621Y3653722D01*
X16703371Y3653264D01*
X16704079Y3652722D01*
X16704121Y3652681D01*
X16704288Y3652556D01*
X16704495Y3652347D01*
X16704788Y3652056D01*
X16705162Y3651681D01*
X16705537Y3651223D01*
X16705997Y3650681D01*
X16706412Y3650056D01*
X16706828Y3649390D01*
X16707288Y3648640D01*
X16707661Y3647807D01*
X16707996Y3646890D01*
X16708328Y3645932D01*
X16708537Y3644891D01*
X16708704Y3643808D01*
X16708745Y3642641D01*
Y3642142D01*
X16708704Y3641767D01*
X16708662Y3641308D01*
X16708578Y3640809D01*
X16708495Y3640225D01*
X16708369Y3639601D01*
X16708244Y3638934D01*
X16708037Y3638226D01*
X16707787Y3637518D01*
X16707495Y3636810D01*
X16707162Y3636101D01*
X16706787Y3635393D01*
X16706329Y3634727D01*
X16705829Y3634060D01*
X16705788Y3634019D01*
X16705704Y3633935D01*
X16705537Y3633769D01*
X16705287Y3633560D01*
X16704996Y3633269D01*
X16704663Y3632977D01*
X16704247Y3632686D01*
X16703746Y3632352D01*
X16703246Y3632019D01*
X16702663Y3631686D01*
X16701997Y3631394D01*
X16701331Y3631103D01*
X16700580Y3630811D01*
X16699789Y3630603D01*
X16698914Y3630436D01*
X16698039Y3630311D01*
X16697664Y3635268D01*
X16697707D01*
X16697832Y3635310D01*
X16697998Y3635352D01*
X16698248Y3635393D01*
X16698540Y3635435D01*
X16698914Y3635560D01*
X16699706Y3635768D01*
X16700580Y3636101D01*
X16701497Y3636560D01*
X16702330Y3637101D01*
X16702705Y3637434D01*
X16703081Y3637768D01*
Y3637809D01*
X16703163Y3637851D01*
X16703246Y3637976D01*
X16703371Y3638143D01*
X16703664Y3638559D01*
X16703954Y3639142D01*
X16704288Y3639850D01*
X16704579Y3640684D01*
X16704788Y3641600D01*
X16704829Y3642100D01*
X16704871Y3642641D01*
Y3642975D01*
X16704829Y3643225D01*
X16704788Y3643516D01*
X16704745Y3643849D01*
X16704538Y3644641D01*
X16704247Y3645557D01*
X16704037Y3646016D01*
X16703789Y3646515D01*
X16703496Y3647015D01*
X16703163Y3647474D01*
X16702788Y3647932D01*
X16702330Y3648390D01*
X16702287Y3648432D01*
X16702205Y3648473D01*
X16702080Y3648598D01*
X16701872Y3648765D01*
X16701579Y3648931D01*
X16701288Y3649140D01*
X16700914Y3649348D01*
X16700497Y3649598D01*
X16700040Y3649806D01*
X16699539Y3650015D01*
X16698956Y3650223D01*
X16698372Y3650389D01*
X16697707Y3650556D01*
X16696999Y3650681D01*
X16696291Y3650723D01*
X16695499Y3650764D01*
X16695457D01*
X16695332D01*
X16695123D01*
X16694832Y3650723D01*
X16694498Y3650681D01*
X16694083Y3650639D01*
X16693665Y3650556D01*
X16693166Y3650473D01*
X16692166Y3650223D01*
X16691083Y3649806D01*
X16690582Y3649556D01*
X16690083Y3649223D01*
X16689583Y3648890D01*
X16689125Y3648473D01*
X16689082Y3648432D01*
X16689043Y3648390D01*
X16688918Y3648223D01*
X16688750Y3648057D01*
X16688583Y3647848D01*
X16688374Y3647557D01*
X16688167Y3647265D01*
X16687917Y3646890D01*
X16687709Y3646474D01*
X16687500Y3646057D01*
X16687125Y3645016D01*
X16686958Y3644474D01*
X16686835Y3643849D01*
X16686792Y3643225D01*
X16686749Y3642558D01*
Y3642183D01*
X16686792Y3641725D01*
X16686874Y3641183D01*
X16687000Y3640517D01*
X16687209Y3639809D01*
X16687459Y3639101D01*
X16687834Y3638393D01*
X16687875Y3638309D01*
X16688000Y3638101D01*
X16688251Y3637768D01*
X16688542Y3637351D01*
X16688959Y3636935D01*
X16689417Y3636435D01*
X16689958Y3635976D01*
X16690541Y3635560D01*
X16689915Y3631144D01*
X16670171Y3634852D01*
Y3653972D01*
X16674670D01*
Y3638601D01*
X16685001Y3636560D01*
X16684959Y3636601D01*
X16684875Y3636726D01*
X16684793Y3636893D01*
X16684625Y3637143D01*
X16684459Y3637476D01*
X16684251Y3637851D01*
X16684001Y3638268D01*
X16683794Y3638767D01*
X16683585Y3639267D01*
X16683334Y3639850D01*
X16682961Y3641059D01*
X16682793Y3641725D01*
X16682668Y3642391D01*
X16682626Y3643100D01*
X16682585Y3643808D01*
Y3644016D01*
X16682626Y3644308D01*
Y3644641D01*
X16682710Y3645057D01*
X16682751Y3645557D01*
X16682877Y3646141D01*
X16683002Y3646724D01*
X16683211Y3647390D01*
X16683418Y3648057D01*
X16683710Y3648765D01*
X16684042Y3649473D01*
X16684459Y3650181D01*
X16684918Y3650889D01*
X16685458Y3651597D01*
X16686084Y3652264D01*
X16686127Y3652306D01*
X16686250Y3652431D01*
X16686459Y3652597D01*
X16686710Y3652805D01*
X16687042Y3653097D01*
X16687500Y3653389D01*
X16687958Y3653680D01*
X16688499Y3654014D01*
X16689125Y3654347D01*
X16689833Y3654638D01*
X16690541Y3654972D01*
X16691374Y3655222D01*
X16692207Y3655430D01*
X16693124Y3655596D01*
X16694083Y3655721D01*
X16695082Y3655763D01*
X16695123D01*
X16695332D01*
X16695583D01*
X16695956Y3655721D01*
D02*
G37*
G36*
X16708121Y3613482D02*
X16678085D01*
X16678169Y3613399D01*
X16678378Y3613191D01*
X16678670Y3612816D01*
X16679086Y3612274D01*
X16679585Y3611649D01*
X16680127Y3610858D01*
X16680710Y3609983D01*
X16681335Y3608983D01*
Y3608942D01*
X16681419Y3608858D01*
X16681502Y3608733D01*
X16681586Y3608525D01*
X16681752Y3608275D01*
X16681877Y3607984D01*
X16682253Y3607317D01*
X16682626Y3606567D01*
X16683043Y3605734D01*
X16683418Y3604859D01*
X16683751Y3604026D01*
X16679211D01*
X16679169Y3604068D01*
X16679128Y3604193D01*
X16679002Y3604401D01*
X16678877Y3604693D01*
X16678711Y3605026D01*
X16678461Y3605443D01*
X16678210Y3605901D01*
X16677962Y3606359D01*
X16677295Y3607442D01*
X16676503Y3608608D01*
X16675670Y3609817D01*
X16674712Y3610941D01*
X16674670Y3610983D01*
X16674586Y3611066D01*
X16674461Y3611233D01*
X16674254Y3611441D01*
X16674004Y3611649D01*
X16673753Y3611941D01*
X16673045Y3612566D01*
X16672296Y3613274D01*
X16671420Y3613982D01*
X16670505Y3614607D01*
X16669547Y3615148D01*
Y3618189D01*
X16708121D01*
Y3613482D01*
D02*
G37*
G36*
Y3591071D02*
X16700122Y3585989D01*
X16700079Y3585948D01*
X16699956Y3585906D01*
X16699789Y3585781D01*
X16699539Y3585614D01*
X16699248Y3585448D01*
X16698914Y3585198D01*
X16698164Y3584698D01*
X16697289Y3584115D01*
X16696416Y3583532D01*
X16695583Y3582907D01*
X16694832Y3582324D01*
X16694791D01*
X16694748Y3582240D01*
X16694540Y3582074D01*
X16694206Y3581824D01*
X16693832Y3581449D01*
X16693414Y3581074D01*
X16692999Y3580616D01*
X16692583Y3580157D01*
X16692291Y3579741D01*
X16692249Y3579699D01*
X16692166Y3579533D01*
X16692041Y3579324D01*
X16691875Y3579033D01*
X16691708Y3578658D01*
X16691541Y3578283D01*
X16691374Y3577866D01*
X16691249Y3577408D01*
Y3577366D01*
X16691208Y3577242D01*
X16691167Y3577033D01*
X16691124Y3576742D01*
Y3576325D01*
X16691083Y3575825D01*
X16691042Y3575242D01*
Y3568702D01*
X16708121D01*
Y3563620D01*
X16669672D01*
Y3581490D01*
X16669713Y3581949D01*
Y3582407D01*
X16669756Y3582948D01*
X16669797Y3583573D01*
X16669920Y3584823D01*
X16670129Y3586114D01*
X16670380Y3587364D01*
X16670546Y3587905D01*
X16670712Y3588447D01*
Y3588489D01*
X16670755Y3588572D01*
X16670837Y3588697D01*
X16670921Y3588905D01*
X16671172Y3589405D01*
X16671545Y3589988D01*
X16672046Y3590696D01*
X16672713Y3591405D01*
X16673462Y3592113D01*
X16674379Y3592738D01*
X16674420D01*
X16674504Y3592821D01*
X16674629Y3592904D01*
X16674837Y3592987D01*
X16675087Y3593112D01*
X16675378Y3593237D01*
X16675713Y3593404D01*
X16676086Y3593571D01*
X16676961Y3593862D01*
X16677919Y3594112D01*
X16679002Y3594279D01*
X16680170Y3594362D01*
X16680209D01*
X16680334D01*
X16680585D01*
X16680835Y3594320D01*
X16681210Y3594279D01*
X16681627Y3594237D01*
X16682085Y3594154D01*
X16682585Y3594029D01*
X16683669Y3593696D01*
X16684251Y3593487D01*
X16684834Y3593237D01*
X16685417Y3592946D01*
X16686002Y3592571D01*
X16686542Y3592154D01*
X16687083Y3591696D01*
X16687125Y3591654D01*
X16687209Y3591571D01*
X16687334Y3591405D01*
X16687543Y3591196D01*
X16687750Y3590905D01*
X16688000Y3590571D01*
X16688292Y3590155D01*
X16688583Y3589655D01*
X16688875Y3589113D01*
X16689166Y3588530D01*
X16689458Y3587864D01*
X16689751Y3587114D01*
X16689999Y3586323D01*
X16690250Y3585448D01*
X16690459Y3584490D01*
X16690623Y3583490D01*
Y3583532D01*
X16690666Y3583573D01*
X16690791Y3583823D01*
X16690999Y3584198D01*
X16691249Y3584656D01*
X16691541Y3585156D01*
X16691833Y3585656D01*
X16692207Y3586156D01*
X16692542Y3586572D01*
X16692583Y3586614D01*
X16692624Y3586656D01*
X16692749Y3586781D01*
X16692915Y3586947D01*
X16693124Y3587156D01*
X16693375Y3587406D01*
X16693958Y3587947D01*
X16694707Y3588572D01*
X16695583Y3589280D01*
X16696581Y3590030D01*
X16697664Y3590780D01*
X16708121Y3597445D01*
Y3591071D01*
D02*
G37*
G36*
X16944688Y3796110D02*
X16944647Y3795651D01*
Y3795193D01*
X16944604Y3794652D01*
X16944563Y3794027D01*
X16944440Y3792777D01*
X16944231Y3791486D01*
X16943980Y3790236D01*
X16943814Y3789694D01*
X16943646Y3789153D01*
Y3789111D01*
X16943605Y3789028D01*
X16943523Y3788903D01*
X16943439Y3788695D01*
X16943188Y3788195D01*
X16942815Y3787612D01*
X16942314Y3786904D01*
X16941647Y3786195D01*
X16940898Y3785487D01*
X16939981Y3784862D01*
X16939940D01*
X16939856Y3784779D01*
X16939731Y3784696D01*
X16939523Y3784612D01*
X16939273Y3784487D01*
X16938982Y3784363D01*
X16938647Y3784196D01*
X16938274Y3784029D01*
X16937399Y3783738D01*
X16936441Y3783488D01*
X16935358Y3783321D01*
X16934190Y3783238D01*
X16934151D01*
X16934026D01*
X16933775D01*
X16933525Y3783279D01*
X16933150Y3783321D01*
X16932733Y3783363D01*
X16932275Y3783446D01*
X16931775Y3783571D01*
X16930692Y3783904D01*
X16930109Y3784113D01*
X16929526Y3784363D01*
X16928943Y3784654D01*
X16928358Y3785029D01*
X16927818Y3785446D01*
X16927277Y3785904D01*
X16927235Y3785945D01*
X16927151Y3786029D01*
X16927026Y3786195D01*
X16926817Y3786404D01*
X16926610Y3786695D01*
X16926360Y3787028D01*
X16926068Y3787445D01*
X16925777Y3787945D01*
X16925485Y3788486D01*
X16925192Y3789070D01*
X16924902Y3789736D01*
X16924609Y3790486D01*
X16924361Y3791277D01*
X16924110Y3792152D01*
X16923901Y3793110D01*
X16923737Y3794110D01*
Y3794068D01*
X16923694Y3794027D01*
X16923569Y3793777D01*
X16923361Y3793402D01*
X16923111Y3792944D01*
X16922820Y3792444D01*
X16922527Y3791944D01*
X16922153Y3791444D01*
X16921819Y3791027D01*
X16921777Y3790986D01*
X16921736Y3790944D01*
X16921611Y3790819D01*
X16921445Y3790653D01*
X16921236Y3790444D01*
X16920985Y3790194D01*
X16920403Y3789653D01*
X16919653Y3789028D01*
X16918777Y3788320D01*
X16917780Y3787570D01*
X16916696Y3786820D01*
X16906239Y3780155D01*
Y3786529D01*
X16914238Y3791611D01*
X16914281Y3791652D01*
X16914404Y3791694D01*
X16914571Y3791819D01*
X16914821Y3791986D01*
X16915112Y3792152D01*
X16915446Y3792402D01*
X16916196Y3792902D01*
X16917072Y3793485D01*
X16917944Y3794068D01*
X16918777Y3794693D01*
X16919528Y3795276D01*
X16919569D01*
X16919612Y3795360D01*
X16919820Y3795526D01*
X16920152Y3795776D01*
X16920528Y3796151D01*
X16920946Y3796526D01*
X16921361Y3796984D01*
X16921777Y3797442D01*
X16922069Y3797859D01*
X16922112Y3797901D01*
X16922194Y3798067D01*
X16922319Y3798276D01*
X16922485Y3798567D01*
X16922652Y3798942D01*
X16922820Y3799317D01*
X16922986Y3799734D01*
X16923111Y3800192D01*
Y3800233D01*
X16923152Y3800358D01*
X16923193Y3800567D01*
X16923236Y3800858D01*
Y3801275D01*
X16923277Y3801775D01*
X16923318Y3802358D01*
Y3808898D01*
X16906239D01*
Y3813980D01*
X16944688D01*
Y3796110D01*
D02*
G37*
G36*
X16935191Y3773532D02*
X16935233Y3773407D01*
X16935358Y3773199D01*
X16935483Y3772907D01*
X16935649Y3772574D01*
X16935899Y3772157D01*
X16936150Y3771699D01*
X16936398Y3771241D01*
X16937065Y3770158D01*
X16937857Y3768991D01*
X16938690Y3767783D01*
X16939648Y3766659D01*
X16939690Y3766617D01*
X16939774Y3766534D01*
X16939899Y3766367D01*
X16940106Y3766159D01*
X16940356Y3765951D01*
X16940607Y3765659D01*
X16941315Y3765034D01*
X16942064Y3764326D01*
X16942940Y3763618D01*
X16943855Y3762993D01*
X16944814Y3762451D01*
Y3759411D01*
X16906239D01*
Y3764118D01*
X16936275D01*
X16936191Y3764201D01*
X16935982Y3764409D01*
X16935690Y3764784D01*
X16935274Y3765326D01*
X16934773Y3765951D01*
X16934233Y3766742D01*
X16933650Y3767617D01*
X16933025Y3768617D01*
Y3768658D01*
X16932941Y3768742D01*
X16932858Y3768866D01*
X16932774Y3769075D01*
X16932608Y3769325D01*
X16932483Y3769616D01*
X16932108Y3770283D01*
X16931734Y3771033D01*
X16931317Y3771866D01*
X16930942Y3772740D01*
X16930609Y3773574D01*
X16935149D01*
X16935191Y3773532D01*
D02*
G37*
G36*
X16944688Y3731334D02*
Y3727460D01*
X16919778D01*
Y3722253D01*
X16915446D01*
Y3727460D01*
X16906239D01*
Y3732168D01*
X16915446D01*
Y3748913D01*
X16919778D01*
X16944688Y3731334D01*
D02*
G37*
G36*
X17158929Y2816860D02*
X17154222D01*
Y2846894D01*
X17154140Y2846811D01*
X17153931Y2846602D01*
X17153555Y2846311D01*
X17153014Y2845894D01*
X17152390Y2845394D01*
X17151598Y2844853D01*
X17150723Y2844270D01*
X17149722Y2843645D01*
X17149683D01*
X17149599Y2843561D01*
X17149474Y2843478D01*
X17149265Y2843395D01*
X17149014Y2843228D01*
X17148724Y2843103D01*
X17148058Y2842728D01*
X17147307Y2842353D01*
X17146474Y2841937D01*
X17145599Y2841562D01*
X17144766Y2841229D01*
Y2845769D01*
X17144807Y2845811D01*
X17144933Y2845853D01*
X17145142Y2845978D01*
X17145433Y2846103D01*
X17145766Y2846269D01*
X17146182Y2846519D01*
X17146642Y2846769D01*
X17147099Y2847019D01*
X17148183Y2847685D01*
X17149348Y2848477D01*
X17150557Y2849310D01*
X17151682Y2850268D01*
X17151723Y2850310D01*
X17151807Y2850393D01*
X17151973Y2850518D01*
X17152180Y2850726D01*
X17152390Y2850976D01*
X17152681Y2851226D01*
X17153307Y2851934D01*
X17154015Y2852684D01*
X17154723Y2853559D01*
X17155347Y2854475D01*
X17155888Y2855433D01*
X17158929D01*
Y2816860D01*
D02*
G37*
G36*
X17122688Y2855267D02*
X17123148D01*
X17123688Y2855225D01*
X17124313Y2855184D01*
X17125563Y2855059D01*
X17126854Y2854850D01*
X17128104Y2854600D01*
X17128645Y2854434D01*
X17129187Y2854267D01*
X17129230D01*
X17129312Y2854225D01*
X17129437Y2854142D01*
X17129645Y2854059D01*
X17130145Y2853809D01*
X17130728Y2853434D01*
X17131436Y2852934D01*
X17132146Y2852268D01*
X17132854Y2851518D01*
X17133478Y2850601D01*
Y2850560D01*
X17133562Y2850476D01*
X17133644Y2850351D01*
X17133727Y2850143D01*
X17133852Y2849893D01*
X17133977Y2849602D01*
X17134145Y2849268D01*
X17134311Y2848893D01*
X17134602Y2848019D01*
X17134853Y2847061D01*
X17135019Y2845978D01*
X17135101Y2844811D01*
Y2844770D01*
Y2844645D01*
Y2844395D01*
X17135060Y2844145D01*
X17135019Y2843770D01*
X17134978Y2843353D01*
X17134894Y2842895D01*
X17134769Y2842395D01*
X17134436Y2841312D01*
X17134227Y2840729D01*
X17133977Y2840146D01*
X17133685Y2839563D01*
X17133311Y2838979D01*
X17132893Y2838438D01*
X17132436Y2837896D01*
X17132394Y2837855D01*
X17132310Y2837771D01*
X17132146Y2837646D01*
X17131937Y2837438D01*
X17131645Y2837230D01*
X17131311Y2836980D01*
X17130894Y2836688D01*
X17130396Y2836397D01*
X17129852Y2836105D01*
X17129269Y2835813D01*
X17128604Y2835522D01*
X17127853Y2835230D01*
X17127063Y2834980D01*
X17126189Y2834730D01*
X17125230Y2834522D01*
X17124229Y2834356D01*
X17124272D01*
X17124313Y2834314D01*
X17124564Y2834189D01*
X17124937Y2833981D01*
X17125397Y2833731D01*
X17125896Y2833439D01*
X17126396Y2833147D01*
X17126897Y2832773D01*
X17127312Y2832439D01*
X17127354Y2832398D01*
X17127396Y2832356D01*
X17127521Y2832231D01*
X17127687Y2832064D01*
X17127896Y2831856D01*
X17128146Y2831606D01*
X17128687Y2831023D01*
X17129312Y2830273D01*
X17130020Y2829398D01*
X17130769Y2828399D01*
X17131520Y2827316D01*
X17138185Y2816860D01*
X17131812D01*
X17126729Y2824858D01*
X17126688Y2824900D01*
X17126646Y2825025D01*
X17126521Y2825191D01*
X17126353Y2825441D01*
X17126189Y2825733D01*
X17125938Y2826066D01*
X17125438Y2826816D01*
X17124855Y2827691D01*
X17124272Y2828565D01*
X17123647Y2829398D01*
X17123064Y2830148D01*
Y2830190D01*
X17122980Y2830232D01*
X17122813Y2830440D01*
X17122565Y2830773D01*
X17122189Y2831148D01*
X17121814Y2831565D01*
X17121356Y2831981D01*
X17120897Y2832398D01*
X17120480Y2832689D01*
X17120439Y2832731D01*
X17120273Y2832814D01*
X17120064Y2832939D01*
X17119772Y2833106D01*
X17119398Y2833272D01*
X17119023Y2833439D01*
X17118607Y2833606D01*
X17118147Y2833731D01*
X17118106D01*
X17117982Y2833772D01*
X17117773Y2833814D01*
X17117482Y2833856D01*
X17117065D01*
X17116565Y2833897D01*
X17115982Y2833939D01*
X17109442D01*
Y2816860D01*
X17104359D01*
Y2855308D01*
X17122231D01*
X17122688Y2855267D01*
D02*
G37*
G36*
X16518575Y3274832D02*
X16527780D01*
Y3270125D01*
X16518575D01*
Y3253379D01*
X16514243D01*
X16489333Y3270958D01*
Y3274832D01*
X16514243D01*
Y3280039D01*
X16518575D01*
Y3274832D01*
D02*
G37*
G36*
X16527780Y3245631D02*
X16519781Y3240549D01*
X16519740Y3240508D01*
X16519615Y3240466D01*
X16519449Y3240341D01*
X16519199Y3240174D01*
X16518907Y3240008D01*
X16518575Y3239758D01*
X16517824Y3239258D01*
X16516949Y3238675D01*
X16516075Y3238092D01*
X16515242Y3237467D01*
X16514491Y3236884D01*
X16514450D01*
X16514407Y3236800D01*
X16514200Y3236634D01*
X16513867Y3236384D01*
X16513492Y3236009D01*
X16513075Y3235634D01*
X16512659Y3235176D01*
X16512242Y3234717D01*
X16511951Y3234301D01*
X16511909Y3234259D01*
X16511826Y3234093D01*
X16511700Y3233884D01*
X16511534Y3233593D01*
X16511368Y3233218D01*
X16511201Y3232843D01*
X16511034Y3232426D01*
X16510909Y3231968D01*
Y3231926D01*
X16510867Y3231802D01*
X16510826Y3231593D01*
X16510783Y3231302D01*
Y3230885D01*
X16510744Y3230385D01*
X16510701Y3229802D01*
Y3223262D01*
X16527780D01*
Y3218180D01*
X16489333D01*
Y3236050D01*
X16489372Y3236509D01*
Y3236967D01*
X16489415Y3237508D01*
X16489456Y3238133D01*
X16489581Y3239383D01*
X16489790Y3240674D01*
X16490041Y3241924D01*
X16490205Y3242465D01*
X16490373Y3243007D01*
Y3243049D01*
X16490414Y3243132D01*
X16490498Y3243257D01*
X16490581Y3243465D01*
X16490831Y3243965D01*
X16491206Y3244548D01*
X16491705Y3245256D01*
X16492372Y3245965D01*
X16493121Y3246673D01*
X16494038Y3247298D01*
X16494080D01*
X16494164Y3247381D01*
X16494289Y3247464D01*
X16494498Y3247547D01*
X16494746Y3247672D01*
X16495038Y3247797D01*
X16495372Y3247964D01*
X16495747Y3248131D01*
X16496622Y3248422D01*
X16497578Y3248672D01*
X16498662Y3248839D01*
X16499829Y3248922D01*
X16499870D01*
X16499995D01*
X16500246D01*
X16500494Y3248880D01*
X16500870Y3248839D01*
X16501286Y3248797D01*
X16501746Y3248714D01*
X16502245Y3248589D01*
X16503328Y3248256D01*
X16503911Y3248047D01*
X16504494Y3247797D01*
X16505077Y3247506D01*
X16505661Y3247131D01*
X16506203Y3246714D01*
X16506744Y3246256D01*
X16506786Y3246214D01*
X16506870Y3246131D01*
X16506995Y3245965D01*
X16507202Y3245756D01*
X16507410Y3245465D01*
X16507660Y3245131D01*
X16507951Y3244715D01*
X16508243Y3244215D01*
X16508534Y3243673D01*
X16508827Y3243090D01*
X16509119Y3242424D01*
X16509410Y3241674D01*
X16509660Y3240883D01*
X16509911Y3240008D01*
X16510118Y3239050D01*
X16510284Y3238050D01*
Y3238092D01*
X16510326Y3238133D01*
X16510451Y3238383D01*
X16510658Y3238758D01*
X16510909Y3239216D01*
X16511201Y3239716D01*
X16511493Y3240216D01*
X16511867Y3240716D01*
X16512201Y3241132D01*
X16512242Y3241174D01*
X16512283Y3241216D01*
X16512408Y3241341D01*
X16512576Y3241507D01*
X16512784Y3241716D01*
X16513034Y3241966D01*
X16513617Y3242507D01*
X16514368Y3243132D01*
X16515242Y3243840D01*
X16516241Y3244590D01*
X16517323Y3245340D01*
X16527780Y3252005D01*
Y3245631D01*
D02*
G37*
G36*
X17310100Y2949537D02*
X17310017D01*
X17309808D01*
X17309476D01*
X17309059Y2949579D01*
X17308559Y2949621D01*
X17308017Y2949746D01*
X17307434Y2949871D01*
X17306851Y2950079D01*
X17306808D01*
X17306726Y2950121D01*
X17306601Y2950162D01*
X17306393Y2950246D01*
X17306184Y2950371D01*
X17305893Y2950495D01*
X17305226Y2950829D01*
X17304436Y2951245D01*
X17303560Y2951787D01*
X17302644Y2952412D01*
X17301727Y2953161D01*
X17301685Y2953203D01*
X17301602Y2953245D01*
X17301477Y2953370D01*
X17301270Y2953578D01*
X17301060Y2953786D01*
X17300769Y2954078D01*
X17300436Y2954370D01*
X17300061Y2954744D01*
X17299644Y2955161D01*
X17299228Y2955619D01*
X17298727Y2956119D01*
X17298228Y2956702D01*
X17297687Y2957285D01*
X17297145Y2957952D01*
X17296562Y2958618D01*
X17295937Y2959368D01*
X17295895Y2959452D01*
X17295686Y2959660D01*
X17295438Y2959951D01*
X17295062Y2960368D01*
X17294646Y2960868D01*
X17294147Y2961451D01*
X17293604Y2962118D01*
X17292979Y2962784D01*
X17291689Y2964200D01*
X17290314Y2965575D01*
X17289647Y2966241D01*
X17288980Y2966866D01*
X17288356Y2967408D01*
X17287772Y2967866D01*
X17287730Y2967908D01*
X17287646Y2967949D01*
X17287482Y2968074D01*
X17287273Y2968199D01*
X17286981Y2968408D01*
X17286690Y2968574D01*
X17285941Y2968991D01*
X17285065Y2969407D01*
X17284106Y2969782D01*
X17283107Y2970032D01*
X17282607Y2970074D01*
X17282108Y2970115D01*
X17282066D01*
X17281982D01*
X17281816D01*
X17281648Y2970074D01*
X17281400D01*
X17281107Y2969991D01*
X17280482Y2969866D01*
X17279733Y2969616D01*
X17278941Y2969241D01*
X17278525Y2969032D01*
X17278149Y2968741D01*
X17277776Y2968449D01*
X17277400Y2968074D01*
X17277357Y2968033D01*
X17277316Y2967991D01*
X17277232Y2967866D01*
X17277107Y2967699D01*
X17276942Y2967491D01*
X17276775Y2967241D01*
X17276401Y2966658D01*
X17276067Y2965867D01*
X17275734Y2964992D01*
X17275526Y2963950D01*
X17275443Y2963367D01*
Y2962451D01*
X17275484Y2962201D01*
Y2961909D01*
X17275568Y2961576D01*
X17275693Y2960826D01*
X17275941Y2959951D01*
X17276317Y2959035D01*
X17276567Y2958577D01*
X17276817Y2958119D01*
X17277150Y2957702D01*
X17277525Y2957285D01*
X17277567Y2957244D01*
X17277608Y2957202D01*
X17277733Y2957119D01*
X17277901Y2956952D01*
X17278108Y2956827D01*
X17278358Y2956661D01*
X17278650Y2956452D01*
X17278983Y2956286D01*
X17279358Y2956077D01*
X17279774Y2955911D01*
X17280774Y2955578D01*
X17281857Y2955328D01*
X17282481Y2955286D01*
X17283150Y2955244D01*
X17282649Y2950412D01*
X17282565D01*
X17282399Y2950454D01*
X17282149Y2950495D01*
X17281773Y2950537D01*
X17281316Y2950620D01*
X17280774Y2950745D01*
X17280191Y2950870D01*
X17279565Y2951079D01*
X17278941Y2951287D01*
X17278233Y2951537D01*
X17277567Y2951870D01*
X17276900Y2952203D01*
X17276192Y2952620D01*
X17275568Y2953078D01*
X17274942Y2953578D01*
X17274400Y2954161D01*
X17274359Y2954203D01*
X17274277Y2954328D01*
X17274152Y2954494D01*
X17273943Y2954744D01*
X17273734Y2955078D01*
X17273483Y2955494D01*
X17273235Y2955952D01*
X17272943Y2956494D01*
X17272693Y2957077D01*
X17272443Y2957744D01*
X17272192Y2958452D01*
X17271985Y2959243D01*
X17271776Y2960076D01*
X17271652Y2960951D01*
X17271568Y2961909D01*
X17271527Y2962909D01*
Y2963451D01*
X17271568Y2963825D01*
X17271609Y2964284D01*
X17271693Y2964825D01*
X17271776Y2965450D01*
X17271901Y2966075D01*
X17272067Y2966783D01*
X17272276Y2967491D01*
X17272527Y2968241D01*
X17272818Y2968949D01*
X17273193Y2969699D01*
X17273608Y2970407D01*
X17274068Y2971074D01*
X17274609Y2971698D01*
X17274651Y2971740D01*
X17274734Y2971823D01*
X17274942Y2971990D01*
X17275151Y2972198D01*
X17275443Y2972448D01*
X17275816Y2972740D01*
X17276234Y2973031D01*
X17276733Y2973323D01*
X17277232Y2973615D01*
X17277817Y2973906D01*
X17278441Y2974198D01*
X17279108Y2974448D01*
X17279858Y2974656D01*
X17280608Y2974823D01*
X17281400Y2974906D01*
X17282233Y2974948D01*
X17282274D01*
X17282315D01*
X17282440D01*
X17282607D01*
X17283064Y2974906D01*
X17283649Y2974823D01*
X17284357Y2974698D01*
X17285106Y2974531D01*
X17285941Y2974323D01*
X17286774Y2973989D01*
X17286813D01*
X17286856Y2973948D01*
X17286981Y2973906D01*
X17287148Y2973823D01*
X17287605Y2973573D01*
X17288190Y2973240D01*
X17288898Y2972781D01*
X17289690Y2972240D01*
X17290521Y2971615D01*
X17291438Y2970824D01*
X17291479Y2970782D01*
X17291563Y2970740D01*
X17291689Y2970574D01*
X17291896Y2970407D01*
X17292146Y2970157D01*
X17292438Y2969866D01*
X17292813Y2969532D01*
X17293188Y2969116D01*
X17293646Y2968616D01*
X17294147Y2968074D01*
X17294730Y2967491D01*
X17295312Y2966825D01*
X17295979Y2966116D01*
X17296645Y2965325D01*
X17297395Y2964450D01*
X17298186Y2963534D01*
X17298228Y2963492D01*
X17298354Y2963367D01*
X17298520Y2963117D01*
X17298770Y2962867D01*
X17299062Y2962492D01*
X17299394Y2962118D01*
X17300143Y2961243D01*
X17300935Y2960326D01*
X17301768Y2959452D01*
X17302144Y2959035D01*
X17302477Y2958660D01*
X17302811Y2958327D01*
X17303059Y2958077D01*
X17303102Y2958035D01*
X17303268Y2957869D01*
X17303519Y2957660D01*
X17303851Y2957369D01*
X17304227Y2957035D01*
X17304643Y2956702D01*
X17305559Y2956036D01*
Y2974989D01*
X17310100D01*
Y2949537D01*
D02*
G37*
G36*
Y2940831D02*
X17302103Y2935749D01*
X17302060Y2935708D01*
X17301935Y2935666D01*
X17301768Y2935541D01*
X17301518Y2935374D01*
X17301227Y2935208D01*
X17300894Y2934958D01*
X17300143Y2934458D01*
X17299269Y2933875D01*
X17298395Y2933292D01*
X17297562Y2932667D01*
X17296812Y2932084D01*
X17296770D01*
X17296729Y2932000D01*
X17296519Y2931834D01*
X17296187Y2931584D01*
X17295811Y2931209D01*
X17295395Y2930834D01*
X17294978Y2930376D01*
X17294562Y2929917D01*
X17294270Y2929501D01*
X17294229Y2929459D01*
X17294147Y2929293D01*
X17294022Y2929084D01*
X17293854Y2928793D01*
X17293687Y2928418D01*
X17293521Y2928043D01*
X17293353Y2927626D01*
X17293230Y2927168D01*
Y2927126D01*
X17293188Y2927002D01*
X17293146Y2926793D01*
X17293105Y2926502D01*
Y2926085D01*
X17293063Y2925585D01*
X17293021Y2925002D01*
Y2918462D01*
X17310100D01*
Y2913380D01*
X17271652D01*
Y2931250D01*
X17271693Y2931709D01*
Y2932167D01*
X17271735Y2932708D01*
X17271776Y2933333D01*
X17271901Y2934583D01*
X17272110Y2935874D01*
X17272360Y2937124D01*
X17272527Y2937665D01*
X17272693Y2938207D01*
Y2938249D01*
X17272736Y2938332D01*
X17272818Y2938457D01*
X17272900Y2938665D01*
X17273151Y2939165D01*
X17273526Y2939748D01*
X17274026Y2940456D01*
X17274692Y2941165D01*
X17275443Y2941873D01*
X17276360Y2942498D01*
X17276401D01*
X17276485Y2942581D01*
X17276608Y2942664D01*
X17276817Y2942747D01*
X17277068Y2942872D01*
X17277357Y2942997D01*
X17277692Y2943164D01*
X17278067Y2943331D01*
X17278941Y2943622D01*
X17279900Y2943872D01*
X17280981Y2944039D01*
X17282149Y2944122D01*
X17282190D01*
X17282315D01*
X17282565D01*
X17282816Y2944080D01*
X17283189Y2944039D01*
X17283607Y2943997D01*
X17284065Y2943914D01*
X17284566Y2943789D01*
X17285648Y2943456D01*
X17286230Y2943247D01*
X17286813Y2942997D01*
X17287396Y2942706D01*
X17287981Y2942331D01*
X17288522Y2941914D01*
X17289064Y2941456D01*
X17289105Y2941414D01*
X17289189Y2941331D01*
X17289314Y2941165D01*
X17289522Y2940956D01*
X17289729Y2940665D01*
X17289980Y2940331D01*
X17290273Y2939915D01*
X17290562Y2939415D01*
X17290855Y2938873D01*
X17291147Y2938290D01*
X17291438Y2937624D01*
X17291730Y2936874D01*
X17291980Y2936083D01*
X17292230Y2935208D01*
X17292438Y2934250D01*
X17292604Y2933250D01*
Y2933292D01*
X17292645Y2933333D01*
X17292770Y2933583D01*
X17292979Y2933958D01*
X17293230Y2934416D01*
X17293521Y2934916D01*
X17293813Y2935416D01*
X17294186Y2935916D01*
X17294521Y2936332D01*
X17294562Y2936374D01*
X17294604Y2936416D01*
X17294730Y2936541D01*
X17294896Y2936707D01*
X17295103Y2936916D01*
X17295354Y2937166D01*
X17295937Y2937707D01*
X17296687Y2938332D01*
X17297562Y2939040D01*
X17298561Y2939790D01*
X17299644Y2940540D01*
X17310100Y2947205D01*
Y2940831D01*
D02*
G37*
G36*
X16637537Y4709435D02*
X16637994Y4709394D01*
X16638495Y4709310D01*
X16639078Y4709227D01*
X16639745Y4709102D01*
X16640411Y4708935D01*
X16641161Y4708727D01*
X16641910Y4708477D01*
X16642661Y4708186D01*
X16643410Y4707852D01*
X16644202Y4707436D01*
X16644951Y4706978D01*
X16645659Y4706436D01*
X16645702Y4706394D01*
X16645868Y4706269D01*
X16646075Y4706061D01*
X16646368Y4705770D01*
X16646742Y4705395D01*
X16647118Y4704936D01*
X16647575Y4704395D01*
X16647992Y4703770D01*
X16648409Y4703104D01*
X16648866Y4702354D01*
X16649242Y4701521D01*
X16649574Y4700604D01*
X16649908Y4699646D01*
X16650117Y4698605D01*
X16650282Y4697522D01*
X16650325Y4696355D01*
Y4695855D01*
X16650282Y4695481D01*
X16650243Y4695022D01*
X16650159Y4694522D01*
X16650075Y4693939D01*
X16649950Y4693314D01*
X16649825Y4692648D01*
X16649617Y4691940D01*
X16649367Y4691232D01*
X16649075Y4690524D01*
X16648743Y4689815D01*
X16648367Y4689107D01*
X16647910Y4688441D01*
X16647409Y4687774D01*
X16647366Y4687733D01*
X16647284Y4687649D01*
X16647118Y4687483D01*
X16646867Y4687274D01*
X16646576Y4686983D01*
X16646243Y4686691D01*
X16645827Y4686400D01*
X16645326Y4686066D01*
X16644826Y4685733D01*
X16644243Y4685400D01*
X16643578Y4685108D01*
X16642909Y4684817D01*
X16642160Y4684525D01*
X16641370Y4684317D01*
X16640494Y4684150D01*
X16639619Y4684025D01*
X16639244Y4688982D01*
X16639285D01*
X16639410Y4689024D01*
X16639578Y4689066D01*
X16639828Y4689107D01*
X16640118Y4689149D01*
X16640494Y4689274D01*
X16641286Y4689482D01*
X16642160Y4689815D01*
X16643077Y4690274D01*
X16643910Y4690815D01*
X16644286Y4691148D01*
X16644659Y4691482D01*
Y4691523D01*
X16644743Y4691565D01*
X16644826Y4691690D01*
X16644951Y4691857D01*
X16645242Y4692273D01*
X16645534Y4692856D01*
X16645868Y4693564D01*
X16646159Y4694398D01*
X16646368Y4695314D01*
X16646410Y4695814D01*
X16646451Y4696355D01*
Y4696689D01*
X16646410Y4696939D01*
X16646368Y4697230D01*
X16646326Y4697563D01*
X16646118Y4698355D01*
X16645827Y4699271D01*
X16645618Y4699729D01*
X16645367Y4700229D01*
X16645076Y4700729D01*
X16644743Y4701187D01*
X16644368Y4701646D01*
X16643910Y4702104D01*
X16643867Y4702146D01*
X16643785Y4702187D01*
X16643660Y4702312D01*
X16643452Y4702479D01*
X16643159Y4702645D01*
X16642868Y4702854D01*
X16642494Y4703062D01*
X16642078Y4703312D01*
X16641618Y4703520D01*
X16641119Y4703728D01*
X16640536Y4703937D01*
X16639952Y4704103D01*
X16639285Y4704270D01*
X16638577Y4704395D01*
X16637869Y4704437D01*
X16637077Y4704478D01*
X16637038D01*
X16636913D01*
X16636703D01*
X16636412Y4704437D01*
X16636078Y4704395D01*
X16635661Y4704353D01*
X16635245Y4704270D01*
X16634744Y4704187D01*
X16633746Y4703937D01*
X16632663Y4703520D01*
X16632162Y4703270D01*
X16631664Y4702937D01*
X16631163Y4702604D01*
X16630705Y4702187D01*
X16630663Y4702146D01*
X16630621Y4702104D01*
X16630498Y4701937D01*
X16630330Y4701771D01*
X16630164Y4701562D01*
X16629955Y4701271D01*
X16629747Y4700979D01*
X16629497Y4700604D01*
X16629289Y4700188D01*
X16629080Y4699771D01*
X16628705Y4698730D01*
X16628539Y4698188D01*
X16628413Y4697563D01*
X16628372Y4696939D01*
X16628329Y4696272D01*
Y4695897D01*
X16628372Y4695439D01*
X16628455Y4694897D01*
X16628580Y4694231D01*
X16628789Y4693523D01*
X16629039Y4692815D01*
X16629414Y4692106D01*
X16629456Y4692023D01*
X16629581Y4691815D01*
X16629829Y4691482D01*
X16630122Y4691065D01*
X16630537Y4690648D01*
X16630997Y4690149D01*
X16631538Y4689690D01*
X16632121Y4689274D01*
X16631496Y4684858D01*
X16611751Y4688566D01*
Y4707686D01*
X16616251D01*
Y4692315D01*
X16626581Y4690274D01*
X16626540Y4690315D01*
X16626456Y4690440D01*
X16626373Y4690607D01*
X16626205Y4690857D01*
X16626039Y4691190D01*
X16625832Y4691565D01*
X16625581Y4691981D01*
X16625372Y4692481D01*
X16625165Y4692981D01*
X16624915Y4693564D01*
X16624541Y4694772D01*
X16624373Y4695439D01*
X16624248Y4696105D01*
X16624207Y4696814D01*
X16624165Y4697522D01*
Y4697730D01*
X16624207Y4698022D01*
Y4698355D01*
X16624290Y4698771D01*
X16624332Y4699271D01*
X16624455Y4699854D01*
X16624580Y4700438D01*
X16624789Y4701104D01*
X16624998Y4701771D01*
X16625290Y4702479D01*
X16625623Y4703187D01*
X16626039Y4703895D01*
X16626498Y4704603D01*
X16627039Y4705311D01*
X16627664Y4705978D01*
X16627705Y4706020D01*
X16627831Y4706145D01*
X16628040Y4706311D01*
X16628288Y4706519D01*
X16628622Y4706811D01*
X16629080Y4707103D01*
X16629538Y4707394D01*
X16630080Y4707727D01*
X16630705Y4708061D01*
X16631413Y4708352D01*
X16632121Y4708686D01*
X16632954Y4708935D01*
X16633788Y4709144D01*
X16634705Y4709310D01*
X16635661Y4709435D01*
X16636662Y4709477D01*
X16636703D01*
X16636913D01*
X16637161D01*
X16637537Y4709435D01*
D02*
G37*
G36*
X16637785Y4679568D02*
X16638078Y4679485D01*
X16638536Y4679318D01*
X16639037Y4679151D01*
X16639661Y4678901D01*
X16640327Y4678652D01*
X16641035Y4678318D01*
X16641827Y4677943D01*
X16642577Y4677527D01*
X16643410Y4677069D01*
X16644202Y4676527D01*
X16644951Y4675944D01*
X16645702Y4675319D01*
X16646410Y4674611D01*
X16647076Y4673861D01*
X16647118Y4673819D01*
X16647202Y4673653D01*
X16647366Y4673445D01*
X16647575Y4673111D01*
X16647826Y4672736D01*
X16648117Y4672237D01*
X16648409Y4671695D01*
X16648700Y4671029D01*
X16648991Y4670320D01*
X16649283Y4669571D01*
X16649574Y4668737D01*
X16649825Y4667821D01*
X16650034Y4666863D01*
X16650200Y4665863D01*
X16650282Y4664822D01*
X16650325Y4663697D01*
Y4663114D01*
X16650282Y4662656D01*
X16650243Y4662156D01*
X16650200Y4661531D01*
X16650117Y4660864D01*
X16649992Y4660115D01*
X16649867Y4659323D01*
X16649699Y4658490D01*
X16649492Y4657657D01*
X16649283Y4656824D01*
X16648991Y4655949D01*
X16648659Y4655116D01*
X16648283Y4654324D01*
X16647826Y4653575D01*
X16647784Y4653533D01*
X16647701Y4653408D01*
X16647575Y4653200D01*
X16647366Y4652950D01*
X16647076Y4652617D01*
X16646783Y4652242D01*
X16646410Y4651825D01*
X16645950Y4651367D01*
X16645451Y4650909D01*
X16644910Y4650409D01*
X16644325Y4649951D01*
X16643660Y4649451D01*
X16642952Y4648951D01*
X16642203Y4648493D01*
X16641370Y4648076D01*
X16640494Y4647659D01*
X16640453Y4647618D01*
X16640286Y4647576D01*
X16639993Y4647493D01*
X16639661Y4647368D01*
X16639203Y4647201D01*
X16638702Y4647035D01*
X16638078Y4646868D01*
X16637411Y4646660D01*
X16636662Y4646493D01*
X16635870Y4646285D01*
X16635037Y4646118D01*
X16634122Y4645993D01*
X16632204Y4645743D01*
X16631206Y4645702D01*
X16630205Y4645660D01*
X16630122D01*
X16629955D01*
X16629622D01*
X16629205Y4645702D01*
X16628664Y4645743D01*
X16628040Y4645785D01*
X16627373Y4645868D01*
X16626624Y4645952D01*
X16625832Y4646077D01*
X16624998Y4646202D01*
X16623207Y4646618D01*
X16622331Y4646910D01*
X16621457Y4647201D01*
X16620541Y4647535D01*
X16619708Y4647951D01*
X16619666Y4647993D01*
X16619499Y4648076D01*
X16619292Y4648201D01*
X16618958Y4648368D01*
X16618584Y4648618D01*
X16618166Y4648909D01*
X16617708Y4649242D01*
X16617168Y4649617D01*
X16616667Y4650076D01*
X16616084Y4650534D01*
X16615543Y4651075D01*
X16614960Y4651658D01*
X16614417Y4652283D01*
X16613876Y4652950D01*
X16613376Y4653700D01*
X16612918Y4654449D01*
X16612875Y4654491D01*
X16612834Y4654658D01*
X16612709Y4654866D01*
X16612543Y4655199D01*
X16612376Y4655574D01*
X16612167Y4656074D01*
X16611960Y4656616D01*
X16611751Y4657199D01*
X16611543Y4657865D01*
X16611336Y4658615D01*
X16611127Y4659365D01*
X16610960Y4660198D01*
X16610667Y4661906D01*
X16610628Y4662822D01*
X16610585Y4663780D01*
Y4664322D01*
X16610628Y4664738D01*
X16610667Y4665238D01*
X16610751Y4665822D01*
X16610835Y4666446D01*
X16610960Y4667154D01*
X16611127Y4667904D01*
X16611293Y4668696D01*
X16611543Y4669487D01*
X16611835Y4670320D01*
X16612167Y4671153D01*
X16612585Y4671945D01*
X16613000Y4672736D01*
X16613544Y4673486D01*
X16613583Y4673528D01*
X16613667Y4673653D01*
X16613834Y4673861D01*
X16614084Y4674111D01*
X16614375Y4674444D01*
X16614751Y4674819D01*
X16615167Y4675194D01*
X16615668Y4675652D01*
X16616209Y4676111D01*
X16616833Y4676569D01*
X16617500Y4677027D01*
X16618250Y4677444D01*
X16619041Y4677902D01*
X16619916Y4678277D01*
X16620831Y4678652D01*
X16621790Y4678985D01*
X16622957Y4673986D01*
X16622916D01*
X16622791Y4673903D01*
X16622540Y4673861D01*
X16622249Y4673736D01*
X16621915Y4673611D01*
X16621541Y4673403D01*
X16620624Y4672986D01*
X16619624Y4672445D01*
X16618584Y4671737D01*
X16617625Y4670987D01*
X16617207Y4670529D01*
X16616833Y4670070D01*
X16616792Y4670029D01*
X16616750Y4669945D01*
X16616667Y4669820D01*
X16616542Y4669612D01*
X16616376Y4669362D01*
X16616209Y4669071D01*
X16616042Y4668737D01*
X16615875Y4668321D01*
X16615709Y4667863D01*
X16615543Y4667404D01*
X16615208Y4666321D01*
X16615001Y4665072D01*
X16614917Y4664405D01*
Y4663280D01*
X16614960Y4662947D01*
X16615001Y4662572D01*
X16615042Y4662114D01*
X16615083Y4661614D01*
X16615167Y4661114D01*
X16615459Y4659906D01*
X16615834Y4658657D01*
X16616084Y4658032D01*
X16616376Y4657407D01*
X16616708Y4656824D01*
X16617084Y4656241D01*
X16617125Y4656199D01*
X16617168Y4656116D01*
X16617291Y4655949D01*
X16617458Y4655741D01*
X16617667Y4655532D01*
X16617958Y4655241D01*
X16618250Y4654949D01*
X16618584Y4654616D01*
X16619000Y4654283D01*
X16619415Y4653908D01*
X16620374Y4653241D01*
X16621500Y4652617D01*
X16622791Y4652075D01*
X16622832D01*
X16622957Y4652033D01*
X16623164Y4651950D01*
X16623415Y4651908D01*
X16623747Y4651825D01*
X16624123Y4651700D01*
X16624580Y4651617D01*
X16625040Y4651492D01*
X16625581Y4651367D01*
X16626164Y4651284D01*
X16627414Y4651075D01*
X16628748Y4650950D01*
X16630164Y4650909D01*
X16630205D01*
X16630373D01*
X16630621D01*
X16630997Y4650950D01*
X16631413D01*
X16631914Y4650992D01*
X16632454Y4651034D01*
X16633080Y4651075D01*
X16633746Y4651159D01*
X16634412Y4651242D01*
X16635870Y4651492D01*
X16637328Y4651867D01*
X16638744Y4652325D01*
X16638786D01*
X16638911Y4652408D01*
X16639078Y4652492D01*
X16639328Y4652575D01*
X16639661Y4652742D01*
X16639993Y4652950D01*
X16640787Y4653408D01*
X16641702Y4654033D01*
X16642577Y4654783D01*
X16643452Y4655699D01*
X16643826Y4656199D01*
X16644202Y4656740D01*
Y4656782D01*
X16644286Y4656865D01*
X16644368Y4657032D01*
X16644493Y4657282D01*
X16644618Y4657574D01*
X16644785Y4657907D01*
X16644910Y4658282D01*
X16645076Y4658698D01*
X16645409Y4659656D01*
X16645702Y4660781D01*
X16645909Y4661989D01*
X16645950Y4662614D01*
X16645993Y4663280D01*
Y4663697D01*
X16645950Y4663989D01*
X16645909Y4664364D01*
X16645868Y4664780D01*
X16645784Y4665280D01*
X16645702Y4665780D01*
X16645409Y4666946D01*
X16645201Y4667529D01*
X16644951Y4668154D01*
X16644659Y4668779D01*
X16644325Y4669362D01*
X16643951Y4669945D01*
X16643535Y4670529D01*
X16643494Y4670570D01*
X16643410Y4670654D01*
X16643285Y4670820D01*
X16643077Y4671029D01*
X16642827Y4671237D01*
X16642494Y4671528D01*
X16642119Y4671820D01*
X16641702Y4672153D01*
X16641202Y4672486D01*
X16640662Y4672820D01*
X16640077Y4673153D01*
X16639410Y4673486D01*
X16638702Y4673778D01*
X16637910Y4674069D01*
X16637077Y4674361D01*
X16636203Y4674569D01*
X16637495Y4679651D01*
X16637578D01*
X16637785Y4679568D01*
D02*
G37*
G36*
X16436070Y2822565D02*
X16436404D01*
X16436862Y2822523D01*
X16437363Y2822440D01*
X16437904Y2822357D01*
X16438528Y2822232D01*
X16439195Y2822065D01*
X16439861Y2821857D01*
X16440570Y2821648D01*
X16441278Y2821357D01*
X16441986Y2820982D01*
X16442651Y2820607D01*
X16443361Y2820149D01*
X16443985Y2819607D01*
X16444028Y2819566D01*
X16444110Y2819482D01*
X16444276Y2819316D01*
X16444527Y2819066D01*
X16444777Y2818774D01*
X16445068Y2818399D01*
X16445360Y2817983D01*
X16445692Y2817483D01*
X16446027Y2816983D01*
X16446359Y2816358D01*
X16446693Y2815733D01*
X16446985Y2815025D01*
X16447235Y2814275D01*
X16447485Y2813484D01*
X16447652Y2812651D01*
X16447775Y2811776D01*
X16443069Y2811151D01*
Y2811193D01*
X16443027Y2811318D01*
X16442986Y2811526D01*
X16442902Y2811818D01*
X16442819Y2812151D01*
X16442735Y2812526D01*
X16442444Y2813401D01*
X16442068Y2814359D01*
X16441611Y2815317D01*
X16441028Y2816191D01*
X16440695Y2816566D01*
X16440361Y2816941D01*
X16440320D01*
X16440279Y2817025D01*
X16440154Y2817108D01*
X16440028Y2817233D01*
X16439612Y2817483D01*
X16439027Y2817816D01*
X16438319Y2818149D01*
X16437529Y2818399D01*
X16436571Y2818608D01*
X16435571Y2818691D01*
X16435239D01*
X16434988Y2818649D01*
X16434738Y2818608D01*
X16434363Y2818566D01*
X16433614Y2818399D01*
X16432697Y2818149D01*
X16431738Y2817733D01*
X16431281Y2817441D01*
X16430823Y2817150D01*
X16430363Y2816816D01*
X16429906Y2816400D01*
X16429865Y2816358D01*
X16429822Y2816275D01*
X16429697Y2816150D01*
X16429530Y2815983D01*
X16429364Y2815775D01*
X16429198Y2815483D01*
X16428989Y2815192D01*
X16428738Y2814817D01*
X16428323Y2813984D01*
X16427989Y2813026D01*
X16427698Y2811901D01*
X16427657Y2811318D01*
X16427615Y2810693D01*
Y2810651D01*
Y2810568D01*
Y2810360D01*
X16427657Y2810151D01*
X16427698Y2809860D01*
X16427740Y2809568D01*
X16427866Y2808818D01*
X16428156Y2807944D01*
X16428531Y2807069D01*
X16428781Y2806611D01*
X16429073Y2806194D01*
X16429407Y2805777D01*
X16429781Y2805361D01*
X16429822Y2805319D01*
X16429865Y2805278D01*
X16429990Y2805153D01*
X16430156Y2805028D01*
X16430363Y2804861D01*
X16430614Y2804694D01*
X16431239Y2804278D01*
X16432030Y2803903D01*
X16432947Y2803570D01*
X16433987Y2803320D01*
X16434570Y2803278D01*
X16435155Y2803236D01*
X16435403D01*
X16435696Y2803278D01*
X16436070D01*
X16436571Y2803361D01*
X16437112Y2803445D01*
X16437779Y2803570D01*
X16438487Y2803736D01*
X16437987Y2799612D01*
X16437904D01*
X16437695Y2799654D01*
X16437445Y2799696D01*
X16436903D01*
X16436696Y2799654D01*
X16436404D01*
X16436111Y2799612D01*
X16435403Y2799487D01*
X16434570Y2799321D01*
X16433655Y2799029D01*
X16432697Y2798654D01*
X16431779Y2798113D01*
X16431738D01*
X16431654Y2798029D01*
X16431572Y2797946D01*
X16431406Y2797821D01*
X16430989Y2797446D01*
X16430531Y2796905D01*
X16430115Y2796238D01*
X16429697Y2795405D01*
X16429530Y2794947D01*
X16429446Y2794405D01*
X16429364Y2793864D01*
X16429321Y2793281D01*
Y2793239D01*
Y2793156D01*
Y2793031D01*
X16429364Y2792822D01*
X16429407Y2792364D01*
X16429530Y2791739D01*
X16429739Y2791073D01*
X16430072Y2790365D01*
X16430531Y2789615D01*
X16430780Y2789282D01*
X16431114Y2788948D01*
X16431197Y2788865D01*
X16431447Y2788699D01*
X16431822Y2788407D01*
X16432323Y2788074D01*
X16432988Y2787782D01*
X16433780Y2787490D01*
X16434654Y2787324D01*
X16435654Y2787241D01*
X16435904D01*
X16436111Y2787282D01*
X16436362D01*
X16436612Y2787324D01*
X16437279Y2787449D01*
X16437987Y2787657D01*
X16438779Y2787990D01*
X16439528Y2788407D01*
X16440279Y2788990D01*
X16440361Y2789073D01*
X16440570Y2789323D01*
X16440903Y2789698D01*
X16441235Y2790281D01*
X16441653Y2790990D01*
X16442027Y2791906D01*
X16442361Y2792947D01*
X16442612Y2794155D01*
X16447318Y2793322D01*
Y2793281D01*
X16447276Y2793114D01*
X16447235Y2792864D01*
X16447151Y2792531D01*
X16447026Y2792156D01*
X16446901Y2791698D01*
X16446735Y2791198D01*
X16446526Y2790656D01*
X16445985Y2789448D01*
X16445692Y2788865D01*
X16445319Y2788240D01*
X16444902Y2787657D01*
X16444444Y2787074D01*
X16443944Y2786491D01*
X16443402Y2785991D01*
X16443361Y2785949D01*
X16443277Y2785866D01*
X16443069Y2785741D01*
X16442860Y2785574D01*
X16442526Y2785366D01*
X16442194Y2785158D01*
X16441779Y2784908D01*
X16441278Y2784658D01*
X16440778Y2784450D01*
X16440195Y2784200D01*
X16439571Y2783991D01*
X16438902Y2783783D01*
X16438155Y2783616D01*
X16437404Y2783492D01*
X16436612Y2783408D01*
X16435779Y2783367D01*
X16435239D01*
X16434946Y2783408D01*
X16434654Y2783450D01*
X16433862Y2783533D01*
X16432988Y2783700D01*
X16431989Y2783950D01*
X16430989Y2784283D01*
X16429990Y2784741D01*
X16429947D01*
X16429865Y2784783D01*
X16429739Y2784866D01*
X16429530Y2784991D01*
X16429073Y2785283D01*
X16428490Y2785699D01*
X16427823Y2786241D01*
X16427156Y2786866D01*
X16426489Y2787574D01*
X16425906Y2788407D01*
Y2788449D01*
X16425865Y2788490D01*
X16425781Y2788657D01*
X16425697Y2788823D01*
X16425574Y2789032D01*
X16425449Y2789282D01*
X16425198Y2789907D01*
X16424950Y2790656D01*
X16424699Y2791489D01*
X16424532Y2792406D01*
X16424490Y2793364D01*
Y2793406D01*
Y2793489D01*
Y2793614D01*
Y2793781D01*
X16424574Y2794280D01*
X16424657Y2794864D01*
X16424825Y2795572D01*
X16425073Y2796322D01*
X16425407Y2797113D01*
X16425865Y2797904D01*
Y2797946D01*
X16425906Y2797988D01*
X16426115Y2798238D01*
X16426407Y2798613D01*
X16426865Y2799071D01*
X16427406Y2799612D01*
X16428114Y2800154D01*
X16428906Y2800654D01*
X16429822Y2801154D01*
X16429781D01*
X16429655Y2801195D01*
X16429489Y2801237D01*
X16429239Y2801320D01*
X16428989Y2801404D01*
X16428656Y2801529D01*
X16427866Y2801862D01*
X16427031Y2802320D01*
X16426157Y2802862D01*
X16425282Y2803570D01*
X16424532Y2804444D01*
X16424490Y2804486D01*
X16424449Y2804569D01*
X16424365Y2804694D01*
X16424240Y2804903D01*
X16424074Y2805111D01*
X16423907Y2805403D01*
X16423741Y2805736D01*
X16423573Y2806152D01*
X16423407Y2806569D01*
X16423241Y2807027D01*
X16422906Y2808069D01*
X16422699Y2809277D01*
X16422617Y2809943D01*
Y2810610D01*
Y2810651D01*
Y2810818D01*
X16422658Y2811109D01*
Y2811443D01*
X16422742Y2811901D01*
X16422824Y2812401D01*
X16422906Y2812942D01*
X16423074Y2813567D01*
X16423282Y2814234D01*
X16423532Y2814900D01*
X16423824Y2815608D01*
X16424199Y2816316D01*
X16424615Y2817066D01*
X16425114Y2817774D01*
X16425658Y2818483D01*
X16426323Y2819149D01*
X16426366Y2819191D01*
X16426489Y2819316D01*
X16426698Y2819482D01*
X16426990Y2819691D01*
X16427322Y2819941D01*
X16427782Y2820232D01*
X16428281Y2820565D01*
X16428864Y2820857D01*
X16429489Y2821190D01*
X16430197Y2821523D01*
X16430946Y2821815D01*
X16431779Y2822065D01*
X16432655Y2822273D01*
X16433571Y2822440D01*
X16434529Y2822565D01*
X16435571Y2822606D01*
X16435779D01*
X16436070Y2822565D01*
D02*
G37*
G36*
X16484599Y2783492D02*
X16466730D01*
X16466270Y2783533D01*
X16465813D01*
X16465273Y2783575D01*
X16464647Y2783616D01*
X16463397Y2783741D01*
X16462106Y2783950D01*
X16460857Y2784200D01*
X16460315Y2784366D01*
X16459773Y2784533D01*
X16459731D01*
X16459648Y2784575D01*
X16459523Y2784658D01*
X16459315Y2784741D01*
X16458815Y2784991D01*
X16458232Y2785366D01*
X16457524Y2785866D01*
X16456815Y2786532D01*
X16456107Y2787282D01*
X16455482Y2788199D01*
Y2788240D01*
X16455399Y2788324D01*
X16455316Y2788449D01*
X16455232Y2788657D01*
X16455109Y2788907D01*
X16454984Y2789198D01*
X16454816Y2789532D01*
X16454649Y2789907D01*
X16454358Y2790781D01*
X16454108Y2791739D01*
X16453941Y2792822D01*
X16453857Y2793989D01*
Y2794030D01*
Y2794155D01*
Y2794405D01*
X16453900Y2794655D01*
X16453941Y2795030D01*
X16453983Y2795447D01*
X16454066Y2795905D01*
X16454192Y2796405D01*
X16454524Y2797488D01*
X16454733Y2798071D01*
X16454984Y2798654D01*
X16455273Y2799237D01*
X16455649Y2799821D01*
X16456065Y2800362D01*
X16456525Y2800904D01*
X16456566Y2800945D01*
X16456648Y2801029D01*
X16456815Y2801154D01*
X16457024Y2801362D01*
X16457315Y2801570D01*
X16457649Y2801820D01*
X16458064Y2802112D01*
X16458565Y2802403D01*
X16459106Y2802695D01*
X16459689Y2802987D01*
X16460356Y2803278D01*
X16461105Y2803570D01*
X16461897Y2803820D01*
X16462772Y2804070D01*
X16463730Y2804278D01*
X16464729Y2804444D01*
X16464688D01*
X16464647Y2804486D01*
X16464397Y2804611D01*
X16464021Y2804819D01*
X16463564Y2805069D01*
X16463065Y2805361D01*
X16462564Y2805653D01*
X16462064Y2806027D01*
X16461649Y2806361D01*
X16461606Y2806402D01*
X16461565Y2806444D01*
X16461440Y2806569D01*
X16461273Y2806736D01*
X16461064Y2806944D01*
X16460814Y2807194D01*
X16460274Y2807777D01*
X16459648Y2808527D01*
X16458940Y2809402D01*
X16458189Y2810401D01*
X16457440Y2811484D01*
X16450775Y2821940D01*
X16457149D01*
X16462231Y2813942D01*
X16462273Y2813900D01*
X16462314Y2813775D01*
X16462439Y2813609D01*
X16462605Y2813359D01*
X16462772Y2813067D01*
X16463022Y2812734D01*
X16463522Y2811984D01*
X16464105Y2811109D01*
X16464688Y2810235D01*
X16465314Y2809402D01*
X16465897Y2808652D01*
Y2808610D01*
X16465981Y2808568D01*
X16466145Y2808360D01*
X16466396Y2808027D01*
X16466771Y2807652D01*
X16467146Y2807235D01*
X16467604Y2806819D01*
X16468063Y2806402D01*
X16468478Y2806111D01*
X16468521Y2806069D01*
X16468687Y2805986D01*
X16468896Y2805861D01*
X16469186Y2805694D01*
X16469562Y2805528D01*
X16469937Y2805361D01*
X16470354Y2805194D01*
X16470811Y2805069D01*
X16470854D01*
X16470978Y2805028D01*
X16471187Y2804986D01*
X16471478Y2804944D01*
X16471895D01*
X16472395Y2804903D01*
X16472978Y2804861D01*
X16479518D01*
Y2821940D01*
X16484599D01*
Y2783492D01*
D02*
G37*
G36*
X16275009Y4815840D02*
X16270302D01*
Y4845874D01*
X16270219Y4845791D01*
X16270010Y4845582D01*
X16269637Y4845291D01*
X16269093Y4844874D01*
X16268469Y4844374D01*
X16267677Y4843833D01*
X16266803Y4843250D01*
X16265804Y4842625D01*
X16265762D01*
X16265678Y4842541D01*
X16265553Y4842458D01*
X16265344Y4842375D01*
X16265096Y4842208D01*
X16264804Y4842083D01*
X16264137Y4841708D01*
X16263387Y4841333D01*
X16262553Y4840917D01*
X16261679Y4840542D01*
X16260846Y4840209D01*
Y4844749D01*
X16260889Y4844791D01*
X16261012Y4844833D01*
X16261221Y4844958D01*
X16261513Y4845083D01*
X16261845Y4845249D01*
X16262263Y4845499D01*
X16262721Y4845749D01*
X16263179Y4845999D01*
X16264262Y4846665D01*
X16265428Y4847457D01*
X16266637Y4848290D01*
X16267761Y4849248D01*
X16267802Y4849290D01*
X16267886Y4849373D01*
X16268053Y4849498D01*
X16268262Y4849706D01*
X16268469Y4849956D01*
X16268761Y4850206D01*
X16269386Y4850914D01*
X16270094Y4851664D01*
X16270802Y4852539D01*
X16271426Y4853455D01*
X16271968Y4854413D01*
X16275009D01*
Y4815840D01*
D02*
G37*
G36*
X16238770Y4854247D02*
X16239227D01*
X16239767Y4854205D01*
X16240393Y4854164D01*
X16241643Y4854039D01*
X16242934Y4853830D01*
X16244183Y4853580D01*
X16244725Y4853414D01*
X16245267Y4853247D01*
X16245309D01*
X16245392Y4853205D01*
X16245517Y4853122D01*
X16245724Y4853039D01*
X16246225Y4852789D01*
X16246808Y4852414D01*
X16247516Y4851914D01*
X16248225Y4851248D01*
X16248933Y4850498D01*
X16249557Y4849581D01*
Y4849540D01*
X16249641Y4849456D01*
X16249724Y4849331D01*
X16249808Y4849123D01*
X16249931Y4848873D01*
X16250056Y4848582D01*
X16250224Y4848248D01*
X16250391Y4847873D01*
X16250682Y4846999D01*
X16250932Y4846041D01*
X16251099Y4844958D01*
X16251183Y4843791D01*
Y4843750D01*
Y4843625D01*
Y4843375D01*
X16251140Y4843125D01*
X16251099Y4842750D01*
X16251057Y4842333D01*
X16250974Y4841875D01*
X16250848Y4841375D01*
X16250516Y4840292D01*
X16250307Y4839709D01*
X16250056Y4839126D01*
X16249767Y4838543D01*
X16249391Y4837959D01*
X16248975Y4837418D01*
X16248515Y4836876D01*
X16248474Y4836835D01*
X16248392Y4836751D01*
X16248225Y4836626D01*
X16248016Y4836418D01*
X16247725Y4836210D01*
X16247391Y4835960D01*
X16246976Y4835668D01*
X16246475Y4835377D01*
X16245934Y4835085D01*
X16245351Y4834793D01*
X16244684Y4834502D01*
X16243935Y4834210D01*
X16243143Y4833960D01*
X16242268Y4833710D01*
X16241310Y4833502D01*
X16240311Y4833336D01*
X16240352D01*
X16240393Y4833294D01*
X16240643Y4833169D01*
X16241019Y4832961D01*
X16241476Y4832711D01*
X16241975Y4832419D01*
X16242476Y4832127D01*
X16242976Y4831753D01*
X16243391Y4831419D01*
X16243434Y4831378D01*
X16243475Y4831336D01*
X16243600Y4831211D01*
X16243767Y4831044D01*
X16243976Y4830836D01*
X16244226Y4830586D01*
X16244768Y4830003D01*
X16245392Y4829253D01*
X16246100Y4828378D01*
X16246851Y4827379D01*
X16247600Y4826296D01*
X16254265Y4815840D01*
X16247891D01*
X16242809Y4823838D01*
X16242767Y4823880D01*
X16242726Y4824005D01*
X16242601Y4824171D01*
X16242435Y4824421D01*
X16242268Y4824713D01*
X16242018Y4825046D01*
X16241518Y4825796D01*
X16240935Y4826671D01*
X16240352Y4827545D01*
X16239726Y4828378D01*
X16239143Y4829128D01*
Y4829170D01*
X16239059Y4829212D01*
X16238895Y4829420D01*
X16238644Y4829753D01*
X16238269Y4830128D01*
X16237894Y4830545D01*
X16237436Y4830961D01*
X16236977Y4831378D01*
X16236562Y4831669D01*
X16236519Y4831711D01*
X16236353Y4831794D01*
X16236143Y4831919D01*
X16235854Y4832086D01*
X16235478Y4832252D01*
X16235103Y4832419D01*
X16234686Y4832586D01*
X16234229Y4832711D01*
X16234186D01*
X16234062Y4832752D01*
X16233853Y4832794D01*
X16233562Y4832836D01*
X16233145D01*
X16232645Y4832877D01*
X16232062Y4832919D01*
X16225522D01*
Y4815840D01*
X16220441D01*
Y4854288D01*
X16238310D01*
X16238770Y4854247D01*
D02*
G37*
G36*
X16300420Y4854372D02*
X16300711Y4854330D01*
X16301460Y4854247D01*
X16302293Y4854122D01*
X16303210Y4853872D01*
X16304128Y4853580D01*
X16305043Y4853164D01*
X16305086D01*
X16305168Y4853122D01*
X16305293Y4853039D01*
X16305460Y4852914D01*
X16305876Y4852664D01*
X16306418Y4852247D01*
X16307043Y4851747D01*
X16307668Y4851123D01*
X16308334Y4850373D01*
X16308917Y4849540D01*
Y4849498D01*
X16309001Y4849415D01*
X16309042Y4849290D01*
X16309167Y4849123D01*
X16309293Y4848915D01*
X16309459Y4848623D01*
X16309584Y4848290D01*
X16309792Y4847957D01*
X16310167Y4847124D01*
X16310542Y4846166D01*
X16310957Y4845041D01*
X16311292Y4843833D01*
Y4843791D01*
X16311333Y4843666D01*
X16311375Y4843500D01*
X16311417Y4843208D01*
X16311501Y4842875D01*
X16311583Y4842458D01*
X16311667Y4842000D01*
X16311749Y4841458D01*
X16311792Y4840834D01*
X16311874Y4840167D01*
X16311958Y4839417D01*
X16312042Y4838626D01*
X16312083Y4837751D01*
X16312125Y4836835D01*
X16312167Y4835835D01*
Y4834793D01*
Y4834710D01*
Y4834502D01*
Y4834127D01*
Y4833669D01*
X16312125Y4833086D01*
X16312083Y4832461D01*
X16312042Y4831711D01*
X16312000Y4830919D01*
X16311917Y4830045D01*
X16311833Y4829170D01*
X16311583Y4827337D01*
X16311208Y4825546D01*
X16311000Y4824671D01*
X16310750Y4823880D01*
Y4823838D01*
X16310667Y4823713D01*
X16310625Y4823463D01*
X16310500Y4823213D01*
X16310333Y4822838D01*
X16310167Y4822463D01*
X16309959Y4822005D01*
X16309709Y4821505D01*
X16309126Y4820464D01*
X16308417Y4819422D01*
X16307584Y4818381D01*
X16307085Y4817923D01*
X16306586Y4817465D01*
X16306543Y4817423D01*
X16306461Y4817381D01*
X16306293Y4817256D01*
X16306085Y4817131D01*
X16305835Y4816965D01*
X16305502Y4816756D01*
X16305127Y4816548D01*
X16304668Y4816340D01*
X16304210Y4816132D01*
X16303670Y4815923D01*
X16303127Y4815757D01*
X16302502Y4815548D01*
X16301836Y4815423D01*
X16301128Y4815298D01*
X16300420Y4815257D01*
X16299628Y4815215D01*
X16299377D01*
X16299088Y4815257D01*
X16298712Y4815298D01*
X16298253Y4815340D01*
X16297713Y4815423D01*
X16297128Y4815548D01*
X16296461Y4815715D01*
X16295796Y4815923D01*
X16295088Y4816173D01*
X16294337Y4816506D01*
X16293629Y4816881D01*
X16292921Y4817340D01*
X16292213Y4817881D01*
X16291547Y4818464D01*
X16290923Y4819172D01*
X16290880Y4819214D01*
X16290755Y4819381D01*
X16290588Y4819672D01*
X16290340Y4820089D01*
X16290047Y4820630D01*
X16289714Y4821255D01*
X16289381Y4822047D01*
X16289047Y4822922D01*
X16288673Y4823963D01*
X16288339Y4825088D01*
X16288007Y4826379D01*
X16287714Y4827795D01*
X16287465Y4829337D01*
X16287299Y4831003D01*
X16287173Y4832836D01*
X16287131Y4834793D01*
Y4834877D01*
Y4835085D01*
Y4835460D01*
X16287173Y4835918D01*
Y4836501D01*
X16287215Y4837168D01*
X16287256Y4837918D01*
X16287299Y4838709D01*
X16287381Y4839584D01*
X16287465Y4840459D01*
X16287714Y4842292D01*
X16288048Y4844083D01*
X16288255Y4844958D01*
X16288506Y4845749D01*
Y4845791D01*
X16288589Y4845916D01*
X16288673Y4846166D01*
X16288756Y4846457D01*
X16288922Y4846790D01*
X16289088Y4847207D01*
X16289297Y4847624D01*
X16289548Y4848123D01*
X16290131Y4849165D01*
X16290880Y4850206D01*
X16291713Y4851248D01*
X16292172Y4851706D01*
X16292673Y4852164D01*
X16292712Y4852206D01*
X16292796Y4852247D01*
X16292963Y4852372D01*
X16293172Y4852497D01*
X16293420Y4852706D01*
X16293755Y4852872D01*
X16294128Y4853080D01*
X16294588Y4853289D01*
X16295045Y4853497D01*
X16295587Y4853705D01*
X16296172Y4853914D01*
X16296754Y4854080D01*
X16297420Y4854205D01*
X16298128Y4854330D01*
X16298878Y4854372D01*
X16299628Y4854413D01*
X16300128D01*
X16300420Y4854372D01*
D02*
G37*
G36*
X17310448Y5295810D02*
X17310406Y5295351D01*
Y5294893D01*
X17310365Y5294352D01*
X17310324Y5293727D01*
X17310199Y5292477D01*
X17309990Y5291186D01*
X17309740Y5289936D01*
X17309573Y5289395D01*
X17309407Y5288853D01*
Y5288811D01*
X17309364Y5288728D01*
X17309282Y5288603D01*
X17309200Y5288395D01*
X17308949Y5287895D01*
X17308574Y5287312D01*
X17308073Y5286604D01*
X17307408Y5285895D01*
X17306657Y5285187D01*
X17305740Y5284562D01*
X17305701D01*
X17305617Y5284479D01*
X17305492Y5284396D01*
X17305283Y5284313D01*
X17305032Y5284188D01*
X17304742Y5284063D01*
X17304408Y5283896D01*
X17304033Y5283729D01*
X17303159Y5283438D01*
X17302200Y5283188D01*
X17301118Y5283021D01*
X17299951Y5282938D01*
X17299910D01*
X17299785D01*
X17299535D01*
X17299284Y5282980D01*
X17298911Y5283021D01*
X17298492Y5283063D01*
X17298035Y5283146D01*
X17297536Y5283271D01*
X17296452Y5283604D01*
X17295869Y5283813D01*
X17295287Y5284063D01*
X17294704Y5284354D01*
X17294119Y5284729D01*
X17293578Y5285146D01*
X17293036Y5285604D01*
X17292995Y5285646D01*
X17292911Y5285729D01*
X17292786Y5285895D01*
X17292578Y5286104D01*
X17292371Y5286395D01*
X17292120Y5286729D01*
X17291827Y5287145D01*
X17291537Y5287645D01*
X17291245Y5288187D01*
X17290953Y5288770D01*
X17290662Y5289436D01*
X17290370Y5290186D01*
X17290120Y5290977D01*
X17289870Y5291852D01*
X17289662Y5292810D01*
X17289496Y5293810D01*
Y5293768D01*
X17289455Y5293727D01*
X17289330Y5293477D01*
X17289120Y5293102D01*
X17288870Y5292644D01*
X17288579Y5292144D01*
X17288287Y5291644D01*
X17287914Y5291144D01*
X17287579Y5290728D01*
X17287538Y5290686D01*
X17287495Y5290644D01*
X17287370Y5290519D01*
X17287204Y5290353D01*
X17286996Y5290144D01*
X17286746Y5289894D01*
X17286163Y5289353D01*
X17285413Y5288728D01*
X17284538Y5288020D01*
X17283539Y5287270D01*
X17282455Y5286520D01*
X17272000Y5279855D01*
Y5286229D01*
X17279997Y5291311D01*
X17280040Y5291352D01*
X17280165Y5291394D01*
X17280331Y5291519D01*
X17280582Y5291686D01*
X17280873Y5291852D01*
X17281206Y5292102D01*
X17281956Y5292602D01*
X17282831Y5293185D01*
X17283705Y5293768D01*
X17284538Y5294393D01*
X17285287Y5294976D01*
X17285330D01*
X17285371Y5295060D01*
X17285580Y5295226D01*
X17285913Y5295476D01*
X17286288Y5295851D01*
X17286705Y5296226D01*
X17287122Y5296684D01*
X17287538Y5297143D01*
X17287830Y5297559D01*
X17287871Y5297601D01*
X17287955Y5297767D01*
X17288078Y5297976D01*
X17288246Y5298267D01*
X17288412Y5298642D01*
X17288579Y5299017D01*
X17288747Y5299434D01*
X17288870Y5299892D01*
Y5299934D01*
X17288911Y5300058D01*
X17288954Y5300267D01*
X17288995Y5300558D01*
Y5300975D01*
X17289037Y5301475D01*
X17289079Y5302058D01*
Y5308598D01*
X17272000D01*
Y5313680D01*
X17310448D01*
Y5295810D01*
D02*
G37*
G36*
X17300951Y5273232D02*
X17300993Y5273107D01*
X17301118Y5272899D01*
X17301244Y5272607D01*
X17301408Y5272274D01*
X17301659Y5271857D01*
X17301909Y5271399D01*
X17302159Y5270941D01*
X17302824Y5269858D01*
X17303616Y5268692D01*
X17304449Y5267483D01*
X17305408Y5266359D01*
X17305450Y5266317D01*
X17305533Y5266234D01*
X17305658Y5266067D01*
X17305865Y5265859D01*
X17306116Y5265651D01*
X17306366Y5265359D01*
X17307074Y5264734D01*
X17307825Y5264026D01*
X17308699Y5263318D01*
X17309615Y5262693D01*
X17310573Y5262152D01*
Y5259111D01*
X17272000D01*
Y5263818D01*
X17302034D01*
X17301952Y5263901D01*
X17301743Y5264109D01*
X17301451Y5264484D01*
X17301035Y5265026D01*
X17300534Y5265651D01*
X17299992Y5266442D01*
X17299409Y5267317D01*
X17298785Y5268317D01*
Y5268358D01*
X17298701Y5268442D01*
X17298618Y5268567D01*
X17298535Y5268775D01*
X17298367Y5269025D01*
X17298244Y5269316D01*
X17297868Y5269983D01*
X17297493Y5270733D01*
X17297076Y5271566D01*
X17296703Y5272441D01*
X17296368Y5273274D01*
X17300909D01*
X17300951Y5273232D01*
D02*
G37*
G36*
Y5243365D02*
X17300993Y5243240D01*
X17301118Y5243031D01*
X17301244Y5242740D01*
X17301408Y5242407D01*
X17301659Y5241990D01*
X17301909Y5241532D01*
X17302159Y5241074D01*
X17302824Y5239991D01*
X17303616Y5238824D01*
X17304449Y5237616D01*
X17305408Y5236491D01*
X17305450Y5236450D01*
X17305533Y5236366D01*
X17305658Y5236200D01*
X17305865Y5235992D01*
X17306116Y5235783D01*
X17306366Y5235492D01*
X17307074Y5234867D01*
X17307825Y5234159D01*
X17308699Y5233451D01*
X17309615Y5232826D01*
X17310573Y5232284D01*
Y5229243D01*
X17272000D01*
Y5233950D01*
X17302034D01*
X17301952Y5234034D01*
X17301743Y5234242D01*
X17301451Y5234617D01*
X17301035Y5235158D01*
X17300534Y5235783D01*
X17299992Y5236575D01*
X17299409Y5237450D01*
X17298785Y5238449D01*
Y5238491D01*
X17298701Y5238574D01*
X17298618Y5238699D01*
X17298535Y5238907D01*
X17298367Y5239157D01*
X17298244Y5239449D01*
X17297868Y5240116D01*
X17297493Y5240865D01*
X17297076Y5241698D01*
X17296703Y5242573D01*
X17296368Y5243406D01*
X17300909D01*
X17300951Y5243365D01*
D02*
G37*
G36*
X15924144Y9004883D02*
X15924644Y9004842D01*
X15925269Y9004800D01*
X15925935Y9004717D01*
X15926685Y9004592D01*
X15927477Y9004467D01*
X15928310Y9004300D01*
X15929143Y9004092D01*
X15929976Y9003883D01*
X15930852Y9003592D01*
X15931683Y9003259D01*
X15932475Y9002884D01*
X15933224Y9002425D01*
X15933267Y9002384D01*
X15933392Y9002301D01*
X15933600Y9002176D01*
X15933850Y9001967D01*
X15934184Y9001676D01*
X15934558Y9001384D01*
X15934975Y9001009D01*
X15935432Y9000551D01*
X15935892Y9000051D01*
X15936391Y8999510D01*
X15936850Y8998926D01*
X15937349Y8998260D01*
X15937849Y8997552D01*
X15938307Y8996802D01*
X15938724Y8995969D01*
X15939140Y8995094D01*
X15939182Y8995052D01*
X15939224Y8994886D01*
X15939307Y8994594D01*
X15939432Y8994261D01*
X15939600Y8993803D01*
X15939764Y8993303D01*
X15939932Y8992678D01*
X15940140Y8992011D01*
X15940308Y8991262D01*
X15940515Y8990470D01*
X15940681Y8989637D01*
X15940807Y8988721D01*
X15941057Y8986804D01*
X15941098Y8985805D01*
X15941141Y8984805D01*
Y8984722D01*
Y8984555D01*
Y8984222D01*
X15941098Y8983805D01*
X15941057Y8983264D01*
X15941016Y8982639D01*
X15940932Y8981972D01*
X15940848Y8981223D01*
X15940724Y8980431D01*
X15940599Y8979598D01*
X15940182Y8977807D01*
X15939890Y8976932D01*
X15939600Y8976057D01*
X15939265Y8975141D01*
X15938849Y8974308D01*
X15938808Y8974266D01*
X15938724Y8974099D01*
X15938599Y8973891D01*
X15938432Y8973558D01*
X15938182Y8973183D01*
X15937891Y8972766D01*
X15937558Y8972308D01*
X15937183Y8971767D01*
X15936725Y8971267D01*
X15936266Y8970684D01*
X15935725Y8970142D01*
X15935143Y8969559D01*
X15934517Y8969017D01*
X15933850Y8968476D01*
X15933099Y8967976D01*
X15932352Y8967518D01*
X15932309Y8967476D01*
X15932143Y8967434D01*
X15931934Y8967309D01*
X15931601Y8967143D01*
X15931226Y8966976D01*
X15930727Y8966768D01*
X15930185Y8966560D01*
X15929601Y8966351D01*
X15928935Y8966143D01*
X15928185Y8965935D01*
X15927435Y8965727D01*
X15926602Y8965560D01*
X15924895Y8965268D01*
X15923978Y8965227D01*
X15923019Y8965185D01*
X15922478D01*
X15922063Y8965227D01*
X15921562Y8965268D01*
X15920979Y8965352D01*
X15920354Y8965435D01*
X15919646Y8965560D01*
X15918896Y8965727D01*
X15918105Y8965893D01*
X15917313Y8966143D01*
X15916479Y8966435D01*
X15915646Y8966768D01*
X15914854Y8967185D01*
X15914064Y8967601D01*
X15913313Y8968143D01*
X15913272Y8968184D01*
X15913147Y8968268D01*
X15912939Y8968434D01*
X15912689Y8968684D01*
X15912357Y8968976D01*
X15911981Y8969351D01*
X15911606Y8969767D01*
X15911148Y8970267D01*
X15910690Y8970809D01*
X15910231Y8971433D01*
X15909773Y8972100D01*
X15909357Y8972850D01*
X15908897Y8973641D01*
X15908524Y8974516D01*
X15908150Y8975432D01*
X15907816Y8976390D01*
X15912814Y8977557D01*
Y8977515D01*
X15912897Y8977390D01*
X15912939Y8977140D01*
X15913065Y8976849D01*
X15913190Y8976515D01*
X15913397Y8976141D01*
X15913814Y8975224D01*
X15914355Y8974224D01*
X15915063Y8973183D01*
X15915813Y8972225D01*
X15916270Y8971808D01*
X15916730Y8971433D01*
X15916771Y8971392D01*
X15916855Y8971350D01*
X15916980Y8971267D01*
X15917188Y8971142D01*
X15917438Y8970975D01*
X15917729Y8970809D01*
X15918063Y8970642D01*
X15918478Y8970475D01*
X15918938Y8970309D01*
X15919395Y8970142D01*
X15920479Y8969809D01*
X15921729Y8969601D01*
X15922395Y8969517D01*
X15923520D01*
X15923853Y8969559D01*
X15924228Y8969601D01*
X15924686Y8969642D01*
X15925186Y8969684D01*
X15925687Y8969767D01*
X15926894Y8970059D01*
X15928143Y8970434D01*
X15928767Y8970684D01*
X15929393Y8970975D01*
X15929976Y8971308D01*
X15930559Y8971683D01*
X15930602Y8971725D01*
X15930684Y8971767D01*
X15930852Y8971892D01*
X15931059Y8972058D01*
X15931268Y8972267D01*
X15931560Y8972558D01*
X15931851Y8972850D01*
X15932184Y8973183D01*
X15932516Y8973600D01*
X15932892Y8974016D01*
X15933559Y8974974D01*
X15934184Y8976099D01*
X15934724Y8977390D01*
Y8977432D01*
X15934767Y8977557D01*
X15934850Y8977765D01*
X15934892Y8978015D01*
X15934975Y8978348D01*
X15935100Y8978723D01*
X15935184Y8979181D01*
X15935307Y8979640D01*
X15935432Y8980181D01*
X15935516Y8980764D01*
X15935725Y8982014D01*
X15935851Y8983347D01*
X15935892Y8984763D01*
Y8984805D01*
Y8984972D01*
Y8985222D01*
X15935851Y8985596D01*
Y8986013D01*
X15935808Y8986513D01*
X15935767Y8987054D01*
X15935725Y8987679D01*
X15935641Y8988346D01*
X15935558Y8989012D01*
X15935307Y8990470D01*
X15934933Y8991928D01*
X15934476Y8993344D01*
Y8993386D01*
X15934392Y8993511D01*
X15934308Y8993678D01*
X15934225Y8993928D01*
X15934059Y8994261D01*
X15933850Y8994594D01*
X15933392Y8995386D01*
X15932767Y8996302D01*
X15932018Y8997177D01*
X15931100Y8998052D01*
X15930602Y8998427D01*
X15930060Y8998801D01*
X15930019D01*
X15929935Y8998885D01*
X15929768Y8998968D01*
X15929518Y8999093D01*
X15929227Y8999218D01*
X15928893Y8999385D01*
X15928519Y8999510D01*
X15928102Y8999676D01*
X15927144Y9000009D01*
X15926019Y9000301D01*
X15924811Y9000509D01*
X15924187Y9000551D01*
X15923520Y9000593D01*
X15923103D01*
X15922810Y9000551D01*
X15922437Y9000509D01*
X15922020Y9000468D01*
X15921519Y9000384D01*
X15921021Y9000301D01*
X15919855Y9000009D01*
X15919270Y8999801D01*
X15918646Y8999551D01*
X15918021Y8999260D01*
X15917438Y8998926D01*
X15916855Y8998551D01*
X15916270Y8998135D01*
X15916229Y8998093D01*
X15916145Y8998010D01*
X15915981Y8997885D01*
X15915771Y8997677D01*
X15915562Y8997427D01*
X15915273Y8997094D01*
X15914980Y8996719D01*
X15914647Y8996302D01*
X15914314Y8995802D01*
X15913980Y8995261D01*
X15913647Y8994677D01*
X15913313Y8994011D01*
X15913022Y8993303D01*
X15912730Y8992511D01*
X15912439Y8991678D01*
X15912231Y8990803D01*
X15907149Y8992095D01*
Y8992178D01*
X15907233Y8992386D01*
X15907315Y8992678D01*
X15907481Y8993136D01*
X15907649Y8993636D01*
X15907899Y8994261D01*
X15908150Y8994927D01*
X15908482Y8995636D01*
X15908858Y8996427D01*
X15909273Y8997177D01*
X15909731Y8998010D01*
X15910274Y8998801D01*
X15910857Y8999551D01*
X15911481Y9000301D01*
X15912189Y9001009D01*
X15912939Y9001676D01*
X15912981Y9001717D01*
X15913147Y9001801D01*
X15913356Y9001967D01*
X15913689Y9002176D01*
X15914064Y9002425D01*
X15914565Y9002717D01*
X15915105Y9003009D01*
X15915771Y9003300D01*
X15916479Y9003592D01*
X15917230Y9003883D01*
X15918063Y9004175D01*
X15918979Y9004425D01*
X15919937Y9004633D01*
X15920937Y9004800D01*
X15921979Y9004883D01*
X15923103Y9004925D01*
X15923686D01*
X15924144Y9004883D01*
D02*
G37*
G36*
X15903441Y9004217D02*
Y9004008D01*
Y9003675D01*
X15903400Y9003259D01*
X15903358Y9002759D01*
X15903233Y9002217D01*
X15903108Y9001634D01*
X15902901Y9001051D01*
Y9001009D01*
X15902858Y9000926D01*
X15902817Y9000801D01*
X15902733Y9000593D01*
X15902608Y9000384D01*
X15902483Y9000093D01*
X15902150Y8999426D01*
X15901733Y8998635D01*
X15901192Y8997760D01*
X15900568Y8996844D01*
X15899817Y8995927D01*
X15899776Y8995885D01*
X15899734Y8995802D01*
X15899609Y8995677D01*
X15899400Y8995469D01*
X15899191Y8995261D01*
X15898901Y8994969D01*
X15898608Y8994636D01*
X15898235Y8994261D01*
X15897818Y8993844D01*
X15897360Y8993428D01*
X15896860Y8992928D01*
X15896277Y8992428D01*
X15895692Y8991887D01*
X15895027Y8991345D01*
X15894360Y8990762D01*
X15893611Y8990137D01*
X15893527Y8990095D01*
X15893320Y8989887D01*
X15893027Y8989637D01*
X15892612Y8989262D01*
X15892111Y8988846D01*
X15891528Y8988346D01*
X15890862Y8987804D01*
X15890195Y8987179D01*
X15888779Y8985888D01*
X15887404Y8984513D01*
X15886737Y8983847D01*
X15886111Y8983180D01*
X15885571Y8982556D01*
X15885114Y8981972D01*
X15885071Y8981931D01*
X15885030Y8981847D01*
X15884904Y8981681D01*
X15884779Y8981473D01*
X15884570Y8981181D01*
X15884406Y8980889D01*
X15883987Y8980140D01*
X15883571Y8979265D01*
X15883197Y8978307D01*
X15882947Y8977307D01*
X15882906Y8976807D01*
X15882863Y8976307D01*
Y8976266D01*
Y8976182D01*
Y8976016D01*
X15882906Y8975849D01*
Y8975599D01*
X15882988Y8975307D01*
X15883113Y8974683D01*
X15883363Y8973933D01*
X15883739Y8973141D01*
X15883946Y8972725D01*
X15884238Y8972350D01*
X15884531Y8971975D01*
X15884904Y8971600D01*
X15884946Y8971558D01*
X15884988Y8971517D01*
X15885114Y8971433D01*
X15885278Y8971308D01*
X15885487Y8971142D01*
X15885738Y8970975D01*
X15886320Y8970600D01*
X15887112Y8970267D01*
X15887987Y8969934D01*
X15889027Y8969726D01*
X15889612Y8969642D01*
X15890527D01*
X15890778Y8969684D01*
X15891071D01*
X15891403Y8969767D01*
X15892152Y8969892D01*
X15893027Y8970142D01*
X15893944Y8970517D01*
X15894402Y8970767D01*
X15894859Y8971017D01*
X15895277Y8971350D01*
X15895692Y8971725D01*
X15895735Y8971767D01*
X15895776Y8971808D01*
X15895860Y8971933D01*
X15896027Y8972100D01*
X15896152Y8972308D01*
X15896318Y8972558D01*
X15896526Y8972850D01*
X15896693Y8973183D01*
X15896901Y8973558D01*
X15897067Y8973974D01*
X15897401Y8974974D01*
X15897652Y8976057D01*
X15897693Y8976682D01*
X15897736Y8977349D01*
X15902567Y8976849D01*
Y8976765D01*
X15902525Y8976599D01*
X15902483Y8976349D01*
X15902441Y8975974D01*
X15902357Y8975516D01*
X15902232Y8974974D01*
X15902107Y8974391D01*
X15901900Y8973766D01*
X15901692Y8973141D01*
X15901442Y8972433D01*
X15901109Y8971767D01*
X15900775Y8971100D01*
X15900359Y8970392D01*
X15899901Y8969767D01*
X15899400Y8969142D01*
X15898817Y8968601D01*
X15898776Y8968559D01*
X15898651Y8968476D01*
X15898483Y8968351D01*
X15898235Y8968143D01*
X15897900Y8967934D01*
X15897485Y8967684D01*
X15897026Y8967434D01*
X15896484Y8967143D01*
X15895901Y8966893D01*
X15895235Y8966643D01*
X15894527Y8966393D01*
X15893736Y8966185D01*
X15892902Y8965976D01*
X15892027Y8965852D01*
X15891071Y8965768D01*
X15890070Y8965727D01*
X15889528D01*
X15889153Y8965768D01*
X15888695Y8965810D01*
X15888155Y8965893D01*
X15887529Y8965976D01*
X15886903Y8966101D01*
X15886195Y8966268D01*
X15885487Y8966476D01*
X15884738Y8966726D01*
X15884030Y8967018D01*
X15883279Y8967393D01*
X15882571Y8967809D01*
X15881905Y8968268D01*
X15881281Y8968809D01*
X15881239Y8968851D01*
X15881155Y8968934D01*
X15880989Y8969142D01*
X15880782Y8969351D01*
X15880531Y8969642D01*
X15880238Y8970017D01*
X15879947Y8970434D01*
X15879655Y8970934D01*
X15879364Y8971433D01*
X15879073Y8972017D01*
X15878781Y8972641D01*
X15878531Y8973308D01*
X15878323Y8974058D01*
X15878156Y8974808D01*
X15878073Y8975599D01*
X15878030Y8976432D01*
Y8976474D01*
Y8976515D01*
Y8976640D01*
Y8976807D01*
X15878073Y8977265D01*
X15878156Y8977848D01*
X15878281Y8978557D01*
X15878448Y8979306D01*
X15878656Y8980140D01*
X15878989Y8980973D01*
Y8981014D01*
X15879031Y8981056D01*
X15879073Y8981181D01*
X15879156Y8981348D01*
X15879407Y8981806D01*
X15879739Y8982389D01*
X15880197Y8983097D01*
X15880739Y8983889D01*
X15881364Y8984722D01*
X15882155Y8985638D01*
X15882198Y8985680D01*
X15882237Y8985763D01*
X15882405Y8985888D01*
X15882571Y8986096D01*
X15882822Y8986346D01*
X15883113Y8986638D01*
X15883447Y8987013D01*
X15883862Y8987388D01*
X15884363Y8987846D01*
X15884904Y8988346D01*
X15885487Y8988929D01*
X15886154Y8989512D01*
X15886862Y8990179D01*
X15887654Y8990845D01*
X15888528Y8991595D01*
X15889445Y8992386D01*
X15889487Y8992428D01*
X15889612Y8992553D01*
X15889862Y8992720D01*
X15890111Y8992970D01*
X15890486Y8993261D01*
X15890862Y8993594D01*
X15891736Y8994344D01*
X15892651Y8995136D01*
X15893527Y8995969D01*
X15893944Y8996344D01*
X15894319Y8996677D01*
X15894652Y8997010D01*
X15894902Y8997260D01*
X15894943Y8997302D01*
X15895110Y8997468D01*
X15895319Y8997718D01*
X15895610Y8998052D01*
X15895943Y8998427D01*
X15896277Y8998843D01*
X15896944Y8999759D01*
X15877991D01*
Y9004300D01*
X15903441D01*
Y9004217D01*
D02*
G37*
G36*
X16276495Y9143958D02*
X16277036Y9143917D01*
X16277661Y9143875D01*
X16278328Y9143792D01*
X16279077Y9143708D01*
X16279869Y9143583D01*
X16280702Y9143458D01*
X16282494Y9143042D01*
X16283368Y9142750D01*
X16284242Y9142459D01*
X16285159Y9142125D01*
X16285992Y9141709D01*
X16286034Y9141667D01*
X16286201Y9141584D01*
X16286409Y9141459D01*
X16286742Y9141292D01*
X16287117Y9141042D01*
X16287534Y9140751D01*
X16287991Y9140418D01*
X16288533Y9140043D01*
X16289034Y9139584D01*
X16289616Y9139126D01*
X16290158Y9138585D01*
X16290741Y9138002D01*
X16291283Y9137377D01*
X16291824Y9136710D01*
X16292323Y9135960D01*
X16292783Y9135211D01*
X16292824Y9135169D01*
X16292867Y9135002D01*
X16292992Y9134794D01*
X16293156Y9134461D01*
X16293324Y9134086D01*
X16293532Y9133586D01*
X16293739Y9133044D01*
X16293948Y9132461D01*
X16294157Y9131795D01*
X16294365Y9131045D01*
X16294572Y9130295D01*
X16294740Y9129462D01*
X16295032Y9127754D01*
X16295073Y9126838D01*
X16295116Y9125880D01*
Y9125338D01*
X16295073Y9124922D01*
X16295032Y9124422D01*
X16294948Y9123838D01*
X16294865Y9123214D01*
X16294740Y9122506D01*
X16294572Y9121756D01*
X16294408Y9120964D01*
X16294157Y9120173D01*
X16293864Y9119340D01*
X16293532Y9118507D01*
X16293115Y9117715D01*
X16292699Y9116924D01*
X16292157Y9116174D01*
X16292116Y9116132D01*
X16292032Y9116007D01*
X16291866Y9115799D01*
X16291615Y9115549D01*
X16291324Y9115216D01*
X16290948Y9114841D01*
X16290533Y9114466D01*
X16290033Y9114008D01*
X16289491Y9113549D01*
X16288867Y9113091D01*
X16288200Y9112633D01*
X16287450Y9112216D01*
X16286659Y9111758D01*
X16285783Y9111383D01*
X16284868Y9111008D01*
X16283910Y9110675D01*
X16282742Y9115674D01*
X16282785D01*
X16282910Y9115757D01*
X16283160Y9115799D01*
X16283450Y9115924D01*
X16283784Y9116049D01*
X16284158Y9116257D01*
X16285075Y9116674D01*
X16286076Y9117215D01*
X16287117Y9117923D01*
X16288075Y9118673D01*
X16288492Y9119131D01*
X16288867Y9119590D01*
X16288908Y9119631D01*
X16288950Y9119715D01*
X16289034Y9119840D01*
X16289159Y9120048D01*
X16289325Y9120298D01*
X16289491Y9120589D01*
X16289658Y9120923D01*
X16289825Y9121339D01*
X16289992Y9121797D01*
X16290158Y9122256D01*
X16290491Y9123339D01*
X16290698Y9124588D01*
X16290784Y9125255D01*
Y9126380D01*
X16290741Y9126713D01*
X16290698Y9127088D01*
X16290659Y9127546D01*
X16290616Y9128046D01*
X16290533Y9128546D01*
X16290240Y9129754D01*
X16289867Y9131003D01*
X16289616Y9131628D01*
X16289325Y9132253D01*
X16288992Y9132836D01*
X16288617Y9133419D01*
X16288576Y9133461D01*
X16288533Y9133544D01*
X16288408Y9133711D01*
X16288242Y9133919D01*
X16288033Y9134128D01*
X16287743Y9134419D01*
X16287450Y9134711D01*
X16287117Y9135044D01*
X16286700Y9135377D01*
X16286284Y9135752D01*
X16285326Y9136419D01*
X16284201Y9137043D01*
X16282910Y9137585D01*
X16282867D01*
X16282742Y9137627D01*
X16282535Y9137710D01*
X16282285Y9137752D01*
X16281952Y9137835D01*
X16281577Y9137960D01*
X16281119Y9138043D01*
X16280659Y9138168D01*
X16280119Y9138293D01*
X16279536Y9138376D01*
X16278287Y9138585D01*
X16276953Y9138710D01*
X16275537Y9138751D01*
X16275494D01*
X16275328D01*
X16275078D01*
X16274704Y9138710D01*
X16274287D01*
X16273787Y9138668D01*
X16273245Y9138626D01*
X16272621Y9138585D01*
X16271954Y9138501D01*
X16271288Y9138418D01*
X16269830Y9138168D01*
X16268372Y9137793D01*
X16266956Y9137335D01*
X16266914D01*
X16266789Y9137252D01*
X16266621Y9137168D01*
X16266373Y9137085D01*
X16266039Y9136918D01*
X16265706Y9136710D01*
X16264914Y9136252D01*
X16263998Y9135627D01*
X16263123Y9134877D01*
X16262248Y9133961D01*
X16261873Y9133461D01*
X16261499Y9132920D01*
Y9132878D01*
X16261415Y9132795D01*
X16261333Y9132628D01*
X16261208Y9132378D01*
X16261082Y9132086D01*
X16260915Y9131753D01*
X16260789Y9131378D01*
X16260625Y9130962D01*
X16260291Y9130004D01*
X16259999Y9128879D01*
X16259792Y9127671D01*
X16259749Y9127046D01*
X16259708Y9126380D01*
Y9125963D01*
X16259749Y9125671D01*
X16259792Y9125296D01*
X16259831Y9124880D01*
X16259917Y9124380D01*
X16259999Y9123880D01*
X16260291Y9122714D01*
X16260500Y9122131D01*
X16260748Y9121506D01*
X16261040Y9120881D01*
X16261374Y9120298D01*
X16261749Y9119715D01*
X16262164Y9119131D01*
X16262207Y9119090D01*
X16262289Y9119006D01*
X16262415Y9118840D01*
X16262624Y9118631D01*
X16262872Y9118423D01*
X16263206Y9118132D01*
X16263580Y9117840D01*
X16263998Y9117507D01*
X16264497Y9117174D01*
X16265039Y9116840D01*
X16265623Y9116507D01*
X16266289Y9116174D01*
X16266997Y9115882D01*
X16267789Y9115591D01*
X16268622Y9115299D01*
X16269498Y9115091D01*
X16268205Y9110009D01*
X16268121D01*
X16267914Y9110092D01*
X16267622Y9110175D01*
X16267165Y9110342D01*
X16266664Y9110509D01*
X16266039Y9110759D01*
X16265373Y9111008D01*
X16264664Y9111342D01*
X16263873Y9111717D01*
X16263123Y9112133D01*
X16262289Y9112591D01*
X16261499Y9113133D01*
X16260748Y9113716D01*
X16259999Y9114341D01*
X16259291Y9115049D01*
X16258624Y9115799D01*
X16258583Y9115841D01*
X16258499Y9116007D01*
X16258333Y9116215D01*
X16258124Y9116549D01*
X16257875Y9116924D01*
X16257584Y9117423D01*
X16257291Y9117965D01*
X16257001Y9118631D01*
X16256708Y9119340D01*
X16256416Y9120089D01*
X16256125Y9120923D01*
X16255875Y9121839D01*
X16255667Y9122797D01*
X16255499Y9123797D01*
X16255417Y9124838D01*
X16255376Y9125963D01*
Y9126546D01*
X16255417Y9127004D01*
X16255458Y9127504D01*
X16255499Y9128129D01*
X16255583Y9128796D01*
X16255708Y9129545D01*
X16255833Y9130337D01*
X16256000Y9131170D01*
X16256207Y9132003D01*
X16256416Y9132836D01*
X16256708Y9133711D01*
X16257040Y9134544D01*
X16257416Y9135336D01*
X16257875Y9136085D01*
X16257916Y9136127D01*
X16257999Y9136252D01*
X16258124Y9136460D01*
X16258333Y9136710D01*
X16258624Y9137043D01*
X16258916Y9137418D01*
X16259291Y9137835D01*
X16259749Y9138293D01*
X16260249Y9138751D01*
X16260789Y9139251D01*
X16261374Y9139709D01*
X16262041Y9140209D01*
X16262749Y9140709D01*
X16263498Y9141167D01*
X16264331Y9141584D01*
X16265205Y9142001D01*
X16265248Y9142042D01*
X16265414Y9142084D01*
X16265706Y9142167D01*
X16266039Y9142292D01*
X16266496Y9142459D01*
X16266997Y9142625D01*
X16267622Y9142792D01*
X16268289Y9143000D01*
X16269038Y9143167D01*
X16269830Y9143375D01*
X16270663Y9143542D01*
X16271579Y9143667D01*
X16273495Y9143917D01*
X16274495Y9143958D01*
X16275494Y9144000D01*
X16275578D01*
X16275745D01*
X16276077D01*
X16276495Y9143958D01*
D02*
G37*
G36*
X16284950Y9102011D02*
X16284993Y9101886D01*
X16285118Y9101678D01*
X16285243Y9101386D01*
X16285410Y9101053D01*
X16285658Y9100636D01*
X16285909Y9100178D01*
X16286159Y9099720D01*
X16286826Y9098637D01*
X16287617Y9097470D01*
X16288451Y9096262D01*
X16289407Y9095138D01*
X16289450Y9095096D01*
X16289532Y9095013D01*
X16289658Y9094846D01*
X16289867Y9094638D01*
X16290115Y9094429D01*
X16290366Y9094138D01*
X16291074Y9093513D01*
X16291824Y9092805D01*
X16292699Y9092097D01*
X16293616Y9091472D01*
X16294572Y9090930D01*
Y9087889D01*
X16256000D01*
Y9092596D01*
X16286034D01*
X16285951Y9092680D01*
X16285742Y9092888D01*
X16285451Y9093263D01*
X16285034Y9093805D01*
X16284534Y9094429D01*
X16283994Y9095221D01*
X16283411Y9096096D01*
X16282785Y9097095D01*
Y9097137D01*
X16282701Y9097220D01*
X16282619Y9097345D01*
X16282535Y9097554D01*
X16282368Y9097803D01*
X16282243Y9098095D01*
X16281868Y9098762D01*
X16281493Y9099511D01*
X16281078Y9100345D01*
X16280702Y9101219D01*
X16280370Y9102052D01*
X16284909D01*
X16284950Y9102011D01*
D02*
G37*
G36*
X17376122Y9081083D02*
X17376579Y9081042D01*
X17377078Y9080958D01*
X17377663Y9080875D01*
X17378287Y9080750D01*
X17378954Y9080625D01*
X17379662Y9080417D01*
X17380370Y9080167D01*
X17381078Y9079875D01*
X17381786Y9079542D01*
X17382494Y9079167D01*
X17383160Y9078709D01*
X17383827Y9078209D01*
X17383868Y9078167D01*
X17383952Y9078084D01*
X17384119Y9077917D01*
X17384328Y9077667D01*
X17384619Y9077376D01*
X17384911Y9077043D01*
X17385202Y9076626D01*
X17385535Y9076126D01*
X17385867Y9075626D01*
X17386201Y9075043D01*
X17386493Y9074377D01*
X17386784Y9073710D01*
X17387076Y9072960D01*
X17387285Y9072169D01*
X17387451Y9071294D01*
X17387576Y9070419D01*
X17382619Y9070044D01*
Y9070086D01*
X17382578Y9070211D01*
X17382536Y9070378D01*
X17382494Y9070628D01*
X17382452Y9070919D01*
X17382327Y9071294D01*
X17382120Y9072085D01*
X17381786Y9072960D01*
X17381328Y9073877D01*
X17380786Y9074710D01*
X17380453Y9075085D01*
X17380119Y9075460D01*
X17380078D01*
X17380035Y9075543D01*
X17379910Y9075626D01*
X17379745Y9075751D01*
X17379327Y9076043D01*
X17378745Y9076334D01*
X17378036Y9076668D01*
X17377203Y9076959D01*
X17376286Y9077168D01*
X17375787Y9077209D01*
X17375246Y9077251D01*
X17374913D01*
X17374663Y9077209D01*
X17374371Y9077168D01*
X17374039Y9077126D01*
X17373245Y9076918D01*
X17372330Y9076626D01*
X17371872Y9076418D01*
X17371371Y9076168D01*
X17370872Y9075876D01*
X17370415Y9075543D01*
X17369955Y9075168D01*
X17369498Y9074710D01*
X17369456Y9074668D01*
X17369414Y9074585D01*
X17369289Y9074460D01*
X17369122Y9074252D01*
X17368956Y9073960D01*
X17368748Y9073668D01*
X17368539Y9073294D01*
X17368289Y9072877D01*
X17368082Y9072419D01*
X17367873Y9071919D01*
X17367665Y9071336D01*
X17367497Y9070752D01*
X17367331Y9070086D01*
X17367206Y9069378D01*
X17367165Y9068670D01*
X17367123Y9067878D01*
Y9067837D01*
Y9067712D01*
Y9067503D01*
X17367165Y9067212D01*
X17367206Y9066878D01*
X17367249Y9066462D01*
X17367331Y9066045D01*
X17367415Y9065545D01*
X17367665Y9064546D01*
X17368082Y9063463D01*
X17368330Y9062963D01*
X17368665Y9062463D01*
X17368999Y9061963D01*
X17369414Y9061505D01*
X17369456Y9061463D01*
X17369498Y9061422D01*
X17369664Y9061297D01*
X17369830Y9061130D01*
X17370039Y9060963D01*
X17370331Y9060755D01*
X17370622Y9060547D01*
X17370998Y9060297D01*
X17371414Y9060089D01*
X17371831Y9059880D01*
X17372871Y9059505D01*
X17373413Y9059339D01*
X17374039Y9059214D01*
X17374663Y9059172D01*
X17375330Y9059130D01*
X17375703D01*
X17376163Y9059172D01*
X17376704Y9059255D01*
X17377370Y9059380D01*
X17378079Y9059589D01*
X17378787Y9059839D01*
X17379495Y9060214D01*
X17379578Y9060255D01*
X17379787Y9060380D01*
X17380119Y9060630D01*
X17380536Y9060922D01*
X17380952Y9061338D01*
X17381453Y9061796D01*
X17381911Y9062338D01*
X17382327Y9062921D01*
X17386743Y9062296D01*
X17383035Y9042551D01*
X17363914D01*
Y9047050D01*
X17379288D01*
X17381328Y9057381D01*
X17381287Y9057339D01*
X17381161Y9057256D01*
X17380994Y9057173D01*
X17380745Y9057006D01*
X17380411Y9056839D01*
X17380035Y9056631D01*
X17379620Y9056381D01*
X17379120Y9056173D01*
X17378619Y9055965D01*
X17378036Y9055715D01*
X17376830Y9055340D01*
X17376163Y9055173D01*
X17375496Y9055048D01*
X17374788Y9055007D01*
X17374080Y9054965D01*
X17373871D01*
X17373579Y9055007D01*
X17373245D01*
X17372830Y9055090D01*
X17372330Y9055131D01*
X17371747Y9055256D01*
X17371164Y9055381D01*
X17370497Y9055590D01*
X17369830Y9055798D01*
X17369122Y9056090D01*
X17368414Y9056423D01*
X17367706Y9056839D01*
X17366998Y9057298D01*
X17366290Y9057839D01*
X17365623Y9058464D01*
X17365582Y9058506D01*
X17365457Y9058631D01*
X17365289Y9058839D01*
X17365082Y9059089D01*
X17364790Y9059422D01*
X17364499Y9059880D01*
X17364207Y9060338D01*
X17363873Y9060880D01*
X17363541Y9061505D01*
X17363249Y9062213D01*
X17362917Y9062921D01*
X17362666Y9063754D01*
X17362457Y9064587D01*
X17362291Y9065504D01*
X17362166Y9066462D01*
X17362125Y9067462D01*
Y9067503D01*
Y9067712D01*
Y9067962D01*
X17362166Y9068336D01*
X17362209Y9068795D01*
X17362291Y9069295D01*
X17362373Y9069878D01*
X17362498Y9070544D01*
X17362666Y9071211D01*
X17362874Y9071961D01*
X17363124Y9072710D01*
X17363416Y9073460D01*
X17363750Y9074210D01*
X17364165Y9075001D01*
X17364624Y9075751D01*
X17365166Y9076459D01*
X17365207Y9076501D01*
X17365332Y9076668D01*
X17365540Y9076876D01*
X17365833Y9077168D01*
X17366206Y9077542D01*
X17366666Y9077917D01*
X17367206Y9078376D01*
X17367831Y9078792D01*
X17368498Y9079209D01*
X17369247Y9079667D01*
X17370081Y9080042D01*
X17370998Y9080375D01*
X17371954Y9080708D01*
X17372997Y9080917D01*
X17374080Y9081083D01*
X17375246Y9081125D01*
X17375746D01*
X17376122Y9081083D01*
D02*
G37*
G36*
X17424400Y9042052D02*
X17406531D01*
X17406071Y9042093D01*
X17405614D01*
X17405072Y9042135D01*
X17404446Y9042176D01*
X17403197Y9042301D01*
X17401906Y9042510D01*
X17400656Y9042760D01*
X17400114Y9042926D01*
X17399573Y9043093D01*
X17399532D01*
X17399448Y9043135D01*
X17399323Y9043218D01*
X17399115Y9043301D01*
X17398615Y9043551D01*
X17398032Y9043926D01*
X17397324Y9044426D01*
X17396616Y9045092D01*
X17395908Y9045842D01*
X17395282Y9046759D01*
Y9046800D01*
X17395200Y9046884D01*
X17395116Y9047009D01*
X17395033Y9047217D01*
X17394908Y9047467D01*
X17394783Y9047758D01*
X17394617Y9048092D01*
X17394449Y9048467D01*
X17394157Y9049341D01*
X17393909Y9050299D01*
X17393741Y9051382D01*
X17393658Y9052549D01*
Y9052590D01*
Y9052715D01*
Y9052965D01*
X17393700Y9053215D01*
X17393741Y9053590D01*
X17393784Y9054007D01*
X17393866Y9054465D01*
X17393991Y9054965D01*
X17394324Y9056048D01*
X17394533Y9056631D01*
X17394783Y9057214D01*
X17395074Y9057797D01*
X17395448Y9058381D01*
X17395866Y9058922D01*
X17396324Y9059464D01*
X17396365Y9059505D01*
X17396449Y9059589D01*
X17396616Y9059714D01*
X17396825Y9059922D01*
X17397115Y9060130D01*
X17397449Y9060380D01*
X17397865Y9060672D01*
X17398364Y9060963D01*
X17398907Y9061255D01*
X17399490Y9061547D01*
X17400156Y9061838D01*
X17400906Y9062130D01*
X17401697Y9062380D01*
X17402573Y9062630D01*
X17403529Y9062838D01*
X17404530Y9063004D01*
X17404488D01*
X17404446Y9063046D01*
X17404198Y9063171D01*
X17403822Y9063379D01*
X17403365Y9063629D01*
X17402864Y9063921D01*
X17402364Y9064213D01*
X17401865Y9064587D01*
X17401448Y9064921D01*
X17401405Y9064962D01*
X17401364Y9065004D01*
X17401239Y9065129D01*
X17401073Y9065296D01*
X17400864Y9065504D01*
X17400613Y9065754D01*
X17400073Y9066337D01*
X17399448Y9067087D01*
X17398740Y9067962D01*
X17397990Y9068961D01*
X17397240Y9070044D01*
X17390575Y9080500D01*
X17396948D01*
X17402031Y9072502D01*
X17402072Y9072460D01*
X17402113Y9072335D01*
X17402238Y9072169D01*
X17402406Y9071919D01*
X17402573Y9071627D01*
X17402821Y9071294D01*
X17403322Y9070544D01*
X17403905Y9069669D01*
X17404488Y9068795D01*
X17405113Y9067962D01*
X17405696Y9067212D01*
Y9067170D01*
X17405780Y9067128D01*
X17405946Y9066920D01*
X17406197Y9066587D01*
X17406570Y9066212D01*
X17406946Y9065795D01*
X17407404Y9065379D01*
X17407863Y9064962D01*
X17408279Y9064671D01*
X17408321Y9064629D01*
X17408487Y9064546D01*
X17408696Y9064421D01*
X17408987Y9064254D01*
X17409361Y9064088D01*
X17409737Y9063921D01*
X17410155Y9063754D01*
X17410612Y9063629D01*
X17410654D01*
X17410777Y9063588D01*
X17410986Y9063546D01*
X17411278Y9063504D01*
X17411694D01*
X17412195Y9063463D01*
X17412778Y9063421D01*
X17419318D01*
Y9080500D01*
X17424400D01*
Y9042052D01*
D02*
G37*
%LPC*%
G36*
X16680170Y3589113D02*
X16680127D01*
X16680045D01*
X16679919D01*
X16679710Y3589072D01*
X16679501D01*
X16679211Y3589030D01*
X16678586Y3588864D01*
X16677878Y3588614D01*
X16677129Y3588280D01*
X16676421Y3587780D01*
X16676045Y3587447D01*
X16675713Y3587114D01*
X16675670Y3587072D01*
X16675629Y3587031D01*
X16675545Y3586906D01*
X16675420Y3586739D01*
X16675294Y3586531D01*
X16675128Y3586239D01*
X16674962Y3585948D01*
X16674796Y3585573D01*
X16674629Y3585156D01*
X16674504Y3584698D01*
X16674336Y3584198D01*
X16674213Y3583657D01*
X16674088Y3583032D01*
X16674004Y3582365D01*
X16673920Y3581657D01*
Y3568702D01*
X16686626D01*
Y3580199D01*
X16686584Y3580491D01*
Y3580824D01*
X16686542Y3581615D01*
X16686459Y3582490D01*
X16686334Y3583407D01*
X16686166Y3584281D01*
X16685918Y3585073D01*
Y3585114D01*
X16685876Y3585156D01*
X16685793Y3585406D01*
X16685626Y3585739D01*
X16685376Y3586198D01*
X16685043Y3586656D01*
X16684668Y3587156D01*
X16684167Y3587656D01*
X16683626Y3588072D01*
X16683543Y3588114D01*
X16683334Y3588239D01*
X16683043Y3588405D01*
X16682585Y3588614D01*
X16682085Y3588780D01*
X16681502Y3588947D01*
X16680835Y3589072D01*
X16680170Y3589113D01*
D02*
G37*
G36*
X16940440Y3808898D02*
X16927734D01*
Y3797401D01*
X16927776Y3797109D01*
Y3796776D01*
X16927818Y3795985D01*
X16927901Y3795110D01*
X16928026Y3794193D01*
X16928194Y3793319D01*
X16928442Y3792527D01*
Y3792485D01*
X16928484Y3792444D01*
X16928568Y3792194D01*
X16928734Y3791861D01*
X16928984Y3791402D01*
X16929317Y3790944D01*
X16929692Y3790444D01*
X16930193Y3789944D01*
X16930734Y3789528D01*
X16930817Y3789486D01*
X16931026Y3789361D01*
X16931317Y3789195D01*
X16931775Y3788986D01*
X16932275Y3788820D01*
X16932858Y3788653D01*
X16933525Y3788528D01*
X16934190Y3788486D01*
X16934233D01*
X16934315D01*
X16934441D01*
X16934650Y3788528D01*
X16934859D01*
X16935149Y3788570D01*
X16935774Y3788736D01*
X16936482Y3788986D01*
X16937231Y3789320D01*
X16937939Y3789819D01*
X16938315Y3790153D01*
X16938647Y3790486D01*
X16938690Y3790528D01*
X16938731Y3790569D01*
X16938815Y3790694D01*
X16938940Y3790861D01*
X16939066Y3791069D01*
X16939232Y3791361D01*
X16939398Y3791652D01*
X16939565Y3792027D01*
X16939731Y3792444D01*
X16939856Y3792902D01*
X16940022Y3793402D01*
X16940147Y3793943D01*
X16940273Y3794568D01*
X16940356Y3795235D01*
X16940440Y3795943D01*
Y3808898D01*
D02*
G37*
G36*
X16919778Y3744289D02*
Y3732168D01*
X16937106D01*
X16919778Y3744289D01*
D02*
G37*
G36*
X17122397Y2851060D02*
X17109442D01*
Y2838354D01*
X17120940D01*
X17121231Y2838396D01*
X17121564D01*
X17122356Y2838438D01*
X17123230Y2838521D01*
X17124147Y2838646D01*
X17125021Y2838813D01*
X17125813Y2839063D01*
X17125854D01*
X17125896Y2839104D01*
X17126146Y2839188D01*
X17126479Y2839354D01*
X17126938Y2839604D01*
X17127396Y2839937D01*
X17127896Y2840312D01*
X17128397Y2840812D01*
X17128812Y2841354D01*
X17128854Y2841437D01*
X17128979Y2841645D01*
X17129144Y2841937D01*
X17129353Y2842395D01*
X17129520Y2842895D01*
X17129688Y2843478D01*
X17129813Y2844145D01*
X17129852Y2844811D01*
Y2844853D01*
Y2844936D01*
Y2845061D01*
X17129813Y2845269D01*
Y2845478D01*
X17129770Y2845769D01*
X17129604Y2846394D01*
X17129353Y2847102D01*
X17129021Y2847852D01*
X17128520Y2848560D01*
X17128188Y2848935D01*
X17127853Y2849268D01*
X17127812Y2849310D01*
X17127771Y2849352D01*
X17127646Y2849435D01*
X17127480Y2849560D01*
X17127271Y2849685D01*
X17126979Y2849852D01*
X17126688Y2850018D01*
X17126312Y2850185D01*
X17125896Y2850351D01*
X17125438Y2850476D01*
X17124937Y2850643D01*
X17124397Y2850768D01*
X17123772Y2850893D01*
X17123105Y2850976D01*
X17122397Y2851060D01*
D02*
G37*
G36*
X16514243Y3270125D02*
X16496913D01*
X16514243Y3258003D01*
Y3270125D01*
D02*
G37*
G36*
X16499829Y3243673D02*
X16499786D01*
X16499704D01*
X16499579D01*
X16499371Y3243632D01*
X16499162D01*
X16498871Y3243590D01*
X16498245Y3243424D01*
X16497539Y3243174D01*
X16496788Y3242840D01*
X16496080Y3242340D01*
X16495705Y3242007D01*
X16495372Y3241674D01*
X16495329Y3241632D01*
X16495288Y3241591D01*
X16495206Y3241466D01*
X16495081Y3241299D01*
X16494955Y3241091D01*
X16494788Y3240799D01*
X16494621Y3240508D01*
X16494455Y3240133D01*
X16494289Y3239716D01*
X16494164Y3239258D01*
X16493997Y3238758D01*
X16493872Y3238217D01*
X16493747Y3237592D01*
X16493665Y3236925D01*
X16493581Y3236217D01*
Y3223262D01*
X16506287D01*
Y3234759D01*
X16506244Y3235051D01*
Y3235384D01*
X16506203Y3236175D01*
X16506119Y3237050D01*
X16505994Y3237967D01*
X16505827Y3238841D01*
X16505577Y3239633D01*
Y3239674D01*
X16505536Y3239716D01*
X16505452Y3239966D01*
X16505286Y3240299D01*
X16505035Y3240758D01*
X16504703Y3241216D01*
X16504327Y3241716D01*
X16503828Y3242216D01*
X16503287Y3242632D01*
X16503203Y3242674D01*
X16502995Y3242799D01*
X16502702Y3242965D01*
X16502245Y3243174D01*
X16501746Y3243340D01*
X16501163Y3243507D01*
X16500494Y3243632D01*
X16499829Y3243673D01*
D02*
G37*
G36*
X17282149Y2938873D02*
X17282108D01*
X17282024D01*
X17281898D01*
X17281691Y2938832D01*
X17281482D01*
X17281190Y2938790D01*
X17280566Y2938624D01*
X17279858Y2938374D01*
X17279108Y2938040D01*
X17278400Y2937540D01*
X17278024Y2937207D01*
X17277692Y2936874D01*
X17277650Y2936832D01*
X17277608Y2936791D01*
X17277525Y2936666D01*
X17277400Y2936499D01*
X17277275Y2936291D01*
X17277107Y2935999D01*
X17276942Y2935708D01*
X17276775Y2935333D01*
X17276608Y2934916D01*
X17276485Y2934458D01*
X17276317Y2933958D01*
X17276192Y2933417D01*
X17276067Y2932792D01*
X17275984Y2932125D01*
X17275900Y2931417D01*
Y2918462D01*
X17288606D01*
Y2929959D01*
X17288564Y2930251D01*
Y2930584D01*
X17288522Y2931375D01*
X17288438Y2932250D01*
X17288313Y2933167D01*
X17288147Y2934041D01*
X17287897Y2934833D01*
Y2934874D01*
X17287856Y2934916D01*
X17287772Y2935166D01*
X17287605Y2935499D01*
X17287357Y2935958D01*
X17287022Y2936416D01*
X17286649Y2936916D01*
X17286148Y2937416D01*
X17285606Y2937832D01*
X17285522Y2937874D01*
X17285315Y2937999D01*
X17285023Y2938165D01*
X17284566Y2938374D01*
X17284065Y2938540D01*
X17283482Y2938707D01*
X17282816Y2938832D01*
X17282149Y2938873D01*
D02*
G37*
G36*
X16479518Y2800446D02*
X16468021D01*
X16467729Y2800404D01*
X16467397D01*
X16466605Y2800362D01*
X16465730Y2800279D01*
X16464813Y2800154D01*
X16463939Y2799987D01*
X16463147Y2799737D01*
X16463106D01*
X16463065Y2799696D01*
X16462814Y2799612D01*
X16462482Y2799446D01*
X16462022Y2799196D01*
X16461565Y2798863D01*
X16461064Y2798488D01*
X16460564Y2797988D01*
X16460149Y2797446D01*
X16460106Y2797363D01*
X16459981Y2797155D01*
X16459814Y2796863D01*
X16459605Y2796405D01*
X16459441Y2795905D01*
X16459273Y2795322D01*
X16459148Y2794655D01*
X16459106Y2793989D01*
Y2793947D01*
Y2793864D01*
Y2793739D01*
X16459148Y2793531D01*
Y2793322D01*
X16459190Y2793031D01*
X16459357Y2792406D01*
X16459605Y2791698D01*
X16459940Y2790948D01*
X16460440Y2790240D01*
X16460773Y2789865D01*
X16461105Y2789532D01*
X16461148Y2789490D01*
X16461189Y2789448D01*
X16461314Y2789365D01*
X16461481Y2789240D01*
X16461690Y2789115D01*
X16461981Y2788948D01*
X16462273Y2788782D01*
X16462646Y2788615D01*
X16463065Y2788449D01*
X16463522Y2788324D01*
X16464021Y2788157D01*
X16464563Y2788032D01*
X16465189Y2787907D01*
X16465855Y2787824D01*
X16466563Y2787740D01*
X16479518D01*
Y2800446D01*
D02*
G37*
G36*
X16238477Y4850040D02*
X16225522D01*
Y4837334D01*
X16237019D01*
X16237311Y4837376D01*
X16237643D01*
X16238435Y4837418D01*
X16239310Y4837501D01*
X16240227Y4837626D01*
X16241101Y4837793D01*
X16241893Y4838043D01*
X16241934D01*
X16241975Y4838084D01*
X16242226Y4838168D01*
X16242558Y4838334D01*
X16243018Y4838584D01*
X16243475Y4838917D01*
X16243976Y4839292D01*
X16244476Y4839792D01*
X16244891Y4840334D01*
X16244934Y4840417D01*
X16245059Y4840625D01*
X16245226Y4840917D01*
X16245435Y4841375D01*
X16245599Y4841875D01*
X16245767Y4842458D01*
X16245892Y4843125D01*
X16245934Y4843791D01*
Y4843833D01*
Y4843916D01*
Y4844041D01*
X16245892Y4844249D01*
Y4844458D01*
X16245850Y4844749D01*
X16245683Y4845374D01*
X16245435Y4846082D01*
X16245100Y4846832D01*
X16244600Y4847540D01*
X16244267Y4847915D01*
X16243935Y4848248D01*
X16243892Y4848290D01*
X16243851Y4848332D01*
X16243726Y4848415D01*
X16243559Y4848540D01*
X16243352Y4848665D01*
X16243059Y4848832D01*
X16242767Y4848998D01*
X16242393Y4849165D01*
X16241975Y4849331D01*
X16241518Y4849456D01*
X16241019Y4849623D01*
X16240477Y4849748D01*
X16239851Y4849873D01*
X16239185Y4849956D01*
X16238477Y4850040D01*
D02*
G37*
G36*
X16299586Y4850498D02*
X16299295D01*
X16299045Y4850456D01*
X16298795Y4850414D01*
X16298462Y4850373D01*
X16297713Y4850165D01*
X16296880Y4849831D01*
X16296461Y4849623D01*
X16296004Y4849331D01*
X16295587Y4849040D01*
X16295171Y4848665D01*
X16294754Y4848248D01*
X16294379Y4847748D01*
X16294337Y4847707D01*
X16294296Y4847582D01*
X16294171Y4847374D01*
X16294003Y4847040D01*
X16293839Y4846624D01*
X16293629Y4846124D01*
X16293381Y4845541D01*
X16293172Y4844791D01*
X16292963Y4843958D01*
X16292712Y4843041D01*
X16292505Y4841958D01*
X16292339Y4840792D01*
X16292172Y4839501D01*
X16292088Y4838043D01*
X16292004Y4836501D01*
X16291963Y4834793D01*
Y4834752D01*
Y4834669D01*
Y4834544D01*
Y4834377D01*
Y4834169D01*
Y4833877D01*
X16292004Y4833252D01*
X16292047Y4832502D01*
X16292088Y4831628D01*
X16292130Y4830670D01*
X16292255Y4829670D01*
X16292505Y4827545D01*
X16292673Y4826504D01*
X16292880Y4825463D01*
X16293130Y4824504D01*
X16293463Y4823630D01*
X16293796Y4822838D01*
X16294171Y4822172D01*
X16294212Y4822130D01*
X16294254Y4822047D01*
X16294379Y4821880D01*
X16294588Y4821672D01*
X16294797Y4821464D01*
X16295045Y4821214D01*
X16295671Y4820630D01*
X16296461Y4820047D01*
X16297420Y4819589D01*
X16297920Y4819381D01*
X16298462Y4819214D01*
X16299045Y4819131D01*
X16299628Y4819089D01*
X16299753D01*
X16299960Y4819131D01*
X16300169D01*
X16300461Y4819172D01*
X16300793Y4819256D01*
X16301544Y4819464D01*
X16301961Y4819631D01*
X16302377Y4819839D01*
X16302837Y4820089D01*
X16303294Y4820422D01*
X16303752Y4820755D01*
X16304210Y4821172D01*
X16304668Y4821672D01*
X16305086Y4822213D01*
X16305127Y4822255D01*
X16305168Y4822380D01*
X16305293Y4822547D01*
X16305418Y4822838D01*
X16305627Y4823213D01*
X16305794Y4823713D01*
X16306001Y4824296D01*
X16306210Y4824963D01*
X16306418Y4825754D01*
X16306625Y4826671D01*
X16306834Y4827670D01*
X16307001Y4828837D01*
X16307126Y4830128D01*
X16307251Y4831544D01*
X16307294Y4833086D01*
X16307333Y4834793D01*
Y4834835D01*
Y4834918D01*
Y4835043D01*
Y4835210D01*
Y4835418D01*
Y4835668D01*
X16307294Y4836335D01*
X16307251Y4837085D01*
X16307208Y4837959D01*
X16307169Y4838917D01*
X16307043Y4839917D01*
X16306793Y4842042D01*
X16306586Y4843083D01*
X16306377Y4844083D01*
X16306126Y4845041D01*
X16305835Y4845957D01*
X16305502Y4846707D01*
X16305086Y4847374D01*
X16305043Y4847415D01*
X16305002Y4847499D01*
X16304877Y4847665D01*
X16304710Y4847873D01*
X16304460Y4848082D01*
X16304210Y4848373D01*
X16303918Y4848665D01*
X16303584Y4848957D01*
X16302794Y4849498D01*
X16301836Y4849998D01*
X16301337Y4850206D01*
X16300752Y4850373D01*
X16300211Y4850456D01*
X16299586Y4850498D01*
D02*
G37*
G36*
X17306200Y5308598D02*
X17293494D01*
Y5297101D01*
X17293536Y5296809D01*
Y5296476D01*
X17293578Y5295685D01*
X17293661Y5294810D01*
X17293787Y5293893D01*
X17293953Y5293019D01*
X17294203Y5292227D01*
Y5292186D01*
X17294244Y5292144D01*
X17294328Y5291894D01*
X17294495Y5291561D01*
X17294743Y5291102D01*
X17295078Y5290644D01*
X17295451Y5290144D01*
X17295952Y5289644D01*
X17296494Y5289228D01*
X17296577Y5289186D01*
X17296785Y5289061D01*
X17297076Y5288895D01*
X17297536Y5288686D01*
X17298035Y5288520D01*
X17298618Y5288353D01*
X17299284Y5288228D01*
X17299951Y5288187D01*
X17299992D01*
X17300076D01*
X17300201D01*
X17300409Y5288228D01*
X17300618D01*
X17300909Y5288270D01*
X17301534Y5288436D01*
X17302242Y5288686D01*
X17302992Y5289020D01*
X17303700Y5289520D01*
X17304076Y5289853D01*
X17304408Y5290186D01*
X17304449Y5290228D01*
X17304492Y5290269D01*
X17304575Y5290394D01*
X17304700Y5290561D01*
X17304825Y5290769D01*
X17304993Y5291061D01*
X17305157Y5291352D01*
X17305325Y5291727D01*
X17305492Y5292144D01*
X17305617Y5292602D01*
X17305783Y5293102D01*
X17305908Y5293643D01*
X17306033Y5294268D01*
X17306116Y5294935D01*
X17306200Y5295643D01*
Y5308598D01*
D02*
G37*
G36*
X17419318Y9059006D02*
X17407822D01*
X17407529Y9058964D01*
X17407196D01*
X17406406Y9058922D01*
X17405530Y9058839D01*
X17404613Y9058714D01*
X17403738Y9058547D01*
X17402946Y9058297D01*
X17402905D01*
X17402864Y9058256D01*
X17402614Y9058172D01*
X17402281Y9058006D01*
X17401822Y9057756D01*
X17401364Y9057423D01*
X17400864Y9057048D01*
X17400365Y9056548D01*
X17399948Y9056006D01*
X17399905Y9055923D01*
X17399780Y9055715D01*
X17399615Y9055423D01*
X17399406Y9054965D01*
X17399240Y9054465D01*
X17399072Y9053882D01*
X17398949Y9053215D01*
X17398907Y9052549D01*
Y9052507D01*
Y9052424D01*
Y9052299D01*
X17398949Y9052091D01*
Y9051882D01*
X17398990Y9051591D01*
X17399156Y9050966D01*
X17399406Y9050258D01*
X17399741Y9049508D01*
X17400240Y9048800D01*
X17400574Y9048425D01*
X17400906Y9048092D01*
X17400948Y9048050D01*
X17400989Y9048008D01*
X17401114Y9047925D01*
X17401282Y9047800D01*
X17401489Y9047675D01*
X17401781Y9047508D01*
X17402072Y9047342D01*
X17402448Y9047175D01*
X17402864Y9047009D01*
X17403322Y9046884D01*
X17403822Y9046717D01*
X17404362Y9046592D01*
X17404988Y9046467D01*
X17405655Y9046384D01*
X17406363Y9046300D01*
X17419318D01*
Y9059006D01*
D02*
G37*
%LPD*%
%TF.MD5,420f58cd18c77fec1cb68c4893cbe196*%
M02*
