%TF.GenerationSoftware,Altium Limited,Altium Designer,24.2.2 (26)*%
G04 Layer_Color=8421504*
%FSLAX45Y45*%
%MOMM*%
%TF.SameCoordinates,979FBE80-878B-4EC3-91C7-7055811A0E5A*%
%TF.FilePolarity,Positive*%
%TF.FileFunction,Paste,Top*%
%TF.Part,Single*%
G01*
G75*
%TA.AperFunction,SMDPad,CuDef*%
G04:AMPARAMS|DCode=10|XSize=0.55mm|YSize=1.25mm|CornerRadius=0.0495mm|HoleSize=0mm|Usage=FLASHONLY|Rotation=270.000|XOffset=0mm|YOffset=0mm|HoleType=Round|Shape=RoundedRectangle|*
%AMROUNDEDRECTD10*
21,1,0.55000,1.15100,0,0,270.0*
21,1,0.45100,1.25000,0,0,270.0*
1,1,0.09900,-0.57550,-0.22550*
1,1,0.09900,-0.57550,0.22550*
1,1,0.09900,0.57550,0.22550*
1,1,0.09900,0.57550,-0.22550*
%
%ADD10ROUNDEDRECTD10*%
G04:AMPARAMS|DCode=11|XSize=1.3mm|YSize=0.76mm|CornerRadius=0.095mm|HoleSize=0mm|Usage=FLASHONLY|Rotation=180.000|XOffset=0mm|YOffset=0mm|HoleType=Round|Shape=RoundedRectangle|*
%AMROUNDEDRECTD11*
21,1,1.30000,0.57000,0,0,180.0*
21,1,1.11000,0.76000,0,0,180.0*
1,1,0.19000,-0.55500,0.28500*
1,1,0.19000,0.55500,0.28500*
1,1,0.19000,0.55500,-0.28500*
1,1,0.19000,-0.55500,-0.28500*
%
%ADD11ROUNDEDRECTD11*%
%ADD12R,1.10000X1.00000*%
%ADD13R,0.80000X0.30247*%
%ADD14R,1.10000X0.60000*%
G04:AMPARAMS|DCode=15|XSize=0.76mm|YSize=0.6604mm|CornerRadius=0.08255mm|HoleSize=0mm|Usage=FLASHONLY|Rotation=90.000|XOffset=0mm|YOffset=0mm|HoleType=Round|Shape=RoundedRectangle|*
%AMROUNDEDRECTD15*
21,1,0.76000,0.49530,0,0,90.0*
21,1,0.59490,0.66040,0,0,90.0*
1,1,0.16510,0.24765,0.29745*
1,1,0.16510,0.24765,-0.29745*
1,1,0.16510,-0.24765,-0.29745*
1,1,0.16510,-0.24765,0.29745*
%
%ADD15ROUNDEDRECTD15*%
%ADD16R,0.61583X0.65964*%
%ADD17R,0.75000X1.00000*%
G04:AMPARAMS|DCode=18|XSize=0.76mm|YSize=0.6604mm|CornerRadius=0.08255mm|HoleSize=0mm|Usage=FLASHONLY|Rotation=180.000|XOffset=0mm|YOffset=0mm|HoleType=Round|Shape=RoundedRectangle|*
%AMROUNDEDRECTD18*
21,1,0.76000,0.49530,0,0,180.0*
21,1,0.59490,0.66040,0,0,180.0*
1,1,0.16510,-0.29745,0.24765*
1,1,0.16510,0.29745,0.24765*
1,1,0.16510,0.29745,-0.24765*
1,1,0.16510,-0.29745,-0.24765*
%
%ADD18ROUNDEDRECTD18*%
G04:AMPARAMS|DCode=19|XSize=0.55mm|YSize=0.5mm|CornerRadius=0.0625mm|HoleSize=0mm|Usage=FLASHONLY|Rotation=180.000|XOffset=0mm|YOffset=0mm|HoleType=Round|Shape=RoundedRectangle|*
%AMROUNDEDRECTD19*
21,1,0.55000,0.37500,0,0,180.0*
21,1,0.42500,0.50000,0,0,180.0*
1,1,0.12500,-0.21250,0.18750*
1,1,0.12500,0.21250,0.18750*
1,1,0.12500,0.21250,-0.18750*
1,1,0.12500,-0.21250,-0.18750*
%
%ADD19ROUNDEDRECTD19*%
%ADD20R,1.00000X1.10000*%
%ADD21R,0.60000X1.20000*%
%ADD22R,1.00000X0.80000*%
G04:AMPARAMS|DCode=23|XSize=1.3mm|YSize=0.76mm|CornerRadius=0.095mm|HoleSize=0mm|Usage=FLASHONLY|Rotation=90.000|XOffset=0mm|YOffset=0mm|HoleType=Round|Shape=RoundedRectangle|*
%AMROUNDEDRECTD23*
21,1,1.30000,0.57000,0,0,90.0*
21,1,1.11000,0.76000,0,0,90.0*
1,1,0.19000,0.28500,0.55500*
1,1,0.19000,0.28500,-0.55500*
1,1,0.19000,-0.28500,-0.55500*
1,1,0.19000,-0.28500,0.55500*
%
%ADD23ROUNDEDRECTD23*%
G04:AMPARAMS|DCode=24|XSize=1mm|YSize=1.7mm|CornerRadius=0.125mm|HoleSize=0mm|Usage=FLASHONLY|Rotation=180.000|XOffset=0mm|YOffset=0mm|HoleType=Round|Shape=RoundedRectangle|*
%AMROUNDEDRECTD24*
21,1,1.00000,1.45000,0,0,180.0*
21,1,0.75000,1.70000,0,0,180.0*
1,1,0.25000,-0.37500,0.72500*
1,1,0.25000,0.37500,0.72500*
1,1,0.25000,0.37500,-0.72500*
1,1,0.25000,-0.37500,-0.72500*
%
%ADD24ROUNDEDRECTD24*%
%ADD25R,1.45000X1.35000*%
%TA.AperFunction,TestPad*%
G04:AMPARAMS|DCode=26|XSize=0.6mm|YSize=1mm|CornerRadius=0.075mm|HoleSize=0mm|Usage=FLASHONLY|Rotation=90.000|XOffset=0mm|YOffset=0mm|HoleType=Round|Shape=RoundedRectangle|*
%AMROUNDEDRECTD26*
21,1,0.60000,0.85000,0,0,90.0*
21,1,0.45000,1.00000,0,0,90.0*
1,1,0.15000,0.42500,0.22500*
1,1,0.15000,0.42500,-0.22500*
1,1,0.15000,-0.42500,-0.22500*
1,1,0.15000,-0.42500,0.22500*
%
%ADD26ROUNDEDRECTD26*%
%TA.AperFunction,SMDPad,CuDef*%
G04:AMPARAMS|DCode=28|XSize=0.6mm|YSize=0.7mm|CornerRadius=0.075mm|HoleSize=0mm|Usage=FLASHONLY|Rotation=270.000|XOffset=0mm|YOffset=0mm|HoleType=Round|Shape=RoundedRectangle|*
%AMROUNDEDRECTD28*
21,1,0.60000,0.55000,0,0,270.0*
21,1,0.45000,0.70000,0,0,270.0*
1,1,0.15000,-0.27500,-0.22500*
1,1,0.15000,-0.27500,0.22500*
1,1,0.15000,0.27500,0.22500*
1,1,0.15000,0.27500,-0.22500*
%
%ADD28ROUNDEDRECTD28*%
%ADD29R,0.52000X0.52000*%
%ADD30R,1.35000X1.45000*%
G36*
X16001199Y9335900D02*
Y9510900D01*
X15901199D01*
Y9335900D01*
X16001199D01*
D02*
G37*
D10*
X17072220Y5463540D02*
D03*
Y5590540D02*
D03*
Y5717540D02*
D03*
Y5844540D02*
D03*
X16547220Y5463540D02*
D03*
Y5590540D02*
D03*
Y5717540D02*
D03*
Y5844540D02*
D03*
X16211160Y5461000D02*
D03*
Y5588000D02*
D03*
Y5715000D02*
D03*
Y5842000D02*
D03*
X15686160Y5461000D02*
D03*
Y5588000D02*
D03*
Y5715000D02*
D03*
Y5842000D02*
D03*
D11*
X16695419Y3600620D02*
D03*
Y3779620D02*
D03*
X16918941Y3776980D02*
D03*
Y3597980D02*
D03*
X17284700Y5276680D02*
D03*
Y5097680D02*
D03*
X16268700Y8928000D02*
D03*
Y9107000D02*
D03*
D12*
X15841980Y6658500D02*
D03*
Y6803500D02*
D03*
X17429480Y5684520D02*
D03*
Y5829520D02*
D03*
D13*
X16100253Y9520900D02*
D03*
X15802147Y9325900D02*
D03*
Y9390900D02*
D03*
Y9455900D02*
D03*
Y9520900D02*
D03*
X16100253Y9455900D02*
D03*
Y9390900D02*
D03*
Y9325900D02*
D03*
D14*
X16348219Y3046980D02*
D03*
Y3236980D02*
D03*
X16128220Y3141980D02*
D03*
D15*
X17301360Y2829560D02*
D03*
X17161360D02*
D03*
X16287601Y2809240D02*
D03*
X16427600D02*
D03*
D16*
X16146780Y5173980D02*
D03*
Y5088730D02*
D03*
X15369540Y5389325D02*
D03*
Y5304075D02*
D03*
D17*
X17155161Y4206240D02*
D03*
X17010159D02*
D03*
D18*
X16515080Y3415180D02*
D03*
Y3275180D02*
D03*
X17297400Y3110380D02*
D03*
Y2970380D02*
D03*
D19*
X16637000Y4817660D02*
D03*
Y4727660D02*
D03*
D20*
X16986140Y3335020D02*
D03*
X17131140D02*
D03*
D21*
X16818359Y3972020D02*
D03*
X16723360D02*
D03*
X16628360D02*
D03*
Y4222020D02*
D03*
X16723360D02*
D03*
X16818359D02*
D03*
D22*
X16395700Y5186540D02*
D03*
Y5336540D02*
D03*
X15450819Y5767000D02*
D03*
Y5917000D02*
D03*
D23*
X16257440Y4828540D02*
D03*
X16436440D02*
D03*
X15725140Y8991600D02*
D03*
X15904140D02*
D03*
X17387399Y9067800D02*
D03*
X17208400D02*
D03*
D24*
X17039340Y9133840D02*
D03*
X16849339D02*
D03*
D25*
X16510001Y9368500D02*
D03*
Y9173500D02*
D03*
D26*
X15377820Y9188200D02*
D03*
X15577820Y9283200D02*
D03*
Y9093200D02*
D03*
D28*
X15199361Y9563100D02*
D03*
Y9463100D02*
D03*
D29*
X16644620Y4459600D02*
D03*
Y4379600D02*
D03*
D30*
X16310899Y9601200D02*
D03*
X16505901D02*
D03*
%TF.MD5,b99014262b3ab2570afc6591add2b190*%
M02*
