%TF.GenerationSoftware,Altium Limited,Altium Designer,24.2.2 (26)*%
G04 Layer_Color=16711935*
%FSLAX45Y45*%
%MOMM*%
%TF.SameCoordinates,979FBE80-878B-4EC3-91C7-7055811A0E5A*%
%TF.FilePolarity,Negative*%
%TF.FileFunction,Soldermask,Bot*%
%TF.Part,Single*%
G01*
G75*
%TA.AperFunction,ComponentPad*%
%ADD72C,2.48920*%
%ADD73O,5.02320X2.61320*%
%ADD74C,8.20320*%
%ADD75O,1.51120X2.81920*%
%ADD76O,2.81920X1.51120*%
%ADD77C,1.40320*%
%ADD78C,2.25320*%
%ADD79R,2.25320X2.25320*%
%TA.AperFunction,ViaPad*%
%ADD80C,0.90320*%
%ADD81C,0.96520*%
%ADD82C,1.47320*%
D72*
X14592300Y5905500D02*
D03*
X12341860Y4566920D02*
D03*
Y7254240D02*
D03*
D73*
X14112241Y8483600D02*
D03*
X12816840D02*
D03*
D74*
X11000000Y9700000D02*
D03*
Y2600000D02*
D03*
X18400000D02*
D03*
Y9700000D02*
D03*
D75*
X17271620Y6888480D02*
D03*
D76*
X16771620Y7388480D02*
D03*
Y6388480D02*
D03*
D77*
X17521620D02*
D03*
X17271620D02*
D03*
X16771620Y6888480D02*
D03*
X17521620Y7388480D02*
D03*
X17271620D02*
D03*
D78*
X15321280Y3365500D02*
D03*
X15829280D02*
D03*
Y2857500D02*
D03*
X15321280D02*
D03*
D79*
X15575281Y3111500D02*
D03*
D80*
X12410440Y5816600D02*
D03*
X14630400Y8940800D02*
D03*
X14452600Y8966200D02*
D03*
X14503400Y8788400D02*
D03*
X14274800Y8839200D02*
D03*
X17475200Y3881120D02*
D03*
X16200121Y6428740D02*
D03*
X16111220Y3670300D02*
D03*
X15499080Y3863340D02*
D03*
X15476221Y4137660D02*
D03*
X15788640Y4155440D02*
D03*
X15806419Y3637280D02*
D03*
X16080740Y3911600D02*
D03*
X16159480Y4122420D02*
D03*
X15725140Y3937000D02*
D03*
X15313660Y3992880D02*
D03*
X15201900Y4300220D02*
D03*
X17459959Y4919980D02*
D03*
X16144240Y7040880D02*
D03*
X17401540Y7863840D02*
D03*
X16377921Y7856220D02*
D03*
X15740379Y7241540D02*
D03*
X15443201Y7886700D02*
D03*
X12418060Y7912100D02*
D03*
X14234160Y7475220D02*
D03*
X14175740Y7945120D02*
D03*
X13982700Y8008620D02*
D03*
X13563600Y7904480D02*
D03*
X13111481Y7459980D02*
D03*
X14160500Y6918960D02*
D03*
X14765021Y6911340D02*
D03*
X13040359Y6154420D02*
D03*
X13581380Y6225540D02*
D03*
X13210539Y5041900D02*
D03*
X13789661Y4719320D02*
D03*
X14605000Y5008880D02*
D03*
X12966701Y3807460D02*
D03*
X13789661Y3629660D02*
D03*
X14556740Y3992880D02*
D03*
Y3548380D02*
D03*
X16870680Y7604760D02*
D03*
X16316960Y4991100D02*
D03*
X17284700Y4287520D02*
D03*
X16118840Y8935720D02*
D03*
X17414240Y3108960D02*
D03*
X16779240Y4368800D02*
D03*
X16817340Y4480560D02*
D03*
X16741141Y4871720D02*
D03*
X17002760Y3464560D02*
D03*
X16667480Y3423920D02*
D03*
X17035780Y5989320D02*
D03*
X15671800Y9447800D02*
D03*
X15897861Y9641840D02*
D03*
X14975841Y9507220D02*
D03*
X15519400Y8956040D02*
D03*
D81*
X10757533Y9942467D02*
D03*
X10657100Y9700000D02*
D03*
X10757533Y9457533D02*
D03*
X11000000Y9357100D02*
D03*
X11242467Y9457533D02*
D03*
X11342900Y9700000D02*
D03*
X11242467Y9942467D02*
D03*
X11000000Y10042900D02*
D03*
X10757533Y2842467D02*
D03*
X10657100Y2600000D02*
D03*
X10757533Y2357533D02*
D03*
X11000000Y2257100D02*
D03*
X11242467Y2357533D02*
D03*
X11342900Y2600000D02*
D03*
X11242467Y2842467D02*
D03*
X11000000Y2942900D02*
D03*
X18157533Y2842467D02*
D03*
X18057100Y2600000D02*
D03*
X18157533Y2357533D02*
D03*
X18400000Y2257100D02*
D03*
X18642467Y2357533D02*
D03*
X18742900Y2600000D02*
D03*
X18642467Y2842467D02*
D03*
X18400000Y2942900D02*
D03*
X18157533Y9942467D02*
D03*
X18057100Y9700000D02*
D03*
X18157533Y9457533D02*
D03*
X18400000Y9357100D02*
D03*
X18642467Y9457533D02*
D03*
X18742900Y9700000D02*
D03*
X18642467Y9942467D02*
D03*
X18400000Y10042900D02*
D03*
D82*
X15847060Y6433820D02*
D03*
X15356841Y5585460D02*
D03*
X15610840Y5173980D02*
D03*
X17487900Y9240520D02*
D03*
%TF.MD5,6f373037b6d08e61118c3708d561ef68*%
M02*
