%TF.GenerationSoftware,Altium Limited,Altium Designer,24.2.2 (26)*%
G04 Layer_Color=8388736*
%FSLAX45Y45*%
%MOMM*%
%TF.SameCoordinates,979FBE80-878B-4EC3-91C7-7055811A0E5A*%
%TF.FilePolarity,Positive*%
%TF.FileFunction,Other,Top_Courtyard*%
%TF.Part,Single*%
G01*
G75*
%TA.AperFunction,NonConductor*%
%ADD51C,0.20000*%
%ADD84C,0.05000*%
D51*
X16100989Y5040749D02*
X16192572D01*
Y5221962D01*
X16100989D02*
X16192572D01*
X16100989Y5040749D02*
Y5221962D01*
X16962660Y4146240D02*
Y4266240D01*
Y4146240D02*
X17202660D01*
Y4266240D01*
X16962660D02*
X17202660D01*
X15323749Y5256093D02*
X15415332D01*
Y5437307D01*
X15323749D02*
X15415332D01*
X15323749Y5256093D02*
Y5437307D01*
X16604620Y4339600D02*
X16684621D01*
Y4499600D01*
X16604620D02*
X16684621D01*
X16604620Y4339600D02*
Y4499600D01*
D84*
X16609500Y4772660D02*
X16664500D01*
X16637000Y4745160D02*
Y4800160D01*
X16592000Y4682660D02*
X16682001D01*
X16592000Y4862660D02*
X16682001D01*
X16592000Y4682660D02*
Y4862660D01*
X16682001Y4682660D02*
Y4862660D01*
X15964140Y8906600D02*
Y9076600D01*
X15664140Y8906600D02*
Y9076600D01*
Y8906600D02*
X15964140D01*
X15664140Y9076600D02*
X15964140D01*
X15764140Y8991600D02*
X15864140D01*
X15814140Y8941600D02*
Y9041600D01*
X16183701Y9167000D02*
X16353700D01*
X16183701Y8867000D02*
X16353700D01*
Y9167000D01*
X16183701Y8867000D02*
Y9167000D01*
X16268700Y8967000D02*
Y9067000D01*
X16218700Y9017000D02*
X16318700D01*
%TF.MD5,c7e4257b25bef8789fbff3d8d8940f2c*%
M02*
